<?xml version="1.0" encoding="UTF-8"?>
<!DOCTYPE svg PUBLIC "-//W3C//DTD SVG 1.1//EN" "http://www.w3.org/Graphics/SVG/1.1/DTD/svg11.dtd">
<!-- Creator: CorelDRAW 2021 (64 Bit) -->
<svg xmlns="http://www.w3.org/2000/svg" xml:space="preserve" width="206.634mm" height="52.3174mm" version="1.1" style="shape-rendering:geometricPrecision; text-rendering:geometricPrecision; image-rendering:optimizeQuality; fill-rule:evenodd; clip-rule:evenodd"
viewBox="0 0 2724.31 689.76"
 xmlns:xlink="http://www.w3.org/1999/xlink"
 xmlns:xodm="http://www.corel.com/coreldraw/odm/2003">
 <defs>
  <style type="text/css">
   <![CDATA[
    .fil1 {fill:#FEFEFE}
    .fil0 {fill:#5E5088}
   ]]>
  </style>
 </defs>
 <g id="Camada_x0020_1">
  <metadata id="CorelCorpID_0Corel-Layer"/>
  <g id="_2306381059472">
   <path class="fil0" d="M689.76 574.8c0,63.23 -51.73,114.96 -114.96,114.96l-459.84 0c-63.23,0 -114.96,-51.73 -114.96,-114.96l0 -459.84c0,-63.23 51.73,-114.96 114.96,-114.96l459.84 0c63.23,0 114.96,51.73 114.96,114.96l0 459.84z"/>
   <path class="fil1" d="M257.87 494.78l124.54 0c21.41,0 38.09,-5.52 49.82,-16.68 11.83,-11.05 17.81,-26.83 17.81,-47.11 0,-19.95 -5.86,-35.16 -17.81,-45.98 -11.95,-10.82 -28.4,-16 -49.82,-16l-124.54 0 0 125.78zm0 -176.38l114.96 0c16.9,0 30.99,-4.73 42.26,-14.42 11.27,-9.69 16.91,-23.44 16.91,-41.48 0,-20.29 -5.07,-34.6 -15.22,-42.83 -10.14,-8.23 -24.79,-12.4 -43.95,-12.4l-114.96 0 0 111.13zm-70.44 -168.5l195.55 0c36.06,0 65.03,8.23 86.78,24.8 21.75,16.57 32.68,41.48 32.68,74.95 0,20.29 -4.96,37.64 -14.88,52.07 -9.92,14.42 -24.12,25.7 -42.6,33.58l0 1.13c24.8,5.3 43.62,17.02 56.35,35.16 12.74,18.26 19.16,41.03 19.16,68.53 0,15.78 -2.82,30.54 -8.45,44.18 -5.63,13.75 -14.43,25.58 -26.49,35.5 -12.06,9.92 -27.39,17.81 -46.21,23.67 -18.82,5.86 -41.14,8.79 -67.06,8.79l-184.84 0 0 -402.36z"/>
   <path class="fil0" d="M883.25 458.92l80.57 0c13.83,0 23.54,-0.52 29.14,-1.55 9.86,-1.77 18.1,-4.71 24.73,-8.83 6.62,-4.12 12.06,-10.12 16.33,-17.99 4.27,-7.88 6.4,-16.96 6.4,-27.27 0,-12.06 -3.09,-22.55 -9.27,-31.46 -6.18,-8.9 -14.75,-15.15 -25.72,-18.76 -10.96,-3.6 -26.75,-5.41 -47.35,-5.41l-74.84 0 0 111.26zm0 -149.45l69.98 0c18.99,0 32.59,-1.25 40.84,-3.75 10.89,-3.23 19.1,-8.61 24.61,-16.12 5.52,-7.51 8.28,-16.92 8.28,-28.26 0,-10.74 -2.58,-20.2 -7.73,-28.37 -5.16,-8.17 -12.51,-13.76 -22.08,-16.78 -9.57,-3.01 -25.98,-4.52 -49.23,-4.52l-64.68 0 0 97.79zm-42.83 187.64l0 -323.62 121.41 0c24.72,0 44.55,3.28 59.49,9.82 14.94,6.55 26.63,16.63 35.1,30.24 8.46,13.62 12.69,27.85 12.69,42.72 0,13.83 -3.75,26.86 -11.26,39.07 -7.51,12.22 -18.84,22.08 -34,29.58 19.57,5.74 34.62,15.53 45.14,29.36 10.52,13.83 15.78,30.17 15.78,49.01 0,15.16 -3.2,29.25 -9.6,42.28 -6.4,13.02 -14.31,23.07 -23.73,30.13 -9.42,7.06 -21.23,12.4 -35.43,16 -14.2,3.61 -31.61,5.41 -52.21,5.41l-123.4 0z"/>
   <path class="fil0" d="M1164.71 379.89c0,30.02 6.55,52.5 19.64,67.44 13.1,14.94 29.58,22.41 49.45,22.41 19.72,0 36.13,-7.5 49.23,-22.52 13.1,-15.01 19.65,-37.89 19.65,-68.65 0,-28.99 -6.59,-50.95 -19.76,-65.89 -13.17,-14.94 -29.55,-22.41 -49.12,-22.41 -19.87,0 -36.35,7.43 -49.45,22.3 -13.1,14.87 -19.64,37.31 -19.64,67.33zm-40.84 0c0,-43.41 12.06,-75.57 36.2,-96.47 20.16,-17.36 44.73,-26.05 73.73,-26.05 32.23,0 58.57,10.56 79.03,31.68 20.45,21.12 30.68,50.3 30.68,87.53 0,30.17 -4.52,53.9 -13.58,71.19 -9.05,17.29 -22.22,30.72 -39.51,40.28 -17.3,9.57 -36.17,14.35 -56.62,14.35 -32.82,0 -59.35,-10.52 -79.58,-31.57 -20.24,-21.04 -30.35,-51.36 -30.35,-90.95z"/>
   <path class="fil0" d="M1416.14 379.89c0,30.02 6.55,52.5 19.64,67.44 13.1,14.94 29.58,22.41 49.45,22.41 19.72,0 36.13,-7.5 49.23,-22.52 13.1,-15.01 19.65,-37.89 19.65,-68.65 0,-28.99 -6.59,-50.95 -19.76,-65.89 -13.17,-14.94 -29.55,-22.41 -49.12,-22.41 -19.86,0 -36.35,7.43 -49.45,22.3 -13.1,14.87 -19.64,37.31 -19.64,67.33zm-40.84 0c0,-43.41 12.06,-75.57 36.2,-96.47 20.16,-17.36 44.73,-26.05 73.73,-26.05 32.23,0 58.57,10.56 79.03,31.68 20.45,21.12 30.68,50.3 30.68,87.53 0,30.17 -4.52,53.9 -13.58,71.19 -9.05,17.29 -22.22,30.72 -39.51,40.28 -17.29,9.57 -36.17,14.35 -56.62,14.35 -32.82,0 -59.35,-10.52 -79.58,-31.57 -20.24,-21.04 -30.35,-51.36 -30.35,-90.95z"/>
   <path class="fil0" d="M1728.28 461.57l5.74 35.1c-11.19,2.35 -21.19,3.53 -30.02,3.53 -14.42,0 -25.61,-2.28 -33.56,-6.84 -7.95,-4.56 -13.54,-10.56 -16.78,-17.99 -3.24,-7.43 -4.86,-23.07 -4.86,-46.91l0 -134.88 -29.14 0 0 -30.91 29.14 0 0 -58.06 39.52 -23.84 0 81.9 39.96 0 0 30.91 -39.96 0 0 137.09c0,11.34 0.7,18.62 2.1,21.86 1.39,3.24 3.68,5.82 6.84,7.72 3.16,1.91 7.69,2.87 13.57,2.87 4.42,0 10.23,-0.51 17.44,-1.55z"/>
   <path class="fil0" d="M1751.24 427.13l39.29 -6.18c2.21,15.75 8.35,27.82 18.43,36.21 10.08,8.39 24.17,12.58 42.27,12.58 18.24,0 31.79,-3.72 40.62,-11.15 8.83,-7.43 13.25,-16.15 13.25,-26.16 0,-8.98 -3.9,-16.04 -11.7,-21.19 -5.45,-3.53 -18.99,-8.02 -40.62,-13.47 -29.14,-7.36 -49.34,-13.72 -60.59,-19.1 -11.26,-5.37 -19.8,-12.8 -25.61,-22.3 -5.82,-9.49 -8.72,-19.97 -8.72,-31.45 0,-10.45 2.39,-20.12 7.17,-29.03 4.78,-8.9 11.29,-16.3 19.54,-22.18 6.18,-4.56 14.61,-8.42 25.28,-11.59 10.67,-3.16 22.11,-4.75 34.33,-4.75 18.39,0 34.55,2.65 48.45,7.95 13.91,5.3 24.17,12.47 30.8,21.52 6.62,9.05 11.18,21.16 13.69,36.31l-38.85 5.3c-1.76,-12.06 -6.88,-21.49 -15.34,-28.26 -8.46,-6.77 -20.42,-10.15 -35.87,-10.15 -18.25,0 -31.27,3.02 -39.07,9.05 -7.8,6.04 -11.7,13.1 -11.7,21.19 0,5.15 1.62,9.79 4.86,13.91 3.23,4.27 8.31,7.8 15.23,10.6 3.98,1.47 15.67,4.85 35.1,10.15 28.11,7.51 47.72,13.65 58.83,18.43 11.11,4.79 19.83,11.74 26.16,20.86 6.33,9.13 9.49,20.46 9.49,34 0,13.25 -3.86,25.72 -11.59,37.42 -7.73,11.7 -18.88,20.75 -33.45,27.16 -14.57,6.4 -31.05,9.6 -49.45,9.6 -30.46,0 -53.68,-6.33 -69.65,-18.99 -15.96,-12.66 -26.15,-31.42 -30.57,-56.29z"/>
   <path class="fil0" d="M2079.94 461.57l5.74 35.1c-11.18,2.35 -21.19,3.53 -30.02,3.53 -14.42,0 -25.61,-2.28 -33.56,-6.84 -7.95,-4.56 -13.54,-10.56 -16.78,-17.99 -3.24,-7.43 -4.86,-23.07 -4.86,-46.91l0 -134.88 -29.14 0 0 -30.91 29.14 0 0 -58.06 39.52 -23.84 0 81.9 39.95 0 0 30.91 -39.95 0 0 137.09c0,11.34 0.69,18.62 2.1,21.86 1.4,3.24 3.68,5.82 6.84,7.72 3.16,1.91 7.69,2.87 13.58,2.87 4.41,0 10.23,-0.51 17.44,-1.55z"/>
   <path class="fil0" d="M2118.35 497.11l0 -234.44 35.76 0 0 35.54c9.12,-16.63 17.55,-27.59 25.28,-32.89 7.73,-5.3 16.22,-7.95 25.5,-7.95 13.39,0 27.01,4.27 40.84,12.8l-13.69 36.86c-9.71,-5.74 -19.43,-8.61 -29.14,-8.61 -8.69,-0 -16.48,2.61 -23.4,7.83 -6.92,5.23 -11.85,12.47 -14.79,21.75 -4.41,14.13 -6.62,29.58 -6.62,46.36l0 122.74 -39.73 0z"/>
   <path class="fil0" d="M2419.01 379.45c-14.42,5.89 -36.06,10.89 -64.9,15.01 -16.34,2.35 -27.89,5 -34.66,7.95 -6.77,2.94 -12,7.25 -15.67,12.91 -3.68,5.67 -5.52,11.96 -5.52,18.88 0,10.59 4.01,19.43 12.03,26.49 8.02,7.07 19.76,10.59 35.21,10.59 15.31,0 28.92,-3.35 40.84,-10.05 11.92,-6.69 20.67,-15.85 26.27,-27.48 4.27,-8.97 6.4,-22.22 6.4,-39.73l0 -14.57zm3.31 88.74c-14.72,12.51 -28.88,21.34 -42.5,26.49 -13.61,5.15 -28.22,7.73 -43.82,7.73 -25.75,0 -45.55,-6.29 -59.38,-18.87 -13.84,-12.59 -20.75,-28.66 -20.75,-48.24 0,-11.48 2.61,-21.96 7.84,-31.46 5.22,-9.49 12.07,-17.11 20.53,-22.85 8.46,-5.74 17.99,-10.08 28.58,-13.02 7.8,-2.06 19.57,-4.05 35.32,-5.96 32.08,-3.83 55.7,-8.39 70.86,-13.69 0.15,-5.44 0.22,-8.9 0.22,-10.38 0,-16.19 -3.75,-27.59 -11.26,-34.21 -10.15,-8.98 -25.24,-13.47 -45.25,-13.47 -18.69,0 -32.49,3.28 -41.39,9.82 -8.91,6.55 -15.49,18.14 -19.76,34.77l-38.85 -5.3c3.53,-16.63 9.34,-30.06 17.44,-40.29 8.09,-10.23 19.79,-18.1 35.1,-23.62 15.31,-5.52 33.04,-8.28 53.2,-8.28 20.01,0 36.28,2.36 48.78,7.06 12.51,4.71 21.71,10.63 27.6,17.77 5.88,7.14 10.01,16.15 12.36,27.04 1.33,6.77 1.99,18.99 1.99,36.64l0 52.98c0,36.94 0.85,60.3 2.54,70.09 1.69,9.79 5.04,19.17 10.04,28.14l-41.5 0c-4.12,-8.24 -6.77,-17.88 -7.95,-28.92z"/>
   <path class="fil0" d="M2556.77 381.22c0,30.17 6.1,52.46 18.32,66.89 12.22,14.42 27.01,21.63 44.37,21.63 17.66,0 32.78,-7.47 45.36,-22.41 12.59,-14.94 18.88,-38.08 18.88,-69.43 0,-29.87 -6.15,-52.24 -18.43,-67.11 -12.29,-14.86 -26.97,-22.29 -44.04,-22.29 -16.92,0 -31.9,7.91 -44.92,23.73 -13.02,15.82 -19.54,38.82 -19.54,68.99zm-35.98 205.74l0 -324.28 36.2 0 0 30.46c8.53,-11.92 18.17,-20.86 28.92,-26.82 10.74,-5.96 23.76,-8.94 39.07,-8.94 20.01,0 37.67,5.15 52.98,15.45 15.31,10.3 26.85,24.83 34.66,43.6 7.8,18.76 11.7,39.33 11.7,61.7 0,23.99 -4.3,45.58 -12.91,64.79 -8.61,19.2 -21.12,33.92 -37.53,44.15 -16.41,10.22 -33.67,15.34 -51.77,15.34 -13.24,0 -25.13,-2.8 -35.65,-8.39 -10.52,-5.59 -19.17,-12.66 -25.94,-21.19l0 114.13 -39.74 0z"/>
  </g>
 </g>
</svg>
