<?xml version="1.0" encoding="UTF-8"?>
<!DOCTYPE svg PUBLIC "-//W3C//DTD SVG 1.1//EN" "http://www.w3.org/Graphics/SVG/1.1/DTD/svg11.dtd">
<!-- Creator: CorelDRAW 2021 (64 Bit) -->
<svg xmlns="http://www.w3.org/2000/svg" xml:space="preserve" width="76.0298mm" height="82.9247mm" version="1.1" style="shape-rendering:geometricPrecision; text-rendering:geometricPrecision; image-rendering:optimizeQuality; fill-rule:evenodd; clip-rule:evenodd"
viewBox="0 0 286.91 312.93"
 xmlns:xlink="http://www.w3.org/1999/xlink"
 xmlns:xodm="http://www.corel.com/coreldraw/odm/2003">
 <defs>
  <style type="text/css">
   <![CDATA[
    .fil0 {fill:#61DAFB;fill-rule:nonzero}
   ]]>
  </style>
 </defs>
 <g id="Camada_x0020_1">
  <metadata id="CorelCorpID_0Corel-Layer"/>
  <g id="_2305151089120">
   <path class="fil0" d="M283.45 126.05c0,-18.75 -23.48,-36.52 -59.48,-47.53 8.31,-36.69 4.62,-65.88 -11.65,-75.22 -3.75,-2.19 -8.13,-3.23 -12.92,-3.23l0 12.86c2.65,0 4.79,0.52 6.58,1.5 7.85,4.5 11.25,21.63 8.59,43.67 -0.63,5.42 -1.67,11.13 -2.94,16.96 -11.31,-2.77 -23.65,-4.9 -36.63,-6.29 -7.79,-10.67 -15.86,-20.36 -24,-28.84 18.81,-17.48 36.46,-27.06 48.46,-27.06l0 -12.86c-15.87,0 -36.63,11.31 -57.63,30.92 -21,-19.5 -41.77,-30.69 -57.63,-30.69l0 12.86c11.94,0 29.65,9.52 48.46,26.88 -8.08,8.48 -16.15,18.11 -23.83,28.79 -13.04,1.38 -25.38,3.52 -36.69,6.35 -1.33,-5.77 -2.31,-11.36 -3,-16.73 -2.71,-22.04 0.63,-39.17 8.42,-43.73 1.73,-1.04 3.98,-1.5 6.63,-1.5l0 -12.86c-4.85,0 -9.23,1.04 -13.04,3.23 -16.21,9.35 -19.84,38.48 -11.48,75.05 -35.88,11.08 -59.24,28.79 -59.24,47.48 0,18.75 23.48,36.52 59.48,47.53 -8.31,36.69 -4.62,65.88 11.65,75.22 3.75,2.19 8.13,3.23 12.98,3.23 15.86,0 36.63,-11.31 57.63,-30.92 21,19.5 41.77,30.69 57.63,30.69 4.85,0 9.23,-1.04 13.04,-3.23 16.21,-9.35 19.84,-38.48 11.48,-75.05 35.77,-11.02 59.13,-28.79 59.13,-47.48l0 0zm-75.11 -38.48c-2.13,7.44 -4.79,15.11 -7.79,22.79 -2.36,-4.61 -4.85,-9.23 -7.56,-13.85 -2.65,-4.61 -5.48,-9.11 -8.31,-13.5 8.19,1.21 16.09,2.71 23.65,4.56zm-26.42 61.44c-4.5,7.79 -9.11,15.17 -13.9,22.04 -8.6,0.75 -17.31,1.15 -26.07,1.15 -8.71,0 -17.42,-0.4 -25.96,-1.1 -4.79,-6.87 -9.46,-14.19 -13.96,-21.92 -4.38,-7.56 -8.36,-15.23 -12,-22.96 3.58,-7.73 7.61,-15.46 11.94,-23.02 4.5,-7.79 9.11,-15.17 13.9,-22.04 8.6,-0.75 17.31,-1.15 26.07,-1.15 8.71,0 17.42,0.4 25.96,1.1 4.79,6.86 9.46,14.19 13.96,21.92 4.38,7.56 8.36,15.23 12,22.96 -3.64,7.73 -7.61,15.46 -11.94,23.02l0 -0zm18.63 -7.5c3.03,7.51 5.69,15.21 7.95,22.97 -7.56,1.85 -15.52,3.4 -23.77,4.62 2.83,-4.44 5.65,-9 8.31,-13.67 2.65,-4.61 5.13,-9.29 7.5,-13.9l0.01 -0.01zm-58.5 61.55c-5.36,-5.54 -10.73,-11.71 -16.04,-18.46 5.19,0.23 10.5,0.4 15.86,0.4 5.42,0 10.79,-0.12 16.04,-0.4 -4.94,6.4 -10.24,12.61 -15.85,18.47l-0.01 -0.01zm-42.68 -33.96c-8.19,-1.21 -16.09,-2.71 -23.65,-4.56 2.13,-7.44 4.79,-15.11 7.79,-22.79 2.37,4.62 4.85,9.23 7.56,13.85 2.71,4.62 5.48,9.11 8.31,13.5zm42.1 -119.96c5.36,5.54 10.74,11.7 16.04,18.45 -5.19,-0.23 -10.5,-0.4 -15.86,-0.4 -5.42,0 -10.79,0.12 -16.04,0.4 4.91,-6.4 15.86,-18.45 15.86,-18.45l0 0zm-42.4 33.87c-2.83,4.44 -5.65,9 -8.31,13.67 -2.65,4.62 -5.13,9.23 -7.5,13.85 -3.03,-7.47 -5.71,-15.22 -7.97,-22.97 7.56,-1.79 15.52,-3.35 23.77,-4.56l0.01 0.01zm-52.21 72.23c-20.42,-8.71 -33.63,-20.13 -33.63,-29.19 0,-9.06 13.21,-20.54 33.63,-29.19 4.96,-2.13 10.38,-4.04 15.98,-5.83 3.29,11.31 7.61,23.07 12.98,35.13 -5.31,12 -9.58,23.71 -12.81,34.96 -5.71,-1.79 -11.13,-3.75 -16.15,-5.88l0 0zm31.04 82.44c-7.85,-4.5 -11.25,-21.63 -8.59,-43.67 0.63,-5.42 1.67,-11.13 2.94,-16.96 11.31,2.77 23.65,4.9 36.63,6.29 7.79,10.67 15.86,20.36 24,28.84 -18.81,17.48 -36.46,27.06 -48.46,27.06 -2.6,-0.06 -4.79,-0.58 -6.52,-1.56l-0 0zm136.84 -43.96c2.71,22.04 -0.63,39.17 -8.42,43.73 -1.73,1.04 -3.98,1.5 -6.63,1.5 -11.94,0 -29.65,-9.52 -48.46,-26.88 8.08,-8.48 16.15,-18.11 23.83,-28.79 13.04,-1.38 25.38,-3.52 36.69,-6.34 1.33,5.83 2.37,11.42 3,16.79l0 0zm22.21 -38.48c-4.96,2.14 -10.38,4.04 -15.98,5.83 -3.29,-11.31 -7.61,-23.07 -12.98,-35.13 5.31,-12 9.58,-23.71 12.81,-34.96 5.71,1.79 11.13,3.75 16.21,5.88 20.42,8.71 33.63,20.13 33.63,29.19 -0.06,9.06 -13.27,20.54 -33.69,29.19l0 0z"/>
   <path class="fil0" d="M142.21 152.41c14.56,0 26.36,-11.8 26.36,-26.36 0,-14.56 -11.8,-26.36 -26.36,-26.36 -14.56,0 -26.36,11.8 -26.36,26.36 0,14.56 11.8,26.36 26.36,26.36zm-128.6 145.02l-8.7 0 0 14.99 -4.91 0 0 -37.05 12.27 0c4.17,0 7.38,0.95 9.62,2.85 2.26,1.9 3.38,4.66 3.38,8.29 0,2.31 -0.63,4.32 -1.88,6.03 -1.24,1.71 -2.97,2.99 -5.19,3.84l8.7 15.73 0 0.31 -5.24 0 -8.04 -14.99zm-8.7 -4l7.51 0c2.43,0 4.35,-0.63 5.78,-1.88 1.44,-1.26 2.16,-2.93 2.16,-5.04 0,-2.29 -0.69,-4.05 -2.06,-5.27 -1.36,-1.22 -3.32,-1.84 -5.9,-1.86l-7.48 0 0 14.05zm37.92 19.49c-3.73,0 -6.77,-1.22 -9.11,-3.66 -2.34,-2.46 -3.51,-5.74 -3.51,-9.85l0 -0.87c0,-2.73 0.52,-5.16 1.55,-7.3 1.05,-2.16 2.51,-3.84 4.38,-5.04 1.88,-1.22 3.92,-1.83 6.11,-1.83 3.58,0 6.36,1.18 8.35,3.54 1.99,2.36 2.98,5.73 2.98,10.13l0 1.96 -18.65 0c0.07,2.72 0.86,4.91 2.37,6.59 1.53,1.66 3.46,2.49 5.8,2.49 1.66,0 3.07,-0.34 4.22,-1.02 1.15,-0.68 2.16,-1.58 3.03,-2.7l2.88 2.24c-2.31,3.54 -5.77,5.32 -10.38,5.32l0 0zm-0.59 -24.68c-1.9,0 -3.49,0.7 -4.78,2.09 -1.29,1.38 -2.09,3.31 -2.39,5.8l13.79 0 0 -0.36c-0.14,-2.39 -0.78,-4.24 -1.93,-5.55 -1.15,-1.32 -2.72,-1.98 -4.68,-1.98zm33.79 24.17c-0.27,-0.54 -0.49,-1.51 -0.66,-2.9 -2.19,2.27 -4.8,3.41 -7.84,3.41 -2.71,0 -4.94,-0.76 -6.69,-2.29 -1.73,-1.54 -2.6,-3.49 -2.6,-5.85 0,-2.87 1.09,-5.09 3.26,-6.67 2.19,-1.6 5.26,-2.39 9.21,-2.39l4.58 0 0 -2.16c0,-1.65 -0.49,-2.95 -1.48,-3.92 -0.98,-0.98 -2.44,-1.48 -4.35,-1.48 -1.68,0 -3.09,0.42 -4.22,1.27 -1.14,0.85 -1.71,1.87 -1.71,3.08l-4.73 0c0,-1.37 0.48,-2.7 1.45,-3.97 0.98,-1.29 2.31,-2.31 3.97,-3.05 1.68,-0.75 3.52,-1.12 5.52,-1.12 3.17,0 5.66,0.8 7.46,2.39 1.8,1.58 2.73,3.76 2.8,6.54l0 12.67c0,2.53 0.32,4.54 0.97,6.03l0 0.41 -4.94 0zm-7.81 -3.59c1.48,0 2.88,-0.38 4.2,-1.15 1.32,-0.76 2.28,-1.76 2.88,-2.98l0 -5.65 -3.69 0c-5.77,0 -8.65,1.69 -8.65,5.06 0,1.48 0.49,2.63 1.48,3.46 0.98,0.83 2.25,1.25 3.79,1.25zm30.2 0.25c1.68,0 3.15,-0.51 4.4,-1.53 1.26,-1.02 1.95,-2.29 2.09,-3.82l4.45 -0c-0.09,1.58 -0.63,3.08 -1.63,4.5 -1,1.43 -2.34,2.56 -4.02,3.41 -1.66,0.85 -3.43,1.27 -5.29,1.27 -3.75,0 -6.73,-1.25 -8.96,-3.74 -2.2,-2.51 -3.31,-5.94 -3.31,-10.28l0 -0.79c0,-2.68 0.49,-5.06 1.48,-7.15 0.98,-2.09 2.39,-3.71 4.22,-4.86 1.85,-1.15 4.03,-1.73 6.54,-1.73 3.09,0 5.65,0.92 7.69,2.77 2.05,1.85 3.15,4.25 3.28,7.2l-4.45 0c-0.14,-1.78 -0.81,-3.24 -2.04,-4.38 -1.2,-1.15 -2.7,-1.73 -4.48,-1.73 -2.39,0 -4.25,0.86 -5.57,2.6 -1.31,1.71 -1.96,4.2 -1.96,7.46l0 0.89c0,3.17 0.65,5.62 1.96,7.33 1.31,1.71 3.17,2.57 5.6,2.57l0 0zm22.62 -30.87l0 6.67 5.14 0 0 3.64 -5.14 0 0 17.07c0,1.1 0.23,1.93 0.69,2.49 0.46,0.54 1.24,0.82 2.34,0.82 0.54,0 1.29,-0.1 2.24,-0.31l0 3.82c-1.24,0.34 -2.44,0.51 -3.61,0.51 -2.1,0 -3.69,-0.64 -4.76,-1.91 -1.07,-1.27 -1.6,-3.08 -1.6,-5.42l0 -17.07 -5.01 0 0 -3.64 5.01 0 0 -6.67 4.71 0zm52.8 34.2l-4.91 0 -18.65 -28.55 0 28.55 -4.91 0 0 -37.05 4.91 0 18.7 28.68 0 -28.68 4.86 0 0 37.05zm24.94 0c-0.27,-0.54 -0.49,-1.51 -0.66,-2.9 -2.19,2.27 -4.8,3.41 -7.84,3.41 -2.71,0 -4.95,-0.76 -6.69,-2.29 -1.73,-1.54 -2.6,-3.49 -2.6,-5.85 0,-2.87 1.08,-5.09 3.26,-6.67 2.19,-1.6 5.26,-2.39 9.21,-2.39l4.58 0 0 -2.16c0,-1.65 -0.49,-2.95 -1.48,-3.92 -0.98,-0.98 -2.43,-1.48 -4.35,-1.48 -1.68,0 -3.09,0.42 -4.22,1.27 -1.14,0.85 -1.71,1.87 -1.71,3.08l-4.73 0c0,-1.37 0.48,-2.7 1.45,-3.97 0.98,-1.29 2.31,-2.31 3.97,-3.05 1.68,-0.75 3.52,-1.12 5.52,-1.12 3.17,0 5.66,0.8 7.46,2.39 1.8,1.58 2.73,3.76 2.8,6.54l0 12.67c0,2.53 0.32,4.54 0.97,6.03l0 0.41 -4.94 0zm-7.81 -3.59c1.48,0 2.88,-0.38 4.2,-1.15 1.32,-0.76 2.28,-1.76 2.88,-2.98l0 -5.65 -3.69 0c-5.77,0 -8.65,1.69 -8.65,5.06 0,1.48 0.49,2.63 1.48,3.46 0.98,0.83 2.25,1.25 3.79,1.25zm25.55 -30.61l0 6.67 5.14 0 0 3.64 -5.14 0 0 17.07c0,1.1 0.23,1.93 0.69,2.49 0.46,0.54 1.24,0.82 2.34,0.82 0.54,0 1.29,-0.1 2.24,-0.31l0 3.82c-1.24,0.34 -2.44,0.51 -3.61,0.51 -2.1,0 -3.69,-0.64 -4.76,-1.91 -1.07,-1.27 -1.6,-3.08 -1.6,-5.42l0 -17.07 -5.01 0 0 -3.64 5.01 0 0 -6.67 4.71 0zm15.78 34.2l-4.71 0 0 -27.53 4.71 0 0 27.53zm-5.09 -34.84c0,-0.76 0.23,-1.41 0.69,-1.93 0.47,-0.53 1.17,-0.79 2.09,-0.79 0.92,0 1.61,0.26 2.09,0.79 0.47,0.53 0.71,1.17 0.71,1.93 0,0.76 -0.24,1.4 -0.71,1.91 -0.47,0.51 -1.17,0.76 -2.09,0.76 -0.92,0 -1.61,-0.26 -2.09,-0.76 -0.46,-0.51 -0.69,-1.15 -0.69,-1.91zm21.73 28.45l6.82 -21.15 4.81 0 -9.87 27.53 -3.59 0 -9.97 -27.53 4.81 0 7 21.15zm27.23 6.9c-3.73,0 -6.77,-1.22 -9.11,-3.66 -2.34,-2.46 -3.51,-5.74 -3.51,-9.85l0 -0.87c0,-2.73 0.52,-5.16 1.55,-7.3 1.05,-2.16 2.51,-3.84 4.38,-5.04 1.88,-1.22 3.92,-1.83 6.11,-1.83 3.58,0 6.36,1.18 8.35,3.54 1.98,2.36 2.98,5.73 2.98,10.13l0 1.96 -18.65 0c0.07,2.72 0.86,4.91 2.37,6.59 1.53,1.66 3.46,2.49 5.8,2.49 1.66,0 3.07,-0.34 4.22,-1.02 1.15,-0.68 2.16,-1.58 3.03,-2.7l2.88 2.24c-2.31,3.54 -5.77,5.32 -10.38,5.32l0 0zm-0.59 -24.68c-1.9,0 -3.49,0.7 -4.78,2.09 -1.29,1.38 -2.09,3.31 -2.39,5.8l13.79 0 0 -0.36c-0.14,-2.39 -0.78,-4.24 -1.93,-5.55 -1.15,-1.32 -2.71,-1.98 -4.68,-1.98z"/>
  </g>
 </g>
</svg>
