<?xml version="1.0" encoding="UTF-8"?>
<!DOCTYPE svg PUBLIC "-//W3C//DTD SVG 1.1//EN" "http://www.w3.org/Graphics/SVG/1.1/DTD/svg11.dtd">
<!-- Creator: CorelDRAW 2021 (64 Bit) -->
<svg xmlns="http://www.w3.org/2000/svg" xml:space="preserve" width="354.189mm" height="88.1944mm" version="1.1" style="shape-rendering:geometricPrecision; text-rendering:geometricPrecision; image-rendering:optimizeQuality; fill-rule:evenodd; clip-rule:evenodd"
viewBox="0 0 8878.67 2210.82"
 xmlns:xlink="http://www.w3.org/1999/xlink"
 xmlns:xodm="http://www.corel.com/coreldraw/odm/2003">
 <defs>
  <style type="text/css">
   <![CDATA[
    .fil0 {fill:#3178C6}
   ]]>
  </style>
 </defs>
 <g id="Camada_x0020_1">
  <metadata id="CorelCorpID_0Corel-Layer"/>
  <path class="fil0" d="M128.35 0l8621.97 0c70.6,0 128.35,57.76 128.35,128.35l0 1954.12c0,70.6 -57.76,128.35 -128.35,128.35l-8621.97 0c-70.6,0 -128.35,-57.76 -128.35,-128.35l0 -1954.12c0,-70.6 57.76,-128.35 128.35,-128.35zm4032.5 1079.07c293.18,-52.12 290.01,462.44 62.71,505.68 -149.66,28.47 -226.31,-81.37 -227.04,-217 -0.8,-148.36 27.41,-264.34 164.33,-288.68zm3054.78 -314.48c80.23,-41.42 38.31,-121.96 -24.27,-111.61 -64.04,10.59 -67.91,112.73 24.27,111.61zm-53.06 939l70.79 0 0.03 -751.73 -70.86 0 0.05 751.73zm-392.38 -608.04l-1.26 -140.91 -66.18 -7.25 -0.07 756.19 66.5 -2.15c-0.1,-137.75 -13.23,-372.47 12.82,-493.66 27.82,-129.39 117.02,-262.31 274.5,-190.61l-1.38 -71.41c-210.66,-54.97 -252.91,116.56 -284.93,149.79zm1307.63 -77.29l129.28 0.03c0,165.35 -3.79,335.11 0.1,499.91 3.82,161.91 96.49,251.9 257.52,180.38 9.9,-25.49 8.14,-29.35 3.93,-63.04 -176.49,85.58 -194.25,-31.36 -194.02,-188.41 0.21,-142.95 0.02,-285.92 -0.01,-428.87l194.47 0.11 2.29 -60.96 -195.77 0.01 -1.84 -216.12 -65.73 21.51 -4.72 194.58 -130.94 0.05 5.44 60.8zm-1466.83 589.12c-44.14,7.57 -184.15,104.1 -333.47,17.6 -85.01,-49.25 -141.82,-153.47 -140.49,-292.86 2.57,-270.13 220.75,-420.53 477.31,-288.42l0 -76.37c-161.24,-44.84 -265.06,-53.39 -397.15,38.65 -87.64,61.08 -158.77,196.25 -150.6,361.94 12.07,244.75 179.42,377.8 404.34,349.46 162.5,-20.48 140.07,-60.18 140.07,-110.01zm-1190.6 -22.1l0.55 82.96c88.98,30.02 154.12,58.27 265.14,52.23 214.42,-11.67 327.29,-166.14 284.02,-335.89 -62.34,-244.58 -480.24,-248.93 -467.33,-502.52 4.83,-94.83 63.79,-148.75 144.77,-171.6 106.7,-30.11 195.61,2.25 285.8,28.14l1.35 -60.83c-30.37,-49.95 -209.87,-48.38 -269.06,-37.65 -201.44,36.51 -289.42,223.8 -213,376.71 32.94,65.9 106.48,115.17 171.84,155.49 113.06,69.75 343.47,161.83 264.99,363.89 -26.69,68.71 -109.7,111.13 -203.26,117.2 -127.02,8.24 -174.07,-27.2 -265.82,-68.13zm2258.46 -581.9c189.24,-38.13 294.61,92.92 305.08,266.51 30.75,510.32 -512.3,490.51 -520.63,115.83 -4.54,-204.17 38.33,-346.63 215.55,-382.34zm-217.79 575.31c42.38,43.09 69.57,102.1 157.59,128.99 452.92,138.37 581.97,-643.11 227.48,-758.38 -244.92,-79.64 -355.73,121.06 -385.74,147.37l-0.95 -142.32 -66.95 -1.38 0.02 1096.14 67.37 -3.97 1.18 -466.47zm-5132.46 -779.27l298.4 0 0.03 904.02 174.72 -0.94 0.52 -903.08 300.63 0.01 1.7 -148.23 -779.65 0 3.65 148.22zm2499.96 452.54c16.04,-103.86 68.3,-188.86 176.56,-193.35 119.26,-4.95 162.94,80.19 167.61,193.92l-344.17 -0.57zm444.88 272.48c-93.62,41.43 -165.58,90.86 -297.74,57.73 -96.92,-24.3 -144.13,-95.51 -156.61,-207.96l510.72 0c20.76,-208.28 -53.83,-385.43 -221.84,-428.37 -464.32,-118.67 -568.83,518.32 -342,695.79 173.08,135.43 350.23,73 507.27,19.97l0.2 -137.16zm-2035.97 116c30.38,74.97 22.91,65.26 -6.8,137.38 -48.66,118.09 -82.88,154.38 -236.15,130.77l-0.48 141.03c328.47,41.1 374.99,-192.89 470.26,-436.22 55.07,-140.66 221.69,-548.15 256.63,-660.24 -208.59,-7.96 -164.61,-21.42 -221.92,146.63l-152.83 449.57c-23.61,-65.47 -173.85,-588.55 -207.32,-597.48l-174.68 2.23 273.29 686.34zm761.44 -44.02c33.63,25.18 143.04,206.54 382.07,84.9 113.24,-57.63 179.28,-197.18 181.65,-366.8 4.58,-328.32 -228.95,-437.21 -419.91,-358.43 -58.47,24.13 -112.02,76.35 -143.29,124.57l-0.56 -128.79 -170.28 0 0.05 1096.62 170.27 0 0.01 -452.06z"/>
 </g>
</svg>
