<?xml version="1.0" encoding="UTF-8"?>
<!DOCTYPE svg PUBLIC "-//W3C//DTD SVG 1.1//EN" "http://www.w3.org/Graphics/SVG/1.1/DTD/svg11.dtd">
<!-- Creator: CorelDRAW 2021 (64 Bit) -->
<svg xmlns="http://www.w3.org/2000/svg" xml:space="preserve" width="281.494mm" height="74.6053mm" version="1.1" style="shape-rendering:geometricPrecision; text-rendering:geometricPrecision; image-rendering:optimizeQuality; fill-rule:evenodd; clip-rule:evenodd"
viewBox="0 0 3936.58 1043.33"
 xmlns:xlink="http://www.w3.org/1999/xlink"
 xmlns:xodm="http://www.corel.com/coreldraw/odm/2003">
 <defs>
  <style type="text/css">
   <![CDATA[
    .fil0 {fill:#0E1E25;fill-rule:nonzero}
    .fil1 {fill:url(#id0)}
   ]]>
  </style>
  <radialGradient id="id0" gradientUnits="userSpaceOnUse" gradientTransform="matrix(1.22365E-16 1.99838 -2.30399 1.41079E-16 514 -1028)" cx="514.27" cy="0" r="312.9" fx="514.27" fy="0">
   <stop offset="0" style="stop-opacity:1; stop-color:#20C6B7"/>
   <stop offset="1" style="stop-opacity:1; stop-color:#4D9ABF"/>
  </radialGradient>
 </defs>
 <g id="Camada_x0020_1">
  <metadata id="CorelCorpID_0Corel-Layer"/>
  <g id="_2143800397920">
   <path class="fil0" d="M3711.02 672.77l103.6 -346.5 121.96 0 -202.47 588.18c-31.1,85.9 -83.84,128.87 -158.25,128.87 -16.65,0 -35.02,-2.84 -55.1,-8.51l0 -88.76 21.66 1.43c28.87,0 50.62,-5.27 65.23,-15.81 14.57,-10.53 26.12,-28.23 34.61,-53.1l16.46 -43.91 -178.96 -508.4 123.39 0 107.85 346.5zm-479.88 164.26l0 -425.82 -77.72 0 0 -84.96 77.72 0 0 -46.72c0,-56.66 15.67,-100.38 47.07,-131.23 31.42,-30.83 75.35,-46.25 131.85,-46.25 20.11,0 41.46,2.82 64.07,8.49l-2.82 89.69c-14.45,-2.68 -29.11,-3.94 -43.8,-3.76 -54.65,0 -81.95,28.14 -81.95,84.48l0 45.3 103.6 0 0 84.96 -103.6 0 0 425.79 -114.42 0 0 0.03zm-286.35 -643.42c0,-17.59 5.56,-32.23 16.7,-43.88 11.17,-11.62 27.1,-17.45 47.81,-17.45 20.72,0 36.73,5.82 48.07,17.45 11.28,11.65 16.92,26.29 16.92,43.91 0,17.29 -5.64,31.68 -16.92,43.18 -11.34,11.49 -27.35,17.24 -48.07,17.24 -20.71,0 -36.63,-5.75 -47.81,-17.24 -11.14,-11.47 -16.7,-25.89 -16.7,-43.18l0 -0.03zm121.52 643.42l-114.46 0 0 -510.76 114.46 0 0 510.76zm-246.31 0l-114.46 0 0 -725.05 114.46 0 0 725.05zm-299.06 -634.9l0 124.14 89.96 0 0 84.97 -89.96 0 0 285.1c0,19.51 3.86,33.57 11.54,42.24 7.69,8.65 21.44,12.97 41.23,12.97 13.47,-0.04 26.9,-1.62 40.01,-4.72l0 88.76c-26.05,7.24 -51.16,10.85 -75.35,10.85 -87.89,0 -131.85,-48.61 -131.85,-145.84l0 -289.39 -83.89 0 0 -84.96 83.84 0 0 -124.14 114.43 0 0.05 0.02zm-450.21 206.77c-31.42,0 -56.75,11.01 -76.05,33.03 -19.34,22.01 -31.63,52.71 -36.98,92.05l218.06 0 0 -8.52c-2.52,-38.39 -12.73,-67.4 -30.61,-87.08 -17.92,-19.65 -42.7,-29.48 -74.41,-29.48zm13.64 437.55c-72.5,0 -131.31,-22.87 -176.35,-68.66 -45.06,-45.78 -67.58,-106.77 -67.58,-182.93l0 -14.16c0,-50.96 9.8,-96.53 29.43,-136.66 19.6,-40.12 47.18,-71.35 82.65,-93.72 35.47,-22.31 75.03,-33.49 118.69,-33.49 69.36,0 122.99,22.18 160.8,66.55 37.86,44.38 56.76,107.15 56.76,188.36l0 46.27 -332.98 0c3.49,42.15 17.51,75.52 42.16,100.06 24.65,24.54 55.66,36.81 93.02,36.81 52.42,0 95.12,-21.21 128.09,-63.72l61.69 59.02c-20.41,30.51 -47.63,54.2 -81.7,71.03 -34.07,16.84 -72.28,25.24 -114.67,25.24l-0.03 0zm-654.64 -520.21l3.3 59.03c37.68,-45.66 87.14,-68.48 148.37,-68.48 106.1,0 160.11,60.9 161.98,182.71l0 337.49 -114.4 0 0 -330.89c0,-32.41 -6.98,-56.39 -20.94,-71.99 -13.97,-15.57 -36.82,-23.36 -68.54,-23.36 -46.16,0 -80.56,20.95 -103.11,62.79l0 363.46 -114.45 0 0 -510.75 107.84 0 -0.06 0z"/>
   <path class="fil1" d="M498.57 2.5c-12.52,3.94 -23.34,14.77 -44.95,36.39l-156.13 156.12c16.14,6.85 128.93,54.51 143.43,60.82 0.92,0.41 1.99,0.84 2.71,0.08 14.5,-11.61 33.79,-15.33 51.56,-9.94 0.81,0.28 1.74,0.46 2.42,0 0.45,-0.35 0.83,-0.79 1.1,-1.29l111.04 -171.97 -33.84 -33.83c-21.62,-21.61 -32.44,-32.45 -44.95,-36.39 -5.27,-1.66 -10.73,-2.5 -16.19,-2.5 -5.46,0 -10.92,0.84 -16.19,2.5zm25.56 263.06c-0.64,1.26 0.19,2.55 0.94,3.79 4.56,7.47 7.4,15.86 8.32,24.56 0,1.02 1.18,1.51 2.17,1.91l0.29 0.14 156.24 66.38c0.37,0.14 0.76,0.2 1.15,0.19 0.49,-0.05 0.78,-0.35 1.07,-0.67 0.17,-0.16 0.35,-0.32 0.55,-0.46 4.46,-3.25 9.43,-5.73 14.71,-7.33 0.54,-0.16 1.08,-0.28 1.35,-0.81 0.11,-0.33 0.19,-0.67 0.21,-1.02l0 -0.41 24.71 -153.01 -102.53 -102.53 -109.19 169.27zm-371.61 74.41l-0.02 0 129.12 188.32c0.32,0.53 0.73,0.98 1.21,1.37 0.43,0.33 0.91,0.21 1.44,0.14l0.03 0c4.83,-0.88 9.61,-1.7 14.02,-1.7 4.91,0.07 9.81,0.74 14.58,1.99 0.76,0.2 1.66,0.37 2.31,-0.03 0.54,-0.34 0.83,-0.79 1.15,-1.34l122.45 -189.67 0.38 -0.56c0.69,-0.99 1.5,-2.15 0.69,-2.95 -12.64,-12.96 -17.92,-31.41 -14.04,-49.09 0.11,-0.51 0.22,-1.13 0,-1.62 -0.35,-0.8 -1.07,-1.12 -1.88,-1.45 -8,-3.48 -33.46,-14.22 -61.39,-26.04 -36.87,-15.58 -78.14,-33.01 -89.5,-37.97l-120.55 120.6zm591.14 14.34c-0.16,0.9 0.12,1.83 0.75,2.49 0.19,0.2 0.41,0.27 0.62,0.35l0.38 0.16c5.01,2.56 9.52,6.04 13.29,10.23 0.27,0.28 0.41,0.38 0.54,0.46l0.4 0c0.3,0.01 0.6,-0.05 0.88,-0.16l101.24 -43.07 -97.34 -97.38 -20.76 126.91zm-218.56 -27.02c-0.36,0.31 -0.67,0.67 -0.92,1.08 -10.2,15.2 -27.13,24.08 -45.39,24.08 -2.43,0 -4.85,-0.34 -7.6,-0.72l-1.2 -0.19c-1.28,0 -2.09,1.26 -2.8,2.39l-0.21 0.32 -120.35 186.37c-0.13,0.19 -0.26,0.36 -0.38,0.53 -0.72,1.02 -1.53,2.16 -0.72,2.96 0.45,0.45 0.93,0.45 1.39,0.45 0.46,0 302.99,-129 326.2,-138.91l0.3 -0.11c0.96,-0.41 2.01,-0.84 2.01,-1.86l0 -4.11c0,-2.47 0.37,-4.91 0.8,-7.06 0.14,-0.5 0.14,-1.02 0,-1.53 -0.35,-0.83 -1.24,-1.18 -2.05,-1.55l-146.45 -62.03c-0.5,-0.23 -1.09,-0.41 -1.63,-0.41 -0.36,0 -0.71,0.09 -1,0.3zm254.62 67.51l-0.32 0.13c-1,0.41 -2.17,0.89 -2.17,1.91 0,1.02 1.15,1.49 2.14,1.88 0.14,0.06 0.27,0.11 0.41,0.16l248.75 105.35c-0.38,-1.91 -0.86,-3.76 -1.45,-5.62 -3.94,-12.51 -14.76,-23.31 -36.38,-44.95l-104.09 -104.09 -106.88 45.22zm-740.89 58.87c-21.65,21.64 -32.44,32.44 -36.41,44.95 -1.36,4.31 -2.18,8.77 -2.42,13.27l240.32 50.41 0.06 0c0.41,0.08 0.77,0.15 1.13,-0.06 0.58,-0.44 1.04,-1.01 1.34,-1.66 2.76,-5.13 6.69,-9.86 10.61,-14.18 0.84,-0.81 0.03,-1.88 -0.7,-2.85 -41.52,-59.78 -82.93,-119.63 -124.23,-179.57l-89.69 89.69zm723.52 -26.02c-0.32,0.16 -0.48,0.46 -0.72,0.73 -7.57,9.88 -18.8,16.32 -31.15,17.85 -1.21,0 -1.45,1.56 -1.61,2.91l-0.11 0.59 -28.54 175.25c-0.06,0.11 -0.06,0.23 -0.06,0.37 -0.19,0.89 -0.35,1.85 0.28,2.47 10.05,7.78 16.42,19.38 17.58,32.04 0,1.21 1.43,1.45 2.77,1.66l0.81 0.16 151.79 31.61 117.34 -117.33c17.73,-17.74 28.19,-28.22 33.57,-38.31l-0.03 0 -259.13 -109.62c-0.62,-0.28 -1.31,-0.54 -1.97,-0.54 -0.28,0 -0.54,0.04 -0.8,0.16zm-402.35 146.41c0.29,0.03 4.11,13.91 4.38,13.96l262.98 54.25c0.59,0.14 1.32,0.24 1.88,-0.03 0.62,-0.31 0.98,-0.91 1.35,-1.53l0.13 -0.22c7.78,-13.19 21.59,-21.71 36.87,-22.74 1.27,0 1.45,-1.53 1.64,-2.88l0.1 -0.7 28.26 -173.52c0.05,-0.24 0.05,-0.41 0.05,-0.67 -0.05,-0.71 -0.72,-1.13 -1.4,-1.51l-0.72 -0.45c-1.48,-1.14 -3.01,-2.35 -4.81,-4.15 -0.46,-0.45 -0.94,-0.45 -0.94,-0.45l-329.76 140.63zm-321.17 1.91l70.09 70.09 116.46 -49.33 0.63 -0.26c1.34,-0.52 2.92,-1.13 2.92,-2.48 0,-1.23 -1.44,-1.48 -2.77,-1.69 -0.27,-0.03 -0.53,-0.08 -0.8,-0.12l-213.11 -44.21c6,7.43 14.66,16.09 26.58,28zm315.4 42.95c-0.65,0.35 -1,0.96 -1.38,1.61l-0.08 0.08 -0.53 0.94c-0.67,1.14 -1.3,2.22 -2.02,3.29l-0.27 0.35c-0.29,0.32 -0.59,0.7 -0.59,1.13 -0.07,0.59 0.33,1.09 0.71,1.62 0.08,0.12 0.18,0.24 0.27,0.37l240.47 347.54 21.75 -21.75c7.74,-47.41 36.53,-222.97 39.89,-243.38 0.09,-0.41 0.23,-0.83 0.4,-1.21 0.35,-0.88 0.67,-1.72 -0.08,-2.09 -13.62,-5.63 -23.83,-17.3 -27.6,-31.55 -0.09,-0.44 -0.17,-0.81 -0.51,-1.15 -0.6,-0.47 -1.3,-0.78 -2.05,-0.89l-266.41 -54.95c-0.33,-0.07 -0.71,-0.13 -1.08,-0.13 -0.31,0 -0.63,0.04 -0.88,0.17zm-111.4 4.98l-109.4 46.68 55.39 55.4 0.03 0 60.42 -93.81c0.33,-0.42 0.55,-0.89 0.21,-1.33l-0.35 -0.44c-1.22,-1.61 -2.39,-3.26 -3.48,-4.94 -0.5,-0.83 -1.02,-1.74 -1.94,-1.74 -0.3,0 -0.61,0.06 -0.89,0.19zm79.86 24.04c-13.96,5.81 -29.51,6.6 -43.98,2.23 -0.81,-0.27 -1.78,-0.48 -2.44,0 -0.49,0.35 -0.78,0.78 -1.08,1.27l-63.07 97.83 241.49 241.49c21.62,21.65 32.44,32.44 44.95,36.41 10.54,3.34 21.85,3.34 32.39,0 10.68,-3.38 20.13,-11.79 36.16,-27.65l-241.65 -350.67c-0.22,-0.32 -0.46,-0.6 -0.75,-0.86 -0.26,-0.23 -0.55,-0.32 -0.86,-0.32 -0.37,0 -0.76,0.12 -1.16,0.27zm387 44.44c-0.99,0.14 -1.78,0.85 -2.42,1.61 -5.03,6.04 -11.43,10.8 -18.66,13.9l-0.32 0.13c-0.67,0.26 -1.36,0.54 -1.64,1.18 -0.08,0.23 -0.13,0.5 -0.16,0.77l-0.05 0.28 -33.04 203.01 192.95 -192.94 -135.89 -27.93c-0.12,-0.02 -0.25,-0.02 -0.38,-0.02 -0.13,0 -0.26,0.01 -0.39,0.02zm136.66 27.93l0.02 -0.02 -0.02 0.02zm-279.24 279.21l0.01 0.02 0 -0.03c0,0 0,0.01 -0.01,0.01z"/>
  </g>
 </g>
</svg>
