<?xml version="1.0" encoding="UTF-8"?>
<!DOCTYPE svg PUBLIC "-//W3C//DTD SVG 1.1//EN" "http://www.w3.org/Graphics/SVG/1.1/DTD/svg11.dtd">
<!-- Creator: CorelDRAW 2021 (64 Bit) -->
<svg xmlns="http://www.w3.org/2000/svg" xml:space="preserve" width="67.5333mm" height="96.5288mm" version="1.1" style="shape-rendering:geometricPrecision; text-rendering:geometricPrecision; image-rendering:optimizeQuality; fill-rule:evenodd; clip-rule:evenodd"
viewBox="0 0 1825.2 2608.85"
 xmlns:xlink="http://www.w3.org/1999/xlink"
 xmlns:xodm="http://www.corel.com/coreldraw/odm/2003">
 <defs>
  <style type="text/css">
   <![CDATA[
    .fil4 {fill:black}
    .fil0 {fill:#E64C18}
    .fil2 {fill:#EBEBEC}
    .fil3 {fill:#F36417}
    .fil1 {fill:#FFFEFE}
   ]]>
  </style>
 </defs>
 <g id="Camada_x0020_1">
  <metadata id="CorelCorpID_0Corel-Layer"/>
  <g id="_2306111116384">
   <polygon class="fil0" points="-0,536.05 1825.2,536.05 1662.29,2398.09 910.91,2608.85 161.38,2397.55 "/>
   <polygon class="fil1" points="1474.07,1127.7 1490.88,899.22 337.62,891.72 395.05,1603.64 1183.25,1604.92 1157.83,1892.75 911.25,1964.89 651.75,1898.3 640.65,1716.29 413.13,1717.4 441.99,2073.65 911.25,2206.83 1375.35,2076.98 1436.73,1375.83 609.59,1376.94 589.92,1128.32 "/>
   <path class="fil2" d="M911.25 892.32l-573.63 -0.6 57.43 711.92 516.2 0.83 0 -227.89 -301.66 0.36 -19.67 -248.62 321.33 -0.38 0 -235.62zm0 1072.57l-259.5 -66.59 -11.1 -182.01 -227.52 1.11 28.86 356.25 469.26 133.18 0 -241.94z"/>
   <path class="fil3" d="M911.25 690.04l742.64 0 -144.33 1580.06 -598.31 167.82 0 -231.09 464.1 -129.85 61.38 -701.15 -525.48 0.75 0 -249.76 562.82 0.88 16.81 -228.48 -579.63 -6.9 0 -202.28zm0 1274.85l0 -360.42 272 0.45 -25.42 287.83 -246.58 72.14z"/>
   <path class="fil4" d="M1400.13 0.19l91.17 0c5.64,0 10.26,4.61 10.26,10.26l0 224.86 160.46 0c5.64,0 10.26,4.61 10.26,10.26l0 91.17c0,5.64 -4.61,10.26 -10.26,10.26l-170.72 0 -91.17 0c-5.64,0 -10.26,-4.61 -10.26,-10.26l0 -91.17 0 -235.11c0,-5.64 4.61,-10.26 10.26,-10.26zm-837.74 101.23l0 -91.17c0,-5.64 4.61,-10.26 10.26,-10.26l293.3 0c5.64,0 10.26,4.61 10.26,10.26l0 91.17c0,5.64 -4.61,10.26 -10.26,10.26l-90.81 0 0 226.98c0,5.64 -4.61,10.26 -10.26,10.26l-91.17 0c-5.64,0 -10.26,-4.61 -10.26,-10.26l0 -226.98 -90.81 0c-5.64,0 -10.26,-4.61 -10.26,-10.26zm-281.96 16.13l113.6 0 0 -107.3c0,-5.64 4.61,-10.26 10.26,-10.26l91.17 0c5.64,0 10.26,4.61 10.26,10.26l0 326.28c0,5.64 -4.61,10.26 -10.26,10.26l-91.17 0c-5.64,0 -10.26,-4.61 -10.26,-10.26l0 -107.3 -113.6 0 0 107.3c0,5.64 -4.61,10.26 -10.26,10.26l-91.17 0c-5.64,0 -10.26,-4.61 -10.26,-10.26l0 -326.28c0,-5.64 4.61,-10.26 10.26,-10.26l91.17 0c5.64,0 10.26,4.61 10.26,10.26l0 107.3zm939.05 -117.36l91.17 0c5.64,0 10.26,4.61 10.26,10.26l0 326.28c0,5.64 -4.61,10.26 -10.26,10.26l-91.17 0c-5.64,0 -10.26,-4.61 -10.26,-10.26l0 -157.11 -56.6 79.92 -14 19.76c-2.88,4.08 -10.8,4.71 -13.75,0.68l-77.41 -105.59 0 162.33c0,5.64 -4.61,10.26 -10.26,10.26l-91.17 0c-5.64,0 -10.26,-4.61 -10.26,-10.26l0 -326.28c0,-5.64 4.61,-10.26 10.26,-10.26l91.17 0c2.66,0 5.09,1.03 6.92,2.71l0.15 0.14 0.02 0.02c0.39,0.36 0.74,0.76 1.07,1.19l0.06 0.08 0.08 0.11 0.01 0.01 0.14 0.19 83.14 117.4 79.96 -112.91c0.22,-0.32 0.46,-0.61 0.72,-0.89 1.02,-4.59 5.13,-8.04 10.01,-8.04z"/>
  </g>
 </g>
</svg>
