<?xml version="1.0" encoding="UTF-8"?>
<!DOCTYPE svg PUBLIC "-//W3C//DTD SVG 1.1//EN" "http://www.w3.org/Graphics/SVG/1.1/DTD/svg11.dtd">
<!-- Creator: CorelDRAW 2021 (64 Bit) -->
<svg xmlns="http://www.w3.org/2000/svg" xml:space="preserve" width="246.211mm" height="109.286mm" version="1.1" style="shape-rendering:geometricPrecision; text-rendering:geometricPrecision; image-rendering:optimizeQuality; fill-rule:evenodd; clip-rule:evenodd"
viewBox="0 0 2718.88 1206.83"
 xmlns:xlink="http://www.w3.org/1999/xlink"
 xmlns:xodm="http://www.corel.com/coreldraw/odm/2003">
 <defs>
  <style type="text/css">
   <![CDATA[
    .fil4 {fill:#3E3E3E}
    .fil1 {fill:#404040}
    .fil6 {fill:#414141}
    .fil3 {fill:#60DAFD}
    .fil0 {fill:#61DAFC}
    .fil2 {fill:#61DCFD}
    .fil5 {fill:#62DCFC}
   ]]>
  </style>
 </defs>
 <g id="Camada_x0020_1">
  <metadata id="CorelCorpID_0Corel-Layer"/>
  <g id="_2143799614768">
   <path class="fil0" d="M1320.92 4.86c-6.03,0.15 -2.21,1.18 -8.14,2.89 -10.02,2.88 -4.24,1.45 -12.23,4.6l-9.27 4.71c-1.71,1.37 -1.25,-0.18 -1.04,1.82l-0.56 5.98c-4.24,0.27 -3.07,-1.32 -3.18,3.37 -4.83,0.93 -4.85,0.46 -8.61,-0 -0.75,3.29 -0.79,2.79 -2.66,4.63l-8.73 10.05c-4.05,4.11 -5.08,6.6 -8.62,4.22 0,7.13 1.02,3.48 -3.55,5.42 0.29,4.28 1.5,1.77 1.5,7.67 -8.37,0.66 -0.47,1.5 -9.73,4.11 -0.06,1.17 -0.01,3.22 -0.29,4.16 -0.73,2.45 -0.34,1.07 -1.53,2.65 -3.62,4.82 -0.38,2 -2.77,6.33 -1.1,2 -1.64,1.04 -2.98,4.47 -1.99,5.09 1.08,3.98 -4.08,4.09l-0.32 12.23 -4.66 0.67c-0.15,5.21 0.01,1.46 -1.87,5.06 1.69,0.56 3.65,-0.29 3.93,5.55l0.86 21.55c0.45,9.33 -1.9,7.66 -1.36,12.76 1.54,14.42 -0.4,7.68 -0.63,11.94 3.95,0.99 3.22,0.03 5.61,2.43 -0.62,5.8 -2.74,0.37 -1.52,9.16 0.07,0.49 1.13,4.13 1.2,4.23 1.35,1.91 2.9,2.1 2.9,2.1 0.13,-0.22 0.55,0.23 0.78,0.4 -0.26,4.91 -0.16,3.72 0.96,5.92l0.34 2.5c1.96,-0.11 0.46,-0.26 1.29,-0.57l1.52 -0.37c-0.51,5.49 -1.25,0.56 -1.46,5.77l5.2 0.77c0,4.39 -0.85,4.3 -0.94,7.48l3.08 1.39c0.17,0.12 0.37,0.32 0.54,0.45l2.79 1.92c2.15,0.79 0.64,0.35 3.32,0.55l-1.87 4.48c0,5.42 -0.9,3.31 3.74,3l0 4.67c2.57,-0.28 1.64,-0.4 4.68,-0.93 0.11,6.47 -0.23,3.11 2.36,4.77l2.08 1.94c0.13,0.12 0.34,0.3 0.48,0.42 1.57,1.32 0.2,-0.29 2.18,1.63 0.15,0.14 0.34,0.34 0.48,0.5l5.13 6.85c8.84,6.45 4.9,2.15 9.79,6.96 1.51,1.48 -0.75,0.63 1.84,0.71 0.2,0.01 2.35,-0.38 2.77,-0.4l0 5.98c1.15,2.47 18.05,10.6 21.28,11.07 8.06,1.17 2.81,1.08 8.12,3.1 3.71,1.41 5.17,-0.09 9.13,2.09 8.54,4.71 7.13,1.26 12.95,3.88 11.53,5.18 12.6,0.86 22.4,4.71 4.03,1.58 4.71,1.4 9.88,1.34l32.63 1.03c8.63,0.97 10.12,3.64 29.28,3.64 0.82,-0.57 0.56,-0.62 2.24,-1.29 1.89,-0.75 -0.01,-0.23 2.18,-0.51 12.3,-1.62 10.62,1.36 10.72,4.24 8.37,0.32 8.7,-3.48 11.41,3.74 0.25,-0.1 0.58,-0.19 0.78,-0.23 0.2,-0.04 0.55,-0.16 0.8,-0.2 4.71,-0.69 4.71,0.4 7.47,3.28l5.96 7.2c0.35,0.52 0.62,1.43 0.7,1.73 1.42,0 2.97,-0.23 4.31,0.31 2.93,1.18 1.3,-0.36 2.6,2.3 -0.69,1.92 -0.37,2.9 -4.48,3.73l10.33 13.05 7.81 17.43c0.79,2.7 0.32,3.81 0.94,6.54 1.15,5.05 3.06,3.86 3.36,10.67 0.23,5.21 0.47,8.46 1.75,12.27 2.08,6.17 1.81,3.75 1.97,12.06 0.09,5.01 1.52,8.64 1.89,13.07 1.4,1.17 0.44,0.16 1.87,0 0.69,0.32 2.94,0.91 3.18,1.02 1.86,0.86 0.55,-0.95 1.87,1.41l1.87 15.7c-2.52,0.55 -2.46,0.85 -5.61,0.93 1.62,14.81 0.21,11.71 -0.02,26.06l-5.03 0.68c-0.74,0.37 -0.7,0.07 -1.65,2.06 -0.87,1.83 -0.67,1.68 -1.06,3.63 -0.72,3.59 -0.64,5.24 -1.05,9.25 -0.55,5.36 -1.5,3.43 -2.92,7.36 -1.15,3.19 -0.27,5.34 -1.75,8.54 -0.68,1.47 -0.93,1.29 -1.78,2.89l-20.19 24.69c-5.9,4.47 -13.52,8.37 -20.62,10.23 -4.44,1.16 -3.48,2.14 -7.18,3.1 -2.88,0.75 -5.98,0.88 -9.07,1.22 -5.16,0.57 -4.2,2.19 -17,3.56 -13.79,1.47 -9.19,-0.74 -27.35,2.57 -3.01,0.55 -6.29,0.46 -9.37,0.91 -6.45,0.94 -13.27,-0.14 -19.69,0.88 -7.04,1.12 -9.48,3.13 -17.33,3.24 -9.39,0.14 -7.47,2.8 -15.84,3.8 -10.83,1.29 -3.33,2.03 -11.25,3.71 -2.41,0.51 -2.18,0.07 -4.55,1.06 -2.77,1.15 -2.73,1.86 -7.09,3.19 -0.29,0.09 -1.17,0.31 -1.46,0.41l-5.53 2.89c-1.09,0.47 -1.89,0.57 -3.34,1.34 -1.95,1.05 -1.47,1.22 -3.37,2.25 -6.01,3.25 -5.8,1.4 -5.54,3.81l-0.56 5.98c-8.06,0.52 1.13,1.39 -5.57,4.07 -3.23,1.29 -3.88,0.33 -5.28,-0.7l-1.87 3.55c-0.12,0.14 -0.35,0.3 -0.47,0.44 -1.9,2.25 -1.7,-1.51 -1.77,4.8 -6.67,1.27 -2.2,-1.78 -5.34,2.83l-12.34 11.33c-1.93,1.41 -0.66,0.61 -2.8,1.37 -0.75,11.77 -3.65,2.24 -3.65,11.59 -3.68,-0.02 -3.17,-0.67 -4.86,0 0.25,5.62 0.99,0.68 1.5,6.17 -3.41,3.42 -3.37,0.45 -3.74,7.48 -0.2,0.13 -0.51,0.25 -0.65,0.31l-1.91 0.84c-2.48,1.06 -0.11,-0.34 -1.74,0.72 -0.12,4.07 0.84,3.05 0.94,7.85 -1.57,0.34 -4.09,0.85 -5.42,1.5 0,6.24 0.72,7.7 1.12,12.15 -0.25,0.19 -0.61,0.31 -0.82,0.43 -3.84,2.21 -2.78,0.58 -3.38,3.41l0.29 19.94c0.9,4.4 -0.96,19 -0.78,28.57l-4.48 0c0.14,0.32 0.78,1.62 0.98,1.86 1.65,1.96 0.45,0.88 1.82,1.52 0.19,0.19 0.39,0.48 0.51,0.62 0.12,0.13 0.36,0.44 0.51,0.59l2.05 1.81c0.94,0.54 2.39,0.84 3.47,1.09 -0.09,4.08 -0.93,5.85 -0.93,11.22 2.52,0.21 2.54,0.44 4.67,0.94 -0.11,5.04 -0.88,2.59 -1.13,5.61 2.33,0.78 3.13,1.03 5.24,1.49 0,6 -1.5,6.33 3.74,7.48l0 5.42c-2.47,0.68 -1.62,-1.61 -1.87,2.06 7.65,3.76 6.11,4.36 10.28,4.67 -0.19,7.46 -3.65,5.32 -0.08,8.02 0.09,0.07 0.35,0.22 0.45,0.3 0.11,0.09 0.33,0.27 0.44,0.37 5.38,4.77 3.47,1.37 7.51,5.36l9.75 11.88c3.61,3.76 3.18,-2.63 3.43,5.11 3.76,-0.54 3.04,-0.96 6.17,-0.37 7.68,2.31 -2.37,3.39 5.84,3.94l0.7 5.97c0.09,3.45 4.94,3.98 5.22,4.12 5.13,2.62 -1.85,0.27 6.92,3.38 2.99,1.06 0.66,0.12 3.1,1.57 4.53,2.7 2.77,1.21 6.96,2.39 7.06,1.97 -2.75,1.14 13.09,3.74 5.01,0.82 6.81,3.37 14.23,3.54 11.32,0.26 23.3,0.07 34.67,0.01 8.3,-0.05 8.64,-2.68 14.21,-3.56 3.13,-0.49 4.66,0.13 7.68,-0.76 4.11,-1.21 2.31,-1.7 5.19,-3.21 -0.17,-0.26 -0.49,-0.82 -0.55,-1.06l-0.38 -3.98c1.3,0 3.31,-0.09 4.62,0.05 7.02,0.75 -5.35,-1.05 1.76,0.34l1.47 0.54c0.06,-0.36 0.13,-1.86 0.37,-2.46 1,-2.47 -0.76,-0.92 1.69,-2.22 1.91,-3.3 -0.41,-1.42 3.15,-0.92 3.75,0.54 -1.28,0.6 3.76,0.82 0.81,-2.36 0.13,-2.48 1.87,-4.67 1.71,0.63 2.91,0.97 5.71,0.94l0.28 -4.59c4.76,-0.04 4.01,1.9 4.11,-3.58l7.66 0.21c1.53,-2.85 -0.95,-0.53 2.96,-4.47l4.55 -4.79c1.38,-1.38 -0.32,0.05 1.47,-1.44 1.59,-1.33 0.55,-0.33 1.72,-1.21l2.74 -2.5c3.49,-3.09 5.72,-4.33 5.83,-9.33 6.3,0.43 2.3,2.22 5.35,-2.78 2.05,-3.36 2.13,0.83 2.13,-8.44 4.89,-1.08 4.49,-2.78 4.49,-8.41 4.7,-0.04 2.49,1.16 4.28,-1.58 1.34,-2.05 -0.61,-0.58 1.65,-1.74 4.1,-2.1 -0.17,0.39 1.73,-0.05 -0.09,-4.01 -0.85,-3.36 -0.94,-7.85 2.17,-0.47 2.18,-0.71 4.67,-0.93l0 -6.55c6.01,-0.07 2.34,0.21 3.54,-1.13 2.38,-2.64 1.21,-9.01 1.14,-10.09 4.59,-0.53 0.18,0.04 5.05,-2.06 3.07,-0.87 3.12,-3.41 3.68,-7.92 0.74,-5.98 1.82,-4.77 3,-10.09 0.78,-3.47 0.4,-8.21 1.35,-11.74 1.04,-3.85 2.61,-5.43 3.09,-10 0.42,-3.95 -0.28,-7.78 0.44,-11.71 0.81,-4.41 2.27,-5.64 3.05,-10.04 1.77,-9.92 -1.27,-6.98 3.11,-16.59 1.08,-2.36 0.97,-0.64 0.97,-4.57 -3.25,-0.22 -2.45,-0.08 -4.67,-0.94 0.59,-4.97 -2.38,-4.63 3.74,-4.67 0.22,-3.53 -0.87,-5.71 -0.17,-9.33 0.81,-4.22 2.75,-3.22 3.53,-3.76 0.1,-3.51 -0.48,-2.64 -0.56,-6.55 2.61,-0.22 3.19,-0.33 4.78,-1.64 0.06,-0.05 1.38,-1.45 1.42,-1.5 4.33,-4.82 2.23,-5.84 7.45,-4.33 -0.15,-4.78 -2.75,-4.49 -0.45,-7.91 1.77,-2.63 0.83,-1.01 2.91,-1.02 0.76,-0 3.13,0.33 4.45,0.33 0.51,-4.35 0.85,-1.86 4.27,-4.83 2.35,-2.04 1.04,-2.44 7.88,-2.46l2.74 1.12c2.37,-3.64 1.47,-2.88 5.57,-4.03 4.76,-1.34 3.45,-2.07 7.08,-3.2 3.12,-0.98 4.24,-0.35 7.62,-1.73 11.89,-4.85 10.49,-1.47 25.91,-4.01 7.38,-1.22 7.45,-2.17 16.54,-2.17l0.19 -5.98c4.98,-0.5 23.02,1.45 38.14,0.38 0.76,-2.76 0.04,-2.16 1.87,-4.3 4.53,-0.17 4.29,-0.54 8.35,0.41 3.54,0.83 5.36,0.26 9.41,0.15l2.82 -3.93 9.39 0.97 0.5 -4.9c2.64,-0.05 3.56,-0.54 5.26,-0.61 8.55,-0.36 5.77,2.25 10.26,-4.07 4.9,-0.23 3.38,-0.02 6.92,1.12 0.15,-4.53 -1.23,-3.02 2.71,-4.61 2,-0.81 1.74,0.11 3.97,-0.28 3.92,-0.69 1.06,-0.08 2.37,-1.24 0.2,-0.17 0.96,-0.89 1.07,-1.33 0.11,-0.43 0.33,-0.53 0.54,-0.73l5.24 0.72 0 -4.86c4.31,0.04 7.61,1.18 11.89,-4.79 0.42,-0.59 -0.05,-0.22 1.06,-1.74l0.87 -1.08c3.74,-4.38 4.67,-3.48 6.9,-4.57 0.85,-0.42 1.06,0.39 2.25,-2.15 0.09,-0.2 0.18,-0.46 0.26,-0.68 0.72,-2.11 0.52,-1.85 0.52,-4.3l3.74 0.25c0.04,-0.12 0.68,-2.12 0.69,-2.13l2.59 -3.36c0.73,-0.84 0.53,-0.64 1.29,-1.5l1.7 -1.87c3.03,-3.61 -1.77,-2.76 4.93,-3.49l0.2 -5.61c3.59,-2.73 4.07,0.77 4.11,-7.47 2.86,0.92 1.42,0.08 3.18,0.93l1.02 -3.24c2.37,-6.29 -1.49,-3.33 3.63,-4.24l0.21 -5.61 5.42 -5.61c0.08,-0 3.11,3.22 3.69,-6.59 0.49,-8.2 -0.82,-3.5 2.46,-8.76 2.72,-4.36 1.33,-37.82 1.36,-45.46 0.02,-4.97 0.15,-6.17 -1.82,-9.4 -1.76,-2.88 -1.23,-0.33 -1.84,-3.77 -0.65,-3.6 0.85,-5.66 -1.89,-10.27 -4.66,-7.85 0.53,-3.09 -4.2,-9.83l-7.58 -14.86c-3.97,-4.75 -1.08,-1.79 -3.59,-5.76 -0.01,-0.02 -1.13,-1.49 -1.21,-1.59l-4.95 -6.27c-2.27,-2.82 -10.01,-12.35 -13.16,-13.39l-7.67 0.56c-0.11,-6.87 0.32,-1.29 -3.86,-5.36 -2.18,-2.12 0.73,-3.52 -7.87,-3.25l-0.43 -8.41c-2.46,-0.73 -3.38,-1.65 -4.49,-3.74 -0.38,4.22 -0.51,3.48 -1.86,5.1l-3.74 0.04c-1.26,-1.58 -0.9,-0.51 -1.4,-3.09 -0.91,-4.63 0.43,-1.11 0.47,-1.12 -0.67,0.04 -5.71,1.99 -7.06,-0.21 -0.12,-0.19 -0.34,-0.51 -0.48,-0.75 -0.13,-0.21 -0.28,-0.48 -0.41,-0.7 -0.12,-0.21 -0.23,-0.45 -0.35,-0.66 -3.59,-6.13 -2.26,1.93 -2.55,-6.09l0.55 0c-0.17,3.56 -0.02,2.82 -1.12,5.42 -5.68,-0.27 -5.45,0.81 -5.6,-4.11 -4.95,0 -5.68,0.25 -9.54,0.93l0 -1.87c-2.48,-1.31 -1.87,0.84 -1.85,-4.51l-11.42 0.77c0.04,-1.38 0.05,-4.2 1.5,-5.05 -17.2,-7.65 -10.97,-1.31 -24.31,-5.61 -9.1,-2.93 -30.13,-2.12 -35.14,-3.2 -17.91,-3.87 -26.5,-1.38 -35.62,-3.65 -5,-1.25 -0.43,-2.5 -13.4,-2.5l-0 -0.94 -0.93 5.61c-0.02,0 -1.42,1.89 -4.46,0.1 -1.93,-1.14 -1.33,2.31 -1.52,-3.84 -4.82,0.81 -4.78,-0.22 -8.98,-0.47l-1.87 -4.49c-1.48,0.58 -4.25,0.81 -7.22,0.64l0.68 -5.03c-0.1,-4.2 -1.2,-1.16 -6.79,-5.37l-11.81 -10.63c-4.17,-4.5 -6.05,-7.58 -8.42,-13.08 -1.13,-2.61 -0.13,-0.53 -1.31,-2.43 -1.44,-2.32 -1.25,-0.34 -2.15,-4.39 -0.53,-2.38 -0.14,-3.48 -0.81,-5.74 -0.99,-3.35 -1.3,-1.68 -2.52,-4.96 -0.94,-2.52 -0.91,-9.14 -1.42,-11.67 -0.94,-4.68 -2.55,-6.16 -3.1,-9.99l-5.23 0c0.02,-3.26 0.02,-5.01 -0.26,-8.05l0.47 -5.08c1.26,-5.98 -2.22,-1.03 -0.03,-9.3l-3.93 -2.8c0,-5.67 -0.34,-8.24 0.45,-13.98 0.35,-2.56 0.43,-0.61 0.24,-2.97 -0.26,-3.23 0.42,0.93 -0.22,-1.25 -1.29,-4.37 -1.37,-1.43 -4.39,-4.23 1.09,-14.17 -3.04,-9.83 -3.71,-11.76 -0.13,-0.37 -0.55,-0.22 -0.78,-0.4l0.93 -4.15c0.05,-0.18 0.16,-0.42 0.2,-0.59 0.77,-3.39 -0.55,-4.84 -3.33,-6.58l-1.34 -6.08c-2.49,-0.23 -2.51,-0.46 -4.86,-0.96l0.94 -6.89c-1.42,-0.65 0.69,0.38 -1.95,-0.52 -2.02,-0.69 0.96,0.02 -2.54,-0.97 0.06,-4.03 0.42,-4.77 1.31,-7.85 -1.2,1.37 -0.6,0.75 -4.3,0.37l0 -6.36c-4.65,-0.91 -4.16,-0.61 -4.86,-5.42 -0.31,0.42 2.79,1 -1.22,0.52 -2.2,-0.27 -1.48,-0.55 -2.52,-1.26 0.27,-7.18 0.66,-2.08 1.68,-5.61l-3.62 -1.76c-0.2,-0.13 -0.43,-0.29 -0.63,-0.44 -0.19,-0.14 -0.4,-0.32 -0.58,-0.47 -0.3,-0.25 -2.12,-1.98 -2.43,-2.28l-4.4 -4.99c-0.11,-0.15 -0.27,-0.4 -0.37,-0.53 -2.13,-2.93 1.76,-0.83 -2.08,-1.81 -0.17,-0.04 -2.01,-0.19 -3.1,-0.43 -0.03,-3.3 -0.25,-3.55 -0.63,-4l-0.81 -0.53c-0.1,-0.09 -0.34,-0.24 -0.44,-0.34 -0.11,-0.1 -0.32,-0.3 -0.43,-0.42l-2.47 -2.99c-2.45,-3.11 -1.52,3.49 -1.76,-4.06 -3.92,1.2 -2.49,0.53 -7.11,0.28l-1.71 -2.54c-3.35,-3.78 -1.71,0.4 -4.28,-6l-6.17 0.58c0,-7.11 -1.26,-3.42 -7.48,-3.27l-1.87 -4.67c-6.06,-0.85 -5.41,0.7 -10.58,0.84l-0.27 -5.61c-0.25,0.1 -0.58,0.17 -0.78,0.21l-10.25 2.59c-1.47,-5.12 -1.64,1.69 -1.87,-5.98 -14.89,-0.9 -39.58,2.86 -54.79,0 -1.99,4.15 1.84,4.15 -9.54,3.74l0 -3.74z"/>
   <path class="fil1" d="M2051.32 592.48l-6.08 0c0.11,-3.89 0.56,-1.65 0.94,-5.61l3.27 0 -16.91 -25.63c-0.12,-0.15 -0.31,-0.35 -0.44,-0.49l-17.32 -17.27 -14.96 -10.28c-4.32,-2.79 -8.4,-5.51 -13.33,-7.24 -4.74,-1.66 -3.29,-2.39 -8.46,-3.69 -4.37,-1.1 -2.86,-0.83 -6.05,-2.36 -4.83,-2.33 -8.17,-0.83 -12.83,-3.06 -7.66,-3.67 -43.28,-3.48 -51.56,-1.24 -3.71,1 -2.34,1.72 -5.99,2.42 -6.63,1.27 -6.93,1 -12.53,3.37 -2.12,0.89 -4.46,1.05 -6.44,1.97l-18.21 9.84c-9.72,6.24 -14.92,9.53 -23.36,17.78l-4.88 5.41c-1.56,1.55 -2.48,2.55 -4.05,4.37l-4.17 5.18c-0.12,0.15 -0.32,0.35 -0.44,0.5 -0.12,0.15 -0.3,0.36 -0.42,0.51l-16.17 28.71c-1.03,2.73 -0.43,3.5 -1.94,6.48 -3.29,6.48 -1.48,7.25 -3.27,12.63 -0.77,2.3 -1.39,2.47 -2.21,5.27 -0.68,2.31 -0.9,4.23 -0.92,7.49l0 32.8c0.06,7.16 1.39,7.81 2.99,12.9 0.93,2.94 0.45,2.94 0.9,6.58 0.45,3.57 0.97,3.49 2.31,6.11 1.87,3.65 1.8,6.67 3.98,10.05 0.43,0.66 0.39,0.39 1.01,1.8l4.94 10.95c1.07,2.01 0.28,0.46 1.59,2.15 0.12,0.15 0.32,0.35 0.43,0.5 0.12,0.16 0.3,0.37 0.41,0.53 0.16,0.23 0.56,0.92 0.7,1.17 2.93,5.08 5.98,9.94 10.1,14.21l14.37 14.61c6.12,5.07 2.1,3.2 10.22,8.48l7.05 4.17c0.17,0.11 0.4,0.26 0.56,0.37l18.11 9.94c2.62,1.18 4.03,0.76 6.63,1.79 3.16,1.25 1.2,1.4 4.99,2.49 5.56,1.62 4.04,-0.17 12.76,3.13 7.55,2.86 30.69,1.11 39.99,1.17 8.24,0.06 7.4,-0.07 13.44,-2.45 5.22,-2.06 8,-0.44 12.87,-3.02 3.9,-2.07 1.62,-0.94 6.16,-2.26 3.98,-1.15 2.54,-1.68 5.47,-2.94l12.94 -5.76c9.01,-5.54 17.65,-11.93 25.34,-19.54 0.61,-0.6 1.14,-1.17 1.84,-1.9l3.44 -4.04c0.7,-0.83 1.29,-1.38 2.23,-2.44 0.76,-0.85 0.99,-1.13 1.74,-2l20.03 -32.33c2.71,-4.77 5.55,-19.27 7.59,-24.2 2.88,-6.98 2.75,-37.94 1.55,-46.37 -0,-0.02 -0.5,-3.07 -0.53,-3.21 -0.91,-4.2 -0.1,-1.19 -1.2,-3.48 -2.05,-4.29 -1.11,-8.96 -3.04,-12.85 -1.67,-3.34 -1.44,-1.52 -2.43,-5.97 -0.81,-3.61 -0.27,-3.54 -2.73,-6.17z"/>
   <path class="fil1" d="M958.34 329.75l3.28 0 0 5.61 -6.08 0 -6.16 17.68c-2.38,16.28 -4.12,0.93 -4.13,36.08 -0,7.33 -0.54,15.07 1.36,22.01 0.81,2.97 1.55,2.6 2.28,6.13 0.49,2.34 0.51,4.35 0.97,6.51 1.11,5.26 1.05,1.94 2.62,5.79l3.12 9.04c3.39,5.91 3.69,8.51 8.42,15.89 1.2,1.88 0.24,0.43 1.25,2.49l27.81 31.09c0.22,0.17 0.87,0.62 1.08,0.79l2.58 2.09c0.15,0.12 0.35,0.32 0.5,0.44 0.15,0.12 0.36,0.3 0.51,0.42l24.56 13.78c2.72,1.3 1.24,1.7 4.7,2.78 3.8,1.19 2.81,-0.36 6.67,1.74 5.6,3.06 7.34,1.66 12.43,3.47 9.64,3.43 18.21,2.7 29.09,2.7 5.31,0 10.62,0.03 15.93,0.03 7.7,0.01 12.23,-2.96 19.58,-3.8 4.55,-0.52 2.94,-0.72 6.01,-2.4 3.41,-1.86 6.05,-1.05 9.13,-3.03l13.8 -6.77c7.22,-3.69 13.77,-9.59 19.97,-14.62l7.78 -7.18c0.13,-0.14 0.32,-0.35 0.45,-0.49 4.75,-5.15 9.79,-10.11 13.65,-16.27l18.74 -37.36 3.18 -12.71c2.56,-7 1.86,-45.74 -0.89,-51.72 -1.95,-4.24 -1.25,-9.24 -2.99,-12.9 -4.32,-9.05 -1.45,-3.81 -3.25,-8.91l-21.38 -34.72 -14.89 -15.03c-0.14,-0.13 -0.36,-0.31 -0.5,-0.43l-14.46 -10.78c-5.82,-2.87 -9.5,-5.93 -16.49,-8.75l-8.57 -3.58c-4.84,-1.22 -6.79,-3.29 -12.08,-3.81 -10.79,-1.06 -4,-3.76 -28.04,-3.75 -9.25,0 -23.24,-0.85 -30.18,1.61 -7.01,2.49 -9.85,1.97 -12.87,3.02 -4.28,1.49 -1.23,1.49 -5.64,2.77l-11.49 4.4c-3.9,1.61 -2.61,1.62 -5.45,2.96l-23.99 16.22c-0.15,0.12 -0.38,0.28 -0.53,0.41 -0.15,0.12 -0.37,0.29 -0.51,0.42l-0.96 0.91c-1.01,0.95 -1.03,1.02 -2.41,2.27 -1.21,1.1 -0.76,0.65 -1.93,1.81l-5.86 6.29c-0.13,0.15 -0.31,0.35 -0.44,0.5 -0.12,0.15 -0.3,0.36 -0.43,0.51l-1.25 1.55c-0.12,0.15 -0.3,0.36 -0.43,0.5l-11.15 15.03c-2.38,3.9 -4.96,7.54 -6.03,11.27z"/>
   <path class="fil1" d="M654.48 586.87l3.27 0 0.01 5.61 -6.08 0c-2.25,3.52 -1.15,1.74 -2.12,5.85 -1.31,5.54 -3.07,6.32 -3.89,11.97 -0.01,0.06 -0.47,3.16 -0.49,3.25 -1.51,7.3 -2.59,2.67 -3.74,16.83 -0.68,8.33 -0.88,30.52 1.31,37.86 1.26,4.22 1.45,0.67 2.38,6.04 0.42,2.41 0.4,4.35 0.88,6.6 1.12,5.3 0.99,1.93 2.72,5.7 1.31,2.86 0.6,4.24 1.63,6.79 0.98,2.43 1.75,1.85 2.99,5.42 1.25,3.6 0.28,2.06 2.32,5.16 1.2,1.82 0.51,0.54 1.44,2.3 0.69,1.32 0.61,1.56 1.56,3.12l11.06 16.05c0.11,0.16 0.27,0.39 0.39,0.55l23.29 22.53c0.15,0.12 0.36,0.3 0.51,0.42l24.56 13.77c2.72,1.3 1.24,1.7 4.7,2.78 3.8,1.19 2.81,-0.36 6.67,1.74 2.55,1.39 1.44,1.75 5.16,2.32 21.43,3.26 5.49,3.85 36.35,3.85 5.31,0 10.62,0.03 15.93,0.03 7.7,0.01 12.23,-2.96 19.58,-3.8 4.55,-0.52 2.94,-0.72 6.01,-2.4 3.41,-1.86 6.05,-1.05 9.13,-3.03l7.72 -3.5c0.18,-0.1 0.39,-0.27 0.56,-0.38l5.51 -2.9c6.44,-3.38 13.12,-8.62 18.45,-13.33l4.52 -3.89c1.96,-1.87 2.51,-2.16 4.34,-4.07l1.79 -1.95c0.78,-0.85 1,-1.13 1.81,-1.93 2.03,-2.02 1.96,-1.77 4.07,-4.34l13.31 -18.48c0.97,-1.67 0.71,-1.61 1.12,-2.62 1.51,-3.74 2.5,-3.88 4.28,-8.81l2.74 -4.74c1.04,-2.45 0.62,-3.97 1.77,-6.65 1.04,-2.43 1.69,-1.99 2.4,-5.08l3.18 -12.71c1.44,-3.97 1.76,-17.16 1.74,-22.57 -0.02,-5.96 -0.06,-10.59 -0.68,-15.22 -0.97,-7.27 0.8,-7.64 -1.96,-13.93 -1.54,-3.52 -1.43,-9.61 -2.99,-12.9 -1.43,-3 -1.7,-1.13 -2.65,-5.76l-21.97 -37.87 -10.48 -11.02c-0.15,-0.13 -0.37,-0.3 -0.51,-0.42 -0.15,-0.13 -0.36,-0.3 -0.51,-0.43l-0.98 -0.89c-0.14,-0.13 -0.34,-0.33 -0.48,-0.46l-41.96 -25.36c-4.84,-1.22 -6.79,-3.29 -12.08,-3.81 -10.79,-1.06 -4,-3.76 -28.04,-3.75 -9.25,0 -23.24,-0.85 -30.18,1.61 -7.01,2.49 -9.85,1.97 -12.87,3.02 -4.28,1.5 -1.23,1.49 -5.64,2.77 -0.43,0.12 -2.39,0.44 -3.13,0.61 -3.35,0.79 -2.9,1.19 -5.73,2.69 -4.9,2.59 -9.08,3.52 -13.22,6.41l-34.49 30.03c-6.62,7.89 -11.68,16.21 -16.29,25.31z"/>
   <path class="fil1" d="M108.93 1055.76l0 4.21 1.4 0 -32.26 0 0 -3.74 -3.74 0 0.07 -46 3.68 1.59c6.85,-2.56 25.86,-0.92 35.06,-0.94 12.16,-0.02 19.77,0.05 26.62,9.84 3.89,5.54 5.88,14.21 1.34,20.93 -8.52,12.61 -3.41,6.62 -22.99,13.46 -2.93,1.03 -5.65,0.64 -9.18,0.64zm-108.93 -93.5l0 236.55c0,3.28 4.15,3.74 7.48,3.74l67.32 0c5.29,0 3.76,-7.95 3.74,-13.09l-0.08 -78.62c-0.09,-8.85 2.7,-6.48 10.39,-5.56 2.12,0.26 -0.21,-0.23 1.67,0.21 3.66,0.84 10.69,5 12.99,7.58l4.46 4.89c0.11,0.17 0.24,0.41 0.35,0.59 0.11,0.17 0.23,0.42 0.33,0.6l8.81 15.5c2.96,4.06 4.82,9.33 7.38,14.12 1.22,2.29 0.4,0.52 1.51,2.23 4,6.2 6.76,13.85 10.83,20.02l6.08 11.69c0.68,1.57 -0.23,0.22 1.31,2.43l3.23 6.12c0.87,1.71 0.99,1.34 1.88,2.8 2.54,4.2 2.29,8.5 9.27,8.5l75.73 0c6.66,0 5.62,-4.73 3.36,-8.94l-26.05 -49.71c-5.78,-11.5 -9.24,-18.3 -17.8,-28.94 -12.8,-15.91 -23.45,-17.64 -24.95,-21.79 5.58,0 7.05,-0.7 11.14,-2.88 3.45,-1.83 5.88,-2.16 9.88,-5.07 8.63,-6.29 12.42,-9.43 19.12,-18.28l1.66 -2.08c0.44,-0.59 1.06,-1.52 1.54,-2.2 2.24,-3.22 2.55,-7.13 4.61,-10.34 2.11,-3.28 2.02,-7.18 2.58,-12.38 0.44,-4.12 2.76,-7.69 2.76,-12.2l-3.73 -22.45c-0.88,-4.85 -8.64,-18.97 -12.61,-22.92 -1.72,-1.72 -3.02,-2.89 -4.72,-4.63 -5.77,-5.88 -11.63,-8.9 -18.87,-11.98l-2.97 -1.7c-3.3,-1.93 -24.51,-5.5 -30.03,-5.5l-143.99 0c-2.87,0 -5.61,0.87 -5.61,3.74z"/>
   <path class="fil0" d="M2602.02 1052.95c-7.25,1.04 1.08,2.83 -18.7,2.8 -27.7,-0.03 -23.37,5.57 -23.37,-23.37 0,-7.69 -0.52,-16.18 0.94,-22.44l32.73 0 0 -3.73c3.53,0.03 7.62,-0.2 10.24,-0.11l8.45 -0.36 2.43 4.58c2.58,0.14 4.26,-0.3 5.99,-0.84 2.17,2.68 -0.34,3.38 5.98,4.77 -0.08,4.21 -0.64,3.61 -0.93,6.92 2.98,0.2 2.22,-0.09 4.3,1.87l0.37 19.07c-2.52,0.54 -4.26,0.46 -4.88,0.56l0.39 5.61 -4.86 5.98c-7.85,-0.15 -4.22,-3.22 -5.61,-0.75 -3.38,0.88 -0.6,0.47 -3.18,3.65 -12.69,0.15 -10.28,-1.61 -10.28,-4.21zm-48.06 149.6c0,-34.36 0.22,-70.08 0.75,-103.22 2.87,-0.14 5.32,0.11 8.04,-0.01 4.45,-0.21 9.22,-2.63 12.37,1.35l2.58 6.51c2.11,2.37 3.07,-0.64 9.88,7.88 0.12,0.15 0.29,0.37 0.41,0.52 0.12,0.15 0.28,0.38 0.4,0.53 0.12,0.16 0.28,0.38 0.39,0.54 0.57,0.78 0.91,1.33 1.56,2.18l14.86 26.27c1.48,2.93 1.65,2.37 2.85,4.63 0.57,1.07 0.57,1.48 1.08,2.66l1.28 2.46c0.15,0.24 0.64,0.84 0.79,1.08l9.72 18.33c1.33,3.46 1.02,2.1 2.67,4.81l4.04 7.18c0.1,0.19 0.19,0.45 0.29,0.65 0.13,0.28 0.41,1.05 0.54,1.33l5.15 9.81c4.26,6.59 11.51,4.48 25.44,4.48 19.95,0 39.89,0 59.84,0l0 -4.3c-3.12,-0.24 -2.42,-0.36 -5.05,-0.93l0.4 -6.92 -3.73 -1.05 -0.04 -6.06c-2.44,-0.52 -1.82,-0.44 -4.11,-0.94 0,-4.43 0.6,-4.37 0.93,-7.48l-3.37 -1.33c-0.23,-0.12 -0.55,-0.33 -0.74,-0.44 -0.2,-0.11 -0.51,-0.29 -0.75,-0.47l-1.55 -6.15c-0.2,-0.12 -0.48,-0.29 -0.68,-0.41l-1.5 -0.92c-0.03,-3.13 0.25,-3.46 0.56,-5.61 -2.39,0.43 -2.51,-0.01 -5.05,-0.56 0,-2.07 -0.02,-2.1 0.34,-4.05 0.88,-4.67 0.19,0.69 0.97,-2.87l-4.3 -2.8 0.56 -6.55 -4.68 0 0 -6.55c-0.74,-0.15 -1.81,-0.12 -4.11,-0.56l0 -7.85 -12.43 -10.61c-2.26,-3 -1.12,1.13 -1.93,-2.03 -0.09,-0.33 -0.41,-0.29 -0.67,-0.45l0.45 -7.47c0.15,-1.39 0.57,-0.62 -0.01,-2.8 -2.92,-1.64 -0.88,-0.49 -2.8,-0.01 -3.83,-0.78 -4.98,0.75 -7.9,-0.39 -5.01,-1.95 -0.44,-0.71 -3.32,-4.85 -2.54,1.38 -2.27,0.93 -5.85,0.92l-0.69 -4.1c-3.6,-0.12 -4.09,0.17 -6.55,-1.87 1.74,-1.44 0.76,-1.03 3.67,-1.77 0.74,-0.19 2.93,-0.1 3.8,-0.1 0.04,-6.01 1.64,-3.18 8.81,-4.07 0.16,-0.02 0.48,-0.08 0.66,-0.09l2.88 0.42c1.67,-6.03 -1.16,-1.06 3.65,-3.78 3.06,-1.73 2.28,1.19 2.33,-5.01 5.91,-1.27 4.65,2.19 4.67,-3.74 3.69,0.07 4.4,0.86 7.85,0.56 3.03,-7.15 1.15,-0.75 3.34,-5.31 1.23,-2.55 -2.87,-1.37 2.46,-3.27 3.28,-1.17 2.34,-0.11 3.55,0.53 6.52,-2.68 11.72,-20.26 13.58,-26.25 1.67,-5.39 1.35,-11.56 1.39,-18.27 0.07,-12.79 -2.2,-12.48 -2.82,-16.82l-6.17 -0.56c-0.11,-6.62 -1.5,-6.31 -2.78,-8.4 -0.12,-0.19 -0.28,-0.41 -0.39,-0.62 -0.81,-1.57 -0.45,-1.27 -0.9,-2.93 -1.28,-4.72 -1.19,-2.29 -2.62,-4.79 -0.13,-0.22 -0.28,-0.42 -0.39,-0.67 -0.96,-2.14 -0.58,-4.77 -0.58,-7.29 0.35,-2.81 0.5,-0.1 -0.34,-1.86l-1.52 -2.02c-7.21,-8.09 -11.07,-8.45 -21.94,-14.57 -2.31,-1.3 -3.14,-0.81 -6.26,-1.22 -4.93,-0.65 -1.44,-0.48 -5.43,-2.05 -10.27,-4.07 -130.58,-2.35 -158.25,-2.59 -8.18,-0.07 -7.11,-0.55 -12.14,2.82l0 239.35c7.69,4.97 24.43,2.8 34.59,2.8 12.65,0 25.31,0 37.96,0z"/>
   <path class="fil0" d="M1371.59 1009.94l2.81 0 0 -3.73c3.33,0.02 7.91,-0.3 10.24,-0.2l8.46 -0.27c1.41,1.74 0.28,-0.38 1.67,2.87 0.49,1.15 -0.02,0.44 0.57,2.09 4.07,-0.48 4.47,-1.2 8.04,-0.75 0.1,4.36 -0.54,3.29 4.11,4.3 -0.08,4.21 -0.64,3.61 -0.9,6.75l4.26 1.1c-0.03,2.49 -0.5,3.84 -0.4,5.53l0.78 14.47c-2.52,0.54 -4.26,0.46 -4.88,0.56l-1.73 7.69c-2.68,3.26 1.73,1 -2.61,3.31 -6.4,3.4 -3.85,-3.53 -5.75,-0.16 -3.58,0.93 -0.39,0.2 -3.18,3.65 -5.06,0.06 -6.16,-0.77 -10.28,-1.03l0 -3.18c-2.66,0.38 -4.81,2.15 -7.66,2.63 -2.82,0.47 -7.97,0.17 -11.05,0.17 -7.23,-0 -14.46,0 -21.7,0 -3.06,3.99 -6.52,2.29 -7.44,-0.02l-0.22 -20.55c0,-8.67 -1.56,-24.74 2.24,-29.45 3.82,0.21 3.91,1.01 8.38,1.06l27.15 -0.41c-1.03,3.46 0,1.62 -0.93,3.55zm-36.83 192.6l-0 -90.69c-0.02,-5.27 0.68,-8.26 0.75,-12.53 5.6,-0.28 9.17,-0.39 13.68,-0.88 11.77,-1.27 3.17,4.14 10.25,4.99l0.74 4.67c1.34,0.51 2.02,0.86 3.14,1.72 1.77,1.35 -0.09,0.28 1.5,1.32 1.9,1.25 0.26,0.66 2.09,0.71 0.3,-0.08 1.74,-0.45 1.94,-0.45 3.56,-0.06 0.85,-0.45 1.93,0.55 0.09,0.09 0.23,0.34 0.31,0.45 0.24,0.29 1.77,3.45 4.18,5.07 0.92,0.62 3.69,1.18 5.11,1.49 -0.12,6.16 -1.47,4.34 -1.31,6.92 1.64,0.12 2.11,-0.08 5.05,0.56 0,5.85 -1,5.48 -1.31,6.92l4.65 1.95 0.03 7.03 3.18 0 0.56 7.86c5.14,0.81 3.75,2.75 3.74,3.74l4.3 0.61 -0.19 6.87 4.33 0.85 -0.79 6.61 4.14 1.89c0.08,5.8 0.43,5.45 3.13,7.88 0.14,0.13 0.43,0.34 0.61,0.53 -0.43,4.63 -0.99,1.83 -1.12,6.55 -1.14,5.25 -0.89,3.04 0.56,2.81l3.55 0.22c0.05,0.64 0.83,2.15 1.08,2.4 2.06,2.11 3.16,1.68 3.98,1.87l0 4.86c2.18,-1.23 0.11,-0.65 3.55,-0.93l0 5.61 73.9 0.04c4.6,-0.16 5.63,-1 8.38,-2.84 -0.91,-1.72 -1.02,-1.84 -2.15,-3.46 -2.44,-3.51 -0.55,-0.7 -1.99,-4.55 -1.31,-3.5 -0.67,-1.16 -2.16,-3.45 -1.94,-2.99 -0.48,-1.65 -1.82,-4.72 -1.08,-2.47 -1.27,-1.64 -2.31,-3.3 -1.77,-2.83 -0.1,-2.22 -3.05,-6.3 -0.99,-1.37 -0.68,-0.48 -1.46,-2.28l-8.43 -16.81c-1.78,-5.51 -1.15,-2.57 -2.3,-4.24 -2,-2.89 -0.63,-1.38 -1.66,-3.95l-2.57 -3.98c-1.93,-3.43 -0.78,-5.39 -4.69,-7.47 -2.75,1.23 -3.05,0.94 -5.98,0.38l-0.03 -7.85c-4.82,-2.11 -0.14,-1.12 -4.54,-3.31 -3.34,-1.66 -2.86,0.6 -4.58,-4.16 -0.05,-0.13 -0.07,-0.44 -0.1,-0.55 -0.42,-1.23 1.23,-1.11 -1.58,-0.41 -0.04,-2.2 0.01,-1.46 -0.2,-3.18 -0.61,-4.82 -1.23,-4.03 -3.54,-6.17l0 -2.8c0.15,-1.39 0.57,-0.62 -0,-2.8 -1.76,-0.93 -2.14,-1.03 -3.74,-1.5 -3.63,0.33 -2.74,1.16 -7.48,1.03 -1.08,-1.34 -0.55,-0.35 -1.38,-2.16 -0.1,-0.22 -0.77,-2.37 -0.86,-2.61 -2.97,1.01 -2.44,0.93 -6.55,0.93l-0.42 -4.13c-4.27,0.13 -4.39,0.06 -6.68,-1.85 2.84,-2.35 2,-1.87 7.47,-1.87 0.05,-7.4 -0.43,-1.03 1.87,-3.74 2.47,0 3.83,-0.17 5.98,-0.37l4.5 0.37 0.44 -3.18c4.82,-0.47 0.18,-0.52 5.35,-1.13l0.23 -4.49c0.26,-0.07 2.17,-0.52 2.41,-0.53 1.85,-0.04 1.16,-0.19 2.22,0.52l0 -3.74c3.69,0.07 4.4,0.86 7.85,0.56 0.66,-1.56 0.52,-2.96 1.82,-3.59 3.18,-1.55 0.24,-0.52 1.55,0.22 0,-4.64 1.21,-7.23 5.98,-4.68 4.13,-1.7 6.48,-7.25 7.88,-11.22 1.43,-4.06 2.27,-2.55 3.3,-7.15 3.01,-13.49 3.68,-3.97 3.78,-26.14 0.06,-12.43 -2,-11.16 -2.81,-16.83l-6.17 -0.56c-0.1,-6.43 -1.16,-6.39 -1.88,-7.29 -3.72,-4.71 -1.15,-3.33 -2.61,-6.81 -1.97,-4.67 -1.18,1.64 -2.42,-2.58 -0.12,-0.41 -0.52,-0.32 -0.76,-0.51l0 -7.48c0.25,-1.99 1,-0.72 -1.92,-3.85 -2.11,-2.26 -5.09,-6.03 -7.75,-7.24 -0.54,-0.25 -2.28,-0.74 -2.77,-0.97l-11.47 -6.29c-2.53,-1.62 -2.79,-0.94 -6.18,-1.3 -4.86,-0.51 -1.52,-0.62 -5.32,-2.16 -9.43,-3.84 -131.27,-2.36 -158.32,-2.5 -8.23,-0.05 -7.04,-0.61 -12.15,2.81l0 239.35c5.65,3.78 5.99,2.81 15.89,2.8l56.66 0z"/>
   <path class="fil1" d="M260.86 959.46c-0.49,2.1 -0.94,2.15 -0.94,4.68l0 232.81c0,2.52 0.45,2.58 0.94,4.67 2.92,0.24 3.32,0.94 6.55,0.94l192.6 0c3.39,0 5.22,-0.79 7.48,-1.87 2.09,-8.98 0.94,-39.25 0.94,-50.49 0,-2.25 -1.52,-2.75 -2.8,-4.67l-112.2 0c-17.82,0.01 -14.02,7.49 -14.02,-42.07 0,-4.26 6.63,-2.83 11.22,-2.81l86.96 0c2.51,0 5.03,0.05 7.53,0.05l5.16 -0.45c2.42,-0.64 5.07,-0.47 5.07,-8.96l0 -32.72c0,-13.26 -4.39,-10.28 -21.5,-10.28l-80.41 0c-17.31,0.01 -14.02,5.98 -14.02,-31.79 0,-4.56 9.66,-2.81 14.02,-2.8l102.76 -0.09c1.06,-0.14 5.4,-1.61 6.19,-2.23 4.26,-3.34 2.32,-32.73 2.32,-42.56 0,-4.28 -0.56,-10.28 -4.67,-10.28 -21.58,0 -193.13,-1.4 -199.15,0.93z"/>
   <path class="fil0" d="M1609.08 1145.51c-7.56,-3.36 -18.59,-10.19 -22.56,-17.65 -2.59,-4.87 -2.71,-3.51 -3.83,-7.39l-1.95 -5.52c-3.69,-6.67 -2.07,-14.31 -3.82,-26.11 -1.62,-10.96 -0.97,-13.84 0.91,-26.94 0.7,-4.91 0.2,-9.29 1.6,-13.36 0.77,-2.23 1.46,-2.45 2.34,-5.14 1.72,-5.3 -0.22,-2.73 3.31,-7.91 3.04,-4.48 1.2,-3.47 5.87,-8.16l2.36 -2.32c0.19,-0.19 0.73,-0.75 0.93,-0.94 0.14,-0.13 0.34,-0.32 0.48,-0.45 0.14,-0.13 0.35,-0.31 0.49,-0.44l12.28 -7.36c7.97,-2.94 25.3,-2.05 33.48,-0.34 4.43,0.93 2.28,0.28 5.15,2.87l0 -4.11c5.62,-0.28 5.86,-1.19 5.98,3.89 6.72,-0.4 5.38,-0.83 8.19,1.21l3.08 2.7c4.12,4.55 4.1,7.42 4.64,8.48 1.22,2.44 0.6,1.65 4.1,2.42 0,12.4 -3.19,4.81 3.18,9.72 -0.32,6 0.39,11.26 0.38,18.33l3.93 0 0.48 14.18c-1.17,5.89 1.46,-5.32 -0.71,2.04 -1.42,4.82 0.03,5.05 0.37,9.35 0.24,3.09 -0.12,6.61 -0.15,9.65l-4.11 0.67 0.38 19.07c-2.17,0.47 -2.18,0.71 -4.72,0.94l0.23 10.3 -5.24 0.92c0.8,12.83 -2.25,0.67 -2.25,11.22 -7.5,0.06 -1.98,-0.26 -5.23,3.83 -4.05,0.27 -3.43,-0.18 -6.54,-0.47l-1.88 4.21 -4.92 -0.63 -0.68 3.9c-3.53,0.69 -5.74,1.28 -9.39,1.3 -4.8,0.03 -4.62,-0.85 -8.53,-1.33 -5.39,-0.66 -15.92,0.49 -18.27,0.39l0.67 -5.04zm-31.8 -186.06c-1.4,9.67 -7.62,6.07 -10.81,10.49l-1.34 2.23c-5.36,-0.03 -1.87,-0.72 -5.52,-0.79 -3,-0.06 -2.25,1.06 -5.14,-0.33 -0.75,4.55 0.61,0.51 -4.29,7.13 -2.04,2.76 -2.61,1.4 -3,4.47l-8.79 0.37c-0.27,8.16 1.06,-0.62 -6.01,8.3 -2.58,3.26 -1.59,3.41 -6.33,3.48 0.3,4.86 1.19,2.25 1.5,6.73l-2.48 1.99c-2.2,2.16 -1.16,2.79 -6.49,2.87 0.23,-6.61 -1.63,-4.05 2.8,-4.67 -0.76,0.91 1.42,0.74 -2.06,0.74 -2.37,0.76 -5.47,7.93 -8.01,12.61 -1.36,2.49 -1.44,3.32 -0.41,6.09l-1.44 7.69c-1.35,1.34 -1.84,0.26 -1.92,2.6 0.94,4.74 0.03,7.07 0.19,13.09 -0.23,0.18 -0.65,0.03 -0.78,0.4 -0.97,2.78 -0.32,-0 -1.42,0.8 -3.14,2.29 0.45,-1.38 -1.52,1.35 -2.07,2.87 0.16,6.19 0.38,7.78 0.29,2.08 -0.17,2.36 -0.41,4.78 -0.45,4.46 1.56,11.75 0.05,15.16 -1.06,2.39 0.33,2.22 -4.15,2.46 0.32,3.66 0.66,3.62 1.82,5.54 1.93,3.2 1.86,1.22 2.25,6.57 0.7,9.57 -1.87,23.68 1.61,29.86l1.53 3.68c0.24,1.25 0.46,6.27 0.55,7.64l4.22 0.89 -0.01 6.59 4.7 0.83c-0.12,4.22 -0.62,2.93 -0.96,6.28 3.12,0.24 2.43,0.36 5.05,0.94 0,5.72 -1.37,4.04 -1.4,7.85l5.78 3.72c0.44,0.26 1.95,0.7 2.73,0.95l0.2 6.55c0.09,0.07 0.32,-0.07 0.36,0.07 0.82,3.37 -0.59,-2.16 2.45,1.52l5.67 6.51c3.05,3.53 2.37,-1.69 2.54,4.61l8.6 -0.09c0.65,7.94 2.72,-0.81 3.55,7.01 5.25,-0.28 4.65,0.25 8.79,0.56l0 3.74 6.54 0 0 4.11c4.51,-0.45 7.88,-3.4 8.04,3.74 3.65,0 7.08,0.69 9.52,-0.09 0.59,-0.19 -0.3,-2.36 4.3,-0.92 3.42,1.07 2.34,1.27 2.45,4.75 5.32,0.84 14.68,0.27 21.11,0.03 4.06,-0.15 4.18,-0.99 7.87,-1.34l0 1.87c0.93,0.49 1.38,-1.12 2.24,5.05l9.54 0c0.22,-1.87 -0.23,-5.19 4.89,-6.12 2.84,-0.51 -0.47,-0.16 1.96,-0.01 2.61,0.17 6.04,0.61 8.68,0.81 5.2,0.39 3.63,-0.49 7.87,-0.55 3.45,-0.05 4.43,0.86 7.45,1.21l0 0.93 0.46 -5.98 15.8 0.18c0.04,1.57 -0.1,-0.59 0.08,-1.08l1.42 -2.94c3.23,0.51 1.92,0.72 5.24,1.03 0,-4.32 -0.87,-3.45 1.73,-5.03 0.96,-0.58 0.06,-0.57 2.27,-0.51 4.39,0.11 2.18,0.45 3.1,1.05l2.62 -4.02c3.57,-0.03 3.22,0.4 5.61,-0.47 1.5,0.77 -1.25,2.08 0.41,-0.71 2.33,-3.93 3.12,-3.11 7.34,-6.65l8.31 -7.65c8.13,-6.68 3.36,-2.75 7.32,-7.42l2.8 0c2.98,1.62 2.82,-0.74 4.28,-3.17 3.13,-5.21 5.38,-8.07 7.78,-13.76l6.69 -15.74c2.53,-14.21 2.61,-6.31 4.25,-18.19 0.69,-4.98 0.2,-9.85 1.04,-13.91 4.78,-23.12 -0.75,-27.67 -0.7,-39.91 0.07,-19.88 -1.88,-9.03 -4.35,-25.57 -0.62,-4.14 -3.34,-10.61 -5.49,-14.14l-15.46 -24.74c-6.33,-7.37 -3.28,-7.78 -7.39,-6.64 -2.62,0.6 -3.12,0.63 -6.54,0.47l-0.9 -1.47c-0.11,-0.17 -0.26,-0.46 -0.38,-0.64 -0.11,-0.15 -0.23,-0.4 -0.35,-0.55l-3.71 -2.49 0.66 -4.67c-0.04,-1.78 0.5,-0.64 -1.28,-2.43 -0,-0 -2.52,-1.99 -2.62,-2.07 -3.57,-2.78 -13.08,-6.19 -16.79,-8.47 -6.71,-4.13 -12.88,-5.06 -19.4,-5.84 -6.29,-0.75 -4.01,-3.73 -16.92,-3.65 -7.7,0.05 -11.75,-0.2 -18.55,-1.09l-38.02 1.6c-4.84,1.13 -3.56,2.24 -7.27,3.02 -4.12,0.86 -4.33,-0.54 -8.18,1.17z"/>
   <path class="fil1" d="M604.92 1029.58l1.87 0c0,7.34 1.43,4.74 3.09,9.07 1.85,4.83 -0.58,4.99 2.58,10.51 3.61,6.32 0.87,5.02 2.72,10.37 1.83,5.31 1.68,-0.38 3.37,9.72 1.08,6.49 2.12,4.73 3.33,9.76 0.49,2.07 0.32,3 1.04,5.5 0.73,2.52 1.13,2.3 2.08,4.47 1.76,4.01 0.76,6.51 2.75,10.35 5.75,11.05 3.22,7.84 -39.65,7.84 -3.22,0 -3.62,-0.69 -6.54,-0.94 5.93,-11.21 1.42,-4.9 6.57,-17.74 1.49,-3.73 0.33,-5.87 2.3,-9.85 1.14,-2.3 1.41,-1.64 2.11,-4.44 0.55,-2.21 0.56,-4.14 0.95,-5.6 1.29,-4.79 2.21,-2.84 3.31,-8.84 0.09,-0.51 0.64,-4.6 0.96,-5.58l2.22 -4.33c1.42,-3.84 0.15,-5.31 2.33,-9.83 2.1,-4.37 2.63,-4.01 2.63,-10.46zm-123.42 172.97c13.48,0 62.48,1.28 71.99,-0.94 0.41,-1.77 0.58,-3.72 1.04,-5.5 1.04,-4.01 0.7,-1.38 2.17,-4.38 1.88,-3.84 0.83,-7.13 2.43,-10.66 3.8,-8.38 1.32,-0.22 3,-10.08 0.41,-2.41 2.28,-7.71 5.38,-7.71l76.67 0c4.03,0 4.86,4.63 5.36,7.73l6 20.18c1.86,3.49 1.72,6.37 2.67,10.42 2.93,0.24 3.32,0.94 6.55,0.94l68.25 0c3.4,0 3.28,-1.11 6.54,-1.87 -0.46,-5.57 0.07,0.39 -1.84,-5.64l-6.15 -17.23c-0.99,-1.68 -0.67,0.54 -1.91,-3.7 -0.7,-2.39 -0.15,-2.2 -1.08,-4.53 -1.62,-4.01 -1.93,-1.38 -3.05,-7.23 -1.13,-5.85 -1.42,-3.21 -3.05,-7.23 -1.37,-3.38 -0.45,-4.34 -2.46,-7.82 -1.5,-2.59 -0.9,-0.29 -1.89,-3.72 -0.65,-2.24 -0.34,-2.67 -0.99,-4.62 -1.52,-4.56 -1.83,-1.24 -3.21,-7.07 -0.23,-0.95 -0.55,-3.09 -0.82,-3.85 -1.06,-3.01 -0.67,-0.99 -2.04,-3.57 -1.67,-3.16 -1.02,-4.84 -2.41,-7.88l-8.92 -22.87c-1.78,-3.52 -0.93,-4.64 -2.41,-7.88l-6.38 -15.12c-0.53,-1.64 -0.41,-2.12 -0.91,-3.76 -0.56,-1.84 -0.17,-0.81 -0.77,-2.04l-1.42 -2.32c-0.1,-0.19 -0.24,-0.42 -0.32,-0.61 -1.63,-3.58 -0.38,-4.62 -2.69,-8.53l-10.6 -28.67c-1.75,-4.6 -1.67,-0.3 -3.32,-7.9 -1.7,-7.81 -2,-1.73 -4.03,-10.93 -0.9,-4.11 0.17,-1.27 -1.46,-4.15 -2.65,-4.7 -5,-14.33 -9.03,-22.76 -1.46,-3.05 -0.91,-5.02 -2.71,-8.51 -3.32,-6.41 -1.76,-12.01 -9.49,-12.01l-76.67 0c-3.68,0 -3.31,3.08 -4.47,5.82 -1.81,4.29 -1.82,1.86 -3.24,7.97 -0.28,1.19 -0.39,1.97 -1.19,3.49 -1.37,2.59 -0.98,0.55 -2.03,3.58 -2.64,7.55 -3.43,12.48 -7.29,19.83 -1.63,3.12 -0.62,3.74 -2.54,7.74 -0.71,1.47 -1.23,1.98 -1.81,3.8 -0.39,1.23 -0.61,3.15 -1.09,4.52 -1.08,3.03 -0.66,0.99 -2.03,3.58 -1.71,3.24 -0.96,4.88 -2.4,7.88 -3.15,6.56 -0.82,-0.78 -3.02,8.2 -0.91,3.73 -2.19,3.27 -3.25,7.04l-5.44 16.06c-2.27,4.82 -1.03,-0.4 -3.1,8.12 -1.39,5.69 -1.75,1.88 -3.27,7.01 -1.79,6.03 1.17,1.24 -2.98,8.24 -2.21,3.74 -0.59,4.3 -2.31,7.98 -2.19,4.7 -0.95,-0.46 -3.17,8.05 -1.11,4.26 -2.01,3.58 -3.15,7.13l-5.38 16.12c-1.96,4.12 -0.82,-1.06 -3.32,7.9 -0.86,3.08 -0.03,0.66 -1.36,3.31 -2.98,5.91 -1.37,4.68 -2.8,8.42 -0.39,1.01 -1.39,2.39 -1.98,3.63 -1.7,3.53 -0.69,4.28 -2.56,7.73 -4.14,7.65 -1.27,3.18 -2.86,8.36 -1.17,3.81 -2.06,2.25 -3.23,7.05 -2.28,9.34 -2.16,3.74 -4.17,11.72 -0.04,0.17 -0.53,2.16 -0.56,2.24l-3.81 10.21c-1.05,3.62 -3.52,5.13 -3.35,7.59 0.21,3.16 3.29,3.7 7.16,3.7z"/>
   <path class="fil0" d="M2259.25 1202.55c64.07,0 132.36,0.81 196.03,0.06 9.88,-0.12 7.42,-2.68 7.42,-25.31 0,-10.25 1.09,-23.1 -0.94,-31.79l-125.85 0c-0.98,0.81 1.2,1.05 -3.37,1.8 -2.14,0.35 -1.56,0.02 -3.92,-0.49 0.24,-15.9 0.75,-34.07 0.75,-51.23l115.94 -0.19c0.85,-9.21 0.96,-38.45 -0.37,-47.12 -14.84,0 -104.75,1.74 -110.33,-0.94 -2.25,-4.69 -1.25,-30.17 0,-35.53l120.47 -0.14c3.98,-0.77 3.98,-2.27 3.95,-7.27 -0.09,-14.98 -0.08,-29.97 -0.08,-44.95 -1.4,-1.17 -0.44,-0.16 -1.87,-0l-197.28 0c-1.68,5.96 -0.56,230.56 -0.56,243.1z"/>
   <path class="fil0" d="M1924.16 1113.92c1.98,0.84 1.84,0.73 4.4,2.05l0.24 10.3 -3.91 1.3 0.38 7.85c-1.3,0.29 -3.48,0.53 -3.88,0.77l-7.7 5.23c-4.39,2.02 0.12,-1.91 -2.94,1.08 -2.47,2.41 -0.44,3.05 -3.14,4.38 -3,1.48 -4.02,-1.36 -4.02,-1.36 -1.66,-0.65 -0.44,-1.06 -1.5,0l0 5.05c-4.73,1.03 -12.09,0.1 -19.11,0.27 -12.97,0.32 -14.36,2.9 -14.36,-5.32 1.62,0 1.31,-0.44 1.31,0.93 -3.88,-0.06 -5.52,1.58 -8.61,-0.61 -2.21,-1.56 2.6,-2.68 -7.82,-2.77l0.72 -8.03c-1.13,-0.5 -1.15,-0.3 -2.38,-1.27 -8.54,-6.73 -5.81,-11.3 -5.94,-13.5 -4.67,-0.8 -2.79,-1.06 -3.63,-1.87l-0.39 -158.95c-0.07,0.2 4.03,0.18 -2.65,0.74 -13.9,1.16 -52.08,-1.45 -66.96,0.2l0.23 161.38c3.24,0.23 2.56,0.35 5.23,0.94 -0.05,1.96 -0.02,1.23 -0.37,2.82l-1.62 4.22c-0.11,0.22 -0.28,0.56 -0.37,0.74 -0.09,0.19 -0.33,0.92 -0.4,0.78 -0.07,-0.15 -0.24,0.55 -0.41,0.79l-2.8 0c0,4.19 -0.21,1.18 0.94,1.5 4.24,0.82 3.39,2.74 5.12,5.02 3.12,4.12 3.26,0.73 2.73,10.69 2.14,1.45 -0.25,-0.5 4.3,0.93 0,4.2 -0.56,3.72 -0.94,6.55 2.62,2.12 0.26,-1.25 5.36,3.92l0.94 0.93c1.34,1.23 0.38,-0.05 2.14,1.7l-0.58 7.11c2.13,-0.71 0.69,-0.38 3.74,-0.94 0,6.06 -1.61,2.31 4.01,7.2l3.37 2.22c2.69,2.04 4.16,3.12 5.16,6.65 0.93,-0.55 0.38,-0.5 2.26,-0.79 2.77,-0.42 3.57,-0.01 4.72,1.63 3.13,4.47 -2.56,3.8 3.86,2.72l0 4.68c1.77,-0.6 8.29,-1.44 10.85,-1.5 1.6,1.84 1.26,2.98 1.87,4.68 3.96,0.26 7.41,-0.94 10.41,-1.09 6.99,-0.34 4.52,2.07 6.41,5.76 3.86,0.57 3.89,-0.9 7.53,-1.14 4.48,-0.29 6.21,0.93 18.24,-0.47 3.32,-0.39 3.72,0.03 5.52,1.08l2.37 5.19 14.03 0 0.46 -5.04 27.16 -0.35c1.15,-0.07 1.5,0.2 2.89,-0.6 4.07,-2.35 -0.58,1.04 2.02,-1.92l14.22 -1.68c0.09,-0.52 0.35,-1.6 0.46,-1.82 0.83,-1.59 0.42,-0.94 1.39,-2.15 3.06,0.4 2.14,0.65 5.24,1.03 0.14,-0.34 0.73,-2.38 0.84,-2.63 0.8,-1.87 0.3,-1.33 1.4,-2.6 4.96,0.11 2.69,-0.53 3.74,1.5l3.37 0c0,-2.82 -0.52,-2.02 1.39,-4.23 0.13,-0.15 0.37,-0.3 0.52,-0.45 0.14,-0.14 0.38,-0.28 0.52,-0.42 0.15,-0.13 0.36,-0.3 0.51,-0.43l3.26 -2.59c1.7,-0.74 3.29,-1.27 1.66,0.07 0.95,-6.75 -0.1,-0.97 2.06,-4.35l2.18 -3.75c0.11,-0.2 0.24,-0.55 0.43,-0.78l2.82 0.44 4.49 -5.73c0.19,-0.19 0.67,-0.79 0.85,-0.99 0.13,-0.13 0.33,-0.34 0.46,-0.47l3.07 -3.41c0.12,-0.16 0.3,-0.38 0.42,-0.54l0.81 -1.08c4.33,-7.13 -2.12,-6.57 5.4,-6.83l0 -8.41c3.04,0.55 1.61,0.23 3.74,0.93l0 -8.6 5.05 -0.37c0.07,-1.97 0.36,-3.02 0.8,-4.75 1.14,-4.51 0.52,-1.43 1.97,-4.64 1.56,-3.45 0.97,-8.02 0.97,-12.87l-4.68 -0.19 0.01 -12.15c3.04,-0.05 3.5,-0.15 5.6,-0.93 0,-36.78 0,-73.55 0,-110.33 0,-9.15 0.37,-19.06 0.06,-28.11 -0.3,-8.71 -3.89,-6.49 -21.56,-6.49 -14.28,0 -43.84,-1.7 -55.16,0.94 -0.51,6.07 -0.94,11.23 -0.94,18.7l-0.01 129.02c-0.45,4.69 -1.71,3.19 -1.86,7.67z"/>
   <path class="fil1" d="M818.1 1135.22c-3.94,-0.94 -4.39,-0.65 -7.48,0.01l0 -8.41 -4.67 0c0.09,-4.11 0.63,-2.91 0.93,-6.55l3.74 0c-0.27,-3.3 -2.63,-5.88 -3.61,-15.09 -1.87,-17.68 -1.99,-35.82 0.7,-53.26l4.68 -14.02c0.69,-1.27 0.98,-1.24 1.86,-2.81 0.59,-1.05 1.02,-2.25 1.58,-3.09l3.05 -3.49c0.12,-0.15 0.28,-0.38 0.41,-0.53l4.14 -4.27c1.01,-0.8 0.63,-0.4 1.63,-1.17l11.76 -6.94c7.45,-2.28 17.01,-1.66 25.07,-0.82 5.15,0.53 9.11,2.13 13.51,5.19 4.48,3.12 8.76,6.79 11.72,11.65l4.46 9.57c2.89,10.17 14.21,3.48 19.5,1.92 2.08,-0.61 5.92,-0.55 8.43,-0.92 6.34,-0.93 5.16,-2.38 10.81,-3.22 3.87,-0.57 8.83,-0.6 12.12,-1.9 7.99,-3.15 20.56,-1.07 19.57,-9.22 -0.48,-4.01 -1.71,-2.19 -2.73,-6.67 -1.3,-5.66 -0.83,-2.78 -2.88,-6.47 -0.1,-0.18 -0.23,-0.42 -0.32,-0.61l-0.99 -2.75c-1.22,-3 -0.51,-1.23 -1.67,-3.01 -1.56,-2.39 -0.39,-0.26 -1.74,-2.94 -5.13,-10.18 -6.27,-9.5 -11.86,-17.12l-10.2 -10.37c-10.58,-8.57 -5.09,-3.9 -12.7,-8.8l-15.49 -6.94c-3.22,-0.75 -1.15,-0.12 -3.91,-1.7 -5.6,-3.18 -8.79,-0.95 -15.2,-3.5 -9.55,-3.8 -43.02,-2.66 -53.96,-2.17 -7.66,0.34 -8.38,3.28 -14.94,3.76 -6.52,0.48 -8.65,2.56 -14.85,3.85l-15.83 7.55c-5.83,2.23 -10.87,6.29 -15.67,10.51l-21.94 24.81c-3.79,5.4 -5.26,12.14 -8.49,17.69l-4.62 14.08c-0.82,2.83 -0.49,4.77 -1,8.35 -0.48,3.4 -1.68,2.44 -3.37,15.33 -0.95,7.19 -1.11,39.32 0.91,46.27 0.82,2.85 2.06,3.69 2.48,6.87 0.52,3.87 -0.04,8.56 1.9,12.12 1.02,1.89 0.79,0.42 1.63,3.05 1.65,5.17 0.84,4.8 3.5,10.53 0.61,1.31 0.65,2.09 1.14,3.53 1.79,5.18 7.13,12.68 10.62,17.43 0.12,0.16 0.28,0.38 0.39,0.55 6.19,8.95 13.58,17.67 22.45,24.3 7.37,5.5 15.44,10.76 24.31,13.09 7.04,1.84 5.27,2.8 14.66,4.04 5.39,0.72 3.21,0.9 7.11,2.24 11.1,3.8 49,1.54 62.94,0.66 5.59,-0.35 3.35,-0.89 7.07,-2.28 2.38,-0.88 5.94,-0.92 8.59,-1.69l13.56 -5.14c0.16,-0.11 0.35,-0.31 0.51,-0.43l23.67 -17.47c0.97,-0.95 1.29,-1.31 2.33,-2.35l15.61 -21.79c6.93,-10.82 5.22,-14.51 8.31,-19.74 2.86,-4.82 3,-10.45 0.75,-15.15 -3.61,-0.84 -7.58,-0.74 -10.77,-2.32 -2.28,-1.14 -1.64,-1.47 -4.45,-2.1 -2.93,-0.66 -4.03,-0.18 -6.43,-1.04 -4.02,-1.45 -5.11,-2.59 -9.76,-3.33 -4.73,-0.76 -5.82,-2.49 -10.54,-3.49 -1.48,-0.31 -4.05,-0.5 -5.64,-0.91 -5.36,-1.38 -9.68,-5.73 -16.74,-3.46 -4.07,1.31 -2.05,5.26 -4.3,9.73 -1.68,3.34 -2.13,7.99 -3.64,10.39 -0.11,0.18 -1.06,1.24 -1.27,1.54l-5.16 7.93c-2.13,3.35 -5.79,6.42 -9.12,8.65l-3.5 2.11c-5.47,3.68 -5.02,1.83 -12.24,2.72 -9.58,1.19 -13.69,1.55 -23.63,-0.23 -4.53,-0.81 -9.59,-4.36 -13.12,-7.5l-3.69 -2.8z"/>
   <path class="fil0" d="M2161.65 1202.55l0 -181.38c1.95,0.03 3.93,-0.2 5.61,0.93l0 -2.81c22.44,0 44.93,-0.14 67.36,0.04 11.59,0.09 9.31,-0.11 9.31,-24.35 0,-11.53 0,-23.06 0,-34.59 -4.39,-2.94 -3.86,-2.9 -11.2,-2.83 -35.12,0.32 -216.25,-1.59 -218.81,0.96 -2.57,5.36 -0.92,38.47 -0.94,47.68 -0.03,16.38 -7.22,13.09 36.46,13.09 8.1,0 16.21,0.01 24.31,0 13.17,-0.02 14.16,-2.55 14.04,11.21l-0.01 147.74c0,26.73 -5.43,24.31 25.24,24.31 16.21,0 32.42,0 48.62,0z"/>
   <path class="fil1" d="M1111.21 1201.61l0 -182.79c11.97,-1.13 25.45,-0.94 38.8,-0.94 11.23,0 30.21,-2.15 39.27,1.4 2.11,-6.92 1.14,-40.89 1,-53.35 -0.12,-10.44 -3.55,-7.42 -26.24,-7.42l-197.39 -0.11c-7.33,0.05 -5.5,0.34 -5.5,16.94 0,14.65 0,29.3 0,43.94l3.01 2.61c20.63,0.2 41.65,0.47 62.46,0.18 11.37,-0.16 9.33,-3.45 9.33,21.52l0 157.07c8.16,3.91 25.15,1.87 36.46,1.87 8.33,0 33.02,1.85 38.8,-0.94z"/>
   <path class="fil2" d="M1771.76 1132.05l2.8 0c0.17,-0.25 0.34,-0.95 0.41,-0.79 0.07,0.15 0.3,-0.58 0.4,-0.78 0.09,-0.19 0.27,-0.52 0.37,-0.74l1.62 -4.22c0.35,-1.59 0.32,-0.86 0.37,-2.82 -2.67,-0.58 -1.99,-0.7 -5.23,-0.94l-0.23 -161.38c14.87,-1.65 53.06,0.96 66.96,-0.2 6.67,-0.56 2.58,-0.54 2.65,-0.74l0.39 158.95c0.84,0.81 -1.04,1.07 3.63,1.87 0.13,2.2 -2.6,6.77 5.94,13.5 1.23,0.97 1.25,0.77 2.38,1.27l0.89 -3.52c-5.65,-3.71 -7.74,-12.28 -7.63,-19.67l-0.93 -135.57c0,-23.05 6.13,-18.7 -36.46,-18.7 -9.04,0 -18.08,0.01 -27.11,0 -16.02,-0.02 -15.04,-1.64 -14.96,12.15l-0.03 137.48c0.09,8.63 3.58,13.88 3.78,24.83z"/>
   <path class="fil2" d="M2259.25 1202.55c0,-12.53 -1.12,-237.14 0.56,-243.1l197.28 0c-1.26,-3 -0.14,-1.95 -11.22,-1.87l-188.86 0c-4.54,6.79 -2.8,13.82 -2.8,27.11l0 215.04c2.31,1.55 2.23,1.6 5.05,2.8z"/>
   <path class="fil2" d="M1320.92 4.86l0 3.74c11.38,0.41 7.54,0.41 9.54,-3.74 15.21,2.86 39.9,-0.9 54.79,0 0.23,7.67 0.4,0.87 1.87,5.98l10.25 -2.59c0.2,-0.05 0.53,-0.11 0.78,-0.21l0.27 5.61c5.16,-0.13 4.51,-1.69 10.58,-0.84l1.87 4.67c6.22,-0.15 7.48,-3.84 7.48,3.27l6.17 -0.58c2.56,6.4 0.93,2.22 4.28,6l1.71 2.54c4.61,0.25 3.18,0.93 7.11,-0.28 0.25,7.55 -0.69,0.95 1.76,4.06l2.47 2.99c0.11,0.11 0.32,0.31 0.43,0.42 0.1,0.09 0.34,0.25 0.44,0.34l0.81 0.53c0.38,0.45 0.6,0.71 0.63,4 1.08,0.23 2.93,0.38 3.1,0.43 3.85,0.99 -0.04,-1.11 2.08,1.81 0.1,0.14 0.26,0.39 0.37,0.53l4.4 4.99c0.31,0.3 2.13,2.04 2.43,2.28 0.18,0.15 0.39,0.33 0.58,0.47 0.2,0.14 0.42,0.3 0.63,0.44l3.62 1.76c-1.03,3.53 -1.41,-1.57 -1.68,5.61 1.04,0.71 0.32,1 2.52,1.26 4.01,0.48 0.91,-0.1 1.22,-0.52 0.7,4.82 0.21,4.52 4.86,5.42l0 6.36c3.71,0.38 3.1,1 4.3,-0.37 -0.89,3.07 -1.25,3.82 -1.31,7.85 3.5,1 0.52,0.28 2.54,0.97 2.64,0.9 0.53,-0.13 1.95,0.52l-0.94 6.89c2.36,0.5 2.37,0.73 4.86,0.96l1.34 6.08c2.78,1.74 4.1,3.18 3.33,6.58 -0.04,0.16 -0.15,0.41 -0.2,0.59l-0.93 4.15c0.24,0.18 0.65,0.03 0.78,0.4 0.67,1.93 4.8,-2.41 3.71,11.76 3.02,2.8 3.11,-0.14 4.39,4.23 0.64,2.18 -0.03,-1.98 0.22,1.25 0.19,2.37 0.11,0.41 -0.24,2.97 -0.79,5.74 -0.45,8.31 -0.45,13.98l3.93 2.8c-2.19,8.27 1.29,3.32 0.03,9.3l-0.47 5.08c0.27,3.04 0.28,4.78 0.26,8.05l5.23 0c0,-8.61 0.2,-13.61 -2.11,-20.33 -2.22,-6.47 -1.2,-12.08 -2.65,-18.85 -0.84,-3.93 -1.92,-3.82 -2.6,-7.69 -0.66,-3.76 -0.47,-6.32 -1.76,-9.46l-2.63 -8.58c-1.06,-5.14 -1.99,-4.21 -3.31,-7.91 -0.58,-1.64 -0.41,-2.1 -0.9,-3.77 -1.01,-3.41 -0.17,-0.92 -1.91,-3.7l-9.22 -17.9c-0.88,-2.25 -0.23,-1.6 -1.72,-3.89l-4.17 -6.12c-6.7,-9.6 -10.38,-13.63 -18.64,-21.56 -0.14,-0.13 -0.35,-0.32 -0.49,-0.45l-26.54 -19.27c-2.19,-0.94 -1.81,-0.59 -3.74,-1.87 -2.13,-1.4 -0.56,-0.97 -3.5,-2.11 -1.22,-0.48 -2.81,-0.71 -4.23,-1.37 -9.44,-4.38 -7.28,-2.09 -12.06,-4.77 -2.1,-1.18 -1.38,-1.69 -8.16,-2.12 -12.53,-0.8 2.42,-3.78 -29.88,-3.78 -8.98,0 -22.12,-1.15 -30.37,2.35 -3.72,1.58 0.88,0.47 -4.29,1.31l-4.8 1.01z"/>
   <path class="fil2" d="M1621.98 1206.29c-0.87,-6.16 -1.31,-4.56 -2.24,-5.05l0 -1.87c-3.69,0.35 -3.81,1.19 -7.87,1.34 -6.44,0.24 -15.79,0.81 -21.11,-0.03 -0.11,-3.48 0.97,-3.68 -2.45,-4.75 -4.59,-1.44 -3.71,0.73 -4.3,0.92 -2.44,0.79 -5.87,0.09 -9.52,0.09 -0.16,-7.14 -3.54,-4.19 -8.04,-3.74l0 -4.11 -6.54 0 0 -3.74c-4.14,-0.31 -3.54,-0.84 -8.79,-0.56 -0.84,-7.82 -2.9,0.92 -3.55,-7.01l-8.6 0.09c-0.17,-6.31 0.51,-1.08 -2.54,-4.61l-5.67 -6.51c-3.05,-3.68 -1.63,1.85 -2.45,-1.52 -0.03,-0.14 -0.27,-0 -0.36,-0.07l-0.2 -6.55c-0.79,-0.25 -2.29,-0.7 -2.73,-0.95l-5.78 -3.72c0.04,-3.82 1.4,-2.13 1.4,-7.85 -2.62,-0.57 -1.93,-0.69 -5.05,-0.94 0.34,-3.35 0.84,-2.06 0.96,-6.28l-4.7 -0.83 0.01 -6.59 -4.22 -0.89c-0.09,-1.37 -0.3,-6.39 -0.55,-7.64l-1.53 -3.68c-3.48,-6.19 -0.91,-20.29 -1.61,-29.86 -0.39,-5.35 -0.32,-3.37 -2.25,-6.57 -1.16,-1.92 -1.5,-1.88 -1.82,-5.54 4.48,-0.24 3.09,-0.07 4.15,-2.46 1.51,-3.41 -0.49,-10.7 -0.05,-15.16 0.24,-2.42 0.71,-2.7 0.41,-4.78 -0.22,-1.59 -2.45,-4.91 -0.38,-7.78 1.96,-2.72 -1.62,0.95 1.52,-1.35 1.1,-0.8 0.45,1.98 1.42,-0.8 0.13,-0.37 0.55,-0.23 0.78,-0.4 -0.16,-6.02 0.75,-8.35 -0.19,-13.09 0.08,-2.34 0.58,-1.26 1.92,-2.6l1.44 -7.69c-4.26,0 -4.01,1.89 -4.58,5.71 -0.89,5.94 -1.17,3.8 -2.67,7.59 -1.12,2.85 -0.84,4.56 -1.19,8.16 -0.43,4.33 -1.48,4.32 -2.6,7.69 -1.9,5.71 -1.72,51.93 -0.46,58.09 0.89,4.34 1.24,3.67 2.31,7.04 0.99,3.13 0.41,5.46 1.33,8.95 1.38,5.22 1.08,-0.02 3.59,10.43l8.52 17.66c1.11,2.02 0.68,0.9 1.98,2.7l5.99 8.97c6.51,10.61 21.22,21.09 32.41,27.43l1.15 0.72c1.12,0.69 -0.7,-0.18 1.71,1.09 6.21,3.26 19.82,8.08 26.57,8.96 14.55,1.89 3.8,3.92 37.03,3.92z"/>
   <path class="fil2" d="M2335.92 1145.51c-3.02,-3.94 -2.31,-4.97 -2.26,-11.21 0.31,-34.51 -3.52,-33.91 8.4,-33.7l82.31 0.03c33.18,0 25.5,6.48 26.21,-43.04 0.1,-7.11 1.1,-8.92 -5.64,-9.32 1.33,8.67 1.22,37.91 0.37,47.12l-115.94 0.19c0,17.16 -0.51,35.33 -0.75,51.23 2.35,0.51 1.77,0.84 3.92,0.49 4.58,-0.75 2.39,-0.99 3.37,-1.8z"/>
   <path class="fil3" d="M2161.65 1202.55c3.13,-0.5 2.01,-0.3 4.67,-0.94 2.21,-26.52 0.94,-62.08 0.94,-88.82 0,-30.23 0,-60.46 0,-90.69 -1.67,-1.14 -3.65,-0.91 -5.61,-0.93l0 181.38z"/>
   <path class="fil2" d="M1646.1 1018.36c5.73,1.12 12.66,7.07 15.63,11.85 1.58,2.54 1.28,1.82 2.74,3.8l4.54 8.55c1.47,2.96 0.99,7.78 2.21,11.82 3.42,11.35 2.37,0.54 2.36,18.21 -0,7.81 1.52,20.71 -0.64,27.41 -1.59,4.92 -1.71,4.08 -2.57,10.52 -0.1,0.74 -0.64,5.06 -0.83,5.71l-5.92 11.84c-3.6,5.17 0.06,2.43 -6.02,8 -9.89,9.08 -20.5,10.32 -34.52,10.38 -6.27,0.03 -8.55,-0.95 -14.01,-0.95l-0.67 5.04c2.35,0.09 12.88,-1.06 18.27,-0.39 3.91,0.48 3.73,1.36 8.53,1.33 3.66,-0.02 5.86,-0.61 9.39,-1.3l0.68 -3.9 4.92 0.63 1.88 -4.21c3.11,0.28 2.49,0.74 6.54,0.47 3.26,-4.09 -2.27,-3.78 5.23,-3.83 0,-10.55 3.05,1.61 2.25,-11.22l5.24 -0.92 -0.23 -10.3c2.54,-0.23 2.55,-0.46 4.72,-0.94l-0.38 -19.07 4.11 -0.67c0.04,-3.05 0.4,-6.57 0.15,-9.65 -0.34,-4.3 -1.79,-4.53 -0.37,-9.35 2.16,-7.36 -0.46,3.85 0.71,-2.04l-0.48 -14.18 -3.93 0c0.02,-7.07 -0.69,-12.33 -0.38,-18.33 -6.37,-4.92 -3.18,2.68 -3.18,-9.72 -3.5,-0.76 -2.88,0.02 -4.1,-2.42 -0.54,-1.07 -0.51,-3.94 -4.64,-8.48l-3.08 -2.7c-2.81,-2.04 -1.47,-1.61 -8.19,-1.21 -0.12,-5.08 -0.36,-4.16 -5.98,-3.89l0 4.11z"/>
   <path class="fil2" d="M1608.15 524.7c6.67,0 25.46,-0.1 31.58,-1.14 2.01,-0.34 3.58,-1.34 5.53,-1.95 3.6,-1.13 11.45,-1.19 15.14,-1.69 3.19,-0.44 3.12,-1.17 6.13,-2.29 5.36,-1.98 8.29,-0.26 12.87,-3.02 2.88,-1.74 1.48,-1.58 5.46,-2.02 5.07,-0.56 2.71,0.66 6.69,-1.72 6.06,-3.63 4.79,-1.11 8.72,-2.5 4.54,-1.62 -0.01,-1.41 5.22,-3.2l8.86 -4.23c5.8,-2.11 1,-0.87 7.66,-4.49 5.68,-3.08 17.32,-13.01 21.54,-17.73l2.26 -2.41c0.18,-0.2 0.68,-0.8 0.87,-1l3.18 -3.37c1.66,-1.82 2.2,-2.19 3.61,-3.87 0.12,-0.15 0.28,-0.38 0.41,-0.53l7.89 -11.75c0.1,-0.18 0.22,-0.43 0.33,-0.61l5.56 -8.47c2.6,-3.72 1.47,-4.13 2.64,-6.71 0.09,-0.2 0.22,-0.43 0.32,-0.62 2.39,-4.27 3.03,-0.34 3.03,-10.06l-5.42 5.61 -0.21 5.61c-5.12,0.92 -1.26,-2.05 -3.63,4.24l-1.02 3.24c-1.76,-0.85 -0.31,-0.01 -3.18,-0.93 -0.04,8.24 -0.52,4.74 -4.11,7.47l-0.2 5.61c-6.7,0.73 -1.9,-0.13 -4.93,3.49l-1.7 1.87c-0.76,0.85 -0.56,0.66 -1.29,1.5l-2.59 3.36c-0.01,0.01 -0.65,2.01 -0.69,2.13l-3.74 -0.25c-0.01,2.45 0.19,2.19 -0.52,4.3 -0.08,0.22 -0.17,0.48 -0.26,0.68 -1.18,2.54 -1.39,1.73 -2.25,2.15 -2.22,1.09 -3.16,0.19 -6.9,4.57l-0.87 1.08c-1.11,1.52 -0.64,1.15 -1.06,1.74 -4.28,5.98 -7.58,4.83 -11.89,4.79l0 4.86 -5.24 -0.72c-0.21,0.2 -0.43,0.29 -0.54,0.73 -0.11,0.44 -0.88,1.16 -1.07,1.33 -1.31,1.17 1.55,0.55 -2.37,1.24 -2.23,0.39 -1.97,-0.53 -3.97,0.28 -3.94,1.59 -2.56,0.08 -2.71,4.61 -3.54,-1.14 -2.02,-1.35 -6.92,-1.12 -4.49,6.32 -1.71,3.7 -10.26,4.07 -1.7,0.07 -2.62,0.56 -5.26,0.61l-0.5 4.9 -9.39 -0.97 -2.82 3.93c-4.05,0.11 -5.87,0.67 -9.41,-0.15 -4.06,-0.95 -3.82,-0.58 -8.35,-0.41 -1.83,2.14 -1.11,1.54 -1.87,4.3 -15.13,1.07 -33.16,-0.88 -38.14,-0.38l-0.19 5.98z"/>
   <path class="fil4" d="M1111.21 1201.61c2.21,-0.24 1.8,-0.2 3.28,-0.94l0 -134.64c0,-13.18 -1.67,-32.75 0.93,-43.94l67.39 0.06c6.05,-0.37 2.73,-0.89 6.47,-2.87 -9.06,-3.55 -28.03,-1.4 -39.27,-1.4 -13.35,0 -26.84,-0.2 -38.8,0.94l0 182.79z"/>
   <path class="fil2" d="M1289.69 240.47l0 -5.98c-0.42,0.02 -2.58,0.41 -2.77,0.4 -2.59,-0.08 -0.33,0.77 -1.84,-0.71 -4.89,-4.81 -0.95,-0.51 -9.79,-6.96l-5.13 -6.85c-0.14,-0.15 -0.33,-0.35 -0.48,-0.5 -1.99,-1.92 -0.62,-0.31 -2.18,-1.63 -0.14,-0.12 -0.35,-0.3 -0.48,-0.42l-2.08 -1.94c-2.59,-1.66 -2.25,1.71 -2.36,-4.77 -3.04,0.54 -2.1,0.65 -4.68,0.93l0 -4.67c-4.64,0.31 -3.74,2.42 -3.74,-3l1.87 -4.48c-2.69,-0.2 -1.17,0.24 -3.32,-0.55l-2.79 -1.92c-0.17,-0.13 -0.37,-0.33 -0.54,-0.45l-3.08 -1.39c0.09,-3.18 0.94,-3.09 0.94,-7.48l-5.2 -0.77c0.21,-5.22 0.95,-0.28 1.46,-5.77l-1.52 0.37c-0.83,0.31 0.67,0.46 -1.29,0.57l-0.34 -2.5c-1.12,-2.2 -1.22,-1.01 -0.96,-5.92 -0.23,-0.18 -0.65,-0.62 -0.78,-0.4 0,0 -1.55,-0.19 -2.9,-2.1 -0.07,-0.1 -1.13,-3.73 -1.2,-4.23 -1.22,-8.8 0.9,-3.37 1.52,-9.16 -2.39,-2.4 -1.66,-1.44 -5.61,-2.43 0.24,-4.26 2.17,2.49 0.63,-11.94 -0.54,-5.1 1.81,-3.43 1.36,-12.76l-0.86 -21.55c-0.28,-5.84 -2.25,-4.99 -3.93,-5.55 -2.88,7.41 -2.63,39.28 -0.85,47.59 0.95,4.44 1.98,3.74 2.88,9.27 1.15,7.07 -0.03,4.45 2.75,10.34 2.41,5.1 -0.11,3.43 3.37,8.78l6.08 12.62c1.57,4.12 2.15,4.05 5.21,7.88 2.44,3.05 0.77,0.82 2.45,4.09l3.57 4.85c1.13,1.44 0.44,0.79 1.63,2.11l6.55 6.54c5.84,6.39 2.21,3.67 9.25,9.45 4.8,3.94 13.45,11.85 19.19,12.97z"/>
   <path class="fil2" d="M1226.68 667.74l4.48 0c-0.18,-9.57 1.68,-24.16 0.78,-28.57l-0.29 -19.94c0.6,-2.84 -0.46,-1.2 3.38,-3.41 0.2,-0.12 0.57,-0.24 0.82,-0.43 -0.4,-4.46 -1.12,-5.92 -1.12,-12.15 1.33,-0.65 3.85,-1.16 5.42,-1.5 -0.09,-4.8 -1.06,-3.78 -0.94,-7.85 1.63,-1.05 -0.74,0.34 1.74,-0.72l1.91 -0.84c0.14,-0.06 0.45,-0.18 0.65,-0.31 0.37,-7.03 0.33,-4.06 3.74,-7.48 -0.51,-5.49 -1.25,-0.56 -1.5,-6.17 1.69,-0.67 1.18,-0.02 4.86,0 0,-9.35 2.89,0.18 3.65,-11.59 2.14,-0.76 0.87,0.04 2.8,-1.37l12.34 -11.33c3.14,-4.61 -1.33,-1.55 5.34,-2.83 0.07,-6.3 -0.13,-2.55 1.77,-4.8 0.12,-0.14 0.35,-0.3 0.47,-0.44l1.87 -3.55c1.4,1.04 2.05,2 5.28,0.7 6.7,-2.68 -2.49,-3.55 5.57,-4.07l0.56 -5.98c-6.73,2.06 -17,10.17 -22.09,15.3l-12.38 12.86c-0.78,0.87 -0.67,0.66 -1.32,1.49 -0.8,1.02 -0.38,0.58 -1.15,1.66l-18.46 31.09 -4.88 13.82c-0.36,2.1 -0.27,4.11 -0.62,5.93 -1.37,7.04 -3.6,-0.65 -3.6,27.25l0.94 25.24z"/>
   <path class="fil2" d="M1334.76 1202.55c3.24,-0.06 3.53,-0.36 5.98,-0.94l-0.06 -89.81c-0.09,-4.87 -1.98,-10.91 13.75,-6.21 2.13,0.64 2.78,1.46 5.75,2.52l-0.74 -4.67c-7.09,-0.85 1.52,-6.26 -10.25,-4.99 -4.51,0.49 -8.08,0.6 -13.68,0.88 -0.07,4.27 -0.77,7.26 -0.75,12.53l0 90.69z"/>
   <path class="fil2" d="M2553.96 1202.55c3.24,-0.06 3.53,-0.36 5.98,-0.94l-0.01 -86.96c-0.07,-6.77 -1.92,-10.32 4.6,-10.43l12.34 2.57c0.23,0.09 0.55,0.27 0.83,0.39l-2.58 -6.51c-3.15,-3.98 -7.92,-1.56 -12.37,-1.35 -2.72,0.13 -5.17,-0.13 -8.04,0.01 -0.53,33.13 -0.75,68.86 -0.75,103.22z"/>
   <path class="fil2" d="M1401.52 765.92c2.76,-0.04 4.2,-0.19 5.83,-0.78 2.71,-0.97 1.61,-1.12 3.44,-2.1 0.18,-0.1 0.42,-0.23 0.61,-0.32l27.85 -16.09c2.19,-1.53 1.17,-0.64 3.07,-2.54 0.14,-0.14 0.32,-0.34 0.45,-0.48 0.13,-0.14 0.32,-0.34 0.46,-0.48 0.13,-0.14 0.32,-0.34 0.46,-0.48l7.37 -6.66c1.14,-1.08 1.64,-1.4 2.95,-2.66 0.8,-0.77 0.5,-0.47 1.39,-1.42l3.73 -4.68c5.22,-6.36 10.44,-12.75 14.26,-20.34l8.29 -15.09c1.97,-4.08 1.7,-1.51 3.58,-7.64 0.18,-0.59 0.46,-1.64 0.67,-2.14 1.77,-4.3 1.53,-1.04 2.82,-5.56 0.45,-1.6 0.67,-3.71 0.67,-6.48 -4.87,2.1 -0.45,1.53 -5.05,2.06 0.07,1.08 1.25,7.45 -1.14,10.09 -1.2,1.33 2.47,1.05 -3.54,1.13l0 6.55c-2.49,0.23 -2.51,0.46 -4.67,0.93 0.08,4.49 0.84,3.85 0.94,7.85 -1.9,0.44 2.37,-2.06 -1.73,0.05 -2.26,1.16 -0.31,-0.3 -1.65,1.74 -1.79,2.74 0.42,1.54 -4.28,1.58 0,5.63 0.4,7.34 -4.49,8.41 0,9.27 -0.07,5.08 -2.13,8.44 -3.05,5 0.95,3.21 -5.35,2.78 -0.12,5 -2.34,6.24 -5.83,9.33l-2.74 2.5c-1.17,0.88 -0.13,-0.12 -1.72,1.21 -1.78,1.49 -0.08,0.07 -1.47,1.44l-4.55 4.79c-3.91,3.94 -1.43,1.63 -2.96,4.47l-7.66 -0.21c-0.11,5.48 0.64,3.54 -4.11,3.58l-0.28 4.59c-2.8,0.03 -4,-0.31 -5.71,-0.94 -1.74,2.19 -1.06,2.31 -1.87,4.67 -5.04,-0.22 -0.01,-0.29 -3.76,-0.82 -3.56,-0.51 -1.24,-2.39 -3.15,0.92 -2.45,1.29 -0.69,-0.25 -1.69,2.22 -0.24,0.6 -0.31,2.09 -0.37,2.46l-1.47 -0.54c-7.11,-1.4 5.26,0.41 -1.76,-0.34 -1.31,-0.14 -3.31,-0.05 -4.62,-0.05l0.38 3.98c0.07,0.24 0.38,0.81 0.55,1.06z"/>
   <path class="fil2" d="M1896.12 1206.29c38.11,0 17.75,-1.26 38.63,-4.38l30.31 -14.57c0.15,-0.13 0.37,-0.29 0.52,-0.42l6.25 -4.97c5.31,-4.33 13.07,-14.5 17.15,-20.25l6.24 -12.46c2.46,-6.89 3.75,-6.64 3.75,-11.21l-5.05 0.37 0 8.6c-2.13,-0.71 -0.7,-0.38 -3.74,-0.93l0 8.41c-7.53,0.27 -1.08,-0.3 -5.4,6.83l-0.81 1.08c-0.12,0.16 -0.3,0.38 -0.42,0.54l-3.07 3.41c-0.13,0.13 -0.33,0.34 -0.46,0.47 -0.18,0.19 -0.67,0.8 -0.85,0.99l-4.49 5.73 -2.82 -0.44c-0.19,0.23 -0.32,0.59 -0.43,0.78l-2.18 3.75c-2.16,3.39 -1.11,-2.4 -2.06,4.35 1.63,-1.34 0.05,-0.81 -1.66,-0.07l-3.26 2.59c-0.15,0.13 -0.36,0.29 -0.51,0.43 -0.15,0.14 -0.38,0.28 -0.52,0.42 -0.14,0.14 -0.38,0.29 -0.52,0.45 -1.91,2.21 -1.39,1.41 -1.39,4.23l-3.37 0c-1.05,-2.03 1.22,-1.39 -3.74,-1.5 -1.11,1.27 -0.61,0.73 -1.4,2.6 -0.11,0.26 -0.7,2.29 -0.84,2.63 -3.1,-0.38 -2.17,-0.63 -5.24,-1.03 -0.98,1.21 -0.56,0.55 -1.39,2.15 -0.11,0.21 -0.38,1.3 -0.46,1.82l-14.22 1.68c-2.61,2.96 2.05,-0.43 -2.02,1.92 -1.39,0.8 -1.74,0.53 -2.89,0.6l-27.16 0.35 -0.46 5.04z"/>
   <path class="fil2" d="M1290.25 754.7l-0.7 -5.97c-8.2,-0.55 1.84,-1.63 -5.84,-3.94 -3.13,-0.58 -2.41,-0.17 -6.17,0.37 -0.25,-7.74 0.19,-1.35 -3.43,-5.11l-9.75 -11.88c-4.05,-3.98 -2.13,-0.59 -7.51,-5.36 -0.11,-0.1 -0.33,-0.28 -0.44,-0.37 -0.1,-0.08 -0.35,-0.22 -0.45,-0.3 -3.58,-2.7 -0.12,-0.56 0.08,-8.02 -4.18,-0.32 -2.63,-0.91 -10.28,-4.67 0.25,-3.67 -0.6,-1.38 1.87,-2.06l0 -5.42c-5.24,-1.15 -3.74,-1.48 -3.74,-7.48 -2.11,-0.46 -2.91,-0.71 -5.24,-1.49 0.25,-3.02 1.01,-0.58 1.13,-5.61 -2.13,-0.5 -2.15,-0.73 -4.67,-0.94 0,-5.37 0.84,-7.14 0.93,-11.22 -1.09,-0.25 -2.53,-0.55 -3.47,-1.09l-2.05 -1.81c-0.15,-0.16 -0.39,-0.46 -0.51,-0.59 -0.12,-0.14 -0.32,-0.43 -0.51,-0.62 0,8.82 0.77,9.67 3.28,14.86 1.46,3.03 0.86,3.66 1.83,6.58 0.95,2.86 1.9,3.2 3.08,6.27 0.74,1.9 -0.3,-0.45 0.48,1.38 0.09,0.21 0.18,0.46 0.28,0.66l13.38 21.21c0.12,0.15 0.31,0.35 0.44,0.5l4.59 5.7c0.18,0.21 0.66,0.83 0.84,1.03l1.36 1.44c4.67,4.88 12.88,13.06 18.51,17.02l2.77 1.9c6.87,4.36 2.83,3.91 9.93,5.03z"/>
   <path class="fil2" d="M2593.6 1009.94c3.85,0 17.67,0.88 21.26,3.05 0.03,0.02 3.24,2.19 3.34,2.27 2.89,2.28 6.12,7.35 6.31,11.46 0.26,5.84 0.82,11.43 -1.72,15.21l-4.06 5.29c-0.34,0.29 -1.3,0.9 -1.66,1.15 -1.25,0.87 -2.72,2.16 -3.83,2.71 -1.91,0.95 -8.5,1.44 -11.22,1.87 0,2.59 -2.41,4.36 10.28,4.21 2.57,-3.18 -0.21,-2.77 3.18,-3.65 1.39,-2.47 -2.24,0.6 5.61,0.75l4.86 -5.98 -0.39 -5.61c0.62,-0.1 2.36,-0.02 4.88,-0.56l-0.37 -19.07c-2.08,-1.96 -1.32,-1.67 -4.3,-1.87 0.3,-3.31 0.86,-2.7 0.93,-6.92 -6.32,-1.39 -3.81,-2.09 -5.98,-4.77 -1.72,0.54 -3.4,0.98 -5.99,0.84l-2.43 -4.58 -8.45 0.36c-2.63,-0.09 -6.72,0.13 -10.24,0.11l0 3.73z"/>
   <path class="fil2" d="M1374.41 1009.94c5.24,0 5.91,0.83 11.22,0.93 4.63,0.09 6.9,0.21 10.03,2.12 0.03,0.02 3.24,2.19 3.34,2.27 1.21,0.96 0.67,0.44 1.46,1.35 2.18,2.5 4.66,6 4.85,10.11 0.5,11.11 0.81,12.32 -4.44,19.04 -5.16,6.6 -12.4,6.3 -18.05,7.19l0 3.18c4.12,0.26 5.22,1.09 10.28,1.03 2.79,-3.45 -0.41,-2.72 3.18,-3.65 1.89,-3.37 -0.65,3.56 5.75,0.16 4.34,-2.31 -0.08,-0.05 2.61,-3.31l1.73 -7.69c0.62,-0.1 2.35,-0.02 4.88,-0.56l-0.78 -14.47c-0.1,-1.69 0.37,-3.04 0.4,-5.53l-4.26 -1.1c0.26,-3.15 0.82,-2.54 0.9,-6.75 -4.65,-1.01 -4.01,0.06 -4.11,-4.3 -3.57,-0.45 -3.97,0.27 -8.04,0.75 -0.59,-1.64 -0.08,-0.94 -0.57,-2.09 -1.39,-3.24 -0.26,-1.13 -1.67,-2.87l-8.46 0.27c-2.32,-0.1 -6.91,0.22 -10.24,0.2l0 3.73z"/>
   <path class="fil2" d="M1342.42 1055.76c-2.49,-2.66 -1.79,-0.73 -1.69,-10.28 0.1,-9.46 -0.69,-28.53 0.95,-35.54l29.91 0c0.94,-1.93 -0.1,-0.09 0.93,-3.55l-27.15 0.41c-4.46,-0.05 -4.55,-0.85 -8.38,-1.06 -3.8,4.7 -2.24,20.78 -2.24,29.45l0.22 20.55c0.92,2.31 4.38,4.01 7.44,0.02z"/>
   <path class="fil2" d="M1366.92 1111.86l1.86 3.79c0.12,0.19 0.28,0.39 0.4,0.57 0.12,0.17 0.28,0.38 0.4,0.54l12.99 22.47c1.47,2.96 -0.09,-0.03 1.44,2.3l6.07 11.7c1.3,2.66 0.22,0.38 1.52,2.22l14.01 26.17c1.66,3.43 0.75,2.51 3.76,4.11 0.13,-4.71 0.69,-1.91 1.12,-6.55 -0.19,-0.2 -0.47,-0.41 -0.61,-0.53 -2.69,-2.43 -3.05,-2.08 -3.13,-7.88l-4.14 -1.89 0.79 -6.61 -4.33 -0.85 0.19 -6.87 -4.3 -0.61c0.01,-0.99 1.4,-2.93 -3.74,-3.74l-0.56 -7.86 -3.18 0 -0.03 -7.03 -4.65 -1.95c0.31,-1.43 1.31,-1.07 1.31,-6.92 -2.94,-0.63 -3.41,-0.44 -5.05,-0.56 -0.16,-2.58 1.2,-0.76 1.31,-6.92 -1.42,-0.31 -4.18,-0.87 -5.11,-1.49 -2.4,-1.62 -3.94,-4.77 -4.18,-5.07 -0.08,-0.1 -0.22,-0.36 -0.31,-0.45 -1.08,-1.01 1.63,-0.61 -1.93,-0.55 -0.2,0 -1.64,0.37 -1.94,0.45z"/>
   <path class="fil2" d="M1229.48 98.91l4.66 -0.67 0.32 -12.23c5.17,-0.11 2.09,1 4.08,-4.09 1.35,-3.44 1.88,-2.47 2.98,-4.47 2.39,-4.33 -0.85,-1.51 2.77,-6.33 1.19,-1.58 0.8,-0.2 1.53,-2.65 0.28,-0.94 0.23,-2.99 0.29,-4.16 9.25,-2.61 1.36,-3.45 9.73,-4.11 0,-5.9 -1.21,-3.39 -1.5,-7.67 4.57,-1.94 3.55,1.71 3.55,-5.42 3.54,2.38 4.57,-0.11 8.62,-4.22l8.73 -10.05c1.87,-1.84 1.91,-1.34 2.66,-4.63 -3.51,-1.33 -3.76,0.18 -8.81,5.03l-13.09 13.09c-1.55,1.64 -0.23,0.07 -1.75,1.99l-7.78 10.92c-0.76,1.23 -0.79,1.57 -1.32,2.43 -0.11,0.17 -0.24,0.41 -0.35,0.58l-10.19 18.79c-0.86,2.29 -0.5,3.44 -1.55,5.93 -0.97,2.29 -1.58,2.11 -2.43,5.01 -0.54,1.85 -1.02,5.02 -1.15,6.92z"/>
   <path class="fil2" d="M1519.32 1002.46c3.48,0 1.3,0.17 2.06,-0.74 -4.44,0.62 -2.58,-1.94 -2.8,4.67 5.33,-0.08 4.29,-0.71 6.49,-2.87l2.48 -1.99c-0.31,-4.48 -1.2,-1.87 -1.5,-6.73 4.74,-0.07 3.75,-0.22 6.33,-3.48 7.07,-8.93 5.74,-0.15 6.01,-8.3l8.79 -0.37c0.39,-3.06 0.96,-1.71 3,-4.47 4.9,-6.63 3.55,-2.59 4.29,-7.13 2.89,1.39 2.13,0.27 5.14,0.33 3.65,0.07 0.16,0.76 5.52,0.79l1.34 -2.23c3.19,-4.41 9.41,-0.81 10.81,-10.49l-9.67 3.42c-5.05,1.88 -0.57,0.44 -3.42,2.19 -0.94,0.58 0.33,0.07 -1.88,0.92l-14.72 7.72c-10.45,7.84 -17.95,12.96 -25.42,24.06l-1.94 3.19c-0.14,0.23 -0.33,0.55 -0.45,0.74 -0.12,0.19 -0.31,0.5 -0.46,0.75z"/>
   <path class="fil4" d="M108.93 1055.76c-6.08,0 -12.16,-0.02 -18.24,0 -9.47,0.03 -12.33,2.63 -12.23,-6.46 0.1,-9.08 1.12,-29.7 -0.38,-37.48l-3.68 -1.59 -0.07 46 3.74 0 0 3.74 32.26 0 -1.4 0 0 -4.21z"/>
   <path class="fil2" d="M1818.88 1193.76l0 -4.68c-6.42,1.08 -0.73,1.75 -3.86,-2.72 -1.15,-1.64 -1.95,-2.05 -4.72,-1.63 -1.89,0.29 -1.33,0.25 -2.26,0.79 -1,-3.54 -2.47,-4.62 -5.16,-6.65l-3.37 -2.22c-5.61,-4.89 -4.01,-1.14 -4.01,-7.2 -3.05,0.55 -1.61,0.23 -3.74,0.94l0.58 -7.11c-1.76,-1.75 -0.8,-0.46 -2.14,-1.7l-0.94 -0.93c-5.1,-5.17 -2.74,-1.8 -5.36,-3.92 0.38,-2.82 0.94,-2.35 0.94,-6.55 -4.55,-1.43 -2.16,0.52 -4.3,-0.93 0.53,-9.96 0.38,-6.56 -2.73,-10.69 -1.72,-2.28 -0.88,-4.19 -5.12,-5.02 0.4,6.35 1.31,2.04 2.66,10.24 0.82,4.99 4.97,12.86 7.78,17.47 0.11,0.17 0.23,0.42 0.34,0.59l14.82 17.91c0.14,0.14 0.33,0.33 0.47,0.47l5.65 5.57c1.49,1.09 0.56,0.31 1.76,1.04l6.26 4.03c2.27,1.43 2,1.37 3.27,3.27l3.18 -0.37z"/>
   <path class="fil2" d="M2718.88 1198.24l0 -9.72c-5.41,-1.45 -0.2,0.27 -5.32,-7.76l-6.09 -12.6c-1.32,-2.64 -0.98,-1.24 -1.95,-2.73 -1.49,-2.28 -1.28,-3.46 -2.68,-5.74l-7.93 -15.44c-2.14,-2.2 -0.32,-1.05 -3.13,-1.54l-0.56 6.55 4.3 2.8c-0.78,3.56 -0.09,-1.81 -0.97,2.87 -0.37,1.95 -0.34,1.98 -0.34,4.05 2.55,0.54 2.66,0.99 5.05,0.56 -0.32,2.15 -0.59,2.49 -0.56,5.61l1.5 0.92c0.2,0.12 0.48,0.29 0.68,0.41l1.55 6.15c0.24,0.18 0.55,0.36 0.75,0.47 0.19,0.11 0.51,0.32 0.74,0.44l3.37 1.33c-0.34,3.11 -0.93,3.05 -0.93,7.48 2.29,0.5 1.68,0.42 4.11,0.94l0.04 6.06 3.73 1.05 -0.4 6.92c2.62,0.57 1.93,0.69 5.05,0.93z"/>
   <path class="fil2" d="M1662.37 1202.55c9.09,0 10.59,-1.88 20.5,-4.74 4.71,-1.36 0.31,-1.15 8.27,-3.88l30.59 -22.7c2.06,-2.3 -1.11,1.41 0.85,-1.02l4.29 -7.86 -2.8 0c-3.96,4.67 0.81,0.74 -7.32,7.42l-8.31 7.65c-4.22,3.54 -5.01,2.72 -7.34,6.65 -1.66,2.8 1.09,1.49 -0.41,0.71 -2.39,0.87 -2.04,0.44 -5.61,0.47l-2.62 4.02c-0.93,-0.6 1.29,-0.94 -3.1,-1.05 -2.21,-0.06 -1.32,-0.07 -2.27,0.51 -2.6,1.57 -1.73,0.71 -1.73,5.03 -3.32,-0.31 -2.01,-0.51 -5.24,-1.03l-1.42 2.94c-0.18,0.49 -0.04,2.65 -0.08,1.08l-15.8 -0.18 -0.46 5.98z"/>
   <path class="fil2" d="M1508.1 587.33c0.52,-1.72 0.5,-2.56 1.19,-4.45 0.75,-2.04 0.67,-1.25 1.55,-3.11 2.5,-5.32 -0.73,-2.03 4.3,-10.64 2.05,-3.5 1.17,-4.03 5.99,-9.9l1.81 -1.93c0.13,-0.14 0.32,-0.34 0.45,-0.48l12.41 -11.9c0.15,-0.12 0.36,-0.3 0.51,-0.42 0.15,-0.12 0.38,-0.28 0.53,-0.4l5.85 -5.37c-6.85,0.01 -5.53,0.42 -7.88,2.46 -3.42,2.97 -3.76,0.48 -4.27,4.83 -1.32,0 -3.69,-0.33 -4.45,-0.33 -2.08,0.01 -1.14,-1.61 -2.91,1.02 -2.31,3.42 0.29,3.13 0.45,7.91 -5.23,-1.5 -3.12,-0.48 -7.45,4.33 -0.05,0.05 -1.36,1.45 -1.42,1.5 -1.58,1.31 -2.16,1.43 -4.78,1.64 0.09,3.91 0.66,3.04 0.56,6.55 -0.78,0.53 -2.72,-0.46 -3.53,3.76 -0.7,3.63 0.39,5.8 0.17,9.33 -6.12,0.04 -3.15,-0.3 -3.74,4.67 2.22,0.85 1.42,0.71 4.67,0.94z"/>
   <path class="fil2" d="M1435.36 271.32l13.59 3.98c3.42,0.86 2.5,1.4 5.63,2.79 1.53,0.68 1.45,0.42 2.76,0.98 0.21,0.09 0.46,0.18 0.66,0.28l12.78 7.79c1.44,1 3.12,2.65 4.47,3.91l4.79 4.58c4.12,-0.84 3.79,-1.81 4.48,-3.73 -1.3,-2.66 0.33,-1.12 -2.6,-2.3 -1.34,-0.54 -2.89,-0.31 -4.31,-0.31 -0.08,-0.3 -0.35,-1.21 -0.7,-1.73l-5.96 -7.2c-2.75,-2.87 -2.76,-3.97 -7.47,-3.28 -0.25,0.04 -0.59,0.16 -0.8,0.2 -0.2,0.04 -0.53,0.13 -0.78,0.23 -2.71,-7.22 -3.04,-3.42 -11.41,-3.74 -0.1,-2.88 1.58,-5.86 -10.72,-4.24 -2.18,0.29 -0.29,-0.23 -2.18,0.51 -1.69,0.67 -1.42,0.72 -2.24,1.29z"/>
   <path class="fil2" d="M1506.23 426.52l5.03 -0.68c0.22,-14.34 1.64,-11.25 0.02,-26.06 3.15,-0.08 3.09,-0.39 5.61,-0.93l-1.87 -15.7c-1.32,-2.36 -0.01,-0.55 -1.87,-1.41 -0.23,-0.11 -2.49,-0.7 -3.18,-1.02 0,4.06 -0.01,8.12 0.03,12.18 0.06,7.02 -0.04,5.67 -1.78,10.37 -1.8,4.86 -1.99,16.36 -1.99,23.25z"/>
   <path class="fil2" d="M2691.77 1142.71c1.5,-4.26 0.13,-3.53 -3.2,-10.83l-8.61 -12.89c-1.07,-1.3 -0.31,-0.08 -1.75,-1.99 -0.83,-1.1 -0.84,-1.34 -1.46,-2.28 -2.96,-4.5 -4.72,-6.88 -8.36,-7.53l-0.45 7.47c0.26,0.16 0.59,0.12 0.67,0.45 0.8,3.16 -0.33,-0.97 1.93,2.03l12.43 10.61 0 7.85c2.31,0.44 3.37,0.41 4.11,0.56l0 6.55 4.68 -0z"/>
   <path class="fil2" d="M1903.59 1145.51c0,0 1.02,2.84 4.02,1.36 2.7,-1.33 0.67,-1.97 3.14,-4.38 3.06,-2.99 -1.45,0.93 2.94,-1.08l7.7 -5.23c0.4,-0.24 2.59,-0.48 3.88,-0.77l-0.38 -7.85 3.91 -1.3 -0.24 -10.3c-2.56,-1.31 -2.42,-1.21 -4.4,-2.05 -2.23,13.22 1.17,7.98 -3.2,13.44l-2.36 4.19c-6.79,12.32 -12.55,6.67 -15.01,13.97z"/>
   <path class="fil2" d="M1902.09 1145.51c-2.5,0 -5.43,-0.14 -7.88,-0 -4.16,0.23 -3.45,0.88 -7.48,0.98 -6.52,0.16 -8.4,-2.38 -16.8,-0.04 -0.01,-1.36 0.31,-0.93 -1.31,-0.93 0,8.21 1.39,5.64 14.36,5.32 7.02,-0.18 14.38,0.76 19.11,-0.27l0 -5.05z"/>
   <path class="fil2" d="M1848.42 1201.62c-0,0 -2.83,3.19 5.61,3.74l28.05 0.93 -2.37 -5.19c-1.8,-1.05 -2.2,-1.47 -5.52,-1.08 -12.03,1.4 -13.76,0.18 -18.24,0.47 -3.64,0.24 -3.67,1.71 -7.53,1.14z"/>
   <path class="fil2" d="M2665.59 1104.37c-1.46,-3.58 -0.57,-3.1 -6.55,-5.61 -0.21,-0.09 -0.47,-0.17 -0.67,-0.26l-1.26 -0.61c-3.09,-1.74 -2.11,-2.5 -6.49,-2.86l0 -1.87c2.65,0 4.61,0.25 7.02,-0.44 2.23,-0.64 1.57,-0.28 2.44,-1.32 1.68,-2.02 0.71,0.32 1.01,-2.91l-2.88 -0.42c-0.17,0.01 -0.5,0.07 -0.66,0.09 -7.17,0.89 -8.77,-1.94 -8.81,4.07 -0.87,0 -3.06,-0.09 -3.8,0.1 -2.91,0.74 -1.93,0.32 -3.67,1.77 2.46,2.04 2.94,1.75 6.55,1.87l0.69 4.1c3.58,0.02 3.31,0.46 5.85,-0.92 2.88,4.14 -1.7,2.89 3.32,4.85 2.92,1.14 4.07,-0.4 7.9,0.39z"/>
   <path class="fil2" d="M1441.91 1088.49c5.41,1.73 11.82,-3.66 16.11,-7.08 2.62,-2.08 4.26,-3.19 6.63,-5.52 4.14,-4.06 4.3,-3.27 5.11,-7.42 -4.77,-2.55 -5.98,0.04 -5.98,4.68 -1.31,-0.74 1.63,-1.78 -1.55,-0.22 -1.3,0.63 -1.16,2.03 -1.82,3.59 -3.45,0.3 -4.17,-0.49 -7.85,-0.56l0 3.74c-1.07,-0.72 -0.37,-0.56 -2.22,-0.52 -0.24,0 -2.15,0.46 -2.41,0.53l-0.23 4.49c-5.18,0.6 -0.54,0.66 -5.35,1.13l-0.44 3.18z"/>
   <path class="fil2" d="M1699.76 265.71l-4.33 -1.31c-4.73,-2.01 -0.79,-2.25 -8.72,-3.4 -7.97,-1.15 -2.96,-3.71 -14.99,-3.71 -1.44,0.84 -1.46,3.66 -1.5,5.05l11.42 -0.77c-0.02,5.36 -0.62,3.21 1.85,4.51l0 1.87c3.86,-0.68 4.59,-0.93 9.54,-0.93 0.15,4.92 -0.07,3.84 5.6,4.11 1.11,-2.6 0.96,-1.86 1.12,-5.42z"/>
   <path class="fil2" d="M2661.11 1088.49c4.24,1.6 6.24,-0.11 12.49,-4.16l12.24 -10.18c2.64,-2.72 2.47,-2.32 3.13,-5.67 -1.21,-0.65 -0.27,-1.71 -3.55,-0.53 -5.33,1.9 -1.23,0.72 -2.46,3.27 -2.19,4.56 -0.31,-1.84 -3.34,5.31 -3.45,0.3 -4.16,-0.49 -7.85,-0.56 -0.02,5.93 1.23,2.46 -4.67,3.74 -0.05,6.21 0.73,3.29 -2.33,5.01 -4.81,2.72 -1.98,-2.25 -3.65,3.78z"/>
   <path class="fil2" d="M1631.52 1206.29c11.16,0 13.85,0.71 25.01,-1.13 5.72,-0.94 5.17,-2.48 5.84,-3.54 -3.02,-0.35 -4.01,-1.26 -7.45,-1.21 -4.24,0.07 -2.67,0.94 -7.87,0.55 -2.65,-0.2 -6.07,-0.64 -8.68,-0.81 -2.43,-0.15 0.88,-0.5 -1.96,0.01 -5.12,0.92 -4.66,4.25 -4.89,6.12z"/>
   <path class="fil2" d="M1469.77 1135.22c0,-5.12 -6.6,-13.31 -9.89,-17.22l-3.47 -4.94c-0.8,-1.02 -1.8,-2.14 -2.55,-3 -2.12,-2.42 -0.6,-2.16 -4.66,-2.88l0 2.8c2.3,2.13 2.93,1.34 3.54,6.17 0.22,1.71 0.17,0.98 0.2,3.18 2.81,-0.7 1.16,-0.83 1.58,0.41 0.04,0.11 0.06,0.42 0.1,0.55 1.72,4.76 1.24,2.5 4.58,4.16 4.41,2.19 -0.28,1.2 4.54,3.31l0.03 7.85c2.93,0.56 3.23,0.86 5.98,-0.38z"/>
   <path class="fil2" d="M1445.46 1102.88c-1.89,-3.28 -2.67,-2.75 -6.28,-4.38l-3.46 -2.15c-2.15,-1.24 -1.43,-1.09 -4.29,-1.32l0 -1.87c2.65,0 4.61,0.25 7.03,-0.44 4.16,-1.2 3.32,-2.87 3.45,-4.23l-4.5 -0.37c-2.15,0.2 -3.51,0.37 -5.98,0.37 -2.29,2.7 -1.82,-3.66 -1.87,3.74 -5.48,0 -4.64,-0.49 -7.47,1.87 2.29,1.9 2.41,1.98 6.68,1.85l0.42 4.13c4.1,0 3.57,0.07 6.55,-0.93 0.09,0.23 0.76,2.39 0.86,2.61 0.84,1.81 0.3,0.83 1.38,2.16 4.74,0.14 3.85,-0.69 7.48,-1.03z"/>
   <path class="fil2" d="M1818.88 1193.76c0.13,0.17 0.4,0.17 0.48,0.46l2 1.74c4.23,3.09 4.83,1.23 10.03,3.99 4.27,2.27 10.81,3.39 17.04,1.66 -1.89,-3.69 0.57,-6.11 -6.41,-5.76 -3,0.15 -6.46,1.35 -10.41,1.09 -0.61,-1.7 -0.27,-2.84 -1.87,-4.68 -2.56,0.06 -9.08,0.9 -10.85,1.5z"/>
   <path class="fil2" d="M2701.12 1007.13c-1.44,-9.14 -4.94,-13.05 -8.48,-20.49 -2.06,-4.33 -0.6,-3.05 -5.35,-4.75 0,2.51 -0.38,5.15 0.58,7.29 0.11,0.24 0.27,0.45 0.39,0.67 1.43,2.5 1.34,0.07 2.62,4.79 0.45,1.66 0.09,1.36 0.9,2.93 0.11,0.21 0.27,0.42 0.39,0.62 1.28,2.08 2.68,1.78 2.78,8.4l6.17 0.56z"/>
   <path class="fil2" d="M1481.92 1007.13c-1.44,-9.14 -4.94,-13.05 -8.48,-20.49 -2.06,-4.33 -0.6,-3.05 -5.35,-4.75l0 7.48c0.24,0.19 0.64,0.11 0.76,0.51 1.24,4.22 0.45,-2.09 2.42,2.58 1.46,3.48 -1.11,2.1 2.61,6.81 0.72,0.9 1.77,0.86 1.88,7.29l6.17 0.56z"/>
   <path class="fil2" d="M1563.26 241.4c-7.44,0 -6.23,-1.97 -12.41,-3.48 -5.91,-1.44 -1.08,0.38 -5.14,-2.28 -3.07,-2.01 -2.07,-1.72 -6.75,-1.72l-0.68 5.03c2.97,0.17 5.74,-0.06 7.22,-0.64l1.87 4.49c4.2,0.25 4.16,1.28 8.98,0.47 0.19,6.14 -0.41,2.7 1.52,3.84 3.04,1.79 4.44,-0.1 4.46,-0.1l0.93 -5.61z"/>
   <path class="fil5" d="M1740.91 293.38c-0.15,-0.22 -0.38,-0.81 -0.45,-0.65 -0,0.01 -0.6,-1.69 -6.17,-6.37 -0.15,-0.12 -0.35,-0.31 -0.5,-0.43l-12.69 -9 0.43 8.41c8.6,-0.27 5.68,1.12 7.87,3.25 4.18,4.06 3.74,-1.51 3.86,5.36l7.67 -0.56z"/>
   <path class="fil2" d="M1716.59 273.19c-8.34,0 -0.91,-1.37 -9.87,-4.14 -6.63,-2.05 -2.34,-2.27 -7.51,-3.34 0.28,8.02 -1.04,-0.03 2.55,6.09 0.12,0.21 0.23,0.45 0.35,0.66 0.13,0.23 0.28,0.49 0.41,0.7 0.14,0.23 0.36,0.55 0.48,0.75 1.35,2.2 6.39,0.25 7.06,0.21 -0.05,0.02 -1.38,-3.51 -0.47,1.12 0.51,2.58 0.14,1.51 1.4,3.09l3.74 -0.04c1.35,-1.62 1.48,-0.88 1.86,-5.1z"/>
   <path class="fil2" d="M1869.94 1146.44c-0.04,-0.25 -0.14,-0.89 -0.19,-0.74 -0.01,0.02 -0.22,-1.9 -2.45,-3.16 -2.91,-1.65 1.01,0.56 -2.03,-0.77l-3.91 -2.64c-3.42,-2.69 -4.58,-3.83 -7.13,-4.09l-0.72 8.03c10.42,0.09 5.6,1.2 7.82,2.77 3.09,2.18 4.73,0.55 8.61,0.61z"/>
   <path class="fil6" d="M818.1 1135.22l-6.28 -10.54c-0.81,-2.27 0.01,-1.89 -1.2,-4.41l-3.74 0c-0.3,3.63 -0.84,2.44 -0.93,6.55l4.67 0 0 8.41c3.09,-0.65 3.54,-0.95 7.48,-0.01z"/>
   <path class="fil5" d="M1422.08 1202.55l0 -5.61c-3.44,0.29 -1.37,-0.29 -3.55,0.93l0 -4.86c-0.82,-0.18 -1.91,0.24 -3.98,-1.87 -0.25,-0.25 -1.03,-1.76 -1.08,-2.4l-3.55 -0.22 2.14 4.47c1.14,2.56 2.4,6.16 4.87,8.15 1.71,1.38 2.41,1.34 5.15,1.4z"/>
   <path class="fil5" d="M2002.7 1115.78c1.48,-3.44 0.93,-8.42 0.93,-13.27 -2.1,0.78 -2.56,0.88 -5.6,0.93l-0.01 12.15 4.68 0.19z"/>
   <path class="fil2" d="M1277.91 28.23c3.75,0.46 3.77,0.94 8.61,0 0.11,-4.68 -1.06,-3.09 3.18,-3.37l0.56 -5.98c-7.47,2.28 -3.2,1.09 -7.39,3.83 -4.58,2.99 -4.86,0.06 -4.95,5.52z"/>
   <path class="fil2" d="M1717.53 986.57c0,-4.88 0.65,-1.26 -2.01,-3.66 -1.19,-1.07 -1.43,-0.71 -2.82,-1.79 -3.61,-2.81 -1.24,-2.18 -6.39,-3.89l-0.66 4.67 3.71 2.49c0.12,0.14 0.24,0.39 0.35,0.55 0.13,0.18 0.27,0.46 0.38,0.64l0.9 1.47c3.43,0.16 3.93,0.13 6.54,-0.47z"/>
   <path class="fil4" d="M955.54 335.37l6.08 0 0 -5.61 -3.28 0 -0.62 0.95c-0.36,0.8 -0.38,1.03 -0.74,1.9 -0.97,2.35 -0.29,1.23 -1.45,2.76z"/>
   <path class="fil4" d="M651.67 592.48l6.08 0 -0.01 -5.61 -3.27 0 -1.36 2.85c-0.97,2.35 -0.29,1.23 -1.45,2.76z"/>
   <path class="fil4" d="M2051.32 592.48c-1.03,-1.54 -1.25,-3.6 -1.87,-5.61l-3.27 0c-0.38,3.97 -0.82,1.72 -0.94,5.61l6.08 0z"/>
  </g>
 </g>
</svg>
