<?xml version="1.0" encoding="UTF-8"?>
<!DOCTYPE svg PUBLIC "-//W3C//DTD SVG 1.1//EN" "http://www.w3.org/Graphics/SVG/1.1/DTD/svg11.dtd">
<!-- Creator: CorelDRAW 2021 (64 Bit) -->
<svg xmlns="http://www.w3.org/2000/svg" xml:space="preserve" width="138.874mm" height="53.9686mm" version="1.1" style="shape-rendering:geometricPrecision; text-rendering:geometricPrecision; image-rendering:optimizeQuality; fill-rule:evenodd; clip-rule:evenodd"
viewBox="0 0 1078.47 419.11"
 xmlns:xlink="http://www.w3.org/1999/xlink"
 xmlns:xodm="http://www.corel.com/coreldraw/odm/2003">
 <defs>
  <style type="text/css">
   <![CDATA[
    .fil0 {fill:#C63D14}
    .fil1 {fill:#C63D14;fill-rule:nonzero}
   ]]>
  </style>
 </defs>
 <g id="Camada_x0020_1">
  <metadata id="CorelCorpID_0Corel-Layer"/>
  <g id="_2143443965344">
   <path class="fil0" d="M688.68 198.07c0,-23.53 18.95,-46.36 42.14,-46.36 51.33,0 55.18,37.12 54.78,46.36l-96.92 0zm-0.26 25.28l126.68 0c0,-137.46 -155.91,-116.49 -155.91,-14.74l0 10.53c0,109.86 145.44,103.51 151.67,27.39l-27.35 0c-3.77,45.28 -94.82,44.33 -94.82,-16.86l-0.26 -6.32z"/>
   <path class="fil0" d="M865.66 168.57c0,-20.34 72.87,-29.34 73.75,10.53l27.39 0c0,-37.08 -26.53,-52.67 -65.31,-52.67 -73.13,0 -78.98,61.88 -48.13,81.84 18.24,11.79 45.97,14.06 67.4,21.09 45.13,14.81 24.16,48.77 -10.84,48.77 -29.05,0 -44.25,-4.45 -50.57,-31.6l-27.39 0c0.4,18.04 9.81,34.43 20.68,42.52 11.92,8.86 29.85,12.1 47.37,13.87 4.21,0.42 22.23,-1.43 28.05,-2.43 42.92,-7.37 65.38,-53.47 30.88,-84.02 -25.62,-22.69 -93.27,-9.46 -93.27,-47.89z"/>
   <path class="fil0" d="M558.05 278.13c-41.22,0 -42.14,-15.76 -42.14,-54.78l-31.6 0 0.01 16.85c0,37.05 22.71,63.21 58.99,63.21l18.93 0c36.33,0 59.02,-26.38 59.02,-63.21l0 -168.56c0,-8.79 -7.32,-6.32 -25.28,-6.32 -10.55,0 -6.32,34.8 -6.32,54.78 0,21.07 0,42.14 0,63.21 0,41.54 9.43,94.82 -31.61,94.82z"/>
   <path class="fil0" d="M987.87 149.6c0,9.18 8.89,6.32 29.5,6.32 0,146.49 -13.5,143.28 61.1,143.28l0 -25.28c-24.64,0 -33.72,3.7 -33.72,-12.65l0.04 -105.35 33.68 0 -0.06 -25.28 -33.65 0 -0.06 -50.57 -27.32 0 0 50.57 -29.5 0 0 18.96z"/>
   <path class="fil1" d="M369.69 206.35c0,-23.7 -17.28,-43.47 -40.04,-47.69l54.45 -158.66 -257.36 0 54.53 158.98c-21.97,4.83 -38.45,24.23 -38.45,47.37 0,17.38 9.29,32.64 23.23,41.22 -6.7,9.86 -14.65,19.14 -23.75,27.63 -14.44,13.46 -30.53,23.67 -47.87,30.38 -17.47,-10.84 -24.85,-31.29 -17.18,-49.1l0.6 -1.39c0.38,-0.87 0.75,-1.75 1.13,-2.62 19.19,-6.61 33,-24.65 33,-45.84 0,-26.76 -22.04,-48.54 -49.13,-48.54 -27.09,0 -49.13,21.77 -49.13,48.54 0,13.51 5.62,25.74 14.66,34.55 -1.64,3.45 -3.36,6.96 -5.14,10.56 -8.27,16.78 -17.64,35.8 -21.19,56.93 -7.04,41.95 4.31,75.48 31.98,94.43 16.79,11.49 33.83,16.02 50.98,16.01 32.3,-0 64.97,-16.03 96.93,-31.72 23.02,-11.29 46.82,-22.97 70.32,-28.7 8.75,-2.13 17.75,-3.41 27.28,-4.77 18.9,-2.69 38.44,-5.48 55.74,-15.38 20.06,-11.48 33.8,-30.74 37.68,-52.84 3.33,-18.97 -0.68,-37.97 -10.47,-54.08 4.56,-7.36 7.2,-16.02 7.2,-25.27l0 0zm-19.28 0c0,16.26 -13.39,29.48 -29.84,29.48 -16.45,0 -29.84,-13.23 -29.84,-29.48 0,-16.26 13.39,-29.48 29.84,-29.48 16.46,0 29.84,13.23 29.84,29.48l0 0zm6.79 -187.3l-48.08 140.1c-2.08,0.49 -4.12,1.12 -6.09,1.86l-47.5 -95.73 -47.63 95.16c-2.06,-0.7 -4.18,-1.28 -6.35,-1.71l-47.91 -139.7 203.56 0 0 0zm-165.25 157.81c16.45,0 29.84,13.23 29.84,29.48 0,16.26 -13.39,29.48 -29.84,29.48 -16.45,0 -29.84,-13.23 -29.84,-29.48 0,-16.26 13.39,-29.48 29.84,-29.48l0 0zm-129.11 0.28c16.46,0 29.84,13.23 29.84,29.48 0,16.26 -13.39,29.48 -29.84,29.48 -16.45,0 -29.84,-13.23 -29.84,-29.48 0,-16.26 13.39,-29.48 29.84,-29.48l0 0zm291.13 105.29c-2.9,16.53 -13.23,30.96 -28.34,39.61 -14.08,8.06 -30.96,10.47 -48.83,13.01 -9.57,1.36 -19.47,2.78 -29.14,5.13 -25.57,6.23 -50.34,18.38 -74.29,30.14 -47.93,23.52 -89.32,43.83 -128.35,17.11 -28.59,-19.58 -27.27,-55.8 -23.94,-75.65 3.09,-18.39 11.43,-35.33 19.5,-51.7 1.4,-2.83 2.75,-5.61 4.08,-8.37 4,1.58 8.26,2.66 12.7,3.15 -8.21,26.79 4.71,55.91 31.82,69.68l3.71 1.88 3.93 -1.38c21.44,-7.54 41.19,-19.65 58.71,-35.98 11.33,-10.56 21.06,-22.24 29.06,-34.72 2.4,0.36 4.86,0.55 7.36,0.55 27.09,0 49.13,-21.77 49.13,-48.54 0,-14.39 -6.38,-27.34 -16.49,-36.24l30.87 -61.69 31.19 62.86c-9.36,8.84 -15.2,21.29 -15.2,35.06 0,26.77 22.04,48.54 49.13,48.54 10.41,0 20.06,-3.22 28.01,-8.7 5.52,11.17 7.58,23.73 5.38,36.25l0 0z"/>
  </g>
 </g>
</svg>
