<?xml version="1.0" encoding="UTF-8"?>
<!DOCTYPE svg PUBLIC "-//W3C//DTD SVG 1.1//EN" "http://www.w3.org/Graphics/SVG/1.1/DTD/svg11.dtd">
<!-- Creator: CorelDRAW 2021 (64 Bit) -->
<svg xmlns="http://www.w3.org/2000/svg" xml:space="preserve" width="73.5587mm" height="82.9247mm" version="1.1" style="shape-rendering:geometricPrecision; text-rendering:geometricPrecision; image-rendering:optimizeQuality; fill-rule:evenodd; clip-rule:evenodd"
viewBox="0 0 337.39 380.35"
 xmlns:xlink="http://www.w3.org/1999/xlink"
 xmlns:xodm="http://www.corel.com/coreldraw/odm/2003">
 <defs>
  <style type="text/css">
   <![CDATA[
    .fil0 {fill:#61DAFB}
    .fil1 {fill:#60DAFB;fill-rule:nonzero}
   ]]>
  </style>
 </defs>
 <g id="Camada_x0020_1">
  <metadata id="CorelCorpID_0Corel-Layer"/>
  <g id="_2180329743424">
   <g>
    <path class="fil0" d="M100.49 329.12l0 49.71c0,0.5 0.36,0.86 0.86,0.86l6.21 0c0.66,0 0.86,-0.63 0.86,-1.29l0 -21.86 11.79 0 0 22.28c0,1.41 4.48,0.86 7.07,0.86 0.66,0 1.29,-0.2 1.29,-0.86l0 -49.28c0,-0.58 -0.1,-0.59 -0.21,-1.07 -3.97,-0.33 -3.96,-0.33 -7.93,0 -0.52,2.25 -0.21,18.45 -0.21,22.07l-11.14 0c-0.93,0 -0.66,-1.15 -0.65,-2.14 0.06,-4.09 0.27,-17.88 -0.21,-19.93 -1.93,-0.45 -4.78,-0.21 -6.86,-0.21 -0.5,0 -0.86,0.36 -0.86,0.86z"/>
    <path class="fil0" d="M188.77 329.12l0 49.71c0,0.5 0.36,0.86 0.86,0.86 8.27,0 6.86,1.14 6.86,-4.29 0,-1.64 0,-3.29 0,-4.93 -0,-3.02 -0.4,-2.82 1.51,-5.14 0.62,-0.75 1.11,-1.22 1.28,-1.94 1.73,1.16 0.65,1.37 1.82,3.75 0.43,0.87 0.2,1.39 0.57,2.22 0.86,1.98 0.27,0.41 0.7,2.3 0.26,1.15 0.54,0.66 0.78,2.01 0.3,1.72 0.42,1.16 1.04,3.68l0.6 1.33c0.24,0.53 0.22,1 0.93,1 5.97,0 8.46,0.92 6.27,-3.06 -0.61,-1.12 0.14,-0.73 -0.79,-2.42l-1.29 -3.64c-0.01,-0.04 -0.09,-0.52 -0.09,-0.55l-0.23 -0.63c-1.04,-2.08 -0.36,-1.26 -0.82,-2.4 -0.29,-0.72 -0.29,-0.26 -0.56,-1.15l-0.86 -2.35c-0.19,-0.64 -0.06,-0.83 -0.29,-1.43 -0.27,-0.69 -0.36,-0.32 -0.6,-1.11 -0.16,-0.52 -0.06,-0.71 -0.23,-1.27 -0.39,-1.31 -1.99,-2.6 -0.16,-5.13l1.96 -2.97c0.13,-0.21 0.12,-0.26 0.3,-0.56l2.69 -4.17c0.03,-0.04 0.07,-0.09 0.09,-0.12 0.03,-0.04 0.07,-0.08 0.1,-0.12l1.02 -1.55c0.46,-0.71 0.36,-0.17 0.36,-1.36 -1.32,-0.31 -6.7,-0.54 -7.6,0.11 -0.03,0.02 -0.59,0.61 -0.63,0.66 -0.29,0.38 -0.27,0.46 -0.5,0.79l-3.85 5.58c-0.3,0.39 -0.27,0.4 -0.51,0.78l-1.86 2.64c-0.03,0.04 -0.07,0.08 -0.09,0.12l-0.67 1.04c-0.02,0.04 -0.06,0.11 -0.07,0.14 -0.02,0.03 -0.04,0.1 -0.07,0.14 -0.52,-2.23 -0.21,-23.1 -0.21,-27.21 -1.93,-0.45 -4.78,-0.21 -6.86,-0.21 -0.5,0 -0.86,0.36 -0.86,0.86z"/>
    <path class="fil0" d="M142.06 370.69l0 -18.21c0,-1.01 0.75,-2.06 1.49,-2.37 0.09,-0.04 0.44,-0.15 0.64,-0.23 0.9,-0.36 0.74,-0.44 2.25,0.14 1.55,0.59 1.32,0.81 1.59,2.49 0.78,4.85 0.46,9.11 0.46,14.33 0,1.39 -0.19,2.53 -0.41,3.66 -0.32,1.65 -0.03,2.02 -1.48,2.59 -1.66,0.65 -2.91,0.8 -3.93,-0.87 -0.29,-0.47 -0.62,-0.77 -0.62,-1.53zm-8.36 -14.57c0,2.83 -0.23,11.13 0.27,13.44 0.08,0.35 0.26,0.85 0.31,1.19 0.21,1.26 -0.09,1.69 0.63,3.01 0.49,0.89 0.3,0.95 0.6,1.54l2.43 2.92c1,0.87 2.19,1.3 3.43,1.5 2.09,0.34 -0.23,0.61 4.96,0.61 1.13,0 1.44,-0.43 2.2,-0.58 1.45,-0.28 0.97,0.24 2.34,-0.66l0.26 -0.17c2.31,-1.31 2.61,-1.99 3.82,-4.11 0.45,-0.79 1.16,-3.4 1.26,-4.52 0.3,-3.36 0.36,-14.04 0.02,-17.2 -0.22,-2.03 -0.78,-3.62 -1.66,-5.41 -0.43,-0.88 -1.07,-1.75 -1.89,-2.39 -0.28,-0.21 -0.61,-0.47 -0.87,-0.63l-0.82 -0.47c-0.59,-0.41 -0.16,-0.35 -0.92,-0.58 -0.62,-0.19 -0.73,-0.06 -1.35,-0.15 -1.89,-0.28 0.25,-0.61 -4.75,-0.61 -1.13,0 -4.61,1.15 -5.56,1.73l-1.54 1.46c-0.94,0.92 -1.23,1.58 -1.61,2.68 -0.66,1.89 -0.56,-0.44 -0.94,3.56 -0.12,1.22 -0.63,1.29 -0.63,3.87z"/>
    <path class="fil0" d="M168.84 369.41c0,-2.62 -0.37,-15.54 0.32,-17.04 0.99,-2.18 0.26,-1.83 1.57,-2.29 1.55,-0.54 1.62,-0.49 2.88,-0.01 1.27,0.49 0.55,0.14 1.49,1.94 0.28,0.54 0.39,0.76 0.39,1.54l0 16.07c0,1.85 -0.86,1.28 -0.86,3.21 -1.4,0.12 -1.6,0.86 -2.57,0.86 -1.06,0 0.46,0.2 -1.21,-0.51 -1.51,-0.64 -0.75,-0.4 -1.62,-2.24 -0.27,-0.58 -0.39,-0.73 -0.39,-1.54zm-7.71 -15.64c0,3.39 -0.18,15.28 0.17,17.83 0.21,1.53 0.27,0.99 0.63,1.94 0.41,1.1 -0.11,0.54 0.73,1.85 0.51,0.8 0.29,0.83 0.98,1.59l1.32 1.25c0.84,0.72 0.35,0.26 1.25,0.68 0.39,0.18 0.06,0.01 0.4,0.24 0.39,0.26 -0.28,0.18 0.82,0.46 0.45,0.12 0.68,0.06 1.15,0.14 2.22,0.38 -0.54,0.59 5.2,0.59l3.33 -0.74c1.02,-0.36 0.02,0.03 0.51,-0.34l0.36 -0.28c0.04,-0.02 0.1,-0.05 0.14,-0.07 0.29,-0.14 0.24,-0.04 0.63,-0.23l1.31 -1.04c1.12,-1.03 0.95,-1.12 1.44,-1.99 1.11,-1.96 0.31,-0.68 1.29,-2.78 0.02,-0.04 0.05,-0.1 0.07,-0.15 0.66,-1.75 0.79,-20.03 -0.03,-22.22 -0.27,-0.73 -0.24,-0.19 -0.53,-1.18 -0.04,-0.13 -0.12,-0.54 -0.17,-0.69 -0.42,-1.26 -2.27,-3.65 -3.53,-4.18 -1.86,-0.79 -0.76,-0.76 -2.46,-0.97 -2.36,-0.3 -0.17,-0.63 -5.16,-0.63l-4.78 1.44c-0.86,0.37 -0.52,-0.01 -1.36,0.78 -0.17,0.16 -0.18,0.17 -0.33,0.31 -0.29,0.28 -0.37,0.37 -0.63,0.65l-0.32 0.33c-0.76,0.86 -2.08,3.87 -2.23,4.84 -0.14,0.91 -0.21,1.5 -0.21,2.57z"/>
    <path class="fil0" d="M214.69 351.2c0,1.55 -0.33,3.76 0.51,5.06l1.17 1.83c0.03,0.03 0.07,0.08 0.1,0.12l0.19 0.24c0.03,0.03 0.07,0.08 0.1,0.12l0.31 0.33c0.14,0.14 0.26,0.25 0.43,0.42l9.58 7.13c0.77,0.62 0.95,1.15 1.42,2.01 0.66,1.23 0.89,2.46 0.04,3.66 -0.04,0.05 -0.14,0.2 -0.18,0.25 -1.17,1.59 -2.79,1.43 -4.44,0.66l-1.1 -0.83c-1.14,-1.13 -1.13,-1.99 -1.93,-3 -0.44,-0.55 -0.52,-0.65 -1.27,-0.65 -1.61,0 -1.34,0.64 -2.79,0.85 -3.59,0.51 -1.68,3.05 -1.25,4.06 0.13,0.3 0.17,0.59 0.34,0.94l0.93 1.43c0.29,0.36 0.07,0.06 0.31,0.33l3.71 3.14c0.98,0.64 0.72,0.2 1.87,0.49 2.78,0.7 0.75,0.54 4.6,0.54l4.91 -1.52 2.95 -2.41c0.03,-0.03 0.07,-0.08 0.1,-0.11 0.03,-0.03 0.07,-0.08 0.1,-0.12 0.03,-0.04 0.07,-0.08 0.09,-0.12l0.7 -1.22c0.86,-1.36 1.02,-6.79 0.09,-8.36 -0.16,-0.27 -0.16,-0.19 -0.35,-0.51 -0.18,-0.32 -0.13,-0.3 -0.28,-0.58 -0.23,-0.45 -0.31,-0.49 -0.58,-0.92 -0.35,-0.55 -0.23,-0.49 -0.71,-1.01l-6.85 -5.58c-1.11,-0.73 -3.67,-2.47 -4.37,-3.56l-0.17 -0.26c-0.03,-0.04 -0.06,-0.09 -0.09,-0.12 -0.74,-1.12 -0.48,-2.03 0.25,-3.08 0.04,-0.05 0.13,-0.21 0.17,-0.26 0.35,-0.41 1.85,-1.12 2.53,-1.12 0.57,0 2.3,0.94 2.71,1.36 0.04,0.04 0.16,0.18 0.21,0.22 2.13,2.36 0.97,3.56 3.51,3.56 1.02,0 1.39,-0.67 2.38,-0.83 0.53,-0.09 0.95,-0.07 1.39,-0.33 1.49,-0.88 0.42,-2.77 -0.08,-3.81 -0.19,-0.39 -0.16,-0.51 -0.37,-0.91 -0.64,-1.21 -1.59,-2.49 -2.66,-3.34l-1.96 -1.25c-0.4,-0.25 0.01,-0.02 -0.37,-0.27l-3.9 -1.03c-3.93,0 -1.77,-0.13 -4.2,0.51 -1.17,0.31 -1.5,0.08 -2.51,0.7 -0.05,0.03 -0.21,0.13 -0.27,0.16 -0.31,0.15 -0.2,0.06 -0.47,0.17 -0.42,0.16 -0.31,0.08 -0.71,0.36 -0.34,0.24 -0.03,0.04 -0.35,0.29 -0.97,0.74 -1.88,1.55 -2.47,2.67l-0.28 0.58c-0.51,0.91 -0.73,1.72 -0.73,2.91z"/>
   </g>
   <g>
    <path class="fil1" d="M337.39 150.27c0,-22.35 -27.99,-43.53 -70.9,-56.67 9.9,-43.74 5.5,-78.54 -13.89,-89.68 -4.47,-2.61 -9.7,-3.85 -15.4,-3.85l0 15.34c3.16,0 5.71,0.62 7.84,1.79 9.35,5.36 13.41,25.79 10.25,52.06 -0.75,6.46 -1.99,13.27 -3.51,20.22 -13.48,-3.3 -28.2,-5.85 -43.67,-7.5 -9.28,-12.72 -18.91,-24.28 -28.61,-34.39 22.42,-20.84 43.46,-32.25 57.77,-32.25l0 -15.34c-18.91,0 -43.67,13.48 -68.7,36.86 -25.03,-23.25 -49.79,-36.59 -68.7,-36.59l0 15.34c14.24,0 35.35,11.35 57.77,32.05 -9.63,10.11 -19.26,21.59 -28.4,34.32 -15.54,1.65 -30.26,4.2 -43.74,7.56 -1.58,-6.88 -2.75,-13.55 -3.58,-19.94 -3.23,-26.27 0.76,-46.7 10.04,-52.13 2.06,-1.24 4.74,-1.79 7.91,-1.79l0 -15.34c-5.78,0 -11,1.24 -15.54,3.85 -19.33,11.14 -23.66,45.87 -13.69,89.47 -42.78,13.2 -70.63,34.32 -70.63,56.6 0,22.35 27.99,43.53 70.9,56.67 -9.9,43.74 -5.5,78.54 13.89,89.68 4.47,2.61 9.7,3.85 15.47,3.85 18.91,0 43.67,-13.48 68.7,-36.86 25.03,23.25 49.79,36.59 68.7,36.59 5.78,0 11,-1.24 15.54,-3.85 19.32,-11.14 23.66,-45.87 13.68,-89.47 42.64,-13.14 70.49,-34.32 70.49,-56.6l0 0zm-89.54 -45.87c-2.55,8.87 -5.71,18.02 -9.29,27.16 -2.82,-5.5 -5.78,-11 -9.01,-16.51 -3.16,-5.5 -6.53,-10.87 -9.9,-16.09 9.77,1.44 19.19,3.23 28.2,5.43zm-31.5 73.24c-5.36,9.29 -10.86,18.09 -16.57,26.27 -10.25,0.89 -20.63,1.37 -31.09,1.37 -10.38,0 -20.77,-0.48 -30.95,-1.31 -5.71,-8.18 -11.28,-16.92 -16.64,-26.13 -5.23,-9.01 -9.97,-18.16 -14.3,-27.37 4.26,-9.22 9.08,-18.43 14.24,-27.44 5.36,-9.28 10.86,-18.09 16.57,-26.27 10.25,-0.89 20.63,-1.38 31.09,-1.38 10.38,0 20.77,0.48 30.95,1.31 5.71,8.18 11.28,16.92 16.64,26.13 5.23,9.01 9.97,18.16 14.3,27.37 -4.33,9.21 -9.08,18.43 -14.24,27.44l0 0zm22.21 -8.94c3.61,8.95 6.78,18.13 9.48,27.39 -9.01,2.2 -18.5,4.06 -28.33,5.5 3.37,-5.29 6.74,-10.73 9.9,-16.3 3.16,-5.5 6.12,-11.07 8.94,-16.57l0.01 -0.02zm-69.73 73.38c-6.4,-6.6 -12.79,-13.96 -19.12,-22.01 6.19,0.28 12.52,0.48 18.91,0.48 6.46,0 12.86,-0.14 19.12,-0.48 -5.88,7.63 -12.21,15.04 -18.9,22.02l-0.01 -0.02zm-50.88 -40.48c-9.77,-1.44 -19.19,-3.23 -28.2,-5.43 2.54,-8.87 5.71,-18.02 9.28,-27.17 2.82,5.5 5.78,11 9.01,16.5 3.23,5.5 6.53,10.87 9.9,16.09zm50.19 -143.01c6.4,6.6 12.8,13.95 19.13,21.99 -6.19,-0.28 -12.52,-0.48 -18.91,-0.48 -6.46,0 -12.86,0.14 -19.12,0.48 5.86,-7.63 18.9,-21.99 18.9,-21.99l0 0zm-50.54 40.38c-3.37,5.3 -6.74,10.73 -9.9,16.3 -3.16,5.5 -6.12,11 -8.94,16.51 -3.61,-8.9 -6.81,-18.14 -9.5,-27.38 9.01,-2.13 18.5,-3.99 28.33,-5.43l0.01 0.01zm-62.24 86.1c-24.34,-10.38 -40.09,-24 -40.09,-34.8 0,-10.8 15.75,-24.48 40.09,-34.8 5.91,-2.54 12.38,-4.81 19.05,-6.95 3.92,13.48 9.08,27.51 15.47,41.88 -6.33,14.3 -11.42,28.26 -15.27,41.68 -6.81,-2.13 -13.27,-4.47 -19.26,-7.02l0 0zm37 98.27c-9.35,-5.36 -13.41,-25.79 -10.25,-52.06 0.76,-6.46 1.99,-13.27 3.51,-20.22 13.48,3.3 28.2,5.85 43.67,7.5 9.28,12.72 18.91,24.28 28.61,34.38 -22.42,20.84 -43.46,32.25 -57.77,32.25 -3.09,-0.07 -5.71,-0.69 -7.77,-1.86l-0 0zm163.13 -52.4c3.23,26.27 -0.76,46.7 -10.04,52.13 -2.06,1.24 -4.74,1.79 -7.91,1.79 -14.24,0 -35.35,-11.35 -57.77,-32.05 9.63,-10.11 19.26,-21.59 28.4,-34.32 15.54,-1.65 30.26,-4.2 43.74,-7.56 1.58,6.95 2.82,13.62 3.58,20.01l0 0zm26.48 -45.87c-5.91,2.54 -12.38,4.81 -19.05,6.95 -3.92,-13.48 -9.08,-27.51 -15.47,-41.88 6.33,-14.3 11.42,-28.26 15.27,-41.68 6.81,2.13 13.27,4.47 19.33,7.02 24.34,10.38 40.09,24 40.09,34.8 -0.07,10.8 -15.82,24.48 -40.16,34.8l-0 0z"/>
    <path class="fil1" d="M169.01 181.7c17.36,0 31.43,-14.07 31.43,-31.43 0,-17.36 -14.07,-31.43 -31.43,-31.43 -17.36,0 -31.43,14.07 -31.43,31.43 0,17.36 14.07,31.43 31.43,31.43z"/>
   </g>
  </g>
 </g>
</svg>
