<?xml version="1.0" encoding="UTF-8"?>
<!DOCTYPE svg PUBLIC "-//W3C//DTD SVG 1.1//EN" "http://www.w3.org/Graphics/SVG/1.1/DTD/svg11.dtd">
<!-- Creator: CorelDRAW 2021 (64 Bit) -->
<svg xmlns="http://www.w3.org/2000/svg" xml:space="preserve" width="248.843mm" height="55.585mm" version="1.1" style="shape-rendering:geometricPrecision; text-rendering:geometricPrecision; image-rendering:optimizeQuality; fill-rule:evenodd; clip-rule:evenodd"
viewBox="0 0 3403.22 760.19"
 xmlns:xlink="http://www.w3.org/1999/xlink"
 xmlns:xodm="http://www.corel.com/coreldraw/odm/2003">
 <defs>
  <style type="text/css">
   <![CDATA[
    .fil0 {fill:#854195}
   ]]>
  </style>
 </defs>
 <g id="Camada_x0020_1">
  <metadata id="CorelCorpID_0Corel-Layer"/>
  <path class="fil0" d="M1528.56 527.57c0,17.21 2.13,76.59 -1.31,89.05 -7.32,26.49 -10.41,39.67 -52,50.12 -72.85,6.65 -178.9,19.08 -167.59,-88.49 6.31,-68.98 85.27,-53.89 133.1,-53.89 16.95,0 66.17,-0.7 87.8,3.2zm727.09 -526.27c-7.47,1.75 -15.83,-3.02 -16.35,10.97 -0.33,8.9 0.02,18.58 0.02,27.57 0,18.58 0.15,37.21 -0.02,55.78 -0.2,21.43 22.91,14.72 41.04,14.72 18.58,0 37.21,-0.12 55.79,0.03 22.62,0.19 15.99,-20.79 15.99,-39.12 0,-18.57 -0.19,-37.24 0.04,-55.79 0.25,-20.48 -25.16,-14.7 -41.05,-14.7 -11.35,0 -46.9,-1.44 -55.44,0.55zm-2.78 213.27c-16.25,1.67 -13.66,13.78 -13.55,26.51l-0.01 449.91c0,13.47 0.14,26.97 -0.05,40.43 -0.22,15.67 -0.02,22.45 17.54,23.48 16.48,0.96 66.95,2.04 81.62,-0.06 15.57,-2.23 13.7,-14.88 13.7,-26.68l0 -490.29c0.01,-13.84 0.03,-23.06 -17.19,-23.83 -20.76,-0.92 -62.14,-1.52 -82.05,0.52zm-1344.53 15.54c-9.27,1 -7.07,43.59 -6.66,51.26 1.62,30.38 -8.9,21.29 -37.67,21.29l-473.68 -0.05c-20.94,0 -103.98,-2.81 -118.01,0.62 -18.71,4.58 6.54,23.33 11.98,29.14 6.08,6.49 23.34,24.15 29.99,29.62 14.23,11.71 13.98,21.75 37.54,21.42 19.83,-0.28 39.81,-0.05 59.65,-0.05l591.55 0c9.18,0 49.65,3.64 52.69,-6.24 1.3,-4.22 -24.21,-25.04 -28.1,-30.53 -3.59,-5.07 -52.72,-54.16 -59.08,-59.48 -8,-6.69 -55.16,-57.54 -60.2,-56.99zm-760.96 377.51c11.45,-4.82 7.1,-58.83 7.1,-71.73 35.65,-3.03 75.38,-1.28 111.52,-1.28l453.78 0.03c21.14,-0.01 99.16,10.71 56.51,-25.36 -13.57,-11.48 -45.98,-50.41 -58.81,-54.42 -13.03,-4.08 -92.05,-1.64 -111.8,-1.64 -151.25,0 -302.5,0 -453.76,0 -36.67,0 -77.54,1.72 -113.68,-0.21 -5.32,-0.28 -53.12,0.55 -33.54,13.48 23.28,15.39 132.62,140.5 142.69,141.13zm1787.99 -34.4c0.03,0.02 114.32,171.62 116.69,175.56 3.19,5.3 14.91,6.34 20.59,6.33 17.74,-0.06 35.49,-0.03 53.23,-0.03 9.82,0 44.25,4.07 46.65,-7.29 1.71,-8.09 -13.59,-27.42 -19.19,-32.34 -33.22,-46.73 -116.55,-167.08 -150.93,-222.07 -5.71,-4.86 -3.85,-14.17 -1.6,-19.76 0.39,-0.97 10.46,-15.77 10.82,-16.1 4.31,-3.98 147.93,-223.74 148.27,-224.73 1.57,-4.6 8.06,-14.38 -1.11,-17.55 -6.06,-2.1 -69.87,-1.07 -79.04,-1.07 -6.97,0 -19.37,-0.73 -25.66,0.61 -7.13,-0.7 -11.23,8.1 -14.8,12.12 -36.1,53.15 -82.92,136.02 -103.9,169.69 -0.17,-0.2 -105.13,-169.11 -105.22,-169.33 -6.54,-16.21 -25.9,-13.1 -40.74,-13.1 -17.94,0 -35.89,0 -53.83,0 -4.93,0 -23,-0.78 -26.31,0.64 -5.56,2.39 -8.66,12.08 -2.39,16.52 1.49,1.06 161.54,237.69 163.19,240.58 3.49,6.25 2.72,14.82 -3,18.59 -0.62,0.41 -163.94,238.68 -164.22,239.55 -2.37,4.62 -8.91,9.6 -5.72,17.29 1.13,6.45 7.17,7.76 16.66,7.76l80.76 0.01c23.49,0.13 20.63,-7.63 32.49,-21.35 28.1,-45.77 65.72,-103.45 108.34,-160.51zm1242.01 -366.12c-47.21,0.86 -194.69,20.01 -203.43,137.39 -8.05,108.1 23.47,162.9 144.92,174.59 32.09,3.09 165.51,3.7 174.56,47.09 1.96,9.22 3.51,42.09 -1.56,49.37 -27.94,40.03 -75.25,45.34 -121.36,44.7 -91.41,-1.25 -138.98,-55.03 -157.24,-63.94 -13.55,-5.68 -43.92,48.86 -53.57,54.94 -0.46,0.29 -12.69,14.79 -12.71,14.85 -3.16,7.98 -2.86,14.5 5.09,18.41 64.24,45.41 134.97,72.05 201.19,75.68 91.66,-0.18 242.14,-16.92 248.57,-135.92 1.41,-26.04 2.23,-54.43 0.06,-80.67 -7.18,-86.69 -115.16,-112.79 -185.96,-117.83 -25.4,-1.81 -125.51,-0.05 -133.1,-32.89 -12.68,-54.87 27,-83.26 77.46,-84.49 68.1,-1.67 95.55,9.81 153.31,38.31 9.84,4.85 14.95,8.16 19.69,8.59 11.71,0.72 21.49,-16.96 28.55,-25.44 11.05,-13.25 28.34,-31.9 38.02,-44.77 3.61,-4.81 -4.36,-12.98 -7.9,-16.75 -32.48,-34.54 -161.03,-64.33 -214.59,-61.21zm-621.91 340.48c-1.59,-18.56 -2.32,-123 0.55,-137.86 8.16,-42.17 35.1,-87.13 81.58,-92.74 15.16,-1.83 51.08,-1.38 66.17,1.2 45.45,7.77 68.57,62.85 72.41,102.56 2.96,30.64 2.67,107.3 -0.82,137.82 -6.7,58.71 -58.31,104.14 -116.6,98.48 -64.4,-6.25 -97.75,-44.9 -103.29,-109.46zm105.26 -341.21c-48.56,-0.12 -164.52,6.56 -204.86,140.37 -6.06,50.41 -18.8,173.58 -3.86,258.45 8.76,28.04 42.34,133.1 168.08,150.49 19.89,2.75 94.21,7.95 110.39,-1.03 149.33,-40.92 164.4,-179.29 158.37,-311.54 -4.81,-105.44 -44.58,-221.11 -168.59,-233.7 -5.03,-0.51 -59.13,-3.2 -59.52,-3.04zm-1426.38 71.84c-2.93,3.35 -1.4,10.3 1.39,13.28 0.99,1.06 55.21,40.26 62.52,45.29 5.8,4.51 3.53,6.94 14.1,2.77 30.49,-23.12 108.67,-54.11 180.98,-16.21 45.05,35.79 30.5,70.28 34.69,95.28 2.61,15.56 -19.43,12.15 -28.95,12.15 -14.1,0 -28.2,0 -42.3,0 -31.14,0 -108.81,-1.75 -141.03,6.38 -104.04,26.24 -131.29,120.87 -104.2,216.41 35,123.42 218.04,122.03 304.22,76.54 2.74,-1.68 9.7,-6.06 12.13,-13.58 2.16,3.19 -0.65,22.38 1.67,27.91 5.85,14.01 18.17,10.63 31.67,10.63 13.89,0 27.77,0 41.66,0 10.78,0 24.74,4.25 29.22,-9.02 3.1,-31.74 -0.82,-206.23 0.52,-256.69 0,-57.83 6.33,-98.82 -8.51,-152.89 -44.46,-162.02 -298.08,-163.15 -389.8,-58.26z"/>
 </g>
</svg>
