<?xml version="1.0" encoding="UTF-8"?>
<!DOCTYPE svg PUBLIC "-//W3C//DTD SVG 1.1//EN" "http://www.w3.org/Graphics/SVG/1.1/DTD/svg11.dtd">
<!-- Creator: CorelDRAW 2021 (64 Bit) -->
<svg xmlns="http://www.w3.org/2000/svg" xml:space="preserve" width="186.582mm" height="53.8406mm" version="1.1" style="shape-rendering:geometricPrecision; text-rendering:geometricPrecision; image-rendering:optimizeQuality; fill-rule:evenodd; clip-rule:evenodd"
viewBox="0 0 1927.65 556.25"
 xmlns:xlink="http://www.w3.org/1999/xlink"
 xmlns:xodm="http://www.corel.com/coreldraw/odm/2003">
 <defs>
  <style type="text/css">
   <![CDATA[
    .fil1 {fill:#3096F3}
    .fil2 {fill:#64DB99}
    .fil3 {fill:#F5AF47}
    .fil0 {fill:black;fill-rule:nonzero}
   ]]>
  </style>
 </defs>
 <g id="Camada_x0020_1">
  <metadata id="CorelCorpID_0Corel-Layer"/>
  <g id="_2180329754176">
   <path class="fil0" d="M714.89 291.63l35.77 0 -13.44 -44.48c-0.4,-1.35 -0.98,-3.52 -1.69,-6.53 -0.74,-3.02 -1.66,-6.88 -2.8,-11.59 -0.77,3.3 -1.54,6.47 -2.31,9.49 -0.74,2.98 -1.51,5.87 -2.28,8.64l-13.26 44.48zm-50.42 50.33l45.56 -134.77 45.06 0 45.59 134.77 -35.78 0 -6.67 -24.13 -51.09 0 -6.86 24.13 -35.81 0zm182.56 0l-33.78 0 0 -134.77 37.65 0c14.7,0 25.04,0.72 31.01,2.2 5.94,1.48 10.98,3.99 15.13,7.54 4.86,4.12 8.58,9.27 11.14,15.43 2.55,6.19 3.81,13.04 3.81,20.58 0,8.04 -1.26,15.11 -3.78,21.21 -2.52,6.13 -6.24,11.12 -11.17,15.05 -3.72,2.95 -8.12,5.06 -13.17,6.35 -5.04,1.29 -13.13,1.95 -24.24,1.95l-6.12 0 -6.49 0 0 44.48zm0 -74.08l6.86 0c8.64,0 14.67,-1.23 18.09,-3.64 3.42,-2.42 5.14,-6.53 5.14,-12.38 0,-5.65 -1.69,-9.68 -5.04,-12.06 -3.35,-2.39 -9.32,-3.58 -17.84,-3.58l-7.2 0 0 31.67zm83.21 74.08l0 -134.77 80.84 0 0 29.59 -45.77 0 0 23.37 43.16 0 0 28.84 -43.16 0 0 22.81 45.77 0 0 30.16 -80.84 0zm151.31 -103.48l0.18 0.38c2.09,4.05 3.51,7.6 4.25,10.68 0.65,-2.83 2,-6.16 4.03,-10.02 0.24,-0.44 0.43,-0.79 0.55,-1.04l15.84 -31.29 42.63 0 -44.05 64.81 48.72 69.96 -40.82 0 -22.33 -39.96c-1.01,-1.76 -1.94,-3.61 -2.71,-5.47 -0.77,-1.89 -1.41,-3.77 -1.88,-5.66 -0.55,2.14 -1.2,4.12 -1.91,5.97 -0.71,1.85 -1.57,3.55 -2.52,5.15l-22.52 39.96 -40.79 0 48.88 -70.69 -44.23 -64.09 42.82 0 15.84 31.29zm236.98 -26.01l0 40.15c-4.92,-5.59 -9.84,-9.68 -14.73,-12.28 -4.89,-2.61 -10.15,-3.93 -15.72,-3.93 -10.34,0 -18.7,3.61 -25.1,10.81 -6.4,7.19 -9.6,16.59 -9.6,28.18 0,10.81 3.26,19.76 9.78,26.86 6.52,7.13 14.83,10.68 24.92,10.68 5.57,0 10.83,-1.29 15.72,-3.9 4.89,-2.58 9.81,-6.69 14.73,-12.32l0 40.15c-5.69,2.83 -11.38,4.96 -17.01,6.38 -5.66,1.41 -11.35,2.1 -17.13,2.1 -7.2,0 -13.84,-0.88 -19.93,-2.61 -6.09,-1.76 -11.69,-4.43 -16.79,-7.98 -9.84,-6.75 -17.35,-15.24 -22.52,-25.48 -5.17,-10.27 -7.75,-21.8 -7.75,-34.62 0,-10.3 1.63,-19.67 4.92,-28.12 3.26,-8.45 8.21,-16.08 14.8,-22.96 6.25,-6.57 13.29,-11.47 21.13,-14.73 7.84,-3.24 16.55,-4.87 26.15,-4.87 5.78,0 11.47,0.69 17.13,2.11 5.63,1.41 11.32,3.55 17.01,6.38zm20.3 129.5l0 -134.77 35.99 0 0 52.4 47.99 0 0 -52.4 35.99 0 0 134.77 -35.99 0 0 -54.85 -47.99 0 0 54.85 -35.99 0zm182.9 -50.33l35.78 0 -13.44 -44.48c-0.4,-1.35 -0.98,-3.52 -1.69,-6.53 -0.74,-3.02 -1.66,-6.88 -2.8,-11.59 -0.77,3.3 -1.54,6.47 -2.31,9.49 -0.74,2.98 -1.51,5.87 -2.28,8.64l-13.26 44.48zm-50.42 50.33l45.56 -134.77 45.06 0 45.59 134.77 -35.77 0 -6.67 -24.13 -51.09 0 -6.86 24.13 -35.81 0zm148.79 0l0 -134.77 37.65 0c14.7,0 24.98,0.69 30.76,2.07 5.78,1.38 10.8,3.71 15.01,6.94 4.74,3.68 8.4,8.39 10.95,14.07 2.55,5.72 3.81,12 3.81,18.88 0,10.43 -2.52,18.91 -7.54,25.45 -5.04,6.53 -12.37,10.87 -21.99,13.01l35.99 54.35 -40.6 0 -30.27 -52.78 0 52.78 -33.77 0zm33.77 -71.06l6.64 0c7.75,0 13.41,-1.35 16.98,-4.05 3.57,-2.7 5.35,-6.94 5.35,-12.69 0,-6.75 -1.66,-11.56 -4.98,-14.42 -3.35,-2.86 -8.92,-4.27 -16.8,-4.27l-7.2 0 0 35.44zm103.57 71.06l0 -102.92 -29.53 0 0 -31.86 95.05 0 0 31.86 -29.53 0 0 102.92 -35.99 0zm88.96 -43.54c5.35,6.19 10.61,10.81 15.81,13.89 5.2,3.05 10.37,4.59 15.53,4.59 4.8,0 8.77,-1.32 11.84,-3.96 3.11,-2.64 4.64,-5.97 4.64,-10.02 0,-4.46 -1.32,-7.92 -4,-10.34 -2.68,-2.42 -8.71,-4.93 -18.12,-7.51 -12.92,-3.55 -22.09,-8.2 -27.44,-13.89 -5.35,-5.72 -8.03,-13.54 -8.03,-23.47 0,-12.91 4.21,-23.4 12.67,-31.54 8.43,-8.14 19.41,-12.19 32.85,-12.19 7.29,0 14.18,1.01 20.7,2.98 6.52,2.01 12.7,5.03 18.55,9.08l-11.29 26.39c-4.09,-3.55 -8.27,-6.22 -12.58,-8.04 -4.28,-1.79 -8.52,-2.7 -12.74,-2.7 -4.31,0 -7.81,1.07 -10.52,3.17 -2.71,2.1 -4.06,4.84 -4.06,8.14 0,3.36 1.17,6.06 3.54,8.11 2.37,2.01 6.95,3.96 13.72,5.78l1.63 0.47c14.67,4.05 24.33,8.48 28.95,13.35 3.14,3.3 5.51,7.29 7.14,11.91 1.63,4.65 2.43,9.77 2.43,15.42 0,14.29 -4.58,25.79 -13.78,34.46 -9.2,8.7 -21.47,13.04 -36.79,13.04 -9.2,0 -17.56,-1.6 -25.13,-4.78 -7.54,-3.2 -14.8,-8.2 -21.75,-15.02l16.21 -27.33z"/>
   <g>
    <polygon class="fil1" points="635.69,555.07 316.3,0 -0,554.57 259.25,554.57 217.91,480 133.4,479.06 318.82,156.05 547.86,556.25 "/>
    <polygon class="fil2" points="511.92,555.6 341.26,263.13 297.48,340.53 423.89,554.79 "/>
    <polygon class="fil3" points="385.37,554.64 279.82,371.37 236.64,448.14 296.13,554.17 "/>
   </g>
  </g>
 </g>
</svg>
