<?xml version="1.0" encoding="UTF-8"?>
<!DOCTYPE svg PUBLIC "-//W3C//DTD SVG 1.1//EN" "http://www.w3.org/Graphics/SVG/1.1/DTD/svg11.dtd">
<!-- Creator: CorelDRAW 2021 (64 Bit) -->
<svg xmlns="http://www.w3.org/2000/svg" xml:space="preserve" width="178.932mm" height="129.626mm" version="1.1" style="shape-rendering:geometricPrecision; text-rendering:geometricPrecision; image-rendering:optimizeQuality; fill-rule:evenodd; clip-rule:evenodd"
viewBox="0 0 1156.07 837.51"
 xmlns:xlink="http://www.w3.org/1999/xlink"
 xmlns:xodm="http://www.corel.com/coreldraw/odm/2003">
 <defs>
  <style type="text/css">
   <![CDATA[
    .fil0 {fill:#EC5990}
    .fil1 {fill:white}
    .fil2 {fill:black;fill-rule:nonzero}
   ]]>
  </style>
 </defs>
 <g id="Camada_x0020_1">
  <metadata id="CorelCorpID_0Corel-Layer"/>
  <g id="_2143806979392">
   <g>
    <rect class="fil0" x="293.59" y="-0" width="568.89" height="568.01" rx="73.83" ry="73.87"/>
    <g>
     <path class="fil1" d="M667.58 437.49l-179.49 0c-17.51,0 -32.94,-16.19 -32.94,-34.65l0 -215.27c0,-18.74 15.48,-34.65 34.08,-34.65l31.24 0 0 26.13c0,9.66 9.07,18.18 18.74,18.18l76.11 0c9.83,0 18.74,-8.88 18.74,-18.74l0 -25.56 32.94 0c13.81,0 26.59,10.13 31.32,23.21 1.49,4.11 2.19,10.22 2.19,15.98l0 206.18c0,15.17 -5.2,28.16 -18.73,35.23 -3.45,1.8 -8.97,3.97 -14.21,3.97zm-52.82 -248.78l-74.97 0c-5.58,0 -10.79,-4.61 -10.79,-10.22l0 -25.56 25.56 0c0.79,-9.44 5.82,-16.97 13.63,-20.45 13.98,-6.23 29.53,2.3 31.95,16.34 0.32,1.86 -0.01,4.12 2.13,4.12l23.29 0 0 24.99c0,5.81 -4.99,10.79 -10.79,10.79zm-67.02 -44.3c-11.93,0 -23.86,0 -35.78,0 -11.32,0 -25.45,-1.08 -34.15,1.63 -17.76,5.52 -31.16,21.53 -31.16,40.4l0 216.97c0,17.72 10.55,31.38 24.23,38.25 4.66,2.33 9.93,4.35 16.66,4.35l181.19 0c5.99,0 12.42,-2.51 16.48,-4.54 2.38,-1.19 4.55,-2.46 6.64,-4.15 10.5,-8.52 17.21,-19.52 17.21,-36.18l0 -211.86c0,-22.12 -13.29,-37.03 -29.88,-42.83 -8.95,-3.13 -22.64,-2.05 -34.31,-2.05 -12.31,0 -24.61,0 -36.92,0 -5.3,-22.74 -39.97,-32.7 -56.13,-8.99 -1.6,2.34 -3.79,5.58 -4.08,8.99z"/>
     <polygon class="fil1" points="494.91,276.74 567.04,276.74 567.04,267.66 494.91,267.66 "/>
     <polygon class="fil1" points="589.19,276.74 661.33,276.74 661.33,267.66 589.19,267.66 "/>
     <path class="fil1" d="M494.91 365.35l72.13 0 0 -7.38c0,-1.31 -0.39,-1.7 -1.7,-1.7l-70.43 0 0 9.09z"/>
     <path class="fil1" d="M589.19 365.35l72.14 0 0 -7.38c0,-1.31 -0.4,-1.7 -1.7,-1.7l-70.43 0 0 9.09z"/>
    </g>
   </g>
   <path class="fil2" d="M77.45 835.27l-7.74 0c-5.06,-8.35 -25.85,-45.85 -29.4,-50.82 -2.48,-3.45 -6.48,-3.01 -9.11,-3.01l-24.16 0 0 53.83 -7.02 0 0 -119.49 43.35 0c4.05,0 7.96,0.45 11.74,1.38 3.78,0.89 7.17,2.53 10.12,4.84 2.97,2.34 5.34,5.58 7.08,9.68 1.77,4.13 2.64,9.38 2.64,15.78 0,4.02 -0.39,7.74 -1.2,11.21 -0.78,3.46 -1.98,6.55 -3.6,9.31 -4.8,8.19 -13.59,12.23 -22.79,13.1 0.47,0.44 26.5,48.2 30.11,54.2zm1078.62 0l-8.54 0 0 -55.17c0,-8.08 -1.24,-13.88 -3.69,-17.46 -2.44,-3.54 -6.79,-5.32 -12.96,-5.32 -4.56,0 -8.98,1.45 -13.29,4.32 -4.31,2.87 -8.47,6.92 -12.56,12.13l0 61.49 -8.54 0 0 -55.17c0,-3.98 -0.25,-7.44 -0.76,-10.35 -0.55,-2.9 -1.46,-5.29 -2.74,-7.07 -1.28,-1.82 -2.96,-3.16 -5.07,-4.06 -2.08,-0.86 -4.67,-1.3 -7.74,-1.3 -4.49,0 -8.76,1.45 -12.81,4.32 -4.05,2.87 -8.14,6.92 -12.26,12.13l0 61.49 -8.54 0 0 -84.42 8.54 0 0 12.47c2.85,-3.28 5.55,-5.88 8.07,-7.78 2.52,-1.94 4.89,-3.39 7.15,-4.43 2.23,-1.01 4.38,-1.68 6.39,-2.01 2.04,-0.34 3.98,-0.48 5.84,-0.48 5.33,0 9.85,1.27 13.65,3.8 3.76,2.57 6.5,6.44 8.21,11.69 2.12,-3.05 4.38,-5.58 6.79,-7.59 2.37,-1.97 4.78,-3.57 7.23,-4.73 2.48,-1.15 4.93,-1.97 7.45,-2.46 2.48,-0.48 4.89,-0.71 7.23,-0.71 15.29,0 22.96,10.24 22.96,30.75l0 55.91zm-121.78 -77.72c-0.77,-0.15 -1.64,-0.22 -2.56,-0.22 -0.88,0 -1.9,0 -3.1,0 -2.41,0 -4.78,0.52 -7.04,1.53 -2.26,1.01 -4.45,2.34 -6.5,3.98 -2.08,1.64 -4.01,3.46 -5.77,5.55 -1.79,2.05 -3.32,4.17 -4.6,6.37l0 60.53 -8.54 0 0 -84.42 8.54 0 0 11.58c2.41,-2.9 4.82,-5.25 7.19,-7.07 2.41,-1.79 4.71,-3.2 6.94,-4.24 2.26,-1.01 4.42,-1.68 6.46,-2.01 2.08,-0.34 3.98,-0.48 5.66,-0.48 0.58,0 1.13,0 1.61,0.04 0.51,0.04 1.06,0.11 1.71,0.19l0 8.71zm-90.19 -8.93c6.36,0 12.14,1.01 17.3,3.02 5.16,1.97 9.58,4.88 13.17,8.71 3.63,3.83 6.44,8.49 8.38,13.96 1.94,5.51 2.89,11.69 2.89,18.61 0,7.04 -0.99,13.33 -2.97,18.84 -1.98,5.55 -4.79,10.2 -8.38,14.03 -3.63,3.83 -8.05,6.74 -13.21,8.71 -5.16,2.01 -10.9,3.01 -17.18,3.01 -6.28,0 -12.02,-0.97 -17.14,-2.94 -5.12,-1.97 -9.5,-4.87 -13.13,-8.67 -3.63,-3.83 -6.44,-8.49 -8.47,-14.03 -2.02,-5.51 -3.01,-11.84 -3.01,-18.95 0,-7 0.99,-13.21 2.97,-18.72 1.98,-5.47 4.79,-10.12 8.38,-13.92 3.63,-3.76 8.05,-6.66 13.21,-8.64 5.16,-2.01 10.9,-3.02 17.18,-3.02zm0 80.18c4.75,0 9.09,-0.74 13.01,-2.23 3.92,-1.49 7.31,-3.76 10.12,-6.77 2.81,-3.01 5.04,-6.77 6.61,-11.24 1.57,-4.47 2.35,-9.68 2.35,-15.63 0,-5.92 -0.78,-11.09 -2.35,-15.56 -1.57,-4.47 -3.8,-8.19 -6.61,-11.13 -2.81,-2.94 -6.19,-5.17 -10.12,-6.66 -3.92,-1.49 -8.26,-2.23 -13.01,-2.23 -4.83,0 -9.21,0.74 -13.13,2.23 -3.92,1.49 -7.31,3.72 -10.12,6.66 -2.81,2.94 -5,6.66 -6.53,11.13 -1.53,4.47 -2.31,9.64 -2.31,15.56 0,5.96 0.78,11.17 2.31,15.63 1.53,4.47 3.72,8.23 6.53,11.24 2.81,3.02 6.19,5.29 10.12,6.77 3.92,1.49 8.3,2.23 13.13,2.23zm-42.94 -104.3l-67.23 0 0 44.89 58.47 0 0 8.71 -58.47 0 0 57.18 -8.54 0 0 -119.49 75.77 0 0 8.71zm-384.57 110.78l-8.76 0 0 -59.48 -72.05 0 0 59.48 -8.54 0 0 -119.49 8.54 0 0 51.29 72.05 0 0 -51.29 8.76 0 0 119.49zm56.05 -86.66c5.62,0 10.73,1.01 15.29,3.02 4.56,1.97 8.47,4.88 11.64,8.71 3.21,3.83 5.69,8.49 7.41,13.96 1.71,5.51 2.55,11.69 2.55,18.61 0,7.04 -0.88,13.33 -2.63,18.84 -1.75,5.55 -4.24,10.2 -7.41,14.03 -3.21,3.83 -7.12,6.74 -11.68,8.71 -4.56,2.01 -9.64,3.01 -15.18,3.01 -5.55,0 -10.62,-0.97 -15.15,-2.94 -4.53,-1.97 -8.4,-4.87 -11.61,-8.67 -3.21,-3.83 -5.69,-8.49 -7.48,-14.03 -1.79,-5.51 -2.66,-11.84 -2.66,-18.95 0,-7 0.88,-13.21 2.63,-18.72 1.75,-5.47 4.23,-10.12 7.41,-13.92 3.21,-3.76 7.12,-6.66 11.68,-8.64 4.56,-2.01 9.64,-3.02 15.18,-3.02zm0 80.18c4.2,0 8.03,-0.74 11.5,-2.23 3.47,-1.49 6.46,-3.76 8.94,-6.77 2.48,-3.01 4.45,-6.77 5.84,-11.24 1.39,-4.47 2.08,-9.68 2.08,-15.63 0,-5.92 -0.69,-11.09 -2.08,-15.56 -1.39,-4.47 -3.36,-8.19 -5.84,-11.13 -2.48,-2.94 -5.48,-5.17 -8.94,-6.66 -3.47,-1.49 -7.3,-2.23 -11.5,-2.23 -4.27,0 -8.14,0.74 -11.61,2.23 -3.47,1.49 -6.46,3.72 -8.94,6.66 -2.48,2.94 -4.42,6.66 -5.77,11.13 -1.35,4.47 -2.04,9.64 -2.04,15.56 0,5.96 0.69,11.17 2.04,15.63 1.35,4.47 3.28,8.23 5.77,11.24 2.48,3.02 5.47,5.29 8.94,6.77 3.47,1.49 7.34,2.23 11.61,2.23zm86.2 -80.18c5.62,0 10.73,1.01 15.29,3.02 4.56,1.97 8.47,4.88 11.64,8.71 3.21,3.83 5.69,8.49 7.41,13.96 1.71,5.51 2.55,11.69 2.55,18.61 0,7.04 -0.88,13.33 -2.63,18.84 -1.75,5.55 -4.24,10.2 -7.41,14.03 -3.21,3.83 -7.12,6.74 -11.68,8.71 -4.56,2.01 -9.64,3.01 -15.18,3.01 -5.55,0 -10.62,-0.97 -15.15,-2.94 -4.53,-1.97 -8.4,-4.87 -11.61,-8.67 -3.21,-3.83 -5.69,-8.49 -7.48,-14.03 -1.79,-5.51 -2.67,-11.84 -2.67,-18.95 0,-7 0.88,-13.21 2.63,-18.72 1.75,-5.47 4.23,-10.12 7.41,-13.92 3.21,-3.76 7.12,-6.66 11.68,-8.64 4.56,-2.01 9.64,-3.02 15.18,-3.02zm0 80.18c4.2,0 8.03,-0.74 11.5,-2.23 3.47,-1.49 6.46,-3.76 8.94,-6.77 2.48,-3.01 4.45,-6.77 5.84,-11.24 1.39,-4.47 2.08,-9.68 2.08,-15.63 0,-5.92 -0.69,-11.09 -2.08,-15.56 -1.39,-4.47 -3.36,-8.19 -5.84,-11.13 -2.48,-2.94 -5.48,-5.17 -8.94,-6.66 -3.47,-1.49 -7.3,-2.23 -11.5,-2.23 -4.27,0 -8.14,0.74 -11.61,2.23 -3.47,1.49 -6.46,3.72 -8.94,6.66 -2.48,2.94 -4.42,6.66 -5.77,11.13 -1.35,4.47 -2.04,9.64 -2.04,15.56 0,5.96 0.69,11.17 2.04,15.63 1.35,4.47 3.28,8.23 5.77,11.24 2.48,3.02 5.47,5.29 8.94,6.77 3.47,1.49 7.34,2.23 11.61,2.23zm117.84 6.48l-10.7 0 -30.37 -47.5 -13.47 13.33 0 34.17 -8.54 0 0 -119.49 8.54 0 0 74.3 39.9 -39.46 11.13 0 -31.54 31.19 35.04 53.45zm-402.7 0.67c-1.2,0.15 -2.41,0.26 -3.61,0.34 -1.2,0.07 -2.41,0.11 -3.65,0.11 -3.69,0 -6.64,-0.52 -8.87,-1.56 -2.26,-1.08 -3.98,-2.64 -5.15,-4.77 -1.17,-2.08 -1.93,-4.73 -2.26,-7.89 -0.37,-3.13 -0.55,-6.81 -0.55,-11.02l0 -51.59 -10.51 0 0 -8.71 10.51 0 0 -22.33 8.54 0 0 22.33 13.58 0 0 8.71 -13.58 0 0 52.34c0,3.5 0.26,6.25 0.73,8.34 0.51,2.05 1.24,3.65 2.26,4.76 0.99,1.15 2.19,1.86 3.65,2.2 1.46,0.34 3.1,0.48 4.96,0.48 0.77,0 1.46,0 2.04,0 0.55,0 1.21,-0.04 1.9,-0.11l0 8.38zm-75.15 1.56c-6.06,0 -11.64,-0.97 -16.65,-2.94 -5.01,-1.97 -9.34,-4.84 -12.93,-8.64 -3.6,-3.76 -6.39,-8.41 -8.37,-13.96 -1.98,-5.51 -2.95,-11.84 -2.95,-18.98 0,-6.96 0.97,-13.21 2.91,-18.72 1.94,-5.55 4.69,-10.2 8.29,-14 3.6,-3.76 7.92,-6.66 12.93,-8.64 5.01,-2.01 10.63,-3.02 16.78,-3.02 4.45,0 8.57,0.56 12.41,1.64 3.84,1.08 7.23,2.68 10.19,4.8 2.95,2.12 5.46,4.73 7.48,7.86 2.02,3.16 3.4,6.7 4.2,10.72l-9.22 0c-0.4,-2.64 -1.29,-4.95 -2.67,-7 -1.37,-2.05 -3.19,-3.76 -5.42,-5.14 -2.18,-1.41 -4.77,-2.42 -7.64,-3.13 -2.91,-0.71 -5.98,-1.04 -9.34,-1.04 -4.65,0 -8.93,0.74 -12.81,2.23 -3.88,1.49 -7.19,3.72 -9.98,6.7 -2.75,2.98 -4.89,6.74 -6.39,11.2 -1.49,4.47 -2.26,9.64 -2.26,15.52 0,5.99 0.77,11.2 2.26,15.67 1.5,4.47 3.64,8.19 6.39,11.2 2.79,2.98 6.1,5.21 9.98,6.7 3.88,1.49 8.16,2.23 12.81,2.23 3.11,0 6.06,-0.34 8.93,-1.04 2.83,-0.67 5.37,-1.71 7.64,-3.05 2.27,-1.34 4.12,-2.98 5.66,-4.99 1.5,-1.97 2.42,-4.32 2.83,-7l9.22 0c-0.85,4.06 -2.3,7.63 -4.32,10.72 -2.02,3.05 -4.53,5.66 -7.48,7.78 -2.95,2.09 -6.35,3.65 -10.19,4.73 -3.84,1.04 -7.92,1.56 -12.29,1.56zm-63.42 -13.1c-2.92,2.64 -5.77,4.8 -8.58,6.51 -2.77,1.71 -5.51,3.05 -8.18,4.02 -2.7,0.97 -5.33,1.67 -7.99,2.01 -2.63,0.37 -5.33,0.56 -8.03,0.56 -3.65,0 -7.01,-0.56 -10.18,-1.67 -3.14,-1.15 -5.84,-2.75 -8.14,-4.8 -2.26,-2.08 -4.09,-4.58 -5.4,-7.52 -1.31,-2.98 -1.97,-6.22 -1.97,-9.79 0,-9.64 4.05,-17.2 12.15,-22.56 8.1,-5.4 20.26,-8.08 36.46,-8.08l9.85 0c0,-3.72 -0.22,-7.11 -0.66,-10.24 -0.4,-3.16 -1.42,-5.85 -2.99,-8.15 -1.57,-2.31 -3.87,-4.09 -6.94,-5.4 -3.07,-1.3 -7.26,-1.97 -12.52,-1.97 -7.77,0 -13.61,1.23 -17.52,3.72 -3.87,2.46 -6.17,6.22 -6.9,11.24l-8.54 0c0.88,-8 3.94,-13.96 9.2,-17.83 5.29,-3.91 13.18,-5.85 23.58,-5.85 5.8,0 10.69,0.74 14.75,2.2 4.01,1.45 7.3,3.54 9.85,6.25 2.52,2.72 4.38,6.03 5.51,9.9 1.13,3.91 1.72,8.26 1.72,13.14l0 55.17 -8.54 0 0 -10.87zm0 -32.61l-12.96 0c-12.45,0 -21.72,1.83 -27.81,5.47 -6.09,3.65 -9.16,8.82 -9.16,15.6 0,5.02 1.94,8.93 5.8,11.72 3.83,2.79 9.13,4.21 15.84,4.21 2.92,0 5.77,-0.45 8.5,-1.38 2.77,-0.89 5.37,-2.08 7.77,-3.54 2.45,-1.45 4.67,-3.09 6.72,-4.88 2.01,-1.79 3.8,-3.5 5.29,-5.17l0 -22.04zm-107.31 45.71c-5.77,0 -10.99,-1 -15.69,-3.01 -4.71,-1.97 -8.76,-4.88 -12.15,-8.71 -3.36,-3.83 -5.99,-8.49 -7.85,-14.03 -1.86,-5.51 -2.77,-11.8 -2.77,-18.84 0,-6.85 0.88,-13.03 2.66,-18.5 1.79,-5.51 4.31,-10.16 7.59,-13.96 3.29,-3.83 7.19,-6.74 11.68,-8.78 4.49,-2.05 9.49,-3.05 14.96,-3.05 5.62,0 10.73,1.01 15.29,3.05 4.56,2.01 8.47,4.95 11.64,8.75 3.21,3.8 5.69,8.45 7.41,13.92 1.71,5.47 2.55,11.65 2.55,18.54l0 1.97 -65.26 0c0.44,5.77 1.46,10.76 3.1,15 1.64,4.24 3.76,7.74 6.39,10.57 2.63,2.79 5.69,4.91 9.13,6.29 3.47,1.38 7.23,2.09 11.28,2.09 2.85,0 5.69,-0.34 8.54,-1.04 2.85,-0.71 5.4,-1.71 7.74,-3.13 2.3,-1.38 4.24,-3.09 5.8,-5.14 1.57,-2.05 2.48,-4.36 2.77,-7l8.54 0c-0.77,4.02 -2.19,7.56 -4.16,10.65 -2.01,3.09 -4.45,5.73 -7.37,7.85 -2.92,2.16 -6.24,3.8 -9.97,4.88 -3.69,1.08 -7.63,1.64 -11.86,1.64zm26.57 -51.37c-1.42,-9.64 -4.64,-16.86 -9.67,-21.63 -5,-4.8 -11.21,-7.18 -18.5,-7.18 -3.65,0 -7.05,0.6 -10.18,1.75 -3.1,1.15 -5.91,2.94 -8.36,5.32 -2.48,2.38 -4.53,5.4 -6.21,9.01 -1.68,3.65 -2.85,7.89 -3.58,12.73l56.5 0zm-147.65 -13.4l33.41 0c4.77,0 8.86,-0.45 12.25,-1.3 3.39,-0.89 6.18,-2.31 8.41,-4.32 2.19,-2.01 3.81,-4.62 4.86,-7.82 1.05,-3.24 1.59,-7.15 1.59,-11.84 0,-8.23 -2.1,-14.11 -6.3,-17.64 -4.17,-3.54 -10.45,-5.32 -18.76,-5.32l-35.45 0 0 48.24z"/>
  </g>
 </g>
</svg>
