<?xml version="1.0" encoding="UTF-8"?>
<!DOCTYPE svg PUBLIC "-//W3C//DTD SVG 1.1//EN" "http://www.w3.org/Graphics/SVG/1.1/DTD/svg11.dtd">
<!-- Creator: CorelDRAW 2021 (64 Bit) -->
<svg xmlns="http://www.w3.org/2000/svg" xml:space="preserve" width="180.943mm" height="48.6425mm" version="1.1" style="shape-rendering:geometricPrecision; text-rendering:geometricPrecision; image-rendering:optimizeQuality; fill-rule:evenodd; clip-rule:evenodd"
viewBox="0 0 2798.42 752.29"
 xmlns:xlink="http://www.w3.org/1999/xlink"
 xmlns:xodm="http://www.corel.com/coreldraw/odm/2003">
 <defs>
  <style type="text/css">
   <![CDATA[
    .fil0 {fill:#47493E}
    .fil1 {fill:#90C741}
   ]]>
  </style>
 </defs>
 <g id="Camada_x0020_1">
  <metadata id="CorelCorpID_0Corel-Layer"/>
  <g id="_2340838097728">
   <path class="fil0" d="M1397.95 554.98c-4.43,0.1 -8.11,3.38 -12.98,6.33l-35.23 20.18c-3.97,2.8 -3.75,1.83 -6.98,3.94l-4.34 2.37c-2.67,1.54 -1.05,1.5 -4.35,2.45 -3.37,0.97 -4.83,0.19 -7,-1.3 -0.15,-0.11 -0.33,-0.27 -0.48,-0.37l-7.5 -4.28c-1.31,-0.8 -0.85,-0.4 -2.2,-1.16l-4.12 -2.59c-1.34,-0.68 -0.91,-0.27 -2.31,-1.05l-6.37 -3.71c-8.47,-4.27 -24.38,-14.55 -33.37,-19.52 -2.67,-1.48 -7.1,-2.87 -7.1,-6.33l0 -71.37c0,-4.94 5.31,-6.82 10.46,-9.69 1.9,-1.06 0.61,-0.44 2.02,-1.34 1.33,-0.85 1.5,-0.84 2.74,-1.46 1.79,-0.9 0.68,-0.26 2.16,-1.2l46.92 -27.03c5.6,-2.88 7.01,-0.76 16.91,4.85l10.04 5.91c1.84,1.16 2.83,1.82 4.77,2.79l18.1 10.45c1.31,0.79 0.87,0.41 2.21,1.15l15.95 9.24c3.99,2.66 1.93,-0.13 3.07,3.65 1.4,4.68 0.68,62.97 0.68,72.37 0,3.63 -1.33,2.59 -1.68,6.72zm-58.19 197.31l-14.42 0c-2.56,-0.16 -4.45,-0.39 -4.88,-0.59l-74.2 -43.34c-1.53,-0.85 -2.54,-1.05 -4.02,-1.86l-57.33 -33.35c-1.08,-0.57 -1.25,-0.5 -2.28,-1.08 -0.88,-0.49 -1.03,-0.65 -1.53,-0.99l-43.47 -25.38c-4.59,-2.79 -9.14,-5.14 -12.28,-9.55 -1.83,-2.58 -2.93,-3.91 -3.55,-7.36 -2.28,-12.56 -0.91,-193.17 -0.91,-221.59 0,-8.91 2.47,-17.32 10.43,-22.32l71.6 -40.91c1.88,-1.2 0.62,-0.64 3.14,-1.9l6.83 -4.09c2.3,-1.16 1.52,-0.92 3.15,-1.89 1.26,-0.74 0.33,-0.23 1.66,-0.86 1,-0.47 0.66,-0.16 1.78,-0.74l23.83 -13.95c1.9,-0.99 1.23,-0.85 3.08,-1.96 1.76,-1.07 2.38,-1.08 3.89,-1.99l61.17 -35.39c0.05,-0.03 0.35,-0.34 1.5,-1.02 0.92,-0.54 0.48,-0.29 1.66,-0.86 10.89,-5.19 8.54,-6.48 22.07,-6.48 2.04,0 13.26,6.08 15.72,7.79 2.07,1.45 1.48,1.09 3.69,2.19l26.32 14.82c10.22,5.73 6.1,6.28 16.41,5.42 0.48,-5.73 2.16,-0.82 2.58,-7.5 0.19,-2.96 -0.06,-7.04 -0.06,-10.13 -0,-31.38 -1.12,-275.79 0.55,-279.88 1.4,-3.41 2.59,-1.62 3.65,-5.59l17.63 0c0.8,3 1.01,1.95 3.53,3.19l24.9 13.73c2.29,1.04 1.7,0.83 3.74,2.14l24.77 13.86c1.66,0.97 2.98,1.4 4.44,2.28l44.59 25.1c4.03,2.42 8.26,4.48 10.7,8.61 2.75,4.64 4.24,8.07 4.24,14.23l0 539.03c0,6.07 -0.92,8.2 -3.92,12.87 -1.18,1.83 -0.78,1.34 -2.12,2.92 -4.27,5.07 -20.27,13.88 -26.61,17.04l-16.96 9.91c-10.73,6.04 -21.56,13.35 -32.61,18.61l-38.92 22.37c-7.78,5.1 -16.32,8.64 -23.88,13.9 -2.05,1.43 -0.42,0.58 -3.11,1.93l-33.48 19.41c-1.93,1.23 -2.1,0.98 -3.88,2l-13.7 8.13c-0.94,0.51 -2.8,0.84 -5.09,1.04z"/>
   <path class="fil1" d="M559.18 400.49l0 218.3c0,5.07 3.19,11.23 6.38,14.61l3.95 3.61c2.04,1.66 3.52,2.88 5.98,4.09l5.81 3.43c1.54,0.86 1.88,0.98 3.19,1.85 1.97,1.31 0.78,0.71 3.15,1.89l6.46 3.62c2.46,1.24 1.3,0.74 3.14,1.9l65.59 37.69c0.15,0.1 0.33,0.26 0.48,0.36 0.53,0.36 0.02,0.2 1.5,1.02l18.65 10.73c5.06,2.81 11.43,5.57 16.14,9.04 1.56,1.15 0.64,0.73 2.49,1.71 16.06,8.54 33.95,20.85 49.66,28.42l6.35 3.72c6.96,3.71 10.63,4.26 19.28,3.2 4.18,-0.51 3.57,-1.2 6.45,-2.81l16.28 -8.9c1.47,-0.89 1.36,-1.11 3.01,-2.03 1.21,-0.67 1.62,-0.68 2.83,-1.37l21.69 -12.73c1.4,-0.71 1.54,-0.63 2.81,-1.39 1.54,-0.93 1.01,-0.85 3.08,-1.96 0.73,-0.39 1.18,-0.53 1.69,-0.83l4.63 -2.93c1.68,-0.84 1.84,-0.86 3.24,-1.8 1.98,-1.32 0.76,-0.71 3.14,-1.9 1.67,-0.84 1.51,-0.7 3.23,-1.81l22.97 -13.13c1.48,-0.88 0,-0.09 1.49,-1.03l35.75 -20.51c1.44,-1.01 -0.3,0.01 1.45,-1.07l9.17 -5.11c1.6,-0.97 0.92,-0.91 3.07,-1.97l52.43 -30.69c0.12,-0.13 0.27,-0.33 0.38,-0.46l2.73 -3.15c6.02,-8.22 4.3,-18.11 4.3,-28.44l-0.02 -194.81c-0,-10.19 1.22,-16.94 -7.54,-25.17 -5.12,-4.81 -11.57,-7.43 -17.58,-10.89l-6.38 -3.78c-1.84,-1.12 -1.2,-0.98 -3.08,-1.95 -1.18,-0.61 -1.42,-0.52 -2.81,-1.39l-12.71 -7.44c-1.83,-1.15 -0.68,-0.67 -3.14,-1.9l-15.05 -8.46c-0.16,-0.09 -0.36,-0.23 -0.51,-0.33l-3.11 -1.93c-1.45,-0.85 -1.4,-0.87 -2.56,-1.64l-13.86 -7.97c-0,-0 -1.64,-0.76 -1.72,-0.8l-105.3 -60.95c-3.69,-2.66 -3.28,-1.45 -6.91,-3.16 -3.11,-1.47 -5.51,-2.46 -10.14,-2.46 -7.42,0 -14.36,4.36 -20.15,8.4 -0.15,0.1 -0.33,0.26 -0.47,0.36l-31.89 18.49c-1.75,0.98 -2.16,0.93 -3.86,2.02 -1.48,0.95 -0.01,0.15 -1.49,1.03l-45.96 26.25c-2.32,1.17 -4.71,2.69 -6.76,4.16 -2.93,2.09 -3.73,1.78 -6.49,3.59l-86.24 50.61c-0.75,0.76 -0.9,0.82 -1.67,1.69 -3.08,3.46 -6.6,10.17 -6.6,15.23z"/>
   <path class="fil0" d="M10.08 703.59c6.11,0 10.75,-4.13 15.93,-6.74 1.07,-0.54 0.82,-0.45 2.09,-1.27l13.81 -8.02c1.35,-0.82 1.35,-0.63 2.81,-1.39l8.94 -5.33c1.74,-1.05 3.11,-1.36 5.01,-2.55l6.94 -3.97c0.21,-0.14 0.77,-0.57 0.98,-0.7l43.18 -24.83c1.15,-0.6 1.16,-0.46 2.31,-1.05 0.92,-0.46 1.64,-0.94 2.62,-1.58l12.69 -7.46c0.15,-0.1 0.35,-0.24 0.5,-0.34 3.12,-1.96 6.51,-3.95 8.78,-7.17l2.92 -4.64c2.98,-5.48 1.46,-20.02 1.46,-27.93 0,-19.31 0,-38.62 0,-57.93 0,-18.89 -0.95,-40.24 -0.04,-58.82 0.14,-2.93 2.18,-7.66 3.54,-10.73 2.86,-6.49 10.71,-9.5 16.27,-13.11l18.62 -10.77c4.12,-2.67 19.93,-11.97 24.06,-12.88 5.05,-1.11 7.16,-1.15 12.1,-0.14 3.08,0.63 2.9,0.44 5.46,2.09l44.72 25.81c5.21,3.16 8.43,6.44 10.37,12.3 0.83,2.49 1.76,3.11 1.76,5.8l0 128.46c0,3.18 -0.76,2.98 -0.47,5.59 1.13,10.09 3.65,17.73 12.29,22.89l17.93 10.61c1.5,0.7 0.86,0.2 2.34,1.02l8.98 5.29c1.47,0.89 0.62,0.31 2.24,1.12 2.76,1.39 2.56,1.7 4.73,2.83l30.89 17.81c1.91,1.04 2.8,1.74 4.77,2.78l33.89 19.01c0.17,0.09 0.38,0.2 0.54,0.3l2.43 1.77c0.16,0.1 0.37,0.22 0.54,0.3 0.22,0.12 0.93,0.41 1.17,0.51 3.39,1.46 5.51,3.03 9.56,3.03 2.21,0 1.91,-0.91 3.84,-2.03 3.17,-1.85 7.07,-4.18 7.07,-8.88l0 -299.74c0,-2.61 -0.94,-3.41 -2.22,-5.34l-0.98 -1.54c-0.1,-0.15 -0.21,-0.37 -0.31,-0.53 -0.1,-0.15 -0.22,-0.37 -0.32,-0.51l-1.5 -1.86c-3.33,-3.69 -7.65,-5.78 -11.85,-8.31l-35.23 -20.18c-1.32,-0.86 0.34,0.04 -1.46,-1.06 -1.79,-1.1 -1.61,-0.68 -3.44,-1.6 -2.35,-1.18 -1.54,-1.13 -3.6,-2.28 -1.42,-0.8 -1.76,-0.72 -3.35,-1.68l-6.39 -3.69c-2,-1.33 -0.88,-0.93 -3.59,-2.29l-86.51 -49.51c-5.47,-3.06 -10.63,-7.06 -16.33,-9.7l-10.03 -5.93c-13.18,-8.7 -24.93,-13.09 -39.86,-4.33l-6.39 3.69c-1.64,0.93 -1.3,1.01 -2.97,2.07 -1.42,0.9 -1.94,0.99 -3.25,1.79l-29.37 16.8c-6.74,3.95 -16.11,10.32 -22.76,13.34l-16.2 8.99c-2.05,1.43 -0.42,0.58 -3.11,1.93l-51.58 29.87c-6.39,4.09 -17.58,8.93 -24.59,14.04l-21.44 12.15c-5,2.75 -8.12,6.08 -10.78,10.21 -0.81,1.26 -1.14,1 -1.25,2.07l0 7.67c0.91,91.75 0,183.55 0,275.31l0 0.31 0 21.13c0.44,4.45 2.82,5.6 6.23,7.59 2.1,1.22 1.77,2.03 3.84,2.03z"/>
   <path class="fil0" d="M1680.9 399.65l0 223.34c0,12.21 12.47,17.41 21.06,22.6 1.49,0.9 -0,0.09 1.48,1.04l23.18 12.93c1.72,0.96 1.46,1.1 3.05,1.99l29.57 16.61c1.44,0.86 0.17,0.17 1.6,0.92l24.47 14.15c1.43,0.8 2.12,0.88 3.44,1.59l11.2 6.43c1.49,0.77 -0.02,-0.1 1.59,0.93 1.92,1.22 1.69,1.14 3.71,2.16l72.12 41.23c8.3,4.12 7.84,3.37 17.62,3.37 1.82,0 7.77,-2.62 9.18,-3.41 1.64,-0.92 -0.1,0.04 1.51,-1.01 1.64,-1.08 0.52,-0.47 2.08,-1.28l36.68 -20.41c1.62,-0.96 2.37,-0.92 4.13,-1.75l20.83 -11.92c8.19,-4.92 44.75,-23.52 48.67,-27.73 4.53,-4.87 5.64,-11.31 1.95,-16.36 -2.02,-2.77 -5.31,-5.14 -8.23,-6.88l-9.7 -5.41c-1.72,-0.96 -1.46,-1.1 -3.05,-1.99l-22.55 -12.71c-0.15,-0.1 -0.35,-0.24 -0.5,-0.34l-32.46 -18.76c-1.66,-0.87 -1.73,-0.73 -3.31,-1.73 -1.48,-0.95 -0.01,-0.15 -1.49,-1.03l-11.22 -6.41c-1.97,-1.28 -1.73,-1 -3.8,-2.08 -1.92,-1.01 -1.24,-0.87 -3.07,-1.97l-19.31 -10.91c-1.77,-1.09 -2.34,-1.05 -3.89,-1.98 -5.96,-3.58 -13.42,-7.04 -19.04,-11.19 -2.75,-2.03 0.28,-0.22 -3.24,-1.8l-5.28 -3.12c-0.13,-0.06 -1.55,-0.62 -1.79,-0.73 -0.17,-0.08 -0.39,-0.19 -0.56,-0.28l-35.15 -20.26c-5.06,-2.52 -9.59,-4.85 -9.59,-11.4l0 -67.17c0,-6.01 1.55,-5.9 5.14,-8.3 1.72,-1.15 2.17,-1.52 4.08,-2.64l8.41 -5.03c0.15,-0.1 0.33,-0.26 0.48,-0.36l34.87 -19.7c1.53,-0.92 2.26,-1.57 4.12,-2.6 10.92,-6.03 12.03,-5.55 22.41,1.1l44.68 25.85c3.08,1.84 8.47,4.01 10.19,7.44 2.45,4.85 0.13,48.72 0.8,57.97 0.28,3.84 1.55,5.7 3.72,8.03 4.44,4.75 10.84,5.92 16.28,2.75 2.07,-1.21 2.51,-1.12 4.57,-2.15l38.63 -22.66c2.02,-1.4 2.42,-1.25 4.29,-2.42l38.67 -22.62c0.95,-0.58 1.68,-0.84 2.23,-1.13l2.54 -1.65c5.92,-4.12 12.99,-7.42 19.13,-11.09 0.16,-0.09 0.37,-0.21 0.53,-0.3l5.91 -4.16c2.64,-2.4 3.94,-4.57 5.55,-7.88 1.51,-3.09 3.18,-5.94 3.18,-11.1 0,-10.08 1.18,-48.78 -0.43,-55.82l-9.01 -14.5 -6.58 -4.33c-1.21,-0.72 -0.45,-0.43 -2,-1.36l-23.02 -13.09c-0.15,-0.1 -0.33,-0.27 -0.47,-0.37l-3.76 -2.12c-1.66,-0.95 -1.32,-1.05 -2.97,-2.07l-36.19 -20.9c-0.17,-0.09 -0.39,-0.2 -0.55,-0.28l-15.54 -8.81c-0.16,-0.09 -0.37,-0.22 -0.52,-0.31 -0.16,-0.09 -0.36,-0.23 -0.51,-0.33l-1 -0.68c-0.15,-0.1 -0.35,-0.24 -0.51,-0.33l-34.03 -19.71c-1.73,-1.16 -1.64,-1.15 -3.72,-2.16l-51.21 -29.39c-15.13,-9.75 -19.88,-10.28 -34.84,-2.44 -1.65,0.86 -1.73,0.67 -3.31,1.73l-121.36 70.07c-1.84,1.17 -0.68,0.66 -3.14,1.9 -2.68,1.35 -0.97,0.33 -3.23,1.81 -1.97,1.28 -1.73,1 -3.8,2.08l-44.3 25.39c-0.35,0.2 -1.3,0.91 -1.49,1.03 -1.37,0.9 -0.25,0.22 -1.55,0.97 -7.49,4.27 -13.28,10.18 -13.28,19.46z"/>
   <path class="fil1" d="M2237.56 403.01l0 210.74c0,6.75 4.32,15.62 8.74,20.65l3.74 3.81c0.13,0.12 0.3,0.3 0.43,0.41l2.79 2.25c0.8,0.56 0.79,0.46 1.5,1.02l20.51 12.23c1.08,0.65 0.38,0.22 1.66,0.86l27.55 15.27c7.15,4.28 8.21,4.06 15.15,6.68 8.52,3.22 10.86,3.98 23.73,3.98 6.85,0 18.28,-0.33 23.7,-3.17l9 -4.43c0.15,-0.1 0.36,-0.23 0.51,-0.33l1.56 -0.96c1.86,-1.29 0.52,-0.42 1.88,-1.48 2.15,-1.68 1.87,-1.16 3.69,-3.03 0.08,-0.09 1.41,-1.58 1.58,-1.78 0.11,-0.13 0.28,-0.32 0.39,-0.45l4.16 -5.08c3.96,-5.96 6.5,-12.49 7.4,-19.47 0.55,-4.27 2.39,-6.36 2.39,-11.88l0 -205.7c0,-3.84 -4.87,-7.56 -11.75,-7.56 -11.18,0 -26.36,-3.67 -25.34,11.85 0.9,13.59 0.15,27.43 0.15,41.04l0 147.77c0.03,7.76 -0.17,8.72 -1.94,14.85 -1.2,4.15 -0.36,2.64 -2.79,5.61 -3.03,3.7 -5.33,5.63 -10.15,6.65 -7.53,1.59 -12.68,1.58 -20.42,-1.06l-43.47 -24.54c-3.65,-1.71 -10.24,-5.15 -10.24,-9.91l0 -198.99c0,-7.72 7.55,-9.75 13.15,-12.88l19.67 -11.4c1.55,-0.93 0.96,-0.86 3.07,-1.97 1.45,-0.76 1.45,-0.58 2.81,-1.39l33.32 -19.57c1.48,-0.82 1.97,-0.73 3.48,-1.56l8.93 -5.34c0.16,-0.09 0.39,-0.19 0.55,-0.29l62.86 -36.21c1.49,-0.9 -0.01,-0.09 1.48,-1.04 1.4,-0.9 1.41,-0.82 2.76,-1.44 1.14,-0.52 0.47,-0.07 1.74,-0.78l9.23 -5.88c1.1,-0.63 2.12,-0.88 3.41,-1.63 7.55,-4.39 11.2,-9.06 18.72,-4.06 2.52,1.67 3.65,1.74 5.99,3.24 1.51,0.97 0.59,0.58 2.51,1.69l16.47 9.55c1.9,1.21 1.41,0.72 3.31,1.72l11.59 6.88c0.16,0.09 0.38,0.2 0.54,0.3l38.75 22.54c1.35,0.9 1.49,0.84 2.74,1.46 1.28,0.64 0.58,0.21 1.66,0.86l6.88 4.04c5.62,3.76 12.53,6.33 18.23,10.31l26.92 15.9c1.26,0.73 1.53,0.65 2.84,1.36l11.32 6.31c1.67,0.95 1.3,1.05 2.96,2.08l8.12 4.48c3.87,1.93 8.05,4.15 11.36,7.11 1.24,1.11 1.98,1.01 1.98,3.06l0 202.35c0,2.14 -0.75,1.88 -1.92,3.12l-4.43 3.13c-2.06,0.98 -1.43,0.6 -3.27,1.77l-30.92 17.78c-1.79,1.24 -1.58,0.95 -3.21,1.83l-74.13 42.57c-1.11,0.69 -1.23,0.9 -1.46,1.06l-24.37 14.25c-1.13,0.75 0.75,-0.21 -1.61,0.91l-19.36 10.87c-7.38,3.72 -13.96,11.35 -22.38,4.96 -2.58,-1.96 -0.08,-0.31 -3.18,-1.86l-8.88 -5.4c-1.39,-0.92 -2.04,-1.04 -3.29,-1.75 -0.16,-0.09 -0.37,-0.21 -0.53,-0.31l-0.99 -0.69c-0.24,-0.16 -0.33,-0.36 -1.46,-1.06 -3.7,-2.28 -22.94,-13.93 -25.53,-13.93 -1.92,0 -13.96,6.96 -16.71,8.48 -1.67,0.92 -2.87,0.94 -4.46,1.41 -4.04,1.19 -1.8,1.05 -4.53,2.19 -4.23,1.76 -14.41,4.42 -2.6,12.03l10.07 5.88c0.15,0.1 0.34,0.26 0.48,0.36 0.26,0.18 0.3,0.35 1.46,1.06l47.41 28.16c12.08,6.26 27.73,6.37 39.23,-0.13l28.06 -16.44c1.22,-0.64 1.37,-0.53 2.8,-1.4l9.4 -5.71c1.07,-0.56 1.23,-0.51 2.28,-1.08l7.57 -4.18c0.15,-0.1 0.35,-0.24 0.5,-0.34l34.44 -20.14c0.16,-0.09 0.36,-0.23 0.52,-0.32l3.28 -1.76c1.26,-0.59 1.15,-0.43 2.25,-1.11 2.64,-1.63 0.38,-0.52 2.42,-1.78l19.25 -10.97c1.16,-0.65 1.26,-0.55 2.28,-1.08 1.68,-0.88 1.08,-0.68 2.57,-1.63l21.32 -12.26c2.25,-1.18 0.71,-0.46 2.56,-1.64 1.57,-1 0.14,-0.23 2.16,-1.2l21.73 -12.69c1.7,-1.21 0.45,-0.53 2.12,-1.24 6.06,-2.6 12.62,-6.59 17.33,-11.22 0.12,-0.12 0.3,-0.29 0.42,-0.42 3.1,-3.24 6.64,-7.95 8.16,-11.99 1.06,-2.83 3.24,-9.53 3.24,-12.71l0 -209.06c0,-4.23 -1.51,-5.66 -2.28,-8.63 -1.59,-6.11 -4.54,-10.92 -8.7,-15.64 -3.9,-4.41 -9.66,-7.05 -14.32,-10.03 -1.47,-0.94 -0.02,-0.15 -1.48,-1.03l-51.89 -29.55c-1.47,-0.62 -0.35,-0.06 -1.67,-0.85l-47.22 -27.51c-1.91,-1.1 -5.1,-2.64 -7.01,-3.91l-21.11 -12.48c-2.33,-1.08 -1.12,-0.23 -3.36,-1.68l-25.07 -14.39c-1.21,-0.79 -1.95,-1.25 -3.06,-1.98 -8.61,-5.66 -17.92,-10.45 -28.47,-10.28 -13.93,0.22 -17.89,3.96 -27.9,9.43 -1.88,1.03 -2.18,0.68 -3.98,1.89l-1.37 1.15c-1.12,0.86 -0.32,0.38 -1.47,1.04l-35.35 20.06c-1.63,1.03 -0.11,0.14 -1.6,0.92l-79.25 45.85c-3.41,1.88 -3.15,2.26 -6.92,4 -1.31,0.6 -0.22,0.01 -1.68,0.84l-38.71 22.58c-0.15,0.1 -0.36,0.23 -0.52,0.32 -0.15,0.1 -0.37,0.21 -0.53,0.31 -7.18,4.73 -11.49,11.92 -14.9,19.52 -1.27,2.83 -1.73,6.01 -1.73,10.02z"/>
   <path class="fil1" d="M2418.07 469.34c0,5.11 0.95,8.15 1.44,12l2.97 10.47c1.06,2.23 0.79,2.46 2.17,4.54l13.82 13.89c2.14,1.62 1.9,1.16 4.34,2.38l10.05 4.23c4.85,2.51 16.42,4.9 22.2,5.51 3.71,0.39 6.9,1.89 11.08,2.35 8.13,0.91 17.01,0.48 25.65,2.06l18.14 2.85c5.24,0.75 5.4,2.15 10.5,2.93l12.38 5.26c6.27,4.86 5.79,12.57 3.84,19.73 -0.27,0.98 -0.56,2.3 -1.01,3.19 -0.63,1.25 -0.15,0.35 -1.02,1.5l-1.17 1.35c-0.11,0.13 -0.27,0.32 -0.39,0.45l-2.19 2.01c-0.14,0.11 -0.36,0.23 -0.5,0.34l-2 1.36c-3.32,2.12 -9.26,4.49 -13.4,5.07 -17.18,2.42 -34.63,2.63 -52.09,0.5 -3.75,-0.46 -7.12,-0.5 -10.54,-2.05 -4.07,-1.85 -5.51,-1.8 -9.21,-4.23l-8.22 -7.73 -4.93 -11.02c-0.37,-2.14 -0.36,-3.92 -0.76,-5.96 -1.88,-9.57 -14.33,-6.64 -29.46,-6.64 -4.54,0 -7.56,3.24 -7.56,7.55 0,4.8 0.2,12.28 1.05,16.59l8.5 18.37c0.11,0.14 0.28,0.32 0.38,0.46 0.11,0.14 0.27,0.33 0.37,0.47l0.7 0.97c3.85,5.34 7.52,8.6 12.71,12.48 0.14,0.11 0.34,0.26 0.47,0.36l0.9 0.77c4.24,3.37 9.28,4.84 14.18,7.65l5.09 1.63c3.37,0.82 3.64,2.12 8.02,2.89 8.59,1.52 14.23,3.69 24.02,3.69 11.23,0 38.78,1.57 48.95,-1.43 4.08,-1.2 9.76,-1.59 13.42,-3.37 7.61,-3.72 8.23,-2.07 19.67,-8.88l3.15 -1.89c11.5,-7.97 15.09,-14.87 20.92,-26.94 3.89,-8.04 2.54,-26.51 1.36,-35.56 -0.43,-3.33 -3.53,-8.86 -5.36,-11.43l-15.68 -14.55c-0.15,-0.09 -0.35,-0.24 -0.51,-0.34l-12.12 -5.51c-2.8,-0.56 -2.89,-0.11 -5.38,-1.34 -4.6,-2.28 -6.36,-1.65 -10.7,-2.73l-16.11 -3.2c-2.02,-0.28 -4.05,-0.33 -5.98,-0.74 -2.52,-0.54 -2.57,-0.83 -5.38,-1.34 -7.21,-1.3 -18.33,-0.81 -23.9,-2.97 -2.93,-1.14 -7.14,-1.82 -10.59,-2.01 -2.94,-0.16 -3.98,-0.04 -5.97,-0.75l-10.41 -3.03c-3.13,-0.97 -6.56,-2.63 -8.28,-5.15 -3.83,-5.57 -2.95,-14.59 1.16,-19.67l4.45 -3.94c0.14,-0.09 1.98,-0.99 2.23,-1.13 1.37,-0.73 0.16,-0.07 1.59,-0.93l1.56 -0.96c3.06,-1.47 7.47,-1.35 10.35,-2.25 3.15,-0.98 1.87,-1.69 4.19,-1.69l31.07 0 16.88 4.11c1.57,0.84 -0.13,0.01 1.54,0.98 10.4,6.06 10.6,6.5 16.21,17.38 1.97,3.83 1.46,8.92 5.01,11.78 5,4.04 33.41,4.82 33.41,-2.35 0,-13.97 -0.07,-19.19 -6.27,-31.51 -1.72,-3.43 -1.41,-2.87 -3.41,-5.83 -0.67,-0.99 -0.94,-1.61 -1.65,-2.55l-6.08 -6.52c-0.9,-0.81 -1.28,-1.14 -2.2,-2 -5.54,-5.15 -12.18,-8.52 -19.32,-10.91 -3.53,-1.19 -2.68,-1.89 -5.79,-2.6 -3.33,-0.76 -4.44,-0.15 -7.73,-1.51 -2.57,-1.07 -2.83,-1.81 -6.33,-2.06 -15.83,-1.15 -32.41,-2.76 -48.33,-0.48 -5.97,0.86 -9.49,0.02 -15.04,2.59 -3.57,1.65 -3.31,0.65 -6.93,1.46l-11.74 5.05c-0.15,0.09 -0.34,0.25 -0.5,0.34 -0.16,0.09 -0.35,0.24 -0.51,0.33 -0.16,0.09 -0.37,0.22 -0.53,0.31 -0.17,0.09 -0.39,0.2 -0.55,0.29l-10.98 7.49c-0.13,0.11 -0.33,0.27 -0.46,0.38l-9.63 11.36c-2.38,3.35 -1.2,1.85 -2.66,5.73 -1.22,3.24 -2.06,2.77 -2.75,6.48 -0.91,4.89 -1.88,10.7 -1.88,15.75z"/>
   <path class="fil1" d="M1848.82 491.17l0 36.94c0,6.26 3.1,7.95 7.2,10.43l8.28 4.31c4.02,1.98 23.26,14.65 26.49,14.65 3.39,0 9.95,-4.23 13.15,-6.16l12.67 -7.48c2.19,-1.14 1.18,-0.28 3.29,-1.75l9.47 -5.64c5.32,-3.62 3.41,-9.85 3.41,-15.06l0.15 -31.99c-1.33,-7.05 -2.8,-6.23 -6.19,-8.15l-12.37 -6.94c-1.66,-0.94 -1.3,-1.06 -2.96,-2.08 -10.19,-6.31 -17.56,-12 -23.1,-9.58 -5.95,2.6 -21.13,12.63 -28.46,16.04 -7.08,3.3 -11.04,5.77 -11.04,12.47z"/>
   <path class="fil1" d="M2713.62 274.55c0,6.16 7.27,5.04 13.43,5.04 3.45,14.8 -3.72,37.52 5.43,38.97 11.08,1.75 1.72,-33.53 6.32,-38.13 2.87,-1.38 2.96,-0.7 6.74,-0.82 9.34,-0.31 8.38,-7.61 8.37,11.74 -0,13.65 -1.72,20.13 3.36,27.71 4.89,-1.14 3.44,-1.16 6.72,-3.36l-0.08 -17.71c0.27,-4.3 -0.72,-2.31 1.76,-4.12 0,8.67 2.35,7.9 3.87,14.6 3.63,16 13.61,12.08 15.56,-0.2 0.18,-1.12 0.32,-2.45 0.69,-3.51l4.23 -10.05c3.62,15.54 -4.95,24.05 8.4,24.35l0 -49.54c-6.87,0 -9.86,-0.26 -11.87,6.6 -1.17,3.99 -1.93,3.53 -2.72,6.52l-2.94 8.81c-0.78,2.09 -0.53,3.12 -1.05,4.82 -0.9,2.9 -0.29,2.56 -4.08,2.64 -1.53,-3.2 -0.28,-4.79 -2.44,-8.48 -2.94,-5.01 -0.46,-2.4 -4.38,-11.57 -0.75,-1.76 -1.44,-9.34 -8.3,-9.34 -4.04,0 -4.5,1.59 -5.88,4.2 -2.38,-1.59 -4.44,-4.2 -8.4,-4.2l-25.19 0c-4.06,0 -7.56,1.03 -7.56,5.04z"/>
  </g>
 </g>
</svg>
