<?xml version="1.0" encoding="UTF-8"?>
<!DOCTYPE svg PUBLIC "-//W3C//DTD SVG 1.1//EN" "http://www.w3.org/Graphics/SVG/1.1/DTD/svg11.dtd">
<!-- Creator: CorelDRAW 2021 (64 Bit) -->
<svg xmlns="http://www.w3.org/2000/svg" xml:space="preserve" width="67.5333mm" height="94.9616mm" version="1.1" style="shape-rendering:geometricPrecision; text-rendering:geometricPrecision; image-rendering:optimizeQuality; fill-rule:evenodd; clip-rule:evenodd"
viewBox="0 0 1123.17 1579.34"
 xmlns:xlink="http://www.w3.org/1999/xlink"
 xmlns:xodm="http://www.corel.com/coreldraw/odm/2003">
 <defs>
  <style type="text/css">
   <![CDATA[
    .fil1 {fill:black}
    .fil0 {fill:#0C73B8}
    .fil2 {fill:#30A9DC}
    .fil4 {fill:#ECEDEE}
    .fil3 {fill:white}
   ]]>
  </style>
 </defs>
 <g id="Camada_x0020_1">
  <metadata id="CorelCorpID_0Corel-Layer"/>
  <g id="_2306381064032">
   <polygon class="fil0" points="-0,303.8 1123.17,303.8 1022.92,1449.64 560.54,1579.34 99.31,1449.31 "/>
   <path class="fil1" d="M687.17 155.49l81.72 0 -85.94 -93.19c-0.19,-0.18 -0.37,-0.38 -0.54,-0.59 -1.45,-1.59 -1.93,-3.73 -1.49,-5.69l0 -49.48c0,-3.59 2.82,-6.53 6.26,-6.53l183.19 0c3.44,0 6.26,2.95 6.26,6.53l0 50.96c0,3.58 -2.83,6.53 -6.26,6.53l-81.22 0 85.82 93.06c1.19,1.29 1.73,2.96 1.66,4.6l0.01 0.34 0 50.96c0,3.58 -2.83,6.53 -6.26,6.53l-183.19 0c-3.43,0 -6.26,-2.94 -6.26,-6.53l0 -50.96c0,-3.59 2.82,-6.53 6.26,-6.53zm-278.52 -2.15l-92.75 0 0 -86.36 92.75 0c3.64,0 6.61,-2.97 6.61,-6.61l0 -51.68c0,-3.64 -2.97,-6.61 -6.61,-6.61l-100.44 0 -60.14 0 -1.08 0c-3.64,0 -6.61,2.97 -6.61,6.61l0 1.08 0 50.6 0 99.58 0 9.33 0 42.35c0,3.64 2.97,6.61 6.61,6.61l161.67 0c3.64,0 6.61,-2.97 6.61,-6.61l0 -51.68c0,-3.64 -2.97,-6.61 -6.61,-6.61zm48.13 2.15l81.72 0 -85.94 -93.19c-0.19,-0.18 -0.37,-0.38 -0.54,-0.59 -1.45,-1.59 -1.93,-3.73 -1.49,-5.69l0 -49.48c0,-3.59 2.82,-6.53 6.26,-6.53l183.19 0c3.44,0 6.26,2.95 6.26,6.53l0 50.96c0,3.58 -2.83,6.53 -6.26,6.53l-81.22 0 85.82 93.06c1.19,1.29 1.73,2.96 1.66,4.6l0.01 0.34 0 50.96c0,3.58 -2.83,6.53 -6.26,6.53l-183.19 0c-3.43,0 -6.26,-2.94 -6.26,-6.53l0 -50.96c0,-3.59 2.82,-6.53 6.26,-6.53z"/>
   <path class="fil2" d="M560.75 396.9l457 0 -88.81 972.31 -368.18 103.27 0 -152.03 285.97 -82.44 62.49 -704.95 -348.46 0 0 -136.16zm0 776.54l0 -221.21 171.93 0 -16.49 178.62 -155.44 42.59zm0 -358.54l0 -144.19 196.66 -1.52 -13.74 144.27 -182.92 1.45z"/>
   <polygon class="fil3" points="215.39,533.06 909.21,533.06 846.72,1238.01 560.75,1320.46 277.89,1240.76 257.28,1020.92 400.06,1018.55 407.04,1126.72 560.75,1173.44 716.19,1130.84 732.68,952.22 407.04,952.22 396.05,816.2 743.67,813.45 757.41,669.18 225.67,673.3 "/>
   <path class="fil4" d="M215.39 533.06l345.37 0 0 137.64 -335.08 2.6 -10.29 -140.24zm345.37 787.4l-282.87 -79.69 -20.61 -219.84 142.78 -2.37 6.98 108.17 153.71 46.72 0 147.02zm0 -368.23l-153.71 0 -10.99 -136.03 164.7 -1.3 0 137.33z"/>
  </g>
 </g>
</svg>
