<?xml version="1.0" encoding="UTF-8"?>
<!DOCTYPE svg PUBLIC "-//W3C//DTD SVG 1.1//EN" "http://www.w3.org/Graphics/SVG/1.1/DTD/svg11.dtd">
<!-- Creator: CorelDRAW 2021 (64 Bit) -->
<svg xmlns="http://www.w3.org/2000/svg" xml:space="preserve" width="67.5333mm" height="95.3505mm" version="1.1" style="shape-rendering:geometricPrecision; text-rendering:geometricPrecision; image-rendering:optimizeQuality; fill-rule:evenodd; clip-rule:evenodd"
viewBox="0 0 360.1 508.42"
 xmlns:xlink="http://www.w3.org/1999/xlink"
 xmlns:xodm="http://www.corel.com/coreldraw/odm/2003">
 <defs>
  <style type="text/css">
   <![CDATA[
    .fil4 {fill:black}
    .fil0 {fill:#E5A228}
    .fil2 {fill:#ECEDEE}
    .fil3 {fill:#F1BF26}
    .fil1 {fill:white}
   ]]>
  </style>
 </defs>
 <g id="Camada_x0020_1">
  <metadata id="CorelCorpID_0Corel-Layer"/>
  <g id="_2143375758960">
   <polygon class="fil0" points="-0,99.48 360.1,99.48 327.96,466.84 179.71,508.42 31.84,466.73 "/>
   <polygon class="fil1" points="284.31,242.87 274.74,146.44 96.47,146.18 80.61,310.1 233.45,310.35 228.43,367.14 179.78,381.37 128.58,368.24 126.39,332.33 81.51,332.55 87.2,402.83 179.78,429.11 271.35,403.49 283.45,265.16 130.4,265.38 136.31,194.87 233.75,195.04 237.91,242.99 "/>
   <path class="fil2" d="M179.78 146.3l-83.31 -0.12 -15.86 163.92 99.17 0.16 0 -44.96 -49.38 0.07 5.91 -70.51 43.47 0.07 0 -48.64zm0 235.07l-51.2 -13.14 -2.19 -35.91 -44.89 0.22 5.69 70.29 92.58 26.28 0 -47.73z"/>
   <path class="fil3" d="M179.78 129.86l146.52 0 -28.47 311.73 -118.04 33.11 0 -45.59 91.56 -25.62 12.11 -138.33 -103.67 0.15 0 -70.36 53.96 0.09 4.16 47.95 46.4 -0.12 -9.57 -96.44 -94.96 -0.13 0 -16.45zm0 251.52l0 -71.11 53.66 0.09 -5.02 56.79 -48.65 14.23z"/>
   <path class="fil4" d="M182.02 49.85l26.2 0 -27.55 -29.88c-0.06,-0.06 -0.12,-0.12 -0.17,-0.19 -0.46,-0.51 -0.62,-1.2 -0.48,-1.82l0 -15.87c0,-1.15 0.9,-2.09 2.01,-2.09l58.73 0c1.1,0 2.01,0.95 2.01,2.09l0 16.34c0,1.15 -0.91,2.09 -2.01,2.09l-26.04 0 27.51 29.83c0.38,0.41 0.56,0.95 0.53,1.48l0 0.11 0 16.34c0,1.15 -0.91,2.09 -2.01,2.09l-58.73 0c-1.1,0 -2.01,-0.94 -2.01,-2.09l0 -16.34c0,-1.15 0.9,-2.09 2.01,-2.09zm-65.99 -4.8l29.51 0 0 -42.85c0,-1.15 0.94,-2.09 2.09,-2.09l21.14 0c1.15,0 2.09,0.95 2.09,2.09l0 44.94 0 21.14 -0 0.05 0 0 -0 0.05 0 0 -0 0.05 0 0 -0.01 0.1 0 0 -0.02 0.1 0 0c-0.16,0.86 -0.83,1.54 -1.69,1.69l-0 0 -0.1 0.02 -0 0 -0.1 0.01 -0 0 -0.05 0 -0 0 -0.05 0 -0 0 -0.05 0 -21.14 0 -31.61 0c-1.15,0 -2.09,-0.94 -2.09,-2.09l0 -21.14c0,-1.15 0.94,-2.09 2.09,-2.09z"/>
  </g>
 </g>
</svg>
