<?xml version="1.0" encoding="UTF-8"?>
<!DOCTYPE svg PUBLIC "-//W3C//DTD SVG 1.1//EN" "http://www.w3.org/Graphics/SVG/1.1/DTD/svg11.dtd">
<!-- Creator: CorelDRAW 2021 (64 Bit) -->
<svg xmlns="http://www.w3.org/2000/svg" xml:space="preserve" width="324.478mm" height="78.4965mm" version="1.1" style="shape-rendering:geometricPrecision; text-rendering:geometricPrecision; image-rendering:optimizeQuality; fill-rule:evenodd; clip-rule:evenodd"
viewBox="0 0 5036.59 1218.44"
 xmlns:xlink="http://www.w3.org/1999/xlink"
 xmlns:xodm="http://www.corel.com/coreldraw/odm/2003">
 <defs>
  <style type="text/css">
   <![CDATA[
    .fil1 {fill:black;fill-rule:nonzero}
    .fil0 {fill:#326690;fill-rule:nonzero}
    .fil2 {fill:white;fill-rule:nonzero}
   ]]>
  </style>
 </defs>
 <g id="Camada_x0020_1">
  <metadata id="CorelCorpID_0Corel-Layer"/>
  <g id="Layer_1">
   <g>
    <path class="fil0" d="M3759.01 331.98c-64.69,35.04 -61.99,148.24 8.09,175.2 75.47,26.95 156.33,29.65 231.8,48.52 18.87,5.39 37.73,13.48 45.82,32.34 18.87,37.73 2.7,94.34 -40.43,107.81 -61.99,18.87 -134.77,18.87 -194.06,-5.39 -40.43,-16.17 -59.3,-56.6 -61.99,-94.34 -16.17,0 -35.04,0 -51.21,2.7 2.69,37.73 10.78,78.16 40.43,102.42 48.52,37.74 110.51,43.13 169.81,45.82 53.91,0 113.2,-5.39 159.02,-35.04 53.91,-37.73 59.3,-137.46 -5.39,-169.8 -59.3,-29.65 -126.68,-32.35 -188.67,-45.82 -29.65,-8.09 -64.69,-10.78 -91.64,-29.65 -35.04,-32.34 -18.87,-99.73 26.95,-110.51 59.3,-16.17 123.98,-18.87 180.59,2.7 35.04,10.78 48.52,48.52 53.91,78.16 16.17,0 32.34,0 51.21,0 0,-32.35 -10.78,-67.38 -37.73,-88.95 -43.13,-35.04 -102.42,-37.73 -153.63,-37.73 -45.82,-2.69 -97.03,-2.69 -142.85,21.56z"/>
    <path class="fil1" d="M1837.24 345.46c-26.95,-24.26 -67.38,-32.35 -102.42,-32.35 -78.16,0 -156.33,2.7 -234.49,2.7 0,137.46 0,277.62 0,415.08 13.48,0 26.95,0 40.43,0 0,-59.3 -2.69,-118.59 0,-175.2 67.38,0 132.07,0 199.45,0 48.52,-2.7 105.12,-24.26 123.98,-72.77 16.17,-45.82 10.78,-105.12 -26.95,-137.46zm-21.56 129.38c-13.48,35.04 -53.91,45.82 -88.95,48.52 -61.99,2.69 -123.98,0 -183.28,0 0,-56.6 0,-115.9 0,-172.5 59.3,0 118.6,0 177.89,0 29.65,0 64.69,5.39 83.56,29.65 18.87,24.26 21.56,61.99 10.78,94.34z"/>
    <path class="fil0" d="M4678.12 315.81c0,137.46 0,274.92 0,415.08 118.59,0 239.88,0 358.48,0 0,-10.78 0,-21.56 0,-35.04 -102.42,-2.7 -204.84,0 -309.96,-2.7 0,-126.68 0,-253.36 0,-380.04 -16.17,2.7 -32.35,2.7 -48.52,2.7z"/>
    <path class="fil2" d="M2608.11 369.71c0,29.65 0,59.3 0,88.95 -18.87,0 -35.04,0 -53.91,0 0,8.09 0,18.87 0,26.95 18.87,0 37.73,0 53.91,0 0,61.99 0,126.68 0,188.67 0,18.87 5.39,37.73 21.56,48.52 29.65,13.48 61.99,10.78 94.34,8.09 0,-8.09 0,-18.87 0,-26.95 -21.56,2.69 -43.13,5.39 -61.99,-5.39 -13.48,-8.09 -10.78,-24.26 -13.48,-37.73 0,-59.3 0,-115.9 0,-175.2 24.26,0 48.52,0 72.77,0 0,-10.78 0,-18.87 -2.69,-29.65 -24.26,0 -48.52,0 -72.77,0 0,-29.65 0,-59.3 0,-88.95 -8.09,2.7 -24.26,2.7 -37.73,2.7z"/>
    <path class="fil2" d="M2265.8 474.83c-37.74,24.26 -37.74,94.34 8.09,113.2 61.99,21.56 132.07,16.17 196.76,35.04 32.34,10.78 35.04,59.3 5.39,75.47 -43.13,21.56 -94.34,18.87 -140.16,10.78 -32.34,-5.39 -59.3,-26.95 -61.99,-61.99 -16.17,0 -32.34,0 -45.82,0 5.39,24.26 10.78,51.21 32.35,67.38 35.04,24.26 80.86,24.26 121.29,26.95 43.13,0 88.95,-2.69 126.68,-24.26 32.34,-18.87 43.13,-61.99 24.26,-91.64 -13.48,-21.56 -37.73,-29.65 -61.99,-35.04 -51.21,-10.78 -105.12,-10.78 -156.33,-21.56 -18.87,-5.39 -35.04,-18.87 -35.04,-37.73 0,-26.95 29.65,-40.43 53.91,-45.82 37.74,-5.39 80.86,-8.09 118.6,8.09 21.56,8.09 26.95,29.65 32.34,51.21 16.17,0 29.65,0 45.82,0 -2.69,-24.26 -10.78,-51.21 -32.34,-64.69 -40.43,-26.95 -88.95,-26.95 -134.77,-24.26 -32.34,-2.7 -67.38,0 -97.03,18.87z"/>
    <path class="fil2" d="M3222.64 461.35c-18.87,8.09 -29.65,26.95 -40.43,45.82 0,-16.17 0,-32.34 0,-45.82 -13.48,0 -26.95,0 -43.13,0 -2.69,91.64 0,180.59 0,272.23 13.48,0 26.95,0 40.43,0 0,-45.82 0,-94.34 0,-140.16 0,-32.34 10.78,-70.08 37.73,-88.95 29.65,-21.56 67.38,-16.17 102.42,-16.17 0,-10.78 0,-24.26 0,-35.04 -32.35,-2.69 -64.69,-5.39 -97.03,8.09z"/>
    <path class="fil0" d="M4236.08 337.37c59.3,-29.65 126.68,-35.04 191.37,-29.65 61.99,5.39 123.98,26.95 164.42,75.47 51.21,53.91 61.99,140.16 40.43,210.24 -10.78,40.43 -37.73,70.08 -67.38,97.03 24.26,16.17 48.52,32.34 72.77,51.21 -10.78,10.78 -21.56,18.87 -32.34,29.65 -24.26,-16.17 -48.52,-35.04 -72.77,-48.52 -18.87,0 -37.73,10.78 -59.3,16.17 -53.91,10.78 -113.2,10.78 -167.11,0 -59.3,-10.78 -118.6,-45.82 -150.94,-99.73 -32.34,-51.21 -35.04,-118.59 -21.56,-175.2 16.17,-56.6 53.91,-102.42 102.42,-126.68zm80.86 10.78c-56.6,13.48 -110.51,53.91 -129.38,110.51 -18.87,61.99 -13.48,134.77 32.35,185.98 40.43,45.82 99.73,64.69 159.02,64.69 64.69,2.69 134.77,-16.17 177.89,-67.38 59.3,-75.47 51.21,-196.76 -26.95,-256.06 -59.3,-51.21 -140.16,-53.91 -212.93,-37.73z"/>
    <path class="fil1" d="M2608.11 369.71c13.48,0 26.95,0 43.13,0 0,29.65 0,59.3 0,88.95 24.26,0 48.52,0 72.77,0 0,10.78 0,18.87 2.69,29.65 -24.26,0 -48.52,0 -72.77,0 0,59.3 0,115.9 0,175.2 0,13.48 0,29.65 13.48,37.73 18.87,8.09 40.43,5.39 61.99,5.39 0,8.09 0,18.87 0,26.95 -32.34,2.69 -64.69,5.39 -94.34,-8.09 -18.87,-8.09 -24.26,-29.65 -21.56,-48.52 0,-61.99 0,-126.68 0,-188.67 -18.87,0 -37.73,0 -53.91,0 0,-8.09 0,-18.87 0,-26.95 18.87,0 35.04,0 53.91,0 -5.39,-32.34 -5.39,-61.99 -5.39,-91.64z"/>
    <path class="fil1" d="M2144.51 474.83c-48.52,-26.95 -107.81,-29.65 -161.72,-21.56 -45.82,8.09 -88.95,32.34 -107.81,75.47 -18.87,43.13 -18.87,94.34 2.7,137.46 24.26,45.82 75.47,70.08 123.98,72.77 61.99,5.39 132.07,-2.7 177.89,-51.21 48.51,-61.99 37.73,-172.5 -35.04,-212.93zm-8.09 202.15c-24.26,24.26 -59.3,35.04 -91.64,35.04 -37.73,2.7 -78.16,-5.39 -105.12,-29.65 -35.04,-32.34 -40.43,-86.25 -26.95,-132.07 13.48,-40.43 51.21,-64.69 91.64,-70.08 37.73,-5.39 80.86,-2.7 115.9,18.87 26.95,16.17 40.43,45.82 43.13,75.47 5.39,37.73 0,75.47 -26.95,102.42z"/>
    <path class="fil1" d="M2265.8 474.83c26.95,-18.87 61.99,-21.56 94.34,-24.26 45.82,-2.7 97.03,-2.7 134.77,24.26 21.56,13.48 29.65,40.43 32.34,64.69 -16.17,0 -29.65,0 -45.82,0 -2.7,-21.56 -10.78,-40.43 -32.35,-51.21 -37.73,-16.17 -78.16,-16.17 -118.59,-8.09 -24.26,2.69 -53.91,16.17 -53.91,45.82 -2.69,18.87 16.17,35.04 35.04,37.73 51.21,13.48 105.12,10.78 156.33,21.56 24.26,5.39 48.52,16.17 61.99,35.04 18.87,29.65 8.09,75.47 -24.26,91.64 -37.73,21.56 -83.55,24.26 -126.68,24.26 -40.43,-2.69 -86.25,-2.69 -121.29,-26.95 -21.56,-16.17 -29.65,-40.43 -32.34,-67.38 16.17,0 32.34,0 45.82,0 0,35.04 29.65,59.3 61.99,61.99 45.82,5.39 97.03,10.78 140.16,-10.78 29.65,-16.17 26.95,-64.69 -5.39,-75.47 -64.69,-18.87 -134.77,-13.48 -196.76,-35.04 -43.13,-13.48 -43.13,-83.55 -5.39,-107.81z"/>
    <path class="fil1" d="M2853.38 455.96c43.13,-10.78 91.64,-10.78 134.77,2.69 24.26,8.09 43.13,26.95 61.99,43.13 0,-16.17 2.69,-29.65 2.69,-43.13 13.48,0 26.95,0 40.43,0 2.69,83.56 0,167.11 2.69,250.67 2.7,35.04 -5.39,72.77 -32.34,97.03 -35.04,32.35 -86.25,37.74 -132.07,37.74 -40.43,0 -83.56,-2.7 -121.29,-21.56 -24.26,-13.48 -37.73,-40.43 -43.13,-67.38 13.48,0 26.95,0 40.43,0 8.09,18.87 16.17,40.43 35.04,48.52 29.65,13.48 61.99,13.48 94.34,13.48 35.04,-2.69 75.47,-8.09 97.03,-37.73 21.56,-29.65 16.17,-67.38 16.17,-102.42 -43.13,45.82 -110.51,53.91 -169.81,45.82 -37.73,-5.39 -75.47,-18.87 -102.42,-48.52 -29.65,-37.73 -32.35,-88.95 -21.56,-132.07 10.78,-43.13 53.91,-75.47 97.03,-86.25zm35.04 26.95c-29.65,5.39 -61.99,18.87 -78.16,45.82 -18.87,32.35 -18.87,75.47 -8.09,107.81 13.48,35.04 53.91,53.91 88.95,59.3 45.82,5.39 99.73,0 132.07,-35.04 37.74,-45.82 32.35,-123.98 -16.17,-159.02 -32.34,-24.26 -78.16,-24.26 -118.59,-18.87z"/>
    <path class="fil1" d="M3222.64 461.35c32.34,-13.48 64.69,-10.78 97.03,-10.78 0,10.78 0,24.26 0,35.04 -35.04,0 -72.77,-5.39 -102.42,16.17 -26.95,18.87 -37.73,56.6 -37.73,88.95 0,45.82 0,94.34 0,140.16 -13.48,0 -26.95,0 -40.43,0 -2.69,-91.64 -2.69,-180.59 0,-272.23 13.48,0 26.95,0 43.13,0 0,16.17 0,32.34 0,45.82 10.78,-16.17 21.56,-35.04 40.43,-43.13z"/>
    <path class="fil1" d="M3335.84 517.96c26.95,-45.82 83.56,-64.69 134.77,-67.38 53.91,-2.7 113.2,5.39 150.94,45.82 29.65,26.95 37.74,67.38 40.43,107.81 -102.42,0 -202.15,0 -304.57,0 2.69,26.95 10.78,56.6 32.34,75.47 40.43,35.04 99.73,40.43 148.24,26.95 32.34,-8.09 59.3,-32.34 70.08,-64.69 16.17,0 32.35,0 45.82,0 -13.48,45.82 -53.91,78.16 -99.73,88.95 -61.99,13.48 -134.77,10.78 -188.67,-26.95 -53.91,-37.73 -64.69,-126.68 -29.65,-185.98zm78.16 -21.56c-29.65,16.17 -45.82,48.52 -51.21,80.86 86.25,0 172.5,0 258.75,0 -2.69,-18.87 -8.09,-40.43 -21.56,-53.91 -45.82,-53.91 -129.38,-59.3 -185.98,-26.95z"/>
    <path class="fil2" d="M707.9 22.02c-51.21,-8.09 -105.12,-10.78 -156.33,-2.69 -29.65,5.39 -59.3,18.87 -83.56,32.34 -83.56,-26.95 -177.89,-43.13 -264.14,-26.95 -61.99,10.78 -121.29,48.52 -153.63,105.12 -40.43,67.38 -48.52,148.24 -43.13,226.41 10.78,86.25 32.34,172.5 56.6,256.06 21.56,72.77 45.82,145.55 86.25,210.24 21.56,35.04 53.91,72.77 97.03,83.56 35.04,8.09 70.08,-2.7 97.03,-24.26 13.48,13.48 29.65,24.26 48.52,29.65 51.21,18.87 107.81,18.87 159.02,-2.69 2.69,70.08 0,142.85 26.95,207.54 10.78,32.34 26.95,61.99 56.6,80.86 32.34,21.56 70.08,24.26 107.81,18.87 32.34,-5.39 67.38,-16.17 94.34,-32.34 29.65,-18.87 53.91,-45.82 67.38,-78.16 32.34,-72.77 35.04,-150.94 37.73,-229.1 75.47,5.39 153.63,-13.48 210.24,-64.69 21.56,-18.87 40.43,-48.52 32.34,-78.16 -8.09,-26.95 -37.73,-45.82 -64.69,-43.13 -29.65,2.69 -56.6,10.78 -86.25,10.78 64.69,-113.2 115.9,-234.49 137.46,-361.17 8.09,-53.91 16.17,-107.81 0,-161.72 -8.09,-29.65 -29.65,-53.91 -51.21,-75.47 -48.52,-48.52 -115.9,-80.86 -183.28,-94.34 -78.16,-16.17 -156.33,-8.09 -229.1,13.48z"/>
    <path class="fil2" d="M705.2 54.36c80.86,-24.26 167.11,-32.34 247.97,-8.09 64.69,18.87 123.98,56.6 164.41,110.51 16.17,21.56 21.56,51.21 21.56,78.16 2.69,48.52 -8.09,97.03 -18.87,142.85 -29.65,123.98 -83.56,239.88 -150.94,347.7 37.73,16.17 80.86,8.09 118.6,2.7 16.17,-2.7 37.73,-8.09 48.51,8.09 10.78,16.17 0,35.04 -10.78,45.82 -56.6,56.6 -142.85,70.08 -218.32,56.6 -8.09,67.38 -16.17,134.77 -26.95,204.84 -5.39,37.73 -18.87,78.16 -48.52,102.42 -26.95,24.26 -64.69,35.04 -99.73,40.43 -35.04,5.39 -78.16,2.7 -105.12,-24.26 -29.65,-26.95 -48.52,-67.38 -51.21,-105.12 -8.09,-67.38 -8.09,-137.46 -8.09,-204.84 -32.34,26.95 -75.47,43.13 -118.59,40.43 -29.65,-2.69 -64.69,-8.09 -86.25,-29.65 -13.48,-10.78 -10.78,-32.35 2.69,-43.13 24.26,-18.87 56.6,-16.17 83.56,-26.95 21.56,-5.39 32.34,-26.95 43.13,-40.43 -24.26,-2.7 -48.52,-8.09 -67.38,-18.87 -32.34,35.04 -64.69,72.77 -94.34,107.81 -18.87,21.56 -43.13,40.43 -72.77,35.04 -32.34,-5.39 -56.6,-29.65 -75.47,-53.91 -35.04,-51.21 -59.3,-110.51 -78.16,-169.8 -29.65,-97.03 -53.91,-194.06 -67.38,-293.79 -8.09,-75.47 0,-156.33 43.13,-218.32 35.04,-51.21 94.34,-78.16 153.63,-83.55 80.86,-8.09 161.72,8.09 237.19,35.04 61.99,-40.43 142.85,-48.52 215.63,-32.35 8.09,-5.39 13.48,-2.69 18.87,-5.39zm59.3 21.56c16.17,10.78 32.34,18.87 48.52,29.65 64.69,43.13 115.9,105.12 145.55,175.2 8.09,21.56 18.87,40.43 16.17,64.69 0,45.82 -16.17,91.64 -10.78,137.46 5.39,48.52 16.17,99.73 2.7,148.24 -2.7,16.17 -13.48,32.34 -18.87,48.52 0,2.69 2.69,8.09 2.69,8.09 5.39,-8.09 10.78,-16.17 16.17,-24.26 51.21,-83.55 88.95,-175.2 115.9,-269.53 13.48,-51.21 24.26,-105.12 24.26,-159.02 0,-21.56 -2.7,-45.82 -16.17,-64.69 -29.65,-37.73 -70.08,-67.38 -115.9,-86.25 -67.38,-21.56 -140.16,-24.26 -210.24,-8.09zm-188.67 5.39c-51.21,5.39 -99.73,35.04 -129.38,75.47 -40.43,56.6 -59.3,126.68 -64.69,194.06 43.13,-18.87 88.95,-37.74 137.46,-26.95 29.65,8.09 53.91,35.04 59.3,64.69 13.48,61.99 21.56,123.98 8.09,185.98 -10.78,48.52 -40.43,91.64 -51.21,142.85 13.48,0 26.95,2.69 37.73,8.09 24.26,13.48 37.73,40.43 35.04,67.38 -2.7,67.38 -2.7,134.77 2.69,202.15 2.7,26.95 2.7,56.6 10.78,83.56 10.78,32.34 32.34,64.69 67.38,72.77 37.73,5.39 75.47,-5.39 110.51,-21.56 32.34,-16.17 48.52,-53.91 53.91,-88.95 10.78,-72.77 18.87,-145.55 26.95,-218.32 2.69,-26.95 -2.7,-53.91 13.48,-78.16 8.09,-16.17 24.26,-21.56 37.73,-29.65 -10.78,-16.17 -24.26,-32.35 -35.04,-48.52 -35.04,-75.47 -83.55,-145.55 -99.73,-226.41 -5.39,-35.04 -2.69,-75.47 26.95,-99.73 32.34,-26.95 75.47,-24.26 115.9,-24.26 -24.26,-67.38 -67.38,-126.68 -121.29,-169.81 -70.08,-51.21 -159.02,-75.47 -242.58,-64.69zm-358.48 5.39c-45.82,8.09 -91.64,35.04 -115.9,78.16 -32.34,56.6 -35.04,121.29 -29.65,183.28 10.78,80.86 29.65,161.72 53.91,242.58 21.56,67.38 43.13,134.77 80.86,194.06 13.48,21.56 29.65,43.13 53.91,51.21 21.56,5.39 37.73,-13.48 51.21,-26.95 26.95,-35.04 59.3,-67.38 88.95,-102.42 -43.13,-37.73 -64.69,-97.03 -59.3,-156.33 5.39,-43.13 8.09,-88.95 5.39,-134.77 -5.39,-61.99 5.39,-126.68 24.26,-188.67 13.48,-45.82 37.73,-86.25 70.08,-121.29 -72.77,-16.17 -150.94,-32.34 -223.71,-18.87zm628.01 277.62c-21.56,16.17 -21.56,48.52 -16.17,72.77 16.17,78.16 61.99,142.85 94.34,212.93 26.95,-51.21 10.78,-110.51 5.39,-167.11 -5.39,-45.82 8.09,-88.95 10.78,-132.07 -29.65,0 -64.69,-5.39 -94.34,13.48zm-466.29 29.65c0,37.73 2.69,75.47 0,110.51 -2.7,32.35 -10.78,64.69 -2.7,97.03 10.78,59.3 61.99,107.81 123.98,107.81 8.09,-29.65 18.87,-59.3 32.34,-86.25 37.74,-72.77 29.65,-156.33 10.78,-231.8 -5.39,-21.56 -24.26,-37.73 -45.82,-37.73 -43.13,0 -83.56,18.87 -118.59,40.43zm547.15 363.87c-10.78,10.78 -10.78,26.95 -10.78,40.43 24.26,8.09 51.21,8.09 78.16,5.39 37.73,-5.39 78.16,-16.17 107.81,-45.82 -45.82,5.39 -97.03,16.17 -142.85,-5.39 -10.78,-5.39 -24.26,0 -32.35,5.39zm-444.73 53.91c-26.95,16.17 -59.3,13.48 -83.55,26.95 53.91,26.95 132.07,18.87 169.8,-32.35 18.87,-18.87 0,-56.6 -24.26,-53.91 -26.95,16.17 -37.73,45.82 -61.99,59.3z"/>
    <path class="fil2" d="M856.14 375.1c16.17,-10.78 37.73,-10.78 53.91,-5.39 0,21.56 -26.95,37.73 -45.82,26.95 -5.39,-2.69 -16.17,-13.48 -8.09,-21.56z"/>
    <path class="fil2" d="M476.1 377.8c16.17,-5.39 35.04,-2.7 48.52,8.09 8.09,8.09 0,21.56 -8.09,24.26 -18.87,13.48 -48.52,0 -51.21,-21.56 0,-5.39 5.39,-10.78 10.78,-10.78z"/>
    <path class="fil0" d="M764.5 75.92c67.38,-16.17 142.85,-13.48 207.54,10.78 45.82,16.17 86.25,48.52 115.9,86.25 16.17,18.87 16.17,43.13 16.17,64.69 0,53.91 -10.78,105.12 -24.26,159.02 -26.95,94.34 -64.69,185.98 -115.9,269.53 -5.39,8.09 -10.78,16.17 -16.17,24.26 0,-2.7 -2.7,-8.09 -2.7,-8.09 5.39,-16.17 16.17,-32.34 18.87,-48.52 13.48,-48.51 2.7,-99.73 -2.69,-148.24 -5.39,-45.82 10.78,-91.64 10.78,-137.46 2.69,-21.56 -8.09,-43.13 -16.17,-64.69 -32.34,-70.08 -80.86,-132.07 -145.55,-175.2 -10.78,-13.48 -29.65,-21.56 -45.82,-32.34z"/>
    <path class="fil0" d="M575.83 81.31c83.56,-10.78 172.5,13.48 239.88,64.69 53.91,43.13 99.73,102.42 121.29,169.81 -37.73,0 -83.56,-2.7 -115.9,24.26 -29.65,24.26 -32.34,64.69 -26.95,99.73 16.17,83.56 64.69,153.63 99.73,226.41 8.09,18.87 21.56,32.34 35.04,48.52 -16.17,8.09 -29.65,13.48 -37.73,29.65 -13.48,24.26 -8.09,51.21 -13.48,78.16 -8.09,72.77 -16.17,145.55 -26.95,218.32 -5.39,35.04 -21.56,72.77 -53.91,88.95 -32.34,16.17 -72.77,26.95 -110.51,21.56 -35.04,-5.39 -59.3,-40.43 -67.38,-72.77 -8.09,-26.95 -8.09,-56.6 -10.78,-83.56 -2.7,-67.38 -2.7,-134.77 -2.7,-202.15 2.7,-26.95 -10.78,-53.91 -35.04,-67.38 -10.78,-5.39 -24.26,-8.09 -37.74,-8.09 10.78,-48.52 40.43,-91.64 51.21,-142.85 13.48,-61.99 5.39,-123.98 -8.09,-185.98 -5.39,-29.65 -29.65,-56.6 -59.3,-64.69 -48.52,-10.78 -94.34,5.39 -137.46,26.95 5.39,-67.38 24.26,-137.46 64.69,-194.06 32.34,-40.43 80.86,-67.38 132.07,-75.47z"/>
    <path class="fil0" d="M217.35 86.7c75.47,-13.48 150.94,0 223.71,21.56 -32.35,35.04 -56.6,75.47 -70.08,121.29 -18.87,59.3 -26.95,123.98 -24.26,188.67 2.7,45.82 2.7,88.95 -5.39,134.77 -8.09,56.6 16.17,115.9 59.3,156.33 -29.65,35.04 -59.3,67.38 -88.95,102.42 -13.48,16.17 -29.65,32.35 -51.21,26.95 -24.26,-8.09 -40.43,-29.65 -53.91,-51.21 -37.74,-59.3 -59.3,-126.68 -80.86,-194.06 -24.26,-78.16 -43.13,-159.02 -53.91,-242.58 -5.39,-61.99 -2.7,-129.38 29.65,-183.28 24.26,-43.13 67.38,-70.08 115.9,-80.86z"/>
    <path class="fil0" d="M845.36 364.32c26.95,-18.87 64.69,-16.17 94.34,-13.48 -2.69,43.13 -16.17,86.25 -10.78,132.07 5.39,53.91 18.87,113.2 -5.39,167.11 -35.04,-70.08 -80.86,-134.77 -94.34,-212.93 -2.7,-24.26 -2.7,-53.91 16.17,-72.77zm10.78 10.78c-8.09,8.09 0,18.87 8.09,21.56 18.87,10.78 45.82,-5.39 45.82,-26.95 -16.17,-5.39 -37.73,-5.39 -53.91,5.39z"/>
    <path class="fil0" d="M379.07 393.97c35.04,-21.56 75.47,-40.43 115.9,-37.74 21.56,0 40.43,16.17 45.82,37.74 18.87,75.47 24.26,159.02 -10.78,231.8 -13.48,26.95 -24.26,56.6 -32.34,86.25 -61.99,0 -113.2,-51.21 -123.98,-107.81 -8.09,-32.35 2.69,-64.69 2.69,-97.03 5.39,-40.43 2.7,-75.47 2.7,-113.2zm97.03 -16.17c-5.39,2.69 -10.78,5.39 -10.78,10.78 2.69,21.56 32.34,35.04 51.21,21.56 8.09,-5.39 16.17,-16.17 8.09,-24.26 -13.48,-10.78 -32.34,-13.48 -48.52,-8.09z"/>
    <path class="fil0" d="M926.22 757.84c8.09,-5.39 21.56,-13.48 32.35,-5.39 43.13,24.26 94.34,10.78 142.85,5.39 -29.65,26.95 -67.38,40.43 -107.81,45.82 -26.95,2.69 -53.91,5.39 -78.16,-5.39 0,-13.48 0,-29.65 10.78,-40.43z"/>
    <path class="fil0" d="M481.49 811.75c24.26,-13.48 35.04,-43.13 59.3,-59.3 24.26,-2.7 45.82,35.04 24.26,53.91 -37.73,51.21 -115.9,61.99 -169.81,32.35 26.95,-10.78 59.3,-10.78 86.25,-26.95z"/>
    <path class="fil1" d="M707.9 22.02c72.77,-18.87 150.94,-26.95 226.41,-13.48 67.38,10.78 132.07,45.82 183.28,94.34 21.56,21.56 43.13,45.82 51.21,75.47 16.17,53.91 8.09,107.81 0,161.72 -24.26,126.68 -72.77,247.97 -137.46,361.17 29.65,0 56.6,-8.09 86.25,-10.78 26.95,-2.7 59.3,16.17 64.69,43.13 8.09,29.65 -10.78,59.3 -32.34,78.16 -59.3,51.21 -140.16,67.38 -212.93,64.69 -5.39,78.16 -5.39,156.33 -37.73,229.1 -16.17,32.34 -37.73,59.3 -67.38,78.16 -29.65,18.87 -61.99,26.95 -94.34,32.34 -35.04,5.39 -75.47,2.69 -107.81,-18.87 -29.65,-18.87 -45.82,-48.52 -56.6,-80.86 -24.26,-67.38 -21.56,-137.46 -26.95,-207.54 -51.21,21.56 -107.81,21.56 -159.02,2.69 -18.87,-5.39 -35.04,-16.17 -48.52,-29.65 -26.95,21.56 -61.99,32.34 -97.03,24.26 -43.13,-10.78 -72.77,-48.52 -97.03,-83.56 -40.43,-64.69 -64.69,-137.46 -86.25,-210.24 -24.26,-83.56 -45.82,-167.11 -56.6,-256.06 -5.39,-78.16 0,-159.02 43.13,-226.41 32.35,-53.91 91.64,-91.64 153.63,-105.12 88.95,-18.87 180.59,0 264.14,24.26 26.95,-13.48 53.91,-26.95 83.56,-32.35 56.6,-8.09 110.51,-2.69 161.72,5.39zm-2.7 32.34c-5.39,2.7 -13.48,-2.69 -18.87,-2.69 -72.77,-16.17 -153.63,-8.09 -215.63,32.34 -75.47,-26.95 -156.33,-43.13 -237.19,-35.04 -59.3,5.39 -121.29,35.04 -153.63,83.55 -43.13,64.69 -48.52,145.55 -43.13,218.32 13.48,99.73 37.73,196.76 67.38,291.09 21.56,59.3 43.13,118.59 78.16,169.8 18.87,24.26 43.13,51.21 75.47,53.91 29.65,2.69 53.91,-13.48 72.77,-35.04 32.34,-37.73 61.99,-72.77 94.34,-107.81 21.56,10.78 45.82,16.17 67.38,18.87 -13.48,16.17 -24.26,35.04 -43.13,40.43 -26.95,10.78 -59.3,8.09 -83.56,26.95 -13.48,10.78 -16.17,32.34 -2.69,43.13 21.56,21.56 56.6,26.95 86.25,29.65 43.13,2.69 86.25,-10.78 118.59,-40.43 0,67.38 0,137.46 8.09,204.84 2.7,40.43 21.56,80.86 51.21,105.12 26.95,24.26 70.08,29.65 105.12,24.26 35.04,-8.09 72.77,-18.87 99.73,-40.43 29.65,-26.95 43.13,-64.69 48.52,-102.42 10.78,-67.38 18.87,-134.77 26.95,-204.84 75.47,13.48 161.72,-2.69 218.32,-56.6 10.78,-10.78 24.26,-32.34 10.78,-45.82 -10.78,-13.48 -32.34,-10.78 -48.51,-8.09 -37.74,8.09 -80.86,16.17 -118.6,-2.69 67.38,-107.81 121.29,-223.71 150.94,-347.7 10.78,-45.82 18.87,-94.34 18.87,-142.85 -2.7,-26.95 -5.39,-56.6 -21.56,-78.16 -40.43,-53.91 -99.73,-91.64 -164.41,-110.51 -78.16,-10.78 -167.11,-5.39 -247.97,18.87z"/>
   </g>
  </g>
 </g>
</svg>
