<?xml version="1.0" encoding="UTF-8"?>
<!DOCTYPE svg PUBLIC "-//W3C//DTD SVG 1.1//EN" "http://www.w3.org/Graphics/SVG/1.1/DTD/svg11.dtd">
<!-- Creator: CorelDRAW 2021 (64 Bit) -->
<svg xmlns="http://www.w3.org/2000/svg" xml:space="preserve" width="313.368mm" height="87.8731mm" version="1.1" style="shape-rendering:geometricPrecision; text-rendering:geometricPrecision; image-rendering:optimizeQuality; fill-rule:evenodd; clip-rule:evenodd"
viewBox="0 0 4766.89 1336.71"
 xmlns:xlink="http://www.w3.org/1999/xlink"
 xmlns:xodm="http://www.corel.com/coreldraw/odm/2003">
 <defs>
  <style type="text/css">
   <![CDATA[
    .fil1 {fill:#FF6C37;fill-rule:nonzero}
    .fil0 {fill:white;fill-rule:nonzero}
   ]]>
  </style>
 </defs>
 <g id="Camada_x0020_1">
  <metadata id="CorelCorpID_0Corel-Layer"/>
  <g id="_2143800283072">
   <g id="g1038">
    <path id="path4" class="fil0" d="M1519.83 868.42l0 -297.98c0.16,-3.36 1.54,-6.53 3.93,-8.92 3.07,-2.52 6.94,-3.89 10.92,-3.89 0.07,0 0.15,0 0.21,0l83.51 0c1.51,-0.06 3.02,-0.11 4.52,-0.11 23.34,0 46,8.13 64.02,22.95 16.58,17.28 25.84,40.36 25.84,64.33 0,2.13 -0.08,4.28 -0.21,6.4l0 3.9c0.18,2.47 0.28,5.01 0.28,7.51 0,24.38 -9.49,47.85 -26.48,65.41 -18.19,15.15 -41.15,23.47 -64.87,23.47 -1.38,0 -2.8,-0.05 -4.18,-0.08l-60.19 0.05 0 116.96c0.03,0.13 0.03,0.28 0.03,0.45 0,3.8 -2.16,7.28 -5.58,8.99 -3.92,2.45 -8.47,3.79 -13.09,3.79 -4.63,0 -9.18,-1.33 -13.1,-3.79 -3.43,-1.85 -5.58,-5.43 -5.58,-9.33 0,-0.03 0,-0.1 0,-0.15l-0.02 0.03zm42.89 -136.47l60.14 0c1.37,0.07 2.75,0.13 4.11,0.13 14.48,0 28.41,-5.64 38.81,-15.75 10.14,-12.04 15.73,-27.32 15.73,-43.07 0,-1.41 -0.05,-2.86 -0.16,-4.27l0 -5.58c0.11,-1.33 0.16,-2.72 0.16,-4.08 0,-15.62 -5.59,-30.79 -15.73,-42.65 -10.4,-10.11 -24.33,-15.75 -38.81,-15.75 -1.36,0 -2.75,0.07 -4.08,0.15l-60.17 -0.02 0 130.89z" inkscape:connector-curvature="0"/>
    <path id="path6" class="fil0" d="M1842.32 787.65l0 -133.67c-0.16,-2.47 -0.28,-4.99 -0.28,-7.49 0,-24.43 9.49,-47.9 26.49,-65.45 19.93,-15.12 44.31,-23.32 69.34,-23.32 25.03,0 49.41,8.21 69.34,23.32 17.02,17.15 26.58,40.42 26.58,64.61 0,2.78 -0.13,5.58 -0.39,8.35l0 133.67c0.24,2.81 0.39,5.71 0.39,8.6 0,24.27 -9.56,47.59 -26.59,64.87 -19.91,15.12 -44.29,23.34 -69.32,23.34 -25.03,0 -49.41,-8.23 -69.34,-23.34 -17,-17.64 -26.51,-41.19 -26.51,-65.7 0,-2.6 0.11,-5.23 0.31,-7.82l-0.02 0.03zm63.49 73.52c0,41.77 19.49,62.94 55.7,62.94 1.56,0.11 3.1,0.18 4.63,0.18 14.52,0 28.46,-5.67 38.86,-15.8 9.85,-11.57 15.28,-26.33 15.28,-41.54 0,-1.93 -0.08,-3.89 -0.26,-5.8l0 -133.67c0.18,-1.93 0.26,-3.89 0.26,-5.85 0,-15.04 -5.44,-29.6 -15.3,-40.94 -10.39,-10.11 -24.33,-15.73 -38.85,-15.73 -1.53,0 -3.07,0.07 -4.58,0.2 -38.43,0 -55.7,20.61 -55.7,62.38l-0.05 133.66z" inkscape:connector-curvature="0"/>
    <path id="path8" class="fil0" d="M2167.04 836.1c0.03,-0.1 0.03,-0.18 0.03,-0.26 0,-5.02 1.8,-9.85 5.02,-13.69 2.24,-3.77 6.18,-6.26 10.56,-6.68 4.01,0.7 7.7,2.67 10.56,5.56l12.81 12.25c5.82,5.72 12.89,10.11 20.59,12.79 10.27,3.71 21.11,5.61 32.02,5.61 0.28,0 0.57,0 0.86,0 0.81,0 1.69,0.02 2.54,0.02 15.41,0 30.38,-5.1 42.57,-14.52 10.37,-9.48 16.29,-22.92 16.29,-36.98 0,-1.22 -0.03,-2.45 -0.13,-3.67 0.05,-0.99 0.1,-1.98 0.1,-2.97 0,-13.7 -5.46,-26.88 -15.12,-36.59 -10.16,-10.4 -22.54,-18.42 -36.23,-23.39l-46.78 -17.26c-14.19,-6.13 -26.66,-15.72 -36.2,-27.84 -9.8,-12.74 -15.13,-28.36 -15.13,-44.47 0,-1.3 0.05,-2.65 0.11,-3.95 -0.03,-0.78 -0.05,-1.61 -0.05,-2.4 0,-13.26 3.07,-26.38 8.96,-38.28 5.17,-10.58 13.28,-19.5 23.36,-25.6 9.48,-5.87 19.83,-10.22 30.64,-12.84 11.3,-2.84 22.92,-4.37 34.56,-4.44 0.03,0 0.13,0 0.18,0 17.7,0 35.37,2.84 52.18,8.35 16.71,5.01 25.06,12.81 25.06,21.16 -0.05,4.84 -1.61,9.51 -4.47,13.39 -2.13,4.42 -6.62,7.23 -11.54,7.23 -0.07,0 -0.1,0 -0.16,0 -6.7,-2.02 -13.25,-4.65 -19.49,-7.8 -13.04,-5.49 -27.06,-8.34 -41.2,-8.37 -1.4,-0.05 -2.8,-0.1 -4.19,-0.1 -13.8,0 -27.36,3.71 -39.25,10.7 -10.55,7.38 -16.82,19.47 -16.82,32.36 0,0.89 0.05,1.82 0.1,2.73 -0.02,0.5 -0.02,1.01 -0.02,1.51 0,12.24 5.28,23.88 14.5,31.87 10.96,8.78 23.44,15.6 36.78,20.02 14.48,5.01 28.41,11.13 43.45,17.26 31.03,15.12 50.78,46.63 50.78,81.17 0,1.54 -0.03,3.1 -0.13,4.62 0.16,2.08 0.24,4.16 0.24,6.23 0,23.65 -9.54,46.29 -26.4,62.84 -18.74,15.2 -42.15,23.52 -66.28,23.52 -1.46,0 -2.97,-0.05 -4.45,-0.08 -1.25,0.02 -2.55,0.03 -3.82,0.03 -21.93,0 -43.48,-5.8 -62.45,-16.77 -17.26,-10.58 -24.51,-21.72 -24.51,-32.31l-0.02 0.03z" inkscape:connector-curvature="0"/>
    <path id="path10" class="fil0" d="M2467.25 574.33c-0.02,-0.24 -0.02,-0.51 -0.02,-0.77 0,-4 1.4,-7.87 3.92,-10.94 2.06,-3.12 5.56,-5.01 9.3,-5.01 0.06,0 0.11,0 0.18,0l180.45 0c0.15,0 0.28,0 0.42,0 3.82,0 7.43,1.87 9.62,5.02 2.16,3.33 3.32,7.25 3.32,11.25 0,0.15 0,0.29 0,0.44 0,0.05 0,0.08 0,0.13 0,4.1 -1.15,8.09 -3.35,11.57 -2.21,3.4 -5.98,5.48 -10.01,5.56l-70.74 0 0 278.49c0,0 0,0.07 0,0.1 0,3.9 -2.14,7.48 -5.57,9.33 -3.92,2.47 -8.47,3.79 -13.1,3.79 -4.63,0 -9.17,-1.32 -13.08,-3.79 -3.41,-1.85 -5.56,-5.43 -5.56,-9.33 0,-0.03 0,-0.1 0,-0.15l0 -278.49 -71.84 0.05c-0.06,0 -0.11,0 -0.18,0 -3.74,0 -7.23,-1.88 -9.3,-5.01 -2.78,-3.48 -4.34,-7.79 -4.47,-12.25l0.02 0z" inkscape:connector-curvature="0"/>
    <path id="path12" class="fil0" d="M2800.88 868.42l0 -291.86c-0.19,-0.99 -0.28,-2 -0.28,-2.99 0,-7.95 5.79,-14.71 13.64,-15.95l5.58 0c11.7,0 21.71,7.8 29.52,23.39l69.62 133.67 70.18 -133.67c8.35,-15.59 18.38,-23.39 29.52,-23.39 0.8,-0.11 1.63,-0.18 2.44,-0.18 7.92,0 14.68,5.75 15.95,13.56l0 0c0.28,0.7 0.42,1.46 0.42,2.21 0,0.77 -0.15,1.53 -0.42,2.24l0 291.86c0.03,0.28 0.07,0.62 0.07,0.94 0,3.69 -1.92,7.12 -5.05,9.04 -4.05,2.19 -8.55,3.35 -13.12,3.35 -4.57,0 -9.07,-1.15 -13.07,-3.35 -3.43,-1.69 -5.62,-5.19 -5.62,-9.01 0,-0.34 0.02,-0.68 0.05,-1.02l0 -231.7 -66.84 126.99c-2.32,6.31 -8.32,10.53 -15.04,10.56 -6.31,-0.24 -11.7,-4.52 -13.39,-10.56l-69.62 -129.22 0 235.05c0.05,0.36 0.06,0.71 0.06,1.07 0,3.51 -1.97,6.76 -5.07,8.4 -3.84,2.52 -8.26,4.06 -12.83,4.44 -0.11,0.02 -0.26,0.02 -0.37,0.02 -4.45,0 -8.78,-1.37 -12.43,-3.89 -2.58,-1.77 -4.15,-4.71 -4.15,-7.85 0,-0.75 0.1,-1.48 0.26,-2.19l0 0.03z" inkscape:connector-curvature="0"/>
    <path id="path14" class="fil0" d="M3164.6 866.19c-0.11,-0.59 -0.18,-1.14 -0.18,-1.71 0,-0.57 0.07,-1.1 0.19,-1.66l90.23 -291.86c2.78,-8.91 10.03,-13.36 22.84,-13.36 12.81,0 20.06,4.45 22.84,13.36l91.9 292.98 0 0c-0.49,4.65 -3.19,8.81 -7.25,11.13 -4.92,2.84 -10.5,4.37 -16.17,4.45 -0.57,0.06 -1.14,0.11 -1.71,0.11 -5.3,0 -10.01,-3.43 -11.65,-8.48l-18.94 -62.38 -116.96 0.03 -19.49 65.16c-1.43,5.04 -6.05,8.53 -11.28,8.53 -0.72,0 -1.41,-0.07 -2.11,-0.19 -5.32,-0.11 -10.52,-1.66 -15.02,-4.47 -4.42,-2.11 -7.25,-6.6 -7.25,-11.52 0,-0.07 0,-0.1 0,-0.16l0.02 0.03zm71.29 -76.87l99.15 0 -49.58 -167.09 -49.58 167.09z" inkscape:connector-curvature="0"/>
    <path id="path16" class="fil0" d="M3521.06 868.42l0 -297.98c0,-8.35 6.13,-12.81 18.38,-12.81 0.15,0 0.29,0 0.44,0 5.56,0 10.92,1.97 15.16,5.58 5.38,5.01 9.74,11.09 12.79,17.81l111.41 216.11 0 -226.69c-0.02,-0.03 -0.02,-0.1 -0.02,-0.15 0,-3.89 2.14,-7.46 5.58,-9.31 4.01,-2.18 8.53,-3.33 13.1,-3.33 4.57,0 9.07,1.15 13.09,3.35 3.43,1.84 5.58,5.41 5.58,9.3 0,0.05 0,0.11 0,0.15l0 297.98c0,0.02 0,0.08 0,0.11 0,3.9 -2.15,7.48 -5.58,9.33 -3.64,2.52 -7.98,3.89 -12.42,3.89 -0.13,0 -0.28,0 -0.41,0 -10.66,-0.59 -20.04,-7.35 -23.93,-17.28l-115.29 -222.79 0 226.69c0.03,0.37 0.05,0.73 0.05,1.09 0,3.51 -1.95,6.76 -5.07,8.4 -3.92,2.45 -8.47,3.79 -13.1,3.79 -4.62,0 -9.17,-1.33 -13.08,-3.79 -3.97,-1.01 -6.71,-4.57 -6.71,-8.65 0,-0.28 0.02,-0.55 0.03,-0.83l0 0.03z" inkscape:connector-curvature="0"/>
    <g id="g997">
     <path id="path18" class="fil1" d="M1197.33 259.84c-126.44,-163.81 -321.94,-259.84 -528.95,-259.84 -369.08,0 -668.38,299.3 -668.38,668.35 0,369.06 299.3,668.36 668.38,668.36 147.86,0 291.71,-49.18 408.64,-139.52 163.69,-126.47 259.74,-321.91 259.74,-528.84 0,-147.75 -49.06,-291.61 -139.38,-408.54l-0.05 0.03z" inkscape:connector-curvature="0"/>
     <path id="path20" class="fil0" d="M893.77 425.82l-281.83 284.05 -79.64 -81.87c277.37,-277.37 305.23,-252.31 361.49,-202.18l-0.02 0z" inkscape:connector-curvature="0"/>
     <path id="path22" class="fil1" d="M611.95 717.68l0 0c-2.47,-0.1 -4.84,-1.09 -6.63,-2.81l-80.21 -80.21c-1.8,-1.85 -2.83,-4.36 -2.83,-6.96 0,-2.58 1.02,-5.09 2.81,-6.96 273.47,-273.47 310.79,-260.67 375.4,-202.18 2.11,1.72 3.35,4.29 3.35,6.99 0,0.08 0,0.2 0,0.28 0.06,0.39 0.08,0.8 0.08,1.2 0,2.32 -1.06,4.57 -2.88,6.03l-281.83 281.83c-1.95,1.79 -4.5,2.78 -7.15,2.78 -0.02,0 -0.07,0 -0.08,0l-0.03 0.02zm-58.48 -92.47l65.73 65.73 267.35 -267.34c-11.38,-14.3 -28.7,-22.64 -46.99,-22.64 -11.34,0 -22.5,3.22 -32.08,9.26 -48.45,21.72 -126.44,88 -253.98,214.99l-0.02 0z" inkscape:connector-curvature="0"/>
     <path id="path24" class="fil0" d="M692.71 788.41l-76.87 -78.54 281.83 -278.5c75.74,74.09 -36.77,197.73 -204.96,357.02l0 0.02z" inkscape:connector-curvature="0"/>
     <path id="path26" class="fil1" d="M692.71 798.44l0 0c-2.44,-0.23 -4.78,-1.2 -6.65,-2.81l-78.54 -76.87c-0.6,-1.4 -0.89,-2.93 -0.89,-4.45 0,-1.54 0.29,-3.06 0.88,-4.47 -0.44,-1.15 -0.65,-2.37 -0.65,-3.61 0,-1.25 0.21,-2.47 0.63,-3.62l281.83 -281.83c1.98,-1.8 4.58,-2.84 7.28,-2.84 2.68,0 5.28,1.04 7.23,2.88 17.77,16.33 27.89,39.4 27.89,63.55 0,0.89 -0.02,1.85 -0.03,2.73 0,75.19 -85.77,169.89 -231.7,308.01 -1.95,1.89 -4.52,3.07 -7.27,3.3l-0.02 0.03zm-55.15 -91.92l62.93 62.94c111.41,-105.28 217.79,-213.89 218.34,-287.4 0.05,-0.81 0.07,-1.62 0.07,-2.45 0,-14.76 -5.14,-29.05 -14.52,-40.42l-266.82 267.34z" inkscape:connector-curvature="0"/>
     <path id="path28" class="fil0" d="M534.53 629.68l55.7 55.7c0.75,0.6 1.15,1.5 1.15,2.47 0,0.98 -0.41,1.87 -1.14,2.5l-117.52 25.06c-0.76,0.16 -1.54,0.24 -2.32,0.24 -6.14,0 -11.13,-4.99 -11.13,-11.13 0,-3.04 1.24,-5.95 3.43,-8.05l68.51 -67.96c0,0 2.23,0 3.35,1.12l-0.03 0.03z" inkscape:connector-curvature="0"/>
     <path id="path30" class="fil1" d="M469.92 726.58c-7.51,-0.13 -14.48,-4.13 -18.35,-10.61 -1.62,-3.07 -2.47,-6.48 -2.47,-9.93 0,-5.69 2.31,-11.15 6.39,-15.13l67.96 -68.51c2.42,-2.16 5.59,-3.4 8.87,-3.4 3.28,0 6.47,1.24 8.91,3.41l55.7 55.7c2.42,2.31 3.8,5.51 3.8,8.87 0,1.14 -0.16,2.28 -0.45,3.36 -1.28,4.49 -4.93,7.9 -9.46,8.92l-117.52 25.06 -3.38 2.24zm192.71 -120.86l-62.94 62.93c0,0 0,0 0,0 0,0 0,0 0,0l104.16 -22.28 -41.22 -40.65zm5.02 -5.01z" inkscape:connector-curvature="0"/>
     <path id="path32" class="fil0" d="M1043.6 269.3c-20.11,-19.42 -47.02,-30.28 -75.01,-30.28 -59.67,0 -108.06,48.39 -108.06,108.06 0,59.65 48.39,108.06 108.06,108.06 19.55,0 38.75,-5.33 55.54,-15.38l-75.74 -75.74 95.22 -94.71z" inkscape:connector-curvature="0"/>
     <path id="path34" class="fil1" d="M968.41 465.37c-64.56,-0.86 -116.49,-53.49 -116.49,-118.07 0,-31.08 12.27,-60.92 34.08,-83.01 22.3,-21.86 52.31,-34.17 83.56,-34.17 31.24,0 61.25,12.3 83.53,34.18 2.14,1.77 3.38,4.42 3.38,7.23 0,2.8 -1.24,5.45 -3.36,7.23l-90.23 85.22 68.51 67.39c1.84,1.79 2.89,4.27 2.89,6.84 0,0.5 -0.03,1.02 -0.13,1.53 -0.33,2.96 -1.97,5.61 -4.45,7.25 -18.38,11.49 -39.58,17.86 -61.26,18.37l-0.03 0zm61.26 -234.5c-53.9,0.26 -97.51,44.1 -97.51,98.03 0,25.88 10.24,50.71 28.46,69.06 18.3,18.38 43.19,28.74 69.11,28.74 13.39,0 26.67,-2.78 38.95,-8.13l-65.73 -65.73c-2.06,-1.69 -3.31,-4.26 -3.31,-6.96 0,-0.08 0,-0.18 0,-0.28 0.08,-2.6 1.32,-5.04 3.35,-6.66l86.89 -87.45c-17.28,-13.25 -38.41,-20.51 -60.17,-20.61l-0.03 -0.02z" inkscape:connector-curvature="0"/>
     <path id="path36" class="fil0" d="M1045.28 270.97l0 0 -95.25 94.68 75.74 75.74c7.66,-4.34 14.79,-9.59 21.2,-15.57 19.57,-20.66 30.49,-48.08 30.49,-76.54 0,-29.31 -11.57,-57.46 -32.13,-78.3l-0.05 -0.02z" inkscape:connector-curvature="0"/>
     <path id="path38" class="fil1" d="M1024.11 449.76c-0.11,0.03 -0.26,0.03 -0.41,0.03 -2.39,0 -4.66,-1.01 -6.24,-2.79l-75.74 -75.74c-2.11,-1.71 -3.36,-4.27 -3.36,-6.97 0,-0.08 0,-0.19 0,-0.28 0.08,-2.63 1.3,-5.07 3.35,-6.7l94.68 -93.02c1.87,-2.8 5.01,-4.49 8.37,-4.49 3.36,0 6.5,1.69 8.36,4.49l0 0c22.45,22.01 35.09,52.13 35.09,83.56 0,31.42 -12.65,61.55 -35.09,83.54 -6.55,6.92 -14.08,12.97 -22.3,17.81 -1.24,0.63 -2.63,0.96 -4.02,0.96 -0.91,0 -1.79,-0.15 -2.65,-0.39l-0.03 -0.02zm-54.58 -86.32l62.94 62.93c4.32,-2.99 8.47,-6.39 12.29,-10.01 18.5,-18.43 28.92,-43.51 28.96,-69.62 0,-0.07 0,-0.1 0,-0.15 0,-23.32 -8.53,-45.87 -23.96,-63.36l-80.23 80.2z" inkscape:connector-curvature="0"/>
     <path id="path40" class="fil0" d="M905.48 437.51l0 0c-7.51,-7.06 -17.49,-11.02 -27.83,-11.02 -10.34,0 -20.32,3.97 -27.86,11.04l-252.31 251.76 41.77 42.33 266.79 -233.93c8.17,-7.79 12.77,-18.56 12.77,-29.83 0,-11.52 -4.81,-22.55 -13.33,-30.33l-0.02 -0.02z" inkscape:connector-curvature="0"/>
     <path id="path42" class="fil1" d="M637.01 741.62c-2.49,-0.08 -4.86,-1.07 -6.65,-2.81l-42.33 -42.33c-1.8,-1.87 -2.81,-4.37 -2.81,-6.97 0,-2.58 1.01,-5.09 2.79,-6.96l252.31 -251.2c9.59,-9.54 22.63,-14.94 36.2,-14.94 13.59,0 26.61,5.4 36.21,14.97l0 0c9.64,9.64 15.07,22.69 15.07,36.31 0,0.52 -0.02,1.07 -0.02,1.58 -0.57,14.06 -6.8,27.32 -17.26,36.75l-266.79 233.93c-1.64,1.12 -3.54,1.74 -5.51,1.74 -0.39,0 -0.8,-0.03 -1.2,-0.1l-0.02 0.03zm-22.84 -54.03l27.84 28.41 261.79 -227.8c6.52,-5.61 10.37,-13.69 10.6,-22.28 0.03,-0.36 0.03,-0.75 0.03,-1.14 0,-8.23 -3.46,-16.11 -9.51,-21.68 -5.8,-5.84 -13.72,-9.09 -21.98,-9.09 -8.24,0 -16.16,3.25 -21.99,9.09l-246.78 244.49z" inkscape:connector-curvature="0"/>
     <path id="path44" class="fil0" d="M401.96 976.12c-0.68,0.94 -1.09,2.11 -1.09,3.32 0,1.2 0.41,2.37 1.12,3.35l11.13 48.45c0.11,0.75 0.16,1.5 0.16,2.26 0,7.69 -6.23,13.91 -13.91,13.91 -3.31,0 -6.57,-1.2 -9.09,-3.38l-76.31 -73.52 237.83 -239.5 82.42 0.03 55.7 55.7c-86.81,75.86 -183.87,139.75 -288,189.26l0.03 0.11z" inkscape:connector-curvature="0"/>
     <path id="path46" class="fil1" d="M396.95 1057.99c-6.29,-0.13 -12.3,-2.75 -16.71,-7.25l-72.96 -72.97c-2.08,-1.71 -3.33,-4.27 -3.33,-6.97 0,-0.08 0,-0.19 0,-0.28 0.1,-2.6 1.32,-5.05 3.35,-6.66l239.5 -240.05c1.33,-1.45 3.1,-2.44 5.02,-2.83l82.96 0.03c1.09,-0.41 2.23,-0.59 3.36,-0.59 1.14,0 2.28,0.18 3.35,0.55l55.7 55.7c1.84,1.69 2.86,4.06 2.86,6.55 0,0.42 -0.02,0.85 -0.08,1.25 0,0.1 0,0.21 0,0.29 0,2.7 -1.25,5.27 -3.35,6.94l-4.45 3.9c-87.14,72.57 -183.46,134.39 -285.74,183.22l10.58 45.12c0.45,1.85 0.68,3.74 0.68,5.61 0,13.05 -10.47,23.7 -23.49,23.96l2.75 4.47zm-47.9 -121.42l65.73 66.28c0.62,0.54 1.41,0.83 2.24,0.83 0.81,0 1.61,-0.29 2.23,-0.84 0.42,-0.59 0.63,-1.29 0.63,-1.97 0,-0.7 -0.21,-1.4 -0.63,-1.97l-11.13 -48.45c-0.29,-1.22 -0.47,-2.5 -0.47,-3.77 0,-5.98 3.43,-11.46 8.83,-14.04l0 0c99.56,-48.21 193.36,-108.56 278.46,-179.3l-45.67 -45.67 -74.64 -0.02 -225.57 228.92zm147.59 6.13z" inkscape:connector-curvature="0"/>
     <path id="path48" class="fil0" d="M256.59 1027.92l55.7 -55.7 85.77 85.77 -136.47 -9.48c-5.79,-0.45 -10.29,-5.3 -10.29,-11.12 0,-3.89 2.03,-7.48 5.33,-9.49l-0.05 0.02z" inkscape:connector-curvature="0"/>
     <path id="path50" class="fil1" d="M399.73 1066.34l0 0 -135.9 -9.48c-10.84,-1.06 -19.16,-10.18 -19.16,-21.1 0,-5.43 2.08,-10.63 5.82,-14.56l0 0 55.7 -55.7c1.87,-1.79 4.37,-2.81 6.96,-2.81 2.6,0 5.1,1.03 6.97,2.81l85.22 85.22c1.17,1.61 1.8,3.58 1.8,5.58 0,2 -0.63,3.95 -1.8,5.58 -1.28,2.08 -3.25,3.66 -5.58,4.45l-0.03 0.02zm-130.34 -35.64l111.4 7.23 -61.26 -57.38 -50.14 50.14z" inkscape:connector-curvature="0"/>
     <polygon id="polygon52" class="fil0" points="642.01,737.72 529.51,755 594.68,690.39 "/>
     <path id="path54" class="fil1" d="M529.51 765.58c-0.07,-0.03 -0.18,-0.03 -0.26,-0.03 -3.72,0 -7.09,-2.18 -8.63,-5.58 -1.17,-1.59 -1.8,-3.56 -1.8,-5.56 0,-2 0.63,-3.95 1.8,-5.58l64.61 -65.16c1.98,-1.84 4.57,-2.88 7.27,-2.88 2.7,0 5.28,1.04 7.23,2.86l47.35 47.35c0.93,1.5 1.43,3.24 1.43,5.01 0,1.77 -0.51,3.53 -1.43,5.01 -0.88,3.8 -3.98,6.68 -7.8,7.27l-111.41 17.26 1.64 0.03zm182.7 -85.22l-36.2 36.2 62.38 -9.48 -26.18 -26.72z" inkscape:connector-curvature="0"/>
     <path id="path56" class="fil0" d="M642.01 737.72l-78.54 10.03c-0.7,0.15 -1.43,0.23 -2.2,0.23 -5.52,0 -10.01,-4.49 -10.01,-10.03 0,-2.58 0.99,-5.07 2.78,-6.92l40.67 -40.67 47.3 47.36z" inkscape:connector-curvature="0"/>
     <path id="path58" class="fil1" d="M561.25 758.33c-7.38,-0.08 -14.17,-4.13 -17.77,-10.61 -1.69,-2.99 -2.57,-6.35 -2.57,-9.77 0,-5.32 2.11,-10.44 5.87,-14.19l40.67 -40.67c1.97,-1.81 4.55,-2.84 7.25,-2.84 2.7,0 5.28,1.04 7.23,2.88l47.35 47.35c1.98,1.88 3.12,4.49 3.12,7.25 0,5.25 -4.03,9.57 -9.25,10l-77.97 10.03 -3.93 0.59zm88.02 -48.45l0 0 59.03 -7.23 -26.19 -26.19 -33.42 33.42 0.57 0z" inkscape:connector-curvature="0"/>
     <path id="path60" class="fil1" d="M1045.83 335.03c-1.48,-2.54 -4.19,-4.06 -7.14,-4.06 -1.19,0 -2.34,0.24 -3.41,0.73 -2.58,1.33 -4.23,4 -4.23,6.92 0,1.27 0.31,2.54 0.89,3.64 1.53,3.23 2.32,6.74 2.32,10.3 0,5.36 -1.82,10.57 -5.12,14.78 -1.45,1.37 -2.29,3.28 -2.29,5.28 0,2 0.85,3.92 2.29,5.28 0.71,0.29 1.48,0.44 2.23,0.44 0.76,0 1.53,-0.15 2.24,-0.42 0.57,0.15 1.17,0.24 1.79,0.24 2.08,0 4.06,-0.91 5.43,-2.47 5.62,-6.86 8.7,-15.46 8.7,-24.32 0,-5.64 -1.25,-11.23 -3.64,-16.35l-0.06 0z" inkscape:connector-curvature="0"/>
    </g>
    <g id="g46">
     <g id="g44">
      <path id="path30-9" class="fil1" d="M3724.55 565.67c-23.94,49.88 -43.9,95.77 -65.84,141.65 -5.98,11.98 -9.98,27.94 -21.94,27.94 -15.96,0 -17.96,-15.96 -23.94,-29.92 -17.96,-39.9 -35.92,-79.81 -53.87,-117.71 -4,-5.98 -4,-17.96 -11.98,-15.96 -9.98,2 -7.98,13.96 -7.98,21.94 0,79.81 0,159.61 0,241.42 0,11.98 0,23.94 -2,35.92 -2,11.98 -9.98,19.96 -21.94,19.96 -11.98,-2 -15.96,-9.98 -17.96,-19.96 0,-7.98 0,-15.96 0,-23.94 0,-117.71 0,-233.44 0,-351.15 0,-15.96 -4,-37.9 13.96,-43.9 19.96,-5.98 31.92,9.98 39.9,27.94 21.94,45.88 39.9,91.79 61.85,135.67 5.98,11.98 7.98,33.92 23.94,35.92 17.96,0 19.96,-23.94 25.94,-35.92 21.94,-43.9 39.9,-87.79 61.85,-131.69 7.98,-17.96 17.96,-35.92 39.9,-31.92 21.94,5.98 15.96,27.94 15.96,45.88 0,115.73 0,231.44 0,347.17 0,17.96 5.98,45.88 -19.96,45.88 -27.94,0 -21.94,-27.94 -21.94,-47.88 0,-75.82 0,-151.63 0,-229.44 -2,-15.96 2,-31.92 -13.96,-47.88l0.02 -0.02z" inkscape:connector-curvature="0"/>
      <path id="path32-1" class="fil1" d="M4580.48 575.63c-11.98,11.98 -7.98,27.94 -7.98,41.9 0,79.81 0,157.61 0,237.42 0,13.96 4,35.92 -15.96,35.92 -21.94,2 -21.94,-19.96 -21.94,-35.92 0,-121.71 0,-243.42 0,-367.11 0,-13.96 -2,-31.92 13.96,-35.92 17.96,-5.98 27.94,7.98 35.92,23.94 31.92,71.83 65.85,143.65 97.77,217.48 5.98,15.96 13.96,29.92 19.96,45.88 4,7.98 4,19.96 15.96,15.96 9.98,-4 7.98,-15.96 7.98,-23.94 0,-77.81 0,-155.63 0,-233.44 0,-9.98 0,-17.96 2,-27.94 2,-13.96 9.98,-19.96 21.94,-19.96 11.98,2 15.96,11.98 15.96,23.94 0,29.92 0,59.86 0,89.79 0,93.77 0,185.56 0,279.32 0,15.96 5.98,37.9 -13.96,43.9 -21.94,7.98 -29.92,-13.96 -37.9,-31.92 -37.9,-81.81 -73.82,-165.6 -111.73,-247.4 -5.98,-11.98 -7.98,-25.94 -21.94,-31.92l-0.03 0.02z" inkscape:connector-curvature="0"/>
      <path id="path34-7" class="fil1" d="M2315.93 669.42c-2,43.9 2,85.79 -4,129.69 -9.98,61.85 -43.9,91.79 -105.75,91.79 -65.84,0 -103.75,-27.94 -111.73,-89.79 -9.98,-89.79 -11.98,-181.56 0,-271.34 7.98,-57.86 47.88,-85.79 107.75,-85.79 59.86,0 97.77,29.92 107.75,85.79 9.98,47.88 4,93.77 5.98,139.67l0 -0.02zm-39.9 0c0,-33.92 2,-67.84 0,-101.75 -2,-51.88 -29.92,-81.81 -75.82,-79.81 -43.9,0 -69.83,27.94 -71.83,79.81 -2,67.84 -2,137.67 0,205.5 2,51.88 27.94,79.81 71.83,81.81 45.88,0 73.83,-27.94 75.82,-81.81 2,-33.92 0,-67.84 0,-103.75z" inkscape:connector-curvature="0"/>
      <path id="path36-4" class="fil1" d="M4287.19 862.96c0,13.96 -2,23.94 -13.96,25.94 -9.98,2 -17.96,0 -21.94,-11.98 -2,-7.98 -5.98,-17.96 -7.98,-25.94 -17.96,-61.85 -17.96,-61.85 -71.83,-61.85 -5.98,0 -11.98,0 -17.96,0 -67.84,0 -67.84,0 -91.79,71.83 -4,13.96 -5.98,33.92 -25.94,27.94 -19.96,-7.98 -13.96,-27.94 -9.98,-43.9 31.92,-119.71 63.85,-241.42 97.77,-361.13 5.98,-17.96 7.98,-43.9 33.92,-41.9 21.94,2 25.94,23.94 29.92,41.9 29.92,113.73 61.85,227.46 91.79,343.17 4,11.98 5.98,23.94 7.98,35.92zm-133.69 -111.73c5.98,0 13.96,0 19.96,0 43.9,0 45.88,-2 31.92,-51.88 -11.98,-47.89 -23.94,-95.77 -37.9,-141.65 -2,-9.98 0,-23.94 -11.98,-23.94 -11.98,0 -13.96,13.96 -15.96,25.94 -9.98,39.9 -19.96,79.81 -31.92,119.71 -19.96,71.83 -17.96,71.83 45.88,71.83z" inkscape:connector-curvature="0"/>
      <path id="path38-1" class="fil1" d="M1613.63 669.42c0,-61.85 0,-123.71 0,-185.56 0,-29.92 9.98,-39.9 33.92,-39.9 21.94,0 45.88,0 67.84,0 91.79,2 125.69,43.9 123.71,149.63 -2,71.83 -37.9,113.73 -99.77,117.71 -17.96,0 -33.92,2 -51.88,0 -27.94,-2 -37.9,11.98 -35.92,41.9 2,35.92 0,71.83 0,105.75 0,13.96 -2,29.92 -19.96,29.92 -17.96,0 -17.96,-15.96 -17.96,-31.92 0,-61.85 0,-125.69 0,-187.55l0.02 0.02zm93.77 5.98c57.86,0 79.81,-13.96 89.79,-55.86 9.98,-41.9 9.98,-81.81 -19.96,-113.73 -31.92,-31.92 -73.82,-17.96 -111.73,-15.96 -13.96,0 -13.96,17.96 -13.96,31.92 0,29.92 0,59.86 0,89.79 0,63.85 0,63.85 55.87,63.85z" inkscape:connector-curvature="0"/>
      <path id="path40-0" class="fil1" d="M2671.08 894.88c-41.9,0 -75.82,-7.98 -101.75,-39.9 -7.98,-9.98 -17.96,-23.94 -5.98,-37.9 9.98,-11.98 21.94,-4 29.92,5.98 23.94,25.94 49.88,33.92 81.81,31.92 29.92,-2 51.88,-15.96 63.85,-49.88 11.98,-33.92 4,-65.84 -17.96,-89.79 -21.94,-23.94 -49.88,-33.92 -77.81,-47.88 -39.9,-17.96 -69.83,-43.9 -73.82,-97.77 -5.98,-71.83 25.94,-111.73 95.77,-125.69 29.92,-5.98 57.86,2 83.81,11.98 13.96,4 25.94,15.96 19.96,33.92 -5.98,19.96 -19.96,11.98 -31.92,5.98 -25.94,-13.96 -53.87,-13.96 -79.81,-9.98 -21.94,4 -41.9,17.96 -45.88,45.88 -4,27.94 0,51.88 19.96,69.83 25.94,21.94 55.86,29.92 83.8,43.9 43.9,21.94 67.84,59.86 67.84,115.73 0,51.88 -11.98,91.79 -55.87,117.71 -19.96,13.96 -41.9,11.98 -55.87,15.96l-0.05 0z" inkscape:connector-curvature="0"/>
      <path id="path42-6" class="fil1" d="M3108.03 685.38c0,-51.88 -2,-101.75 0,-153.63 2,-37.9 -11.98,-49.88 -41.9,-45.88 -11.98,2 -25.94,0 -37.9,0 -11.98,0 -19.96,-5.98 -19.96,-21.94 0,-11.98 7.98,-19.96 17.96,-19.96 67.84,0 135.67,0 203.52,0 9.98,0 17.96,5.98 17.96,17.96 0,13.96 -7.98,21.94 -19.96,21.94 -13.96,0 -29.92,2 -43.9,0 -27.94,-2 -35.92,11.98 -35.92,41.9 0,97.77 0,197.52 0,295.29 0,9.98 0,21.94 0,31.92 0,15.96 -2,33.92 -19.96,33.92 -19.96,0 -19.96,-17.96 -19.96,-33.92 0,-47.88 0,-93.77 0,-141.65 0,-7.98 0,-15.96 0,-25.94l0.03 0z" inkscape:connector-curvature="0"/>
     </g>
    </g>
   </g>
  </g>
 </g>
</svg>
