<?xml version="1.0" encoding="UTF-8"?>
<!DOCTYPE svg PUBLIC "-//W3C//DTD SVG 1.1//EN" "http://www.w3.org/Graphics/SVG/1.1/DTD/svg11.dtd">
<!-- Creator: CorelDRAW 2021 (64 Bit) -->
<svg xmlns="http://www.w3.org/2000/svg" xml:space="preserve" width="236.704mm" height="72.307mm" version="1.1" style="shape-rendering:geometricPrecision; text-rendering:geometricPrecision; image-rendering:optimizeQuality; fill-rule:evenodd; clip-rule:evenodd"
viewBox="0 0 1997.53 610.2"
 xmlns:xlink="http://www.w3.org/1999/xlink"
 xmlns:xodm="http://www.corel.com/coreldraw/odm/2003">
 <defs>
  <style type="text/css">
   <![CDATA[
    .fil1 {fill:none}
    .fil3 {fill:#25A162}
    .fil2 {fill:#757575}
    .fil0 {fill:#DC524A}
   ]]>
  </style>
 </defs>
 <g id="Camada_x0020_1">
  <metadata id="CorelCorpID_0Corel-Layer"/>
  <g id="_2143798169856">
   <path class="fil0" d="M1633.71 252.48c7.56,0.04 11,-1.74 17.85,-2.37 4.56,-0.42 3.89,-1.18 8.04,-1.65 2.76,-0.31 6.63,-0.19 9.85,-0.51 10.77,-1.05 26.33,-2.24 37.93,-0.58 7.97,1.14 7.88,0.6 17.43,2.47 2.9,0.57 6.59,-0.1 9.18,0.76 1.92,0.64 0.42,0.77 3.52,1.37 1.93,0.37 2.53,0.25 4.17,1.05 1.95,0.96 1.72,0.72 3.94,1.12 2.78,0.51 4.6,2.86 10.89,4.18 1.54,0.32 11.69,5.8 13.39,6.93 9.4,6.29 14.9,9.39 22.89,17.12 23.74,22.96 33.62,52.75 33.62,88.62 0,25.03 -4.48,46.19 -13.78,67.12 -2.9,6.52 -14.19,22.19 -20.11,26.64 -2.44,1.84 -1.44,0.6 -2.98,3.66 -1.52,3.01 -16.57,14.44 -22.71,17.59l-8.28 5.26c-4.95,3.4 -16.42,6.61 -18.92,7.96 -6.15,3.33 -14.24,3.55 -21.39,5.56 -5.09,1.43 -5.48,1.41 -11.67,1.73 -4.49,0.23 -1.15,1.69 -11.68,1.88 -9.05,0.16 -15.63,1.45 -25.39,1.55 -9.84,0.1 -17.31,-1.04 -25.4,-1.46 -4.15,-0.22 -8.22,-0.25 -12.71,-0.41l-17.68 -2.6c-6.65,-2.68 -7.02,0.12 -11.2,-2.53 -2.03,-1.29 -10.89,-0.69 -16.75,-3.37 -3.21,-1.47 -6.31,-2.54 -10.38,-3.45 -1.33,-0.3 -7.53,-3.23 -9.48,-4.12 -0.58,-0.26 -3.12,-1.77 -4.31,-2.43 -2.98,-1.64 -2.76,-2.4 -2.76,-5.8l0.07 -53.96c3.71,-0.62 8.86,2.86 11.81,4.38 3.6,1.85 7.95,3.39 11.76,4.91 8.24,3.28 17.21,5.18 25.27,7.94 3.89,1.34 9.48,1.86 13.32,3.18 10.66,3.65 34.73,4.98 46.97,4.98 26.12,0 51.35,-7 65.46,-19.19 10.61,-9.17 11.18,-10.59 18.19,-23.87 4.62,-8.75 6.48,-23.82 6.46,-36.24 -0.01,-4.89 0.04,-15.2 -1.45,-18.83l-3.45 -11.66c-0.78,-1.98 -0.76,-0.95 -1.78,-3.51 -3.11,-7.79 -11.69,-19.08 -18.5,-22.71 -4.58,-2.44 -7.89,-4.99 -13.24,-7.33 -3.28,-1.43 -3.37,-2.04 -7.11,-3.03 -2.9,-0.77 -3.93,-1.41 -7.76,-2.42 -3.63,-0.95 -4.48,-1.35 -9.02,-1.56 -4.96,-0.23 -4.94,-0.88 -8.6,-1.55 -4.98,-0.91 -20.17,-0.57 -27.02,-0.57 -14.16,0 -25.73,1.98 -38.59,3.7 -7.1,0.95 -11.74,1.83 -18.39,2.75 -8.37,1.15 -2.31,3.34 -15.27,-3.7 -2.32,-1.26 -4.12,-2.67 -6.21,-3.94 -2.31,-1.41 -4.63,-2.41 -6.94,-3.84 -7.21,-4.47 -7.91,-2.17 -6.72,-12.73 1.95,-17.26 1.97,-31.63 4.15,-48.36 0.41,-3.14 0.27,-7.25 0.52,-10.22l4.61 -59.43c0.42,-6.74 1.03,-12.65 1.21,-20.03 0.17,-6.83 1.41,-13 1.88,-19.49l2.48 -28.9c0.35,-4.56 -0.91,-6.65 4.05,-6.65l207.04 0c4.88,0 4.08,0.61 4.08,5.26 0,14.09 0.51,40.63 -0.13,53.28 -4.91,0.88 -56.43,0.25 -66.01,0.25l-82.99 -0c-10.5,-0.03 -6.69,-0.4 -7.73,9.24 -0.56,5.16 -1.62,9.49 -1.73,14.85 -0.12,5.48 -0.03,10.97 -0.82,15.92 -0.85,5.4 -1.26,8.48 -1.33,15.35 -0.06,5.67 -1.58,9.2 -1.86,14.6 -0.38,7.29 0.05,8.9 -1.44,15.05 -0.81,3.36 -1.01,12.92 -0.37,16.81zm44.09 354.3c7.83,0 42.96,0.94 49.19,-1.09 4.5,-1.47 10.88,-0.54 15.39,-2.19 2.4,-0.88 4.69,-0.95 7.66,-1.12 3.3,-0.2 4.12,-1.44 6.97,-1.82 5.23,-0.69 3.17,-0.26 7.13,-1.66 2.94,-1.04 3.87,0.26 7.27,-1.51 1.78,-0.92 11.12,-2.4 13.81,-3.77 3.08,-1.57 12.31,-4.26 16.32,-5.65 2.51,-0.86 5.77,-2.69 9.38,-3.8 10.94,-3.38 30.09,-15.01 40.77,-20.73 9.48,-5.08 17.13,-12.09 26.17,-17.77 2.99,-1.88 6.64,-5.42 9.81,-7.77 6.69,-4.98 12.61,-10.91 18.53,-16.62 2.97,-2.87 5.69,-5.73 8.68,-8.9 13.38,-14.18 28.72,-32.83 38.3,-49.57 4.22,-7.37 8.88,-14.78 12.55,-22.6 0.75,-1.6 2.2,-4.13 3.06,-5.72l9.14 -21.61c0.77,-2.42 0.7,-1.21 1.41,-2.98 0.48,-1.21 0.49,-2.32 0.95,-3.44 0.76,-1.83 0.71,-0.31 1.35,-3.04 0.51,-2.17 -0.03,-1.62 0.93,-3.46l7.15 -23.6c0.5,-4.13 0.71,-3.86 1.71,-7.08 0.77,-2.49 0.36,-5.3 1.17,-7.62 0.9,-2.56 1.32,-4.03 1.5,-7.29 0.25,-4.52 1,-4.08 1.47,-7.31 0.4,-2.76 0.41,-5.09 0.49,-8.29 0.09,-3.63 1.48,-4.22 1.48,-7.3l0 -56.14c0,-1.9 -1.39,-3.45 -1.48,-6.82 -0.25,-9.6 -1.81,-11.59 -1.94,-15.15 -0.11,-3.12 -0.26,-5.09 -1.24,-7.55 -1,-2.51 -0.72,-4.37 -1.2,-7.1l-8.4 -30.65c-0.91,-2.03 -0.7,-0.18 -1.37,-3.02 -2.24,-9.54 -9.41,-24.07 -13.85,-33.5l-4.21 -8.48c-4.79,-9.23 -9.71,-18.61 -15.88,-27.08l-7.12 -10.46c-2.99,-4.82 -7.24,-10.01 -11.1,-14.28 -1.34,-1.48 -2.46,-3.22 -3.87,-4.92 -10.38,-12.54 -22.02,-23.88 -34.4,-34.43 -3.15,-2.69 -6.25,-4.88 -9.47,-7.61 -6.7,-5.69 -13.36,-9.48 -20.16,-14.5 -6.76,-5 -14,-8.69 -21.25,-12.92 -6.93,-4.04 -15.88,-8.07 -23.36,-11.3 -3.93,-1.69 -13.5,-6.02 -18.04,-7.35 -1.49,-0.43 -2.17,-0.31 -3.47,-0.92 -1.71,-0.8 -0.47,-0.82 -2.95,-1.44 -4.35,-1.1 -17.08,-5.69 -19.82,-6.05l-13.6 -3.49c-2.27,-0.78 -5.21,-0.49 -7.67,-1.12 -2.01,-0.52 -2.98,-1.49 -6.57,-1.73 -6.2,-0.4 -9.31,-2.05 -15.59,-1.98 -4.02,0.04 -6.54,-1.48 -7.31,-1.48l-58.09 0c-0.83,0 -2.85,1.52 -7.32,1.47 -5.52,-0.07 -9.14,1.32 -15.92,2.14l-22.4 4.93c-2.96,1.32 -15.99,3.97 -20.96,6.38 -1.81,0.88 -1.37,0.47 -3.41,0.99 -2.79,0.71 -1.47,0.8 -3.39,1.49 -1.22,0.44 -2.2,0.41 -3.43,0.96l-6.42 2.85c-1.64,0.82 -2.21,0.53 -3.74,1.14 -4.11,1.63 -8.17,4 -12.4,5.66 -5.6,2.19 -12.57,6.22 -17.99,9.34 -13.13,7.58 -27.01,15.47 -38.59,25.36 -14.45,12.34 -25.07,20.68 -38.09,35.13 -2.98,3.31 -5.64,6.34 -8.5,9.57 -7.95,8.98 -24.99,32.23 -30.03,42.7 -3.94,8.17 -8.7,15.54 -12.56,24.05l-4.26 9.41c-1.05,1.96 -0.75,0.52 -1.49,3.39 -0.75,2.92 -0.38,0.94 -1.4,2.99 -0.7,1.41 -0.47,2.02 -0.99,3.4l-2.76 6.52c-0.85,1.75 -0.52,1.33 -0.97,3.42 -0.71,3.26 -1.36,3.08 -2.16,6.63 -0.67,3.01 -0.62,0.91 -1.53,3.35 -0.62,1.64 -0.18,1.98 -0.59,3.81 -0.43,1.94 -0.73,1.25 -1.37,3.03 -0.58,1.63 -0.19,2.01 -0.59,3.81 -0.46,2.09 -0.87,1.25 -1.5,3.39 -0.95,3.26 -0.12,3.99 -1.62,7.66l-2.92 15.14c-0.16,1.5 -0.06,2.64 -0.45,3.95 -1.65,5.52 -1.35,6.29 -1.66,12.5 -0.17,3.46 -1.39,3.62 -1.48,7.8 -0.22,11.33 -0.88,24.3 -0.47,35.14 0.22,5.76 -0.44,12.41 0.03,18.03 0.23,2.75 2.27,21.22 3.18,23.67 0.9,2.46 0.83,5.24 1.2,8.08 0.37,2.85 1.44,4.27 1.78,7.49 0.54,4.97 1.11,3.93 1.83,7.45 1.15,5.65 2.03,9.44 3.8,14.26 0.53,1.45 0.28,2.12 0.65,3.74 0.64,2.81 0.85,1.41 1.49,3.39 0.41,1.28 0.28,2.21 0.82,3.57 0.83,2.05 0.78,0.38 1.46,3.42 0.74,3.32 1.38,3.61 2.21,6.58 1.21,4.36 3.5,9.12 5.42,13.13 1.91,3.99 3.34,8.63 5.51,12.55l3.1 6.17c9.35,19.31 22.89,38.79 36.07,55.22 4.72,5.88 12.03,14.23 17.24,19.37 5.99,5.92 16.84,16.54 23.45,21.47l15.68 12.14c12.41,9.29 17.08,11.05 27.6,17.8 10.05,6.45 22.67,11.64 33.52,16.76 1.66,0.78 1.95,0.31 3.75,1.13 3.86,1.76 8.84,4.24 12.83,5.23 3.91,0.97 4.48,1.66 7.08,2.19 3.98,0.81 2.92,1.61 7.08,2.19l21.47 5.87c4.89,0.4 3.97,0.26 7.73,1.54 2.34,0.8 5.4,0.56 8.26,1.01 2.87,0.45 2.79,1.08 7.35,1.44 1.96,0.15 6.76,0.42 8.43,0.85 4.94,1.26 10.97,1.53 17.02,1.53z"/>
   <path class="fil1" d="M1633.71 252.48c-0.63,-3.88 -0.44,-13.44 0.37,-16.81 1.49,-6.15 1.06,-7.76 1.44,-15.05 0.28,-5.39 1.8,-8.93 1.86,-14.6 0.08,-6.87 0.48,-9.95 1.33,-15.35 0.78,-4.95 0.7,-10.44 0.82,-15.92 0.11,-5.36 1.17,-9.68 1.73,-14.85 1.04,-9.63 -2.76,-9.26 7.73,-9.24l82.99 0c9.58,0 61.1,0.64 66.01,-0.25 0.64,-12.65 0.13,-39.2 0.13,-53.28 0,-4.64 0.8,-5.26 -4.08,-5.26l-207.04 0c-4.96,0 -3.69,2.1 -4.05,6.65l-2.48 28.9c-0.47,6.49 -1.71,12.66 -1.88,19.49 -0.18,7.38 -0.79,13.29 -1.21,20.03l-4.61 59.43c-0.25,2.96 -0.11,7.07 -0.52,10.22 -2.18,16.73 -2.2,31.1 -4.15,48.36 -1.19,10.55 -0.5,8.25 6.72,12.73 2.31,1.43 4.64,2.44 6.94,3.84 2.08,1.27 3.89,2.68 6.21,3.94 12.95,7.04 6.9,4.85 15.27,3.7 6.65,-0.91 11.29,-1.8 18.39,-2.75 12.86,-1.72 24.43,-3.7 38.59,-3.7 6.85,0 22.05,-0.34 27.02,0.57 3.66,0.67 3.63,1.32 8.6,1.55 4.54,0.21 5.39,0.61 9.02,1.56 3.83,1.01 4.86,1.65 7.76,2.42 3.73,0.99 3.83,1.59 7.11,3.03 5.35,2.34 8.66,4.89 13.24,7.33 6.81,3.62 15.4,14.92 18.5,22.71 1.02,2.57 1,1.53 1.78,3.51l3.45 11.66c1.49,3.62 1.44,13.94 1.45,18.83 0.02,12.41 -1.85,27.49 -6.46,36.24 -7.01,13.28 -7.58,14.7 -18.19,23.87 -14.1,12.19 -39.33,19.19 -65.46,19.19 -12.24,0 -36.31,-1.33 -46.97,-4.98 -3.84,-1.31 -9.43,-1.84 -13.32,-3.18 -8.06,-2.76 -17.03,-4.66 -25.27,-7.94 -3.81,-1.52 -8.16,-3.06 -11.76,-4.91 -2.96,-1.52 -8.1,-5 -11.81,-4.38l-0.07 53.96c-0,3.4 -0.22,4.16 2.76,5.8 1.19,0.66 3.74,2.17 4.31,2.43 1.96,0.89 8.16,3.83 9.48,4.12 4.07,0.91 7.16,1.98 10.38,3.45 5.86,2.68 14.72,2.08 16.75,3.37 4.17,2.65 4.55,-0.15 11.2,2.53l17.68 2.6c4.48,0.17 8.56,0.2 12.71,0.41 8.09,0.42 15.56,1.56 25.4,1.46 9.76,-0.1 16.34,-1.39 25.39,-1.55 10.53,-0.19 7.18,-1.65 11.68,-1.88 6.19,-0.31 6.58,-0.3 11.67,-1.73 7.15,-2.01 15.24,-2.22 21.39,-5.56 2.49,-1.35 13.96,-4.56 18.92,-7.96l8.28 -5.26c6.14,-3.15 21.19,-14.58 22.71,-17.59 1.54,-3.06 0.53,-1.82 2.98,-3.66 5.92,-4.45 17.21,-20.11 20.11,-26.64 9.3,-20.93 13.78,-42.09 13.78,-67.12 0,-35.87 -9.88,-65.66 -33.62,-88.62 -7.99,-7.73 -13.49,-10.83 -22.89,-17.12 -1.7,-1.14 -11.85,-6.61 -13.39,-6.93 -6.3,-1.32 -8.11,-3.67 -10.89,-4.18 -2.22,-0.41 -1.99,-0.16 -3.94,-1.12 -1.64,-0.81 -2.24,-0.68 -4.17,-1.05 -3.1,-0.6 -1.6,-0.73 -3.52,-1.37 -2.59,-0.86 -6.27,-0.19 -9.18,-0.76 -9.54,-1.87 -9.45,-1.34 -17.43,-2.47 -11.6,-1.66 -27.16,-0.47 -37.93,0.58 -3.23,0.31 -7.09,0.2 -9.85,0.51 -4.15,0.47 -3.48,1.23 -8.04,1.65 -6.84,0.63 -10.28,2.41 -17.85,2.37z"/>
   <path class="fil2" d="M247.98 94.7l0 271.41c0,6.65 1.36,10.04 1.45,16.61 0.15,10.47 1.96,11.06 2.37,15.69 0.37,4.19 4.07,18.32 5.42,21.43 0.71,1.65 0.31,1.81 0.85,3.55 0.76,2.46 0.81,0.92 1.57,3.31 4.87,15.33 15.04,29.87 25.61,41.75 1.54,1.73 0.8,1.91 2.76,2.12 0.21,2.49 11.85,11.78 14.39,13.44 13.51,8.84 12.39,8.5 26.8,15.18l20.86 7.45c1.88,0.44 4.19,0.34 5.85,0.98 2.88,1.11 15.63,3.35 17.54,3.45 5.9,0.32 7.81,0.26 13.02,1.14 7.54,1.27 18.64,0.48 27.02,0.35 4.69,-0.07 7.26,-1.54 12.66,-1.49 8.76,0.08 7.71,-0.9 12.36,-1.8 2.08,-0.4 4.6,-0.21 6.31,-0.52 3.58,-0.66 1.91,-1.2 5.68,-1.64 7.72,-0.91 25.28,-7.78 31.41,-10.57 1.25,-0.57 2.91,-1.53 4.5,-2.34 15.93,-8.15 31.48,-21.4 42.36,-35.25 6.95,-8.85 8.46,-12.38 13.37,-21.29 2.17,-3.95 5.55,-13.32 6.47,-15.01l3.22 -10.94c0.58,-3.14 1.23,-2.01 1.75,-5.08 0.39,-2.27 0.28,-4.26 1.05,-6.27 1.63,-4.22 0.71,-8.7 2.01,-12.15 1.25,-3.32 1.33,-8.47 1.33,-12.82l0 -281.18c0,-1.14 -1.3,-2.44 -2.44,-2.44l-24.9 0c-3.8,0 -2.44,9.79 -2.44,13.67l0.02 259.72c0.01,6.31 -2.04,15.45 -1.96,21.96 0.06,4.81 -0.59,3.57 -1.45,6.85 -0.63,2.36 -0.24,5.42 -0.93,7.37 -0.62,1.75 -0.63,0.68 -1.21,2.69 -0.43,1.51 -0.19,2.27 -0.63,3.76 -0.61,2.06 -0.66,0.98 -1.26,2.64 -1.13,3.12 0.78,0.82 -1.87,5.94 -0.62,1.21 -0.56,1.93 -1.1,3.29 -9.68,24.19 -33.15,48.5 -57.61,56.13 -2.04,0.64 -1.01,0.59 -2.67,1.24 -1.08,0.42 -2.12,0.49 -3.09,0.82 -1.34,0.44 -1.69,0.89 -2.68,1.22 -1.13,0.38 -3,0.48 -3.76,0.64 -3.33,0.69 -1.69,1.25 -6.08,1.73 -3.17,0.35 -4.11,0.42 -6.89,1.41 -4.03,1.43 -10.12,0.57 -14.49,1.62 -3.25,0.78 -11.61,1.26 -15.34,1.29 -3.05,0.02 -12.5,-0.49 -15.11,-1.04 -4.79,-1.01 -9.74,-0.63 -14.65,-1.46 -2.59,-0.44 -2.52,-1.13 -6.21,-1.6 -3.62,-0.47 -3.52,-0.17 -6.81,-1.48 -0.35,-0.14 -10.52,-2.58 -12.8,-3.8l-21.46 -10.76c-5.9,-3.26 -13.3,-9.98 -17.88,-14.83 -5.53,-5.86 -9.53,-11.43 -13.9,-18.32 -0.6,-0.95 -2.18,-3.79 -2.77,-5.04 -0.71,-1.48 -0.6,-1.29 -1.34,-2.57 -1.67,-2.88 -5.15,-13.39 -5.93,-15.06 -1.18,-2.55 -0.78,-3.9 -1.63,-6.18 -1.24,-3.31 -1.33,-2.04 -1.58,-6.72 -0.18,-3.25 -1.06,-3.3 -1.68,-6.13 -0.51,-2.35 -0.16,-5.21 -0.52,-7.78 -0.82,-5.94 -1.7,-7.02 -1.7,-14.41l0 -211.37c0,-12.86 1.59,-55.53 -0.49,-64.44 -7.91,-1.84 -18.02,-0.98 -26.36,-0.98 -1.68,0 -4.39,1.27 -4.39,2.93zm750.78 16.11c0,11.82 1.17,9.25 1.47,15.12 0.25,4.91 3.91,10.3 8.09,13.39 4.64,3.43 13.29,3.61 18.15,0.17 4.06,-2.87 7.66,-7.4 9.09,-12.39 1.92,-6.72 1.76,-12 1.76,-18.25 0,-1.68 -0.63,-1.92 -1.1,-3.79 -0.7,-2.83 0.51,-4.97 -4.22,-11.89 -3.07,-4.49 -9.05,-7.75 -14.7,-7.75 -1.34,0 -7.55,1.84 -8.35,2.38 -2.29,1.55 -3.97,3.29 -5.64,5.59 -1.93,2.67 -4.56,13.11 -4.56,17.41zm3.9 89.82l0 303.15c0,1.32 0.23,1.35 0.49,2.44 4.73,1.1 21.36,0.49 27.34,0.49 1.91,0 2.44,-2.42 2.44,-4.39l0 -301.19c0,-1.52 -1.55,-2.93 -3.42,-2.93l-22.46 0c-1.98,0 -4.39,0.53 -4.39,2.44zm86.89 9.28c0,16.76 -1.02,14.17 8.3,14.16 8.33,-0.01 32.03,-0.69 37.1,0.49l0 159.63c0,13.67 -1.33,41.47 0.95,52.26 0.73,3.46 0.54,8.5 0.98,12.2 0.34,2.82 0.89,3.1 1.33,5.02 0.43,1.87 0.38,4.23 0.91,5.93 0.62,2.03 1.03,2.13 1.56,4.79 0.55,2.75 4.68,11.92 6.04,14.46 3.54,6.6 6.17,9.86 11.3,15.06 8.48,8.61 15.79,10.29 25.54,14.49 2.19,0.94 3.13,0.44 5.33,1.02 1.98,0.52 2.72,1.27 5.25,1.58 2.06,0.25 4.08,-0.04 6.1,0.24 1.62,0.23 3.78,1.07 5.56,1.27 3.82,0.42 9.94,0.48 12.71,0.16 5.14,-0.58 7.62,0.12 12.24,-0.95 3.98,-0.92 8.59,-0.2 12.16,-1.02 2.21,-0.51 2.76,-1.2 4.89,-1.46 3.79,-0.46 14.37,-2.02 15.54,-4.96l0 -21.97c-6.38,-1.49 -6.01,0.46 -11.1,1.1 -2.25,0.28 -5.67,0.15 -8.24,0.55 -16.32,2.5 -16.89,1.77 -33.87,1.77 -7.91,0 -21.56,-5.19 -27.34,-10.73 -5.51,-5.27 -8.54,-10.2 -10.99,-17.33 -0.7,-2.02 -1.06,-1.29 -1.54,-3.34 -0.5,-2.13 0.1,-1.91 -0.9,-3.99 -1.85,-3.86 -0.79,-3.81 -1.54,-7.73 -0.68,-3.55 -1.64,-3.87 -1.64,-8.12 -0.01,-6.68 -0.46,-11.74 -0.46,-18.57l0 -191.36c5.67,-1.32 64.89,-0.49 80.06,-0.49 12.19,0 9.76,4.23 9.76,-23.92 0,-3.39 -16.53,-1.95 -20.5,-1.95 -22.94,0 -45.89,0 -68.83,0 -0.91,-10.92 -0.7,-53.22 -0.47,-68.85 0.1,-6.88 -0.52,-5.84 -12.22,-5.84 -3.62,0 -4.5,1.16 -4.85,4.43 -0.4,3.73 -1.47,4.03 -1.86,7.42 -0.6,5.22 -0.4,3.85 -1.55,7.72 -0.95,3.19 0,5.17 -1.41,8.35 -1.57,3.54 -0.54,4.19 -1.33,7.94 -0.73,3.44 -1.34,2.83 -1.78,7.49l-3.41 15.62c-1.83,4.9 0.67,11.43 -6.27,12.28l-36.68 10.18c-3.63,0.48 -4.79,1.01 -4.79,4.97zm-1089.56 367.09l0 27.34c3.58,0 3.67,0.73 6.06,1.76 2.52,1.08 3.5,0.35 6.21,1.61 3,1.39 3.38,0.54 6.64,1.17 2.77,0.53 1.72,1.22 5.28,1.33l2.67 0c10.23,-0.11 20.52,-0.01 30.75,0l5.05 0c0.83,-0.07 1.59,-0.22 2.26,-0.5 3.48,-1.47 2.75,-0.5 6.66,-1.15l12.35 -3.76c13.87,-3.56 28.43,-15.02 37.09,-26.37 6.46,-8.47 9.41,-17.5 13.15,-26.4 1.01,-2.39 0.2,-3.67 1.47,-6.34 1.39,-2.93 0.8,-2.87 1.31,-6.5 0.47,-3.31 1.47,-3.94 1.68,-6.62 0.82,-10.38 1.97,-19.56 1.97,-30.25l0 -406.63c0,-2.46 -2.55,-3.91 -4.88,-3.91 -30.55,0 -26.36,-2.23 -26.36,13.67l0 400.78c0,5.48 0.46,14.01 -0.55,18.48 -0.77,3.41 -1.1,3.76 -1.43,8.33 -0.33,4.61 -6.14,19.73 -9.29,23.9 -2.1,2.78 -3.63,5.52 -6.34,8.3 -4.81,4.95 -16.33,12.56 -24.63,13.94 -3.75,0.62 -3.75,1.39 -7.36,1.91l-17.32 1.55c-2.38,0.04 -5.68,-0.68 -8.74,-0.76 -5.34,-0.15 -13.14,-0.27 -17.19,-1.85 -2.54,-0.99 -5.59,-0.59 -8.53,-1.23 -2.69,-0.59 -3.5,-1.8 -7.97,-1.8zm692.2 -337.32c0,-3.9 -0.09,-8.2 -1.03,-11.17 -1.06,-3.37 -1,-7.4 -1.35,-11.34 -0.43,-5 -1.18,-5.6 -1.58,-11.11 -0.69,-9.63 1.58,-7.86 -23.38,-7.86 -1.32,0 -1.35,0.23 -2.44,0.49 -0.26,1.09 -0.49,1.12 -0.49,2.44l0 302.66c0,1.5 0.45,2.93 1.95,2.93 32.62,0 27.83,2.62 27.82,-9.76l0 -83.47c0,-31.55 0.51,-63.95 0.49,-94.7 -0,-5.07 0.04,-6.7 0.98,-10.73 0.88,-3.79 0.47,-6.67 1.16,-10.56 0.4,-2.24 0.98,-2.51 1.46,-4.39 0.47,-1.81 0.25,-3.65 0.67,-5.19 0.6,-2.19 1.11,-1.82 1.52,-4.34 0.49,-3.07 0.12,-2.52 1.38,-4.96 0.99,-1.93 0.59,-2.61 1.3,-4.56 5.1,-14.19 15.14,-28.92 27.99,-37.42 3.54,-2.34 11.52,-6.93 15.67,-8.25 2.37,-0.75 2.16,-1.22 4.06,-1.8 2,-0.61 2.62,-0.3 4.63,-1.23 2.16,-1.01 1.91,-0.89 4.59,-1.27 2.86,-0.4 2.43,-0.9 4.83,-1.52 3.01,-0.77 6.46,-0.73 10.05,-1.67 4.52,-1.19 41.23,-1.31 44.96,0.01 3.6,1.27 7,0.97 9.87,2.34 2.29,1.09 2.48,0.63 4.62,1.23l12.21 5.85c7.82,3.43 17.7,15.22 21.5,22.92l4.26 10.38c0.88,3.85 4.35,15.53 4.4,19.52 0.05,4.81 0.51,6.87 1.25,10.95 1.54,8.5 0.69,140.76 0.69,166.26l0 35.64c0,2.59 -1.05,10.74 1.47,10.74l25.87 0c1.14,0 1.95,-0.81 1.95,-1.95l0 -208.93c0,-4.46 -0.92,-6.58 -1.37,-9.85 -0.49,-3.51 -0.2,-7.08 -0.69,-10.53 -0.5,-3.5 -1.45,-4.03 -1.86,-9.37 -0.23,-2.92 -0.89,-2.45 -1.56,-4.3 -0.63,-1.75 -0.21,-3.34 -0.77,-5.09l-6.54 -15.92c-3,-5.45 -4.88,-9.17 -8.8,-14.15 -9.07,-11.5 -24.92,-24.57 -40.33,-28.01 -2.57,-0.57 -1.55,-0.93 -3.79,-1.58 -2.23,-0.64 -2.6,-0.01 -4.91,-0.95 -4.16,-1.68 -5.86,-0.77 -9.82,-1.9 -10.15,-2.88 -30.57,-1.31 -43.06,-1.37 -4.12,-0.02 -6.76,0.16 -10,1.23 -3.52,1.17 -6.73,0.23 -9.92,1.31 -1.82,0.62 -1.7,1.07 -4.03,1.34 -7.73,0.89 -2.53,0.89 -9.53,2.19 -2.34,0.43 -17.64,7.18 -20,8.31 -9.36,4.49 -18.85,13.1 -25.85,20.03 -2.39,2.37 -8.34,11.88 -10.49,12.45z"/>
   <path class="fil3" d="M1558.83 486.12c4.12,8.75 36.06,15.58 54.88,19.35l17.68 2.6c4.48,0.17 8.56,0.2 12.71,0.41 8.09,0.42 15.56,1.56 25.4,1.46 9.76,-0.1 16.34,-1.39 25.39,-1.55 10.53,-0.19 7.18,-1.65 11.68,-1.88 6.19,-0.31 6.58,-0.3 11.67,-1.73 7.15,-2.01 15.24,-2.22 21.39,-5.56 2.49,-1.35 13.96,-4.56 18.92,-7.96l8.28 -5.26c6.14,-3.15 21.19,-14.58 22.71,-17.59 1.54,-3.06 0.53,-1.82 2.98,-3.66 5.92,-4.45 17.21,-20.11 20.11,-26.64 9.3,-20.93 13.78,-42.09 13.78,-67.12 0,-35.87 -9.88,-65.66 -33.62,-88.62 -7.99,-7.73 -13.49,-10.83 -22.89,-17.12 -1.7,-1.14 -11.85,-6.61 -13.39,-6.93 -6.3,-1.32 -8.11,-3.67 -10.89,-4.18 -2.22,-0.41 -1.99,-0.16 -3.94,-1.12 -1.64,-0.81 -2.24,-0.68 -4.17,-1.05 -3.1,-0.6 -1.6,-0.73 -3.52,-1.37 -2.59,-0.86 -6.27,-0.19 -9.18,-0.76 -9.54,-1.87 -9.45,-1.34 -17.43,-2.47 -11.6,-1.66 -27.16,-0.47 -37.93,0.58 -3.23,0.31 -7.09,0.2 -9.85,0.51 -4.15,0.47 -3.48,1.23 -8.04,1.65 -6.84,0.63 -10.28,2.41 -17.85,2.37 -0.63,-3.88 -0.44,-13.44 0.37,-16.81 1.49,-6.15 1.06,-7.76 1.44,-15.05 0.28,-5.39 1.8,-8.93 1.86,-14.6 0.08,-6.87 0.48,-9.95 1.33,-15.35 0.78,-4.95 0.7,-10.44 0.82,-15.92 0.11,-5.36 1.17,-9.68 1.73,-14.85 1.04,-9.63 -2.76,-9.26 7.73,-9.24l82.99 0c9.58,0 61.1,0.64 66.01,-0.25 0.64,-12.65 0.13,-39.2 0.13,-53.28l-0.01 -79.2c4.54,1.32 15.2,5.91 19.13,7.61 7.49,3.23 16.43,7.26 23.36,11.3 7.26,4.22 14.49,7.92 21.25,12.92 6.79,5.02 13.45,8.82 20.16,14.5 3.22,2.73 6.32,4.92 9.47,7.61 12.38,10.55 24.02,21.89 34.4,34.43 1.41,1.7 2.53,3.43 3.87,4.92 3.86,4.28 8.11,9.46 11.1,14.28l7.12 10.46c6.17,8.47 11.09,17.85 15.88,27.08l4.21 8.48c4.44,9.43 11.61,23.96 13.85,33.5 0.67,2.84 0.46,0.99 1.37,3.02l8.4 30.65c0.48,2.73 0.2,4.59 1.2,7.1 0.98,2.46 1.13,4.42 1.24,7.55 0.13,3.56 1.69,5.54 1.94,15.15 0.09,3.37 1.48,4.92 1.48,6.82l0 56.14c0,3.08 -1.39,3.68 -1.48,7.3 -0.08,3.2 -0.09,5.54 -0.49,8.29 -0.47,3.23 -1.22,2.8 -1.47,7.31 -0.18,3.25 -0.6,4.73 -1.5,7.29 -0.81,2.31 -0.4,5.12 -1.17,7.62 -1,3.22 -1.21,2.95 -1.71,7.08l-7.15 23.6c-0.96,1.84 -0.42,1.3 -0.93,3.46 -0.64,2.73 -0.59,1.22 -1.35,3.04 -0.46,1.12 -0.47,2.23 -0.95,3.44 -0.7,1.78 -0.64,0.56 -1.41,2.98l-9.14 21.61c-0.87,1.6 -2.31,4.12 -3.06,5.72 -3.67,7.81 -8.34,15.22 -12.55,22.6 -9.57,16.75 -24.92,35.39 -38.3,49.57 -2.99,3.17 -5.7,6.03 -8.68,8.9 -5.92,5.71 -11.84,11.64 -18.53,16.62 -3.16,2.35 -6.82,5.89 -9.81,7.77 -9.04,5.67 -16.69,12.69 -26.17,17.77 -10.68,5.73 -29.83,17.35 -40.77,20.73 -3.6,1.11 -6.87,2.94 -9.38,3.8 -4.01,1.38 -13.24,4.08 -16.32,5.65 -2.69,1.37 -12.03,2.84 -13.81,3.77 -3.41,1.77 -4.33,0.48 -7.27,1.51 -3.96,1.39 -1.9,0.97 -7.13,1.66 -2.85,0.37 -3.67,1.62 -6.97,1.82 -2.97,0.18 -5.27,0.25 -7.66,1.12 -4.5,1.64 -10.89,0.72 -15.39,2.19 -6.23,2.03 -41.35,1.09 -49.19,1.09 -6.04,0 -12.07,-0.27 -17.02,-1.53 -1.67,-0.43 -6.47,-0.69 -8.43,-0.85 -4.56,-0.35 -4.48,-0.99 -7.35,-1.44 -2.86,-0.45 -5.92,-0.22 -8.26,-1.01 -3.76,-1.28 -2.84,-1.14 -7.73,-1.54l-21.47 -5.87c-4.16,-0.59 -3.1,-1.38 -7.08,-2.19 -2.6,-0.53 -3.17,-1.22 -7.08,-2.19 -8.05,-2 -26.99,-11.12 -34.59,-14.71l0.05 -89.33z"/>
  </g>
 </g>
</svg>
