<?xml version="1.0" encoding="UTF-8"?>
<!DOCTYPE svg PUBLIC "-//W3C//DTD SVG 1.1//EN" "http://www.w3.org/Graphics/SVG/1.1/DTD/svg11.dtd">
<!-- Creator: CorelDRAW 2021 (64 Bit) -->
<svg xmlns="http://www.w3.org/2000/svg" xml:space="preserve" width="75.6876mm" height="140.749mm" version="1.1" style="shape-rendering:geometricPrecision; text-rendering:geometricPrecision; image-rendering:optimizeQuality; fill-rule:evenodd; clip-rule:evenodd"
viewBox="0 0 592.4 1101.62"
 xmlns:xlink="http://www.w3.org/1999/xlink"
 xmlns:xodm="http://www.corel.com/coreldraw/odm/2003">
 <defs>
  <style type="text/css">
   <![CDATA[
    .fil4 {fill:#5281A0}
    .fil0 {fill:#5381A1}
    .fil3 {fill:#5382A0}
    .fil2 {fill:#5382A1}
    .fil6 {fill:#5383A3}
    .fil1 {fill:#F7971D}
    .fil5 {fill:#F9971E}
   ]]>
  </style>
 </defs>
 <g id="Camada_x0020_1">
  <metadata id="CorelCorpID_0Corel-Layer"/>
  <g id="_2306382421696">
   <path class="fil0" d="M136.24 990.39c0,-33.1 34.1,-32.14 64.8,-32.14l0 40.31c0,3 -21.79,17.86 -36.74,17.86l-3.06 0c-15.35,0 -25,-10.69 -25,-26.02zm-26.53 -113.27l5.1 22.45c3.3,-1.58 6.86,-2.42 10.65,-3.64 22.41,-7.16 75.58,-16.89 75.58,20.98l0 18.88c-18.77,0 -32.31,-0.77 -50.72,3.88 -9.86,2.49 -15.79,4.48 -24.83,9.87 -15.73,9.39 -24.97,23.96 -24.97,46.97 0,7.87 1.66,14.93 4.06,20.43 2.24,5.12 3.8,7.18 7.08,11.29 3.89,4.86 12.92,9.66 19.02,11.6 21.73,6.91 46.59,2.27 64.74,-10.66l10.72 -8.16c0.42,5.02 2.55,13.36 2.55,18.37l28.06 0 0 -129.09c0,-13.7 -7.32,-28.25 -18.07,-36.01 -26.3,-18.99 -72.42,-11.27 -101.76,-0.14l-7.21 2.99z"/>
   <path class="fil1" d="M375.03 32.66c0,33.15 -10.74,54.43 -29.37,78.29 -21.64,27.72 -63.28,56.4 -89.67,78.71l-7.28 5.99c-2.41,1.88 -4.51,4.17 -6.77,5.98 -5.07,4.06 -12.18,11.2 -16.8,15.86l-9.01 10.37c-2.08,2.67 -3.91,4.69 -5.8,7.47 -10,14.68 -14.39,23.18 -14.39,42.76 0,21.68 15.26,45.62 26.97,61.3 4.7,6.29 9.57,11.33 13.34,16.25 6.21,8.1 31.8,32.9 40.17,40.96 1.52,1.46 2.53,1.97 4.1,3.56l15.43 14.16c-0.78,-9.33 -39.26,-59.86 -47.11,-75.35 -5.48,-10.81 -6.14,-11.19 -10.23,-23.44 -9.41,-28.21 0.77,-54.66 17.62,-77.18l20.2 -22.15c10.89,-10.48 25.97,-20.98 35.98,-30.35l30.64 -29.57 11.14 -12.84c1.87,-2.35 3.58,-4.38 5.41,-6.84 8.87,-11.95 16.23,-24.22 22.23,-37.98 12.64,-29.03 13.03,-64.37 -4.97,-91.26l-3.96 -5.23c-1.44,-1.69 -0.45,-1.61 -2.45,-2.14 1.31,2.73 2.56,11.18 3.21,15.15 0.82,4.93 1.38,11.53 1.38,17.5z"/>
   <path class="fil0" d="M310.74 1039.37l44.39 0c9.74,-18.42 27.59,-67.22 33.06,-86.85 7.82,-28.04 12.4,-45.1 18.35,-74.51l2.17 -12.12 -37.76 0c-0.48,5.72 -1.72,12.43 -2.7,18.22l-7 35.86c-4.93,20.86 -7.76,30.64 -13.48,50.81l-11.52 32.36 -3.88 -18.06c-1.39,-6.1 -2.61,-11.83 -4.48,-17.46l-18.37 -59.19c-0.97,-2.92 -1.82,-5.67 -2.65,-8.58 -2.54,-8.96 -8.77,-26.87 -10.42,-33.97l-38.78 0c0.22,2.69 11.6,37.85 13.16,43.48 2.93,10.61 6.89,21.85 9.99,32.36 1.13,3.84 2.14,7.48 3.32,10.97 3.44,10.17 6.49,22.05 9.96,32.39l13.28 43.35c1.05,3.71 2.52,7.34 3.36,10.93z"/>
   <path class="fil2" d="M526.58 645.97c2.54,3.79 6.34,7.91 2.91,14.64 -4.17,8.18 -17.04,12.58 -25.42,15.4 -5.21,1.75 -10.39,2.92 -16.06,4.35 -11.08,2.8 -22.76,4.47 -34.39,6.43l-36.22 4.6c-2.99,0.26 -6.14,0.87 -9.2,1l-28.09 2.53c-6.74,0.53 -23.16,0.91 -28.92,1.7 -2.77,0.38 -6.58,0.08 -9.69,0.51 -3.09,0.42 -6.2,0.17 -9.84,0.37 -11.04,0.6 -18.29,1.08 -29.59,1.02 -4.02,-0.02 -5.79,0.54 -9.68,0.52l-80.14 -1c-3.32,-0.27 -6.75,0.28 -10.04,-0.17l-24.13 -1.38c-2.46,-0.06 -2.32,-0.41 -4.58,-0.52 -3.46,-0.17 -6.15,-0.23 -9.61,-0.59 -5.78,-0.6 -12.59,-1.44 -18.46,-1.95 -12.23,-1.05 -24.12,-3.28 -35.63,-5.19 -8.4,-1.39 -41.89,-8.6 -45.03,-16.24 -4.37,-10.62 30.5,-20.89 37.24,-23.05 9.26,-2.96 23.02,-5.55 35.27,-5.55 -4.33,-5.91 -24.51,-4.47 -32.66,-3.57 -3.44,0.38 -7.6,0.97 -11.01,1.75 -14.43,3.27 -26.85,6.5 -39.29,11.74 -9.68,4.08 -20.42,9.07 -28.63,15.76 -35.16,28.63 36.98,35.36 52.94,37.57 7.44,1.03 15.03,2.19 22.46,3.05l34.51 3.76c3.42,0.44 7.77,0.53 11.66,1.09l23.7 1.81c3.25,0.08 8.55,0.74 11.75,1.01l12.22 0.53c8.45,-0.09 27.05,1.59 37.24,1.54l57.17 0.01c2.95,-0 3.48,-0.47 6.09,-0.54l60.66 -3.12c48.92,-5.23 92.84,-9.68 140.71,-25.63 10.84,-3.61 47.15,-16.74 43.57,-31.91 -1.39,-5.91 -9.4,-11.26 -13.78,-12.28z"/>
   <path class="fil0" d="M37.25 1002.64c0,21.18 0.33,43.43 -12.9,59.04 -4.78,5.64 -17.95,17.54 -24.34,19.03 0.53,1.99 6.88,8.58 8.38,10.5 0.89,1.14 1.31,1.38 2.18,2.41l4.12 5.07c1.22,1.35 1.66,1.1 2.16,2.95 6.23,-0.14 24.29,-11.66 29.95,-16.48 1.03,-0.88 1.27,-1.3 2.41,-2.18 3.48,-2.71 9.05,-9.04 11.52,-12.46 11.05,-15.3 14.28,-34.6 14.28,-60.72l0 -205.12 -37.76 0 0 197.98z"/>
   <path class="fil1" d="M321.46 440.34c3.61,-0.84 16.21,-9.86 19.68,-12.46 1.61,-1.21 2.88,-2.09 4.37,-3.28 15.79,-12.61 33.87,-32.19 36.08,-52.71 2.45,-22.84 -8.89,-36.71 -19.68,-51.09 -7.71,-10.28 -16.92,-24.51 -20.5,-36.65 -8.38,-28.48 12.23,-48.03 28.13,-64.11 1.56,-1.58 2.59,-2.1 4.09,-3.56 7.91,-7.7 39.71,-30.73 51.24,-37.54l30.05 -18.42c2.16,-1.27 8.83,-4.8 9.91,-6.42 -9.31,2.17 -27.94,8.67 -37.06,11.93 -24.25,8.65 -45.03,18.92 -66.69,31.79l-28.29 20.7c-5.77,5.34 -11.05,10.56 -16.01,16.64 -17.06,20.94 -25.08,46.5 -16.83,74.63 4.98,16.98 13.54,30.42 23.02,42.8 9.1,11.89 14.14,14.4 19.21,29.77 6.16,18.66 -3.53,40.67 -16.52,53.52 -1.54,1.53 -3.06,2.74 -4.21,4.46z"/>
   <path class="fil0" d="M459.22 989.88c0,-6.75 1.84,-13.07 4.8,-17.14 11.5,-15.82 40.67,-14.5 60.51,-14.5l0 40.31c0,1.32 -1.07,1.66 -3.28,3.36 -11.62,8.97 -21.81,14.5 -37.54,14.5 -15.78,0 -24.49,-12.21 -24.49,-26.53zm101.03 -60.72l-35.72 0 0 6.63c-20.61,0 -38.53,-0.37 -57.21,5.55 -7.05,2.23 -8.39,2.79 -14.9,6.02 -9.18,4.54 -16.58,11.33 -21.8,20.04 -5.87,9.8 -7.53,19.8 -6.59,34.71 0.36,5.62 2.37,12.27 4.4,16.52 7.33,15.36 22.71,22.45 39.42,23.85 39.3,3.29 57.45,-20.32 61.78,-21.47l2.55 18.37 28.06 0 0 -110.21z"/>
   <path class="fil2" d="M194.91 584.74c-5.88,0.13 -23.13,7.54 -30.03,13.85l-1.54 1.52c-10.6,11.74 3.11,22.26 12.18,26.98l7.87 3.87c3,1.25 5.6,2.24 8.53,3.21 13.23,4.38 24.3,7.07 38.36,9.1 20.19,2.91 35.1,3.62 55.47,3.73 4.23,0.02 7.05,-0.54 11.74,-0.51 9.05,0.06 34.96,-3.21 42.93,-4.52 15.05,-2.49 33.59,-6.88 47.7,-11.49 3.08,-1.01 5.86,-1.85 8.79,-2.95l17.42 -7.58c-5.19,-1.21 -19.82,-8.38 -25.17,-11.06l-14.51 -7.96c-2.98,-1.78 -5.48,-0.2 -11.21,0.78 -10.05,1.73 -20.38,3.53 -31.18,5.05 -16.96,2.39 -53.9,5.95 -68.25,3.78 -5.83,-0.88 -11.17,-0.24 -16.98,-0.88 -12.13,-1.34 -56.88,-2.94 -59.18,-13.82 -1.22,-5.75 4.98,-8.25 7.06,-11.1z"/>
   <path class="fil2" d="M77.05 456.16c0,5.65 5.78,8.52 10.72,10.71 4.64,2.06 9.97,3.51 15.51,4.9 14.23,3.57 38.31,6.64 53.41,7.82l14.23 1.07c8.21,0.2 16.41,1.05 24.51,1 4.01,-0.02 5.79,0.54 9.68,0.52 35.63,-0.2 61.09,0.3 98,-2.53 43.95,-3.37 74.29,-6.83 116.62,-17.06 3.42,-0.83 2.97,-1.08 5.51,-2.65 3.28,-2.03 6.67,-4.2 9.99,-5.83 1.89,-0.93 2.97,-1.74 4.93,-2.73 2.01,-1.02 3.44,-1.71 5.45,-2.71 2.44,-1.22 8.89,-3.83 10.55,-5.27l-26.44 4.17c-8.77,1.22 -18.23,2.94 -27.17,3.95 -9.15,1.03 -17.91,2.13 -27.22,3.4 -13.46,1.83 -32.25,2.49 -42.43,4 -4.66,0.69 -9.57,0.4 -14.21,1.1 -4.66,0.7 -57.02,2.77 -58.97,2.77l-76.03 -0.51c-3.68,-0.2 -8.4,-0.86 -12.24,-1.03 -5.89,-0.25 -39.8,-4.25 -39.8,-11.73 0,-6.56 8.93,-10.39 14.79,-13.27 14.78,-7.28 35.35,-12.46 51.6,-17.28 2.48,-0.73 8.58,-2.55 11.16,-2.61 -1.42,-1.94 -6.99,-1.09 -9.4,-0.72 -3.14,0.48 -7.34,0.22 -10.14,0.58 -3.57,0.46 -6.25,0.41 -9.78,0.94 -31.33,4.64 -47.74,9.13 -76.89,21.08 -2.44,1 -5.03,2.1 -7.42,3.3 -1.45,0.73 -2.49,1.21 -3.8,1.81 -1.49,0.68 -2.12,1.16 -3.67,1.94 -3.6,1.8 -11.06,6.2 -11.06,10.88z"/>
   <path class="fil2" d="M257.16 562.8c45.44,0 73.78,-2.27 116.63,-9.91 13.54,-2.41 31.75,-6.48 44.9,-10.2 2.34,-0.66 6.76,-2.16 8.89,-2.34l0 -1.02c-1.95,-0.16 -7.06,-2.5 -8.85,-3.4 -5.7,-2.86 -10.08,-5.69 -15.06,-9.43 -9.33,-7 -3.87,-6.22 -14.14,-4.3 -2.72,0.51 -4.86,0.91 -7.36,1.32l-68.85 9.22c-8.04,0.63 -16.09,1.54 -24.54,1.49 -3.58,-0.02 -4.86,0.53 -8.14,0.53 -29.8,0.04 -53.05,-0.64 -82.77,-4.01 -11.02,-1.25 -37.47,-4.03 -28.66,-19.66 0.98,-1.75 2.6,-3.45 3.74,-4.93 1.69,-2.2 3.06,-2.28 4.6,-4.58 -3.25,0.76 -7.21,2.38 -10.21,3.57 -7.65,3.02 -21.09,9.17 -26.38,15.46 -3.68,4.38 -5.56,8.91 -2.37,14.32 0.72,1.22 2.17,3.17 3.15,3.99 5.64,4.71 11.33,7.32 18.09,9.97 23.48,9.21 64.55,13.93 97.31,13.93z"/>
   <path class="fil2" d="M117.36 733.22c2.46,3.36 20.94,8.55 26.48,9.74 16.43,3.52 46.74,8.6 63.83,9.14 3.42,0.11 7.83,0.95 11.21,1.03 4.2,0.1 7.39,0.27 11.75,0.49l35.21 1.53c4.65,-0.01 7.18,0.53 11.73,0.51 17.69,-0.07 35.98,0.44 53.57,-0.52 3.18,-0.17 6.97,-0.01 10.21,0.01l19.88 -1.04c1.66,-0.05 3.47,0.11 5.12,0.02 2.27,-0.12 2.44,-0.51 5.08,-0.53 21.97,-0.22 75.48,-7.06 94.28,-10.32 22.73,-3.95 46.57,-9.88 65.75,-17.94 12.85,-5.4 29.14,-14.08 36.86,-25.9 4.16,-6.37 4.12,-8.41 5.71,-15.22 -2.04,1.36 -3.8,6.43 -18.21,14.45 -44.7,24.89 -137.4,37.24 -189.43,41.2 -10.01,0.76 -20.02,1.69 -30.66,1.99 -8.55,0.24 -13.51,1.09 -23.46,1.03 -3.58,-0.02 -4.86,0.53 -8.14,0.53 -5.45,0.01 -10.9,-0.01 -16.35,-0.02 -5.8,-0 -9.84,0.51 -15.82,0.51 -11.07,0 -21.17,-0.54 -32.66,-0.51 -5.59,0.01 -9.83,-0.54 -15.82,-0.5 -3.43,0.02 -4.63,-0.5 -7.63,-0.54 -2.9,-0.04 -5.15,0.14 -7.89,-0.27 -4.64,-0.7 -21.5,-0.85 -31.05,-2.12 -9.19,-1.21 -17.93,-1.32 -30.18,-2.99l-29.38 -3.79z"/>
   <path class="fil3" d="M470.45 422.99c3.64,-0.85 7.11,-2.23 11.12,-3.17 15.02,-3.54 27.12,-2.6 40.42,6.22 22.39,14.86 25.9,41.69 11.33,64.91 -3.07,4.89 -7,10.5 -10.95,14.56 -1.03,1.06 -1.01,1.22 -1.83,2.25 -0.76,0.95 -1.36,1.47 -2.24,2.35 -1.51,1.49 -2.79,2.96 -4.34,4.33 -7.34,6.46 -15.62,13.3 -23.7,18.65 -1.88,1.24 -3.24,2.36 -5.16,3.52l-24.36 14.42c-5.63,3.27 -2.96,-0.06 -7.12,6.15 5.98,-0.5 34.61,-10.78 40.09,-12.97 17.61,-7.04 28.23,-13.06 43.39,-23.46l7.48 -5.79c1.41,-1.35 2.23,-1.75 3.58,-3.05l9.63 -10.27c20.4,-25.04 22.87,-57.42 -3.48,-78.81 -5.09,-4.13 -11.42,-7.96 -18.34,-10.24 -17.67,-5.82 -30.51,-5.63 -48.57,-0.73 -6.74,1.83 -13.94,5.46 -16.94,11.12z"/>
   <path class="fil3" d="M524.53 929.16l35.72 0c0,-19.64 0.05,-31.89 -8.06,-43.98 -16.44,-24.51 -53.45,-24.84 -79.49,-20.09 -25.14,4.59 -34.33,10.71 -40.01,12.03 0.25,3.06 1.86,7.6 2.51,10.76 0.71,3.42 2.33,8.03 2.59,11.18 0.95,-0.02 20.38,-5.87 26.58,-7.1 14.27,-2.84 44.36,-6.66 54.77,8.42 5.66,8.19 5.4,15.55 5.4,28.79z"/>
   <path class="fil2" d="M576.58 879.16c0,1.81 0.99,1.53 3.06,1.53l0 -10.2 3.46 8.79c0.9,1.93 0.17,1.36 2.67,1.41l4.08 -10.2 0 10.2 2.55 0 0 -14.29c-4.88,0 -4,-0.8 -5.8,4.4 -0.64,1.85 -1.03,3.81 -2.36,4.78 -0.26,-3.1 -2.32,-5.99 -3.06,-9.18l-4.59 0 0 12.76z"/>
   <polygon class="fil4" points="563.31,868.95 567.39,868.95 567.39,880.69 570.46,880.69 570.46,868.95 574.54,868.95 574.54,866.4 563.31,866.4 "/>
   <polygon class="fil5" points="321.46,440.34 320.95,440.34 321.37,440.94 "/>
   <polygon class="fil6" points="526.58,645.97 526.58,645.46 525.98,645.89 "/>
   <polygon class="fil2" points="194.91,584.74 195.42,584.74 195,584.15 "/>
  </g>
 </g>
</svg>
