<?xml version="1.0" encoding="UTF-8"?>
<!DOCTYPE svg PUBLIC "-//W3C//DTD SVG 1.1//EN" "http://www.w3.org/Graphics/SVG/1.1/DTD/svg11.dtd">
<!-- Creator: CorelDRAW 2021 (64 Bit) -->
<svg xmlns="http://www.w3.org/2000/svg" xml:space="preserve" width="166.016mm" height="44.7323mm" version="1.1" style="shape-rendering:geometricPrecision; text-rendering:geometricPrecision; image-rendering:optimizeQuality; fill-rule:evenodd; clip-rule:evenodd"
viewBox="0 0 1854.4 499.66"
 xmlns:xlink="http://www.w3.org/1999/xlink"
 xmlns:xodm="http://www.corel.com/coreldraw/odm/2003">
 <defs>
  <style type="text/css">
   <![CDATA[
    .fil1 {fill:none;fill-rule:nonzero}
    .fil8 {fill:black;fill-rule:nonzero}
    .fil14 {fill:url(#id0);fill-rule:nonzero}
    .fil2 {fill:url(#id1);fill-rule:nonzero}
    .fil4 {fill:url(#id2);fill-rule:nonzero}
    .fil13 {fill:url(#id3);fill-rule:nonzero}
    .fil11 {fill:url(#id4);fill-rule:nonzero}
    .fil3 {fill:url(#id5);fill-rule:nonzero}
    .fil12 {fill:url(#id6);fill-rule:nonzero}
    .fil5 {fill:url(#id7);fill-rule:nonzero}
    .fil7 {fill:url(#id8);fill-rule:nonzero}
    .fil6 {fill:url(#id9);fill-rule:nonzero}
    .fil10 {fill:url(#id10);fill-rule:nonzero}
    .fil0 {fill:url(#id11);fill-rule:nonzero}
    .fil9 {fill:url(#id12);fill-rule:nonzero}
    .fil15 {fill:url(#id13);fill-rule:nonzero}
   ]]>
  </style>
  <linearGradient id="id0" gradientUnits="userSpaceOnUse" x1="969.53" y1="441.1" x2="1177.41" y2="108">
   <stop offset="0" style="stop-opacity:1; stop-color:#9E2064"/>
   <stop offset="0.321569" style="stop-opacity:1; stop-color:#9E2064"/>
   <stop offset="0.631373" style="stop-opacity:1; stop-color:#C92037"/>
   <stop offset="0.74902" style="stop-opacity:1; stop-color:#CD2335"/>
   <stop offset="1" style="stop-opacity:1; stop-color:#E97826"/>
  </linearGradient>
  <linearGradient id="id1" gradientUnits="userSpaceOnUse" xlink:href="#id0" x1="875.76" y1="207.73" x2="958.4" y2="-120.27">
  </linearGradient>
  <linearGradient id="id2" gradientUnits="userSpaceOnUse" xlink:href="#id0" x1="876.87" y1="418.71" x2="996.99" y2="126.61">
  </linearGradient>
  <linearGradient id="id3" gradientUnits="userSpaceOnUse" x1="932.01" y1="543.5" x2="1030.92" y2="396.35">
   <stop offset="0" style="stop-opacity:1; stop-color:#282662"/>
   <stop offset="0.0901961" style="stop-opacity:1; stop-color:#662E8D"/>
   <stop offset="0.788235" style="stop-opacity:1; stop-color:#9F2064"/>
   <stop offset="0.94902" style="stop-opacity:1; stop-color:#CD2032"/>
   <stop offset="1" style="stop-opacity:1; stop-color:#CD2032"/>
  </linearGradient>
  <linearGradient id="id4" gradientUnits="userSpaceOnUse" xlink:href="#id3" x1="1000.4" y1="468.92" x2="1080.7" y2="334.05">
  </linearGradient>
  <linearGradient id="id5" gradientUnits="userSpaceOnUse" xlink:href="#id3" x1="965.33" y1="519.36" x2="1019.59" y2="255.03">
  </linearGradient>
  <linearGradient id="id6" gradientUnits="userSpaceOnUse" xlink:href="#id0" x1="956.19" y1="411.15" x2="1136.52" y2="105.92">
  </linearGradient>
  <linearGradient id="id7" gradientUnits="userSpaceOnUse" xlink:href="#id3" x1="926.5" y1="533.08" x2="1023.23" y2="412.57">
  </linearGradient>
  <linearGradient id="id8" gradientUnits="userSpaceOnUse" xlink:href="#id0" x1="903.57" y1="204.75" x2="986.69" y2="-279.11">
  </linearGradient>
  <linearGradient id="id9" gradientUnits="userSpaceOnUse" xlink:href="#id0" x1="925.33" y1="455.64" x2="1013.69" y2="37.6">
  </linearGradient>
  <linearGradient id="id10" gradientUnits="userSpaceOnUse" xlink:href="#id0" x1="991.98" y1="193.91" x2="1169.8" y2="-131.89">
  </linearGradient>
  <linearGradient id="id11" gradientUnits="userSpaceOnUse" x1="917.24" y1="136" x2="984.57" y2="114.04">
   <stop offset="0" style="stop-opacity:1; stop-color:#F69923"/>
   <stop offset="0.309804" style="stop-opacity:1; stop-color:#F79A23"/>
   <stop offset="0.839216" style="stop-opacity:1; stop-color:#E97826"/>
   <stop offset="1" style="stop-opacity:1; stop-color:#E97826"/>
  </linearGradient>
  <linearGradient id="id12" gradientUnits="userSpaceOnUse" xlink:href="#id11" x1="1159.66" y1="146.1" x2="1247.06" y2="122.8">
  </linearGradient>
  <linearGradient id="id13" gradientUnits="userSpaceOnUse" xlink:href="#id0" x1="1002.71" y1="229.23" x2="1135.83" y2="9.82">
  </linearGradient>
 </defs>
 <g id="Camada_x0020_1">
  <metadata id="CorelCorpID_0Corel-Layer"/>
  <g id="_2179938121728">
   <path class="fil0" d="M912.51 99.87c-0.67,1.59 -1.31,3.64 -1.9,6.12l-0.44 1.94c-0.14,0.67 -0.28,1.37 -0.42,2.09l-0.4 2.24 0 0 -0.38 2.39 0 0 -0.36 2.53 0 0 -0.34 2.67 0 0 -0.32 2.8 0 0 -0.29 2.93c-0.05,0.5 -0.09,1 -0.14,1.51l-0.26 3.12 0 0 -0.23 3.24 0 0 -0.21 3.35c-0.03,0.57 -0.06,1.14 -0.09,1.72l20.78 10.06c-0.31,-12.13 0.07,-23.6 1.17,-34.14l0.21 -1.88 0 0 -0.15 1.72 0 0 -0.18 2.84 0 0 -0.07 1.36 0 0 -0.11 3.1 0 0 -0.04 1.74 0 0 -0.05 3.87 0 0 0.01 3.25 0 0 0.05 3.56 0 0 0.06 2.54 0 0 0.13 4.07 0 0 0.12 2.88 0 0 0.15 3.02c0.03,0.51 0.06,1.04 0.09,1.56 3.87,-3.15 8.5,-7.3 13.32,-11.82l3.23 -3.07c0.54,-0.52 1.08,-1.04 1.63,-1.57l3.24 -3.17 0 0 3.2 -3.18 0 0 3.13 -3.16 0 0 3.01 -3.09 0 0c-3.33,-6.79 -6.91,-11.78 -10.24,-15.42l-1.1 -1.17c-0.73,-0.74 -1.44,-1.43 -2.13,-2.05l-1.02 -0.89 0 0 -0.99 -0.8c-0.32,-0.25 -0.64,-0.5 -0.95,-0.72l-0.9 -0.65 0 0 -0.85 -0.57 0 0 -1.18 -0.73 0 0 -1.05 -0.59 0 0 -1.17 -0.58 0 0 -0.88 -0.38 0 0 -1.6 -0.58 0 0 -1.17 -0.37 0 0 -1.14 -0.32 0 0 -0.87 -0.22 0 0 -0.94 -0.21c-0.16,-0.03 -0.33,-0.07 -0.5,-0.1l-1.04 -0.18 0 0 -1.09 -0.16c-5.74,-0.72 -13.16,0.04 -16.35,7.55z"/>
   <path class="fil1" d="M967.32 350.85l-2.88 -10.54 0 0 -2.54 -9.38 0 0 -1.08 -4.12 0 0 -2.11 -8.14 0 0 -2.04 -7.98 0 0 -2.02 -8.19c-0.33,-1.35 -0.66,-2.7 -0.98,-4.03l-1.88 -7.91 0 0 -1.89 -8.11c-0.92,-4 -1.8,-7.91 -2.63,-11.77l-1.65 -7.72c-0.27,-1.27 -0.54,-2.53 -0.8,-3.78l-1.11 -5.39 0 0 -2.46 -12.66 0 0 -0.52 -2.83 0 0 -1.07 -5.55 0 0 -0.33 -1.84 0 0 -0.25 -1.33 0 0 -1 0.91 -2.06 -1.02 0.15 0.68 0 0c0.45,2.76 0.92,5.55 1.43,8.35l1.7 9.06c0.15,0.82 0.3,1.65 0.44,2.48 0.96,5.07 1.96,10.12 3.02,15.19l1.09 5.08c1.43,6.83 2.95,13.68 4.49,20.43 1.5,6.69 3.11,13.3 4.72,19.91 1.07,4.41 2.16,8.77 3.26,13.1l1.67 6.48c1.74,6.78 3.49,13.46 5.31,20 0.38,1.47 0.8,3 1.24,4.43l2.17 7.88c0.72,2.6 1.45,5.17 2.2,7.73l3.33 1.67 1.11 -0.99c-0.03,-0.16 -0.05,-0.31 -0.14,-0.42 -2.2,-6.7 -4.07,-13.3 -5.87,-19.68z"/>
   <path class="fil2" d="M932.95 209.9c-0.96,-6.91 -1.83,-13.71 -2.63,-20.4 -0.64,-5.55 -1.17,-11.02 -1.6,-16.44l-0.37 -4.86c-0.01,-0.13 -0.01,-0.25 -0.01,-0.37 -0.45,-6.58 -0.78,-13 -0.93,-19.28l-20.73 -10 -0.06 1.27 0 0 -0.14 2.64 0 0c-0.21,4.97 -0.36,10.25 -0.4,15.79 -0.05,6.25 0.01,12.78 0.12,19.61 0.15,6.28 0.4,12.84 0.74,19.5 0.25,4.28 0.53,8.59 0.84,12.96l0.38 5.05 0 0 27.74 14.05 -0.98 -6.55 0 0 -1.98 -13z"/>
   <path class="fil3" d="M973.06 370.97l0.43 1.48 0 0 2.76 9.36c0.4,1.33 0.8,2.67 1.2,4.01l1.32 4.25 0 0 0.45 1.53c0.08,0.25 0.16,0.5 0.26,0.75l4.47 14.32 0 0c3.96,-0.82 8.78,0.66 13.87,2.88l2.05 0.93 0 0c-3.75,-4.51 -8.94,-7.53 -15.15,-8.23 16.99,-11.33 28.16,-25.92 26.59,-43.33 -0.17,-1.54 -0.38,-3.14 -0.68,-4.75 -0.26,6.42 -2.82,11.13 -10.24,16.16l-0.91 0.61 0 0c7.68,-13.52 9.79,-22.68 8.88,-34.54 -0.22,-2.81 -0.58,-5.8 -1.09,-9.01 -2.46,17.65 -11.93,29.07 -25.8,35.83l-8.41 7.75z"/>
   <path class="fil4" d="M963.11 350.25l-1.76 -6.61 0 0 -3.55 -13.39 0 0c-1.68,-6.47 -3.31,-12.98 -4.92,-19.59 -1.61,-6.61 -3.17,-13.26 -4.72,-19.91 -1.58,-6.81 -3.06,-13.6 -4.49,-20.43l-1.41 -6.75 0 0 -2.7 -13.52 0 0c-0.48,-2.45 -0.92,-4.84 -1.35,-7.33 -0.78,-4.16 -1.49,-8.36 -2.21,-12.56l-0.15 -0.68 0 0 -27.58 -14.08 0.09 0.87c0.01,0.15 0.02,0.3 0.01,0.45 0.56,6.25 1.1,12.59 1.84,18.96 0.72,6.47 1.55,12.96 2.51,19.52 0.82,5.53 1.69,11.01 2.61,16.56l0.6 3.32 0 0c1.27,6.86 2.63,13.48 4.1,19.66 1.65,7.02 3.42,13.6 5.2,19.73 1.2,4.02 2.38,7.89 3.58,11.56l1.07 3.09 0 0 2.21 6.15 0 0c2.64,7.17 5.56,14.13 8.71,20.93l27.88 14.12c-1.49,-5.12 -2.86,-10.33 -4.37,-15.62l-0.77 -2.96 0 0 -0.41 -1.51z"/>
   <path class="fil5" d="M941.2 357.14c3.36,7.19 7.02,14.15 11.07,20.83l2.24 3.63 0 0c-2.64,-1.06 -5.98,-1.59 -9.23,-1.83l-1.61 -0.09c-0.27,-0.01 -0.53,-0.02 -0.79,-0.03l-1.54 -0.03 0 0 -2.18 0.01 0 0 -1.95 0.06 0 0 -1.64 0.08 0 0 -2.29 0.19c-0.02,0 -0.03,0 -0.02,0.01 14.09,4.89 26.46,10.88 34.25,19.95 -3.1,3.41 -8.9,6.01 -16.19,8.12 5.43,0.59 9.56,0.35 12.55,-0.14l1.21 -0.22c0.19,-0.04 0.37,-0.08 0.55,-0.12l1 -0.25 0 0 0.86 -0.25 0 0 1.05 -0.37 0 0 0.54 -0.22 0 0c-4.48,3.73 -7.28,10.1 -9.61,17.23l-0.81 2.55c-0.13,0.43 -0.26,0.86 -0.39,1.29 5.93,-9.69 11.81,-16.11 17.54,-18.57 6.4,21.22 13.8,43.79 21.92,67.36l3.8 10.94c1.28,3.67 2.58,7.36 3.89,11.07 1.89,-2.44 2.1,-5.13 1.31,-7.88l-2.6 -7.33 0 0 -2.96 -8.57 0 0 -4.58 -13.6 0 0 -3.75 -11.4 0 0 -4.15 -12.86 0 0 -3.96 -12.55 0 0 -3.64 -11.76 0 0 -2.68 -8.81 0 0 -2.18 -7.27 0 0c-0.29,-0.95 -0.56,-1.93 -0.84,-2.91l-0.82 -2.7 0 0 -2.35 -8.12 0 0 -2.39 -8.36 0 0 -1.07 -3.85 0 0 -0.04 -0.06 0 0 -27.88 -14.12c0.06,0.24 0.14,0.45 0.22,0.65l0.14 0.31z"/>
   <path class="fil6" d="M939.15 230.04l0.49 2.7 0 0c0.36,1.84 0.69,3.7 1.04,5.56l3.01 15.47 0 0 1.11 5.39 0 0 1.61 7.62c0.27,1.29 0.55,2.58 0.83,3.89 0.83,3.85 1.71,7.77 2.63,11.77l1.89 8.11 0 0 1.88 7.91c0.32,1.34 0.65,2.68 0.98,4.03l2.02 8.19 0 0 2.03 7.96c1.03,4.02 2.08,8.11 3.2,12.28 0.81,3.08 1.66,6.2 2.53,9.36l2.9 10.56 0 0 2.19 7.76 0 0 2.26 7.92c0.38,1.33 0.77,2.67 1.16,4.01 0.03,0.16 0.05,0.31 0.14,0.43l8.41 -7.75 -0.2 0.08 0 0 -0.45 0.22 0 0c9.98,-9.43 18.53,-28.31 20.49,-45.33 0.9,-7.84 0.82,-16.18 -0.26,-25.29 -0.78,-6.78 -2.16,-13.91 -4.05,-21.63 -1.65,-6.67 -3.7,-13.75 -6.19,-21.2 -1.54,3.15 -3.73,6.24 -6.42,9.26l-1.46 1.6 0 0 -0.5 0.52 0 0 -1.06 1.06 0 0c7.36,-11.44 8.23,-23.73 6.05,-36.49 -1.34,3.78 -3.97,9.39 -8.32,14.43 -0.56,0.67 -1.21,1.33 -1.87,1.98 -0.12,0.08 -0.21,0.19 -0.33,0.3l-0.2 0.17c2.44,-4.07 4.25,-7.93 5.4,-11.84 0.18,-0.54 0.32,-1.1 0.45,-1.65l0.18 -0.83c0.3,-1.27 0.49,-2.55 0.69,-3.83l0.28 -2.48 0 0c0.11,-1.46 0.14,-2.96 0.07,-4.48l-0.19 -2.8c-0.02,-0.21 -0.04,-0.41 -0.08,-0.62l-0.29 -1.8c-0.05,-0.29 -0.1,-0.57 -0.16,-0.85 -0.57,-3.33 -1.2,-6.3 -1.84,-8.94l-0.61 -2.36 0 0 -0.55 -2 0 0 -0.71 -2.36 0 0 -0.93 -2.77c-0.1,-0.28 -0.19,-0.55 -0.29,-0.8l-0.56 -1.4c-0.18,-0.43 -0.35,-0.82 -0.51,-1.18l-0.46 -0.94c-0.09,0.36 -0.2,0.73 -0.36,1.11l-0.26 0.57c-1.74,4.08 -5.77,9.67 -9.46,13.6 -0.06,0.04 -0.11,0.08 -0.13,0.18l-0.76 0.76c-0.13,0.14 -0.26,0.28 -0.38,0.43l0.15 -0.28 0 0 -26.49 24.26c0.22,0.19 0.25,0.34 0.23,0.44z"/>
   <path class="fil7" d="M928.9 148.08c0.11,1.94 0.24,3.95 0.38,6.05l0.32 4.3c0.06,0.73 0.12,1.48 0.18,2.23l0.39 4.61c0.07,0.79 0.14,1.58 0.21,2.38l0.06 0.77c0.02,0.12 0.04,0.24 0.07,0.37 0.22,2.36 0.47,4.79 0.75,7.3l0.59 5.12c0.21,1.74 0.43,3.52 0.66,5.34l1.1 8.32c0.52,3.78 1.07,7.7 1.7,11.78l0.48 3.1c0.47,3.15 1,6.38 1.56,9.69l1.75 10.21 0 0 26.5 -24.26c5.52,-10.01 6.73,-16.24 6.66,-23.97 -0.03,-1.56 -0.1,-3.18 -0.2,-4.84l-0.11 -1.67c-0.42,-6.78 -1.24,-13.97 -2.4,-20.92 -1.09,-6.73 -2.42,-13.2 -3.94,-18.73 -0.97,-3.58 -1.99,-6.77 -3.03,-9.5 -0.95,-2.37 -1.93,-4.54 -2.92,-6.61l-3 3.07c-0.51,0.52 -1.03,1.04 -1.55,1.56l-3.17 3.16 0 0 -3.23 3.16 0 0 -3.25 3.13c-0.54,0.52 -1.08,1.03 -1.62,1.54l-3.21 3.01c-4.24,3.94 -8.28,7.52 -11.73,10.32z"/>
   <path class="fil8" d="M768.27 111.51c14.71,1.59 27.63,4.57 38.76,8.94 11.53,4.37 20.87,10.33 28.03,17.89 7.55,7.15 12.52,16.5 14.91,28.02 1.19,6.76 1.19,14.51 0,23.25 -1.19,8.75 -2.78,17.69 -4.77,26.83l-26.83 132.97c-1.19,7.55 -2.58,15.31 -4.18,23.26 -1.59,7.55 -2.19,14.51 -1.79,20.87 0,1.19 -0.2,2.58 -0.6,4.17l0 3.58 0 0c0,4.37 -0.4,8.75 -1.19,13.12 -0.8,4.37 -3.38,7.35 -7.75,8.94 -2.78,1.19 -5.76,1.79 -8.94,1.79l-52.47 0 0 0c-3.18,-0.4 -5.56,-1.39 -7.16,-2.98 -2.38,-1.59 -3.98,-3.78 -4.77,-6.56 -0.8,-3.18 -2.19,-5.76 -4.17,-7.75 -0.8,-0.8 -1.79,-1.39 -2.98,-1.79 -0.8,-0.79 -2.19,-0.99 -4.17,-0.6 -2.39,0.8 -4.57,1.79 -6.56,2.98 -1.99,1.19 -3.98,2.19 -5.96,2.98 -2.38,1.59 -4.97,2.98 -7.75,4.17 -2.38,1.19 -4.97,2.38 -7.75,3.58 -5.57,2.38 -11.33,4.37 -17.29,5.96 -5.96,1.19 -11.93,2.58 -17.89,4.17 -3.18,0.8 -6.16,1.19 -8.94,1.19 -2.38,0.4 -4.97,0.8 -7.75,1.19l-3.58 0 0 0c-1.19,0.4 -2.39,0.6 -3.58,0.6l-6.56 0c-4.37,0.8 -8.35,0.8 -11.93,0l-5.37 0c-2.78,-0.8 -5.56,-1.19 -8.35,-1.19 -2.39,0.4 -4.77,0.2 -7.16,-0.6 -3.58,-0.8 -7.16,-1.59 -10.73,-2.38 -3.58,-0.4 -6.76,-1.39 -9.54,-2.98 -10.73,-4.37 -19.48,-9.94 -26.24,-16.7 -6.76,-7.16 -11.33,-16.5 -13.71,-28.03 -0.8,-2.78 -1.39,-5.76 -1.79,-8.95 0,-3.18 -0.2,-6.56 -0.6,-10.14 -0.4,-1.99 -0.4,-3.98 0,-5.96 0.79,-1.99 1.19,-3.98 1.19,-5.96 0,-1.19 0.2,-3.58 0.6,-7.16 0.8,-3.98 1.59,-6.76 2.39,-8.35 1.59,-3.98 2.58,-7.36 2.98,-10.14l5.96 -13.12 0 0c2.38,-4.77 4.97,-8.94 7.75,-12.52 8.75,-11.53 18.09,-20.27 28.03,-26.24 9.94,-5.96 22.26,-11.13 36.97,-15.5 5.57,-1.99 11.13,-3.38 16.7,-4.18 5.56,-0.79 11.33,-1.79 17.29,-2.98 3.18,-0.79 6.56,-1.19 10.14,-1.19 3.98,-0.4 7.75,-0.99 11.33,-1.79 2.78,-0.79 5.56,-0.99 8.35,-0.6 2.78,0 5.96,-0.4 9.54,-1.19 2.78,-0.8 5.56,-1.19 8.35,-1.19 2.78,0 5.76,-0.4 8.94,-1.19 8.75,-1.99 16.7,-3.58 23.85,-4.77 7.55,-1.59 14.71,-5.17 21.47,-10.73 3.98,-3.58 7.16,-7.55 9.54,-11.93 0.4,-1.19 0.6,-2.19 0.6,-2.98 0,-0.8 0.2,-1.59 0.6,-2.39 0.79,-0.8 1.19,-1.99 1.19,-3.58 0.4,-1.59 0.8,-2.78 1.19,-3.58l0 -8.94 0 0c-1.59,-11.93 -8.35,-20.07 -20.27,-24.45 -3.18,-1.19 -7.36,-1.99 -12.52,-2.38 -4.77,-0.8 -9.74,-0.99 -14.91,-0.6 -5.17,0 -10.34,0.4 -15.5,1.19 -4.77,0.79 -8.94,1.79 -12.52,2.98 -2.78,0.79 -5.37,1.99 -7.75,3.58 -2.38,1.19 -4.77,2.58 -7.16,4.17 -2.39,1.59 -4.97,3.78 -7.75,6.56 -2.78,2.78 -4.77,5.37 -5.96,7.75 -2.78,3.97 -5.17,7.75 -7.16,11.33 -1.99,3.58 -5.37,5.96 -10.14,7.16 -3.18,0.8 -6.56,1.19 -10.14,1.19l-33.39 0c-1.99,0 -4.17,0.2 -6.56,0.6 -1.99,0 -3.58,-0.2 -4.77,-0.6l-5.37 0c-0.8,-0.4 -1.79,-0.6 -2.98,-0.6 -1.19,0 -2.19,-0.4 -2.98,-1.19 -2.78,-0.8 -4.37,-3.38 -4.77,-7.75 0,-1.99 0.4,-3.97 1.19,-5.96 0.8,-1.99 1.59,-3.78 2.39,-5.37 1.99,-4.37 3.98,-8.35 5.96,-11.93 2.38,-3.97 4.77,-7.55 7.16,-10.73l4.77 -5.96 0 0c1.59,-1.99 3.18,-3.98 4.77,-5.96 3.98,-4.37 8.74,-8.55 14.31,-12.52 1.19,-0.4 2.58,-1.39 4.17,-2.98 2.39,-1.59 4.37,-2.98 5.96,-4.17 1.99,-1.19 4.17,-2.38 6.56,-3.58 7.55,-4.37 15.3,-7.75 23.25,-10.14 8.35,-2.78 16.7,-5.37 25.04,-7.75 5.17,-1.19 10.34,-1.99 15.51,-2.38 5.17,-0.4 10.53,-1.19 16.1,-2.38 1.59,-0.4 3.98,-0.4 7.16,0 3.18,0.4 5.37,0.2 6.56,-0.6 16.3,-0.4 31.6,0.2 45.91,1.79zm662.93 4.77c13.52,4.77 25.24,11.13 35.18,19.08 3.18,2.38 6.16,5.17 8.94,8.35 3.18,2.78 5.76,5.76 7.75,8.94 0.8,1.99 2.19,3.58 4.17,4.77 2.39,4.37 4.37,8.94 5.96,13.71 1.99,4.37 4.17,8.94 6.56,13.72 1.19,3.58 1.99,7.35 2.38,11.33 0.8,3.58 1.59,7.55 2.39,11.93 0.79,5.17 1.19,10.53 1.19,16.1 0.4,5.57 0.8,11.13 1.19,16.7 0,3.18 -0.6,6.76 -1.79,10.73 -0.8,3.58 -0.99,6.96 -0.6,10.14l-1.19 6.56c0,3.18 -0.79,6.76 -2.38,10.73 -1.59,3.98 -3.58,6.56 -5.96,7.75 -1.99,1.59 -4.97,2.78 -8.94,3.58 -3.98,0.4 -8.35,0.8 -13.12,1.19l-13.72 0 0 0c-4.37,-0.4 -8.35,-0.6 -11.93,-0.6l-153.84 0 0 0c-2.38,0 -4.57,0.4 -6.56,1.19 -3.58,1.59 -5.96,3.18 -7.16,4.77 -0.8,0.8 -1.99,2.39 -3.58,4.77 -1.19,1.99 -1.79,3.98 -1.79,5.96 0.4,2.39 0.4,4.77 0,7.16 0,1.99 0.2,4.18 0.6,6.56 1.19,9.54 3.38,17.49 6.56,23.85 3.58,5.96 8.75,11.33 15.5,16.1 2.78,1.99 5.76,3.38 8.94,4.17 3.58,0.4 6.96,1.19 10.14,2.39 3.18,0.8 7.35,1.39 12.52,1.79 5.56,0.4 10.53,0.2 14.91,-0.6l5.37 0c3.98,-0.8 7.75,-1.59 11.33,-2.38l10.73 -3.58 0 0c4.37,-1.99 9.34,-4.57 14.91,-7.75 5.57,-3.18 9.94,-6.36 13.12,-9.54 2.39,-2.78 4.97,-5.37 7.75,-7.75 2.78,-2.78 5.76,-4.77 8.94,-5.96 4.37,-1.99 9.54,-2.78 15.5,-2.39l24.45 0 0 0c2.78,-0.4 5.17,-0.2 7.16,0.6l5.96 0c3.58,0.8 6.16,1.79 7.75,2.98 1.19,0.8 1.59,2.58 1.19,5.37 0,2.78 -0.6,5.17 -1.79,7.16 -3.18,5.56 -6.56,10.53 -10.14,14.91 -3.18,4.37 -6.76,8.75 -10.73,13.12 -11.13,13.12 -23.06,23.65 -35.78,31.6 -12.72,7.95 -28.03,14.71 -45.91,20.27 -4.77,1.59 -9.34,2.58 -13.71,2.98 -4.37,0.4 -9.14,1.19 -14.31,2.39 -1.59,0.4 -3.38,0.4 -5.37,0 -1.59,0 -3.18,0.2 -4.77,0.6l-6.56 0c-2.39,0.8 -4.77,0.99 -7.16,0.6 -2.38,0 -4.57,-0.2 -6.56,-0.6 -3.18,-0.4 -5.96,-0.4 -8.35,0 -2.38,0.4 -4.97,0.2 -7.75,-0.6 -1.99,-0.8 -4.17,-1.19 -6.56,-1.19 -2.39,0 -4.37,-0.4 -5.96,-1.19 -4.37,-0.8 -8.75,-1.79 -13.12,-2.98 -3.98,-0.8 -7.55,-2.19 -10.73,-4.17 -3.98,-1.59 -7.75,-2.98 -11.33,-4.17 -3.58,-1.59 -6.76,-3.38 -9.54,-5.37 -11.13,-7.95 -20.67,-17.09 -28.62,-27.43 -7.55,-10.73 -13.12,-23.06 -16.7,-36.97 -1.19,-4.37 -1.99,-8.75 -2.38,-13.12 0,-4.77 -0.6,-9.54 -1.79,-14.31l0 -4.17 0 0c0.4,-1.59 0.6,-3.18 0.6,-4.77 -0.4,-4.77 -0.4,-9.94 0,-15.5l2.38 -16.7 0 0c0.4,-1.99 0.6,-4.17 0.6,-6.56 0.4,-2.39 0.99,-4.57 1.79,-6.56l1.79 -7.16 4.77 -14.31c2.78,-6.76 5.37,-13.32 7.75,-19.68 2.38,-6.36 5.37,-12.32 8.94,-17.89 25.44,-41.34 60.42,-70.56 104.95,-87.65 5.96,-2.39 11.93,-3.98 17.89,-4.77 5.96,-1.19 12.32,-2.58 19.08,-4.17 3.18,-0.4 6.16,-0.6 8.94,-0.6 2.78,0 5.76,-0.2 8.94,-0.6 20.27,-0.4 37.17,1.99 50.68,7.16zm-1234.92 -116.28c6.76,0 11.53,1.39 14.31,4.17 2.39,1.99 3.78,4.97 4.17,8.94 0.4,3.58 0.99,7.16 1.79,10.73 0.8,6.36 1.59,12.92 2.39,19.68 1.19,6.36 2.19,12.92 2.98,19.68 4.37,25.04 7.95,50.49 10.73,76.33 3.18,25.84 6.96,51.48 11.33,76.92 1.59,7.95 2.78,16.1 3.58,24.45 0.8,8.35 1.99,16.5 3.58,24.45 0.4,1.99 0.8,3.98 1.19,5.96 0.4,1.99 1.39,3.58 2.98,4.77 0.8,0.4 1.39,0.8 1.79,1.19 0.8,0.4 1.79,0.2 2.98,-0.6 3.18,-0.8 5.76,-3.18 7.75,-7.15 1.99,-3.98 3.98,-7.55 5.96,-10.73 4.77,-9.14 9.34,-18.09 13.72,-26.83 4.37,-9.14 9.14,-18.29 14.31,-27.43 12.72,-24.25 25.44,-48.5 38.16,-72.75 13.12,-24.65 26.04,-49.29 38.76,-73.94 3.18,-6.36 6.36,-12.52 9.54,-18.49 3.58,-6.36 6.96,-12.72 10.14,-19.08 1.59,-3.18 3.38,-6.36 5.37,-9.54 1.99,-3.18 4.77,-5.76 8.35,-7.75 2.78,-1.99 5.96,-2.98 9.54,-2.98l102.56 0 0 0c3.98,0 6.76,0.79 8.35,2.38 3.98,2.38 5.17,6.96 3.58,13.71 -1.19,6.36 -2.39,12.92 -3.58,19.68l-17.89 89.44 -44.72 221.82 -10.14 51.88c-0.8,4.37 -1.79,8.75 -2.98,13.12 -1.19,3.98 -3.18,6.96 -5.96,8.94 -2.78,1.99 -5.96,3.18 -9.54,3.58l-56.65 0c-2.78,-0.8 -5.37,-1.39 -7.75,-1.79 -1.99,-0.4 -3.58,-1.79 -4.77,-4.17 -1.19,-1.99 -1.59,-4.57 -1.19,-7.75 0.79,-3.18 1.59,-6.56 2.38,-10.14l5.96 -30.41 31.01 -153.25c0.8,-5.57 1.59,-10.73 2.39,-15.5 1.19,-5.17 2.19,-10.34 2.98,-15.5 0.79,-3.18 1.59,-6.36 2.38,-9.54 0.8,-3.58 1.19,-6.96 1.19,-10.14 -0.4,-2.78 -0.4,-5.76 0,-8.94 0.8,-3.18 0.2,-5.17 -1.79,-5.96 -1.19,-0.4 -2.19,-0.2 -2.98,0.6l-1.79 1.79 0 0c-1.99,1.59 -3.78,3.58 -5.37,5.96l-3.58 5.96 0 0c-3.58,5.96 -7.16,12.13 -10.73,18.49 -3.18,6.36 -6.76,12.72 -10.73,19.08l-3.58 7.16 0 0c-0.79,2.39 -1.99,4.77 -3.58,7.16 -3.18,5.17 -6.16,10.33 -8.94,15.5 -2.39,5.17 -5.17,10.34 -8.35,15.51 -0.79,1.19 -1.39,2.58 -1.79,4.17 -0.4,1.19 -0.99,2.38 -1.79,3.58 -2.39,3.58 -4.57,7.35 -6.56,11.33 -1.59,3.98 -3.78,7.95 -6.56,11.93 -2.39,3.58 -4.57,7.35 -6.56,11.33 -1.59,3.98 -3.58,7.95 -5.96,11.93 -7.16,11.53 -13.72,23.26 -19.68,35.18 -5.96,11.53 -12.12,23.06 -18.48,34.59 -1.19,1.19 -1.99,2.38 -2.39,3.58 0,1.19 -0.6,2.39 -1.79,3.58 -2.78,4.37 -5.37,8.94 -7.75,13.71 -1.99,4.37 -4.37,8.75 -7.16,13.12 -1.59,2.78 -3.18,5.37 -4.77,7.75 -1.59,2.38 -3.38,4.37 -5.37,5.96 -2.38,1.59 -4.57,2.58 -6.56,2.98 -1.99,0 -4.57,0.4 -7.75,1.19l-13.72 0c-2.78,0 -6.16,0.2 -10.14,0.6l-11.33 0 0 0c-3.58,0 -6.96,-0.2 -10.14,-0.6 -3.18,-0.4 -5.37,-1.19 -6.56,-2.38 -2.78,-1.99 -4.57,-4.18 -5.37,-6.56 -0.4,-2.78 -1.19,-5.96 -2.38,-9.54 -0.8,-4.77 -1.39,-9.54 -1.79,-14.31 -0.4,-5.17 -1.19,-10.14 -2.38,-14.91l-0.6 -5.37c-1.19,-4.77 -1.99,-9.74 -2.38,-14.91 -0.4,-5.56 -1.19,-10.73 -2.39,-15.5l0 -2.98 0 0c0,-1.19 -0.2,-2.39 -0.6,-3.58 -1.19,-3.58 -1.99,-7.35 -2.39,-11.33 -0.4,-3.98 -0.99,-7.95 -1.79,-11.93l0 -2.98 0 0c0,-1.19 -0.2,-2.19 -0.6,-2.98 -0.8,-3.98 -1.39,-7.95 -1.79,-11.93 0,-3.98 -0.6,-7.95 -1.79,-11.93 -1.59,-7.95 -2.98,-16.3 -4.17,-25.04 -0.8,-8.75 -1.99,-17.29 -3.58,-25.64 -1.59,-9.94 -2.98,-20.08 -4.17,-30.41 -0.8,-10.34 -2.58,-20.27 -5.37,-29.82 -0.8,-5.56 -1.99,-10.14 -3.58,-13.71 -0.8,-0.79 -1.59,-1.39 -2.38,-1.79 -0.4,-0.8 -1.19,-0.8 -2.39,0 -2.38,1.19 -3.98,3.18 -4.77,5.96 -0.4,2.78 -1.19,5.56 -2.39,8.35 -1.59,2.78 -2.58,5.76 -2.98,8.94 -0.4,2.78 -0.8,5.76 -1.19,8.94 -0.8,4.37 -1.79,8.75 -2.98,13.12 -0.8,4.37 -1.79,8.75 -2.98,13.12l-31.6 158.61 -5.96 29.22 -2.38 9.54 0 0c-0.4,3.18 -1.59,5.76 -3.58,7.75 -1.99,2.78 -5.37,4.57 -10.14,5.37 -2.78,0.8 -5.76,1.19 -8.94,1.19 -3.18,-0.4 -6.36,-0.6 -9.54,-0.6l-42.93 0 0 0c-3.58,-0.4 -6.36,-1.59 -8.35,-3.58 -1.99,-1.99 -2.78,-4.97 -2.39,-8.94l2.39 -13.12 0 0 10.14 -52.47 44.72 -221.82 16.7 -83.48c0.4,-2.38 0.79,-5.17 1.19,-8.35 0.8,-3.58 1.59,-6.96 2.38,-10.14 0.8,-3.18 1.59,-6.16 2.39,-8.94 1.19,-3.18 2.19,-5.56 2.98,-7.16 2.38,-2.78 5.96,-4.77 10.73,-5.96 1.19,-0.4 1.99,-0.4 2.39,0 0.8,0 1.79,-0.2 2.98,-0.6l97.2 0 0 0zm1621.45 119.85c14.71,7.55 25.04,18.68 31.01,33.39 1.99,4.37 3.18,9.14 3.58,14.31 0.8,4.77 1.39,9.74 1.79,14.91 0.4,3.18 0.4,6.16 0,8.94 -0.4,2.78 -0.4,5.57 0,8.35 -0.8,2.38 -0.99,3.97 -0.6,4.77 -0.4,5.57 -1.19,11.33 -2.38,17.29 -1.19,5.96 -2.39,11.73 -3.58,17.29l-10.14 53.07 -19.68 96.6c-1.59,7.55 -3.18,14.91 -4.77,22.06 -1.59,6.76 -5.37,11.13 -11.33,13.12 -2.39,0.8 -5.17,1.19 -8.35,1.19l-41.74 0c-4.77,0 -8.94,-0.2 -12.52,-0.6 -3.58,-0.8 -6.16,-2.58 -7.75,-5.37 -1.19,-2.39 -1.59,-5.37 -1.19,-8.94 0.79,-3.97 1.59,-8.15 2.38,-12.52l8.35 -41.74 17.89 -88.85c2.78,-14.71 4.77,-28.22 5.96,-40.55 1.59,-12.72 0.2,-23.45 -4.18,-32.2 -3.98,-7.95 -10.93,-13.51 -20.87,-16.7 -1.99,-0.79 -4.17,-1.19 -6.56,-1.19 -1.99,0 -3.98,-0.4 -5.96,-1.19 -1.99,-0.4 -4.57,-0.4 -7.75,0 -2.78,0 -4.97,0.2 -6.56,0.6 -1.99,0.4 -3.58,0.6 -4.77,0.6 -1.19,0 -2.38,0.2 -3.58,0.6 -9.54,2.38 -17.49,5.56 -23.85,9.54 -14.71,9.14 -25.04,22.46 -31.01,39.95 -5.57,17.49 -10.54,37.17 -14.91,59.03l-14.91 74.54 -7.16 36.37c-0.79,3.58 -1.59,7.16 -2.38,10.73 -0.8,3.58 -1.99,6.56 -3.58,8.94 -2.78,4.37 -6.56,6.96 -11.33,7.75 -4.37,0.8 -9.74,1.19 -16.1,1.19l-29.81 0c-4.37,0 -8.75,-0.2 -13.12,-0.6 -4.37,-0.4 -7.16,-1.79 -8.35,-4.17 -2.38,-3.58 -2.78,-8.75 -1.19,-15.5 1.59,-6.76 2.98,-13.12 4.17,-19.08l16.1 -81.1 26.24 -131.18 6.56 -30.41c0.8,-4.37 1.59,-8.35 2.39,-11.93 0.8,-3.58 2.58,-6.56 5.37,-8.94 0.8,-1.19 2.19,-1.99 4.17,-2.39 1.99,-0.8 3.98,-1.39 5.96,-1.79l2.98 0c1.99,-0.4 3.97,-0.6 5.96,-0.6l31.6 0c3.18,0 6.16,0.2 8.94,0.6 3.18,0 5.96,0.4 8.35,1.19 2.38,1.19 3.78,2.98 4.17,5.37 0.8,2.38 1.19,5.17 1.19,8.35 0,1.59 -0.2,2.98 -0.6,4.18 -0.4,1.19 -0.4,2.38 0,3.58 0.4,1.99 0.8,3.18 1.19,3.58 0.79,0.4 1.79,0.99 2.98,1.79 3.97,0.4 7.75,-0.99 11.33,-4.18 3.58,-3.58 7.16,-6.36 10.73,-8.35 12.32,-7.95 25.44,-14.31 39.35,-19.08 3.98,-1.19 7.75,-1.99 11.33,-2.39 3.98,-0.4 8.35,-0.99 13.12,-1.79 1.19,-0.4 2.98,-0.4 5.37,0 2.38,0 3.98,-0.2 4.77,-0.6 23.85,-0.8 42.93,2.58 57.24,10.14zm-1082.25 162.19c-1.59,0.4 -2.98,0.8 -4.17,1.19 -1.19,0 -2.78,0.2 -4.77,0.6 -2.78,0.8 -5.76,1.39 -8.94,1.79 -3.18,0.4 -6.56,0.99 -10.14,1.79 -1.19,0.4 -2.98,0.6 -5.37,0.6 -5.57,1.19 -10.93,1.99 -16.1,2.39 -5.17,0.4 -10.34,1.39 -15.5,2.98l-9.54 2.38 0 0c-2.78,0.4 -5.56,1.19 -8.35,2.39 -9.14,3.58 -17.29,8.94 -24.45,16.1 -7.15,7.16 -11.33,17.09 -12.52,29.82 -0.4,6.76 0.79,12.32 3.58,16.7 1.59,4.37 4.97,7.95 10.14,10.73 5.17,2.39 10.93,4.18 17.29,5.37 6.36,1.19 13.12,1.59 20.27,1.19 7.55,-0.8 14.71,-2.19 21.47,-4.17 11.13,-3.18 20.27,-8.15 27.43,-14.91 7.55,-7.15 13.91,-15.9 19.08,-26.24 1.19,-2.78 2.19,-5.56 2.98,-8.35 0.79,-3.18 1.99,-6.36 3.58,-9.54l1.19 -5.37c0.8,-1.99 1.39,-4.17 1.79,-6.56 0.4,-2.78 0.6,-5.17 0.6,-7.16 0,-2.38 0.2,-4.57 0.6,-6.56 0.4,-1.99 -0.2,-3.58 -1.79,-4.77 -1.59,-1.59 -4.37,-2.39 -8.35,-2.39zm633.11 -110.31c-1.19,0.8 -2.58,0.99 -4.17,0.6 -1.59,-0.4 -2.98,-0.4 -4.18,0 -2.38,0.8 -4.77,1.39 -7.16,1.79 -2.38,0 -4.57,0.4 -6.56,1.19 -18.68,5.57 -33.79,16.5 -45.32,32.8 -1.19,1.59 -2.58,3.78 -4.17,6.56 -1.59,2.38 -2.78,4.97 -3.58,7.75 -0.8,2.39 -1.19,4.77 -1.19,7.16 0,2.38 0.99,4.37 2.98,5.96 2.78,1.99 6.96,2.98 12.52,2.98l99.58 0 0 0c6.36,-0.4 10.73,-2.19 13.12,-5.37 3.58,-3.97 4.77,-8.75 3.58,-14.31 -0.8,-5.96 -1.39,-10.34 -1.79,-13.12 -3.58,-10.73 -9.34,-18.88 -17.29,-24.45 -7.95,-5.96 -20.07,-9.14 -36.37,-9.54z"/>
   <g>
    <path class="fil9" d="M1183.98 105.08c-0.85,0.35 -1.77,0.79 -2.77,1.32l-1.54 0.85c-1.07,0.61 -2.2,1.31 -3.4,2.09l-1.85 1.23 0 0 -1.94 1.35 0 0 -2.03 1.47 0 0 -2.12 1.59c-0.36,0.27 -0.72,0.55 -1.09,0.83l-2.25 1.76 0 0 -2.32 1.87 0 0 -2.4 1.98 0 0 -2.47 2.09 0 0 -2.54 2.19 0 0 -2.61 2.29 0 0 -2.67 2.39c-0.45,0.41 -0.9,0.82 -1.36,1.23l8.74 24.6c9.45,-10.08 18.94,-19.06 28.25,-26.71l3.28 -2.66 0 0 0.24 -0.18 0 0 -2.25 1.83 0 0 -2.21 1.91 0 0 -2.4 2.16 0 0 -2.27 2.13 0 0 -1.91 1.84 0 0 -1.37 1.34 0 0 -2.97 2.98 0 0 -2.43 2.49 0 0 -3.5 3.69 0 0 -1.86 2 0 0 -1.93 2.11 0 0 -3.04 3.37 0 0 -2.12 2.39 0 0c2.17,0.21 4.56,0.38 7.09,0.54l3.91 0.21 0 0 4.1 0.17 0 0 4.25 0.13 0 0 4.36 0.1 0 0 4.43 0.06c0.74,0.01 1.49,0.01 2.23,0.02l4.46 0.01c0.74,-0 1.48,-0 2.22,-0.01l4.39 -0.04c0.73,-0.01 1.45,-0.02 2.16,-0.03l4.23 -0.09 0 0c3.47,-10.36 4.27,-18.69 4,-24.91l-0.09 -1.57 0 0 -0.14 -1.48c-0.03,-0.24 -0.05,-0.47 -0.08,-0.7l-0.19 -1.33 0 0 -0.21 -1.24c-0.04,-0.2 -0.07,-0.39 -0.12,-0.58l-0.24 -1.09 0 0 -0.25 -0.99 0 0 -0.25 -0.9 0 0 -0.25 -0.8 0 0 -0.47 -1.3 0 0 -0.38 -0.9 0 0 -0.9 -1.86 0 0 -0.53 -0.99 0 0 -0.44 -0.78 0 0 -0.51 -0.86 0 0 -0.58 -0.92 0 0 -0.65 -0.97 0 0 -0.71 -1c-3.98,-5.37 -10.79,-11.41 -19.76,-7.71z"/>
    <path class="fil1" d="M1025.04 357.3l3.65 -6.65 0 0 4.96 -8.83 0 0 4.34 -7.7c0.72,-1.27 1.44,-2.54 2.16,-3.81l4.8 -8.31 0 0 4.74 -8.14c0.78,-1.34 1.56,-2.67 2.34,-3.99 2.45,-4.14 4.89,-8.23 7.3,-12.23l4.77 -7.87 0 0c4.15,-6.81 8.17,-13.32 12.15,-19.6l4.81 -7.53c0.79,-1.23 1.58,-2.46 2.36,-3.68l3.39 -5.22 0 0 4.11 -6.17 0 0 3.97 -5.98 0 0 1.83 -2.69 0 0 3.55 -5.31 0 0 0.61 -0.88 0 0 1.14 -1.69c0.1,-0.15 0.2,-0.29 0.31,-0.44l-1.52 -0.06 -0.85 -2.47 -0.42 0.67 0 0c-1.83,2.58 -3.67,5.2 -5.49,7.85l-5.83 8.64c-0.53,0.78 -1.07,1.56 -1.61,2.34 -3.25,4.85 -6.46,9.7 -9.63,14.63l-3.16 4.95c-4.28,6.63 -8.5,13.36 -12.62,20.01 -4.11,6.58 -8.07,13.18 -12.02,19.78 -2.64,4.4 -5.23,8.77 -7.79,13.13l-3.81 6.54c-3.99,6.84 -7.89,13.61 -11.62,20.32 -0.86,1.49 -1.74,3.05 -2.52,4.55 -3.06,5.44 -6.01,10.74 -8.89,16.04l1.35 3.99 1.68 0.08c0.1,-0.15 0.2,-0.29 0.23,-0.45 2.37,-4.76 4.82,-9.37 7.26,-13.86l0 0z"/>
    <path class="fil10" d="M1113.01 209.88c4.72,-6.33 9.42,-12.5 14.09,-18.51 4.87,-6.23 9.78,-12.2 14.75,-18.01 0.29,-0.36 0.59,-0.72 0.87,-1 4.87,-5.66 9.7,-11.08 14.57,-16.26l-8.75 -24.52 -1.05 0.98 0 0 -2.21 2.01 0 0c-4.11,3.83 -8.43,7.96 -12.87,12.39 -2.5,2.5 -5.04,5.07 -7.62,7.72l-5.21 5.39c-0.88,0.92 -1.76,1.84 -2.65,2.77 -4.87,5.18 -9.87,10.65 -14.9,16.29 -3.2,3.65 -6.4,7.34 -9.62,11.1l-3.71 4.37 0 0 11.16 33.35 4.41 -6.05 0 0 8.73 -12.03z"/>
    <path class="fil11" d="M1017.33 371.42l-1.66 3.07 0 0 -4.39 8.19c-0.74,1.38 -1.48,2.78 -2.22,4.18l-2.32 4.47 0 0c-0.44,0.82 -0.88,1.57 -1.24,2.4l-2.44 4.71 0 0 -5.34 10.37 0 0c4.35,2.82 7.25,8.89 9.79,15.72 0.57,-6.61 -1.21,-13.17 -5.65,-18.66 22.68,4.38 43.27,1.51 55.84,-13.75 1.09,-1.37 2.19,-2.82 3.22,-4.37 -5.32,4.98 -11.14,6.73 -21.17,4.86l-1.13 -0.22 0 0c16.92,-4.78 25.91,-10.48 34.59,-20.74 2.05,-2.44 4.14,-5.12 6.27,-8.12 -16,12.26 -32.7,13.92 -49.23,8.35l-12.93 -0.44z"/>
    <path class="fil12" d="M1024.91 348.38l4.71 -8.27 0 0 7.78 -13.6 0 0c3.78,-6.55 7.65,-13.08 11.6,-19.68 3.95,-6.6 7.99,-13.19 12.02,-19.78 4.14,-6.74 8.34,-13.38 12.62,-20.01 4.19,-6.57 8.54,-13.11 12.8,-19.58 1.55,-2.35 3.1,-4.63 4.73,-6.97 2.68,-3.96 5.44,-7.92 8.2,-11.87l0.42 -0.66 0 0 -11.02 -33.25 -0.62 0.78c-0.11,0.13 -0.23,0.26 -0.35,0.37 -4.51,5.47 -9.12,11.01 -13.59,16.72 -4.56,5.79 -9.05,11.66 -13.49,17.71 -3.73,5.1 -7.39,10.21 -11.05,15.4l-2.16 3.15 0 0c-4.43,6.53 -8.6,12.94 -12.32,19.09 -4.25,6.96 -8.06,13.66 -11.49,20.02 -2.23,4.19 -4.36,8.24 -6.3,12.15 -1.62,3.31 -3.16,6.72 -4.7,10.04 -3.58,7.87 -6.76,15.79 -9.62,23.76l11.22 33.52 2.18 -3.98 0 0 4.46 -8c0.75,-1.35 1.5,-2.7 2.24,-4.06l1.73 -3 0 0z"/>
    <path class="fil13" d="M1002.67 334.98c-3.01,8.45 -5.59,16.97 -7.64,25.57l-1.08 4.7 0 0c-1.01,-2.33 -2.63,-4.74 -4.46,-7.01l-1.12 -1.34c-0.19,-0.22 -0.38,-0.44 -0.57,-0.66l-1.16 -1.28 0 0 -1.16 -1.22 0 0 -1.14 -1.15 0 0 -1.63 -1.57 0 0 -1.48 -1.36 0 0 -1.62 -1.42 0 0 -1.46 -1.2 0 0c7.46,15.13 12.66,29.77 11.72,43.27 -5.21,0.29 -11.94,-2.24 -19.48,-6.33 3.25,3.99 6.23,6.8 8.75,8.77l1.13 0.85c0.18,0.13 0.36,0.26 0.54,0.38l1.02 0.69 0 0 0.94 0.59 0 0 0.86 0.49 0 0 0.78 0.4 0 0 0.68 0.33 0 0 0.59 0.25c0.09,0.04 0.18,0.07 0.26,0.1 -6.33,-0.53 -13.34,2.13 -20.58,5.8l-2.42 1.26 0 0 -2.44 1.31 0 0c12.48,-3.09 22.31,-3.59 28.87,-1.01 -3.22,6.1 -6.47,12.34 -9.73,18.72l-4.91 9.66c-7.38,14.64 -14.86,29.92 -22.42,45.72l-5.05 10.61c-1.69,3.56 -3.38,7.15 -5.07,10.75 3.46,-0.46 5.77,-2.46 7.31,-5.3l5.71 -12.12 0 0 5.26 -10.9 0 0 6.72 -13.68 0 0 5.94 -11.89 0 0 5.88 -11.62 0 0 5.59 -10.9 0 0 7.76 -14.91 0 0 5.51 -10.44 0 0 1.89 -3.56 0 0 1.63 -3.01 0 0 1.48 -2.82 0 0 2.26 -4.18 0 0 4.64 -8.52c0.79,-1.44 1.58,-2.89 2.38,-4.34l2.19 -3.96 0 0 0.01 -0.08 0 0 -11.22 -33.52c-0.14,0.25 -0.25,0.47 -0.34,0.7l-0.14 0.36z"/>
    <path class="fil14" d="M1102 231.02l-1.75 2.57 0 0c-1.17,1.76 -2.38,3.52 -3.58,5.31l-5.76 8.68 0 0 -4.11 6.17 0 0 -1.04 1.6c-1.56,2.39 -3.13,4.83 -4.71,7.3l-4.81 7.53 0 0c-3.19,5.02 -6.4,10.19 -9.68,15.55l-2.47 4.05c-3.93,6.44 -7.99,13.19 -12.07,20.1l-4.69 8.02c-2.37,4.05 -4.77,8.19 -7.18,12.43 -1.43,2.5 -2.87,5.04 -4.32,7.61l-7.14 12.73 0 0 -2.19 3.97 0 0 -4.44 8.08c-1.49,2.73 -2.99,5.48 -4.5,8.26 -0.1,0.15 -0.2,0.29 -0.23,0.45l12.93 0.44c-0.22,-0.12 -0.46,-0.15 -0.77,-0.27 15.52,0.34 37.41,-8.07 52.51,-20.21 6.95,-5.6 13.52,-12.38 19.88,-20.56 4.77,-6.08 9.32,-12.91 13.92,-20.63 3.97,-6.68 7.95,-14 11.86,-21.98 -3.74,1.31 -7.97,2.06 -12.53,2.36l-2.44 0.13 0 0c-0.54,0.03 -1.08,0.02 -1.64,0.02l-0.87 0.01 0 0c15.02,-3.36 25.49,-12.56 33.86,-24.56 -4.08,1.98 -10.65,4.41 -18.16,5 -0.98,0.1 -2.03,0.1 -3.08,0.11 -0.16,-0.02 -0.32,-0.01 -0.51,-0.01l-0.3 -0.02c5.2,-1.33 9.72,-3.01 13.76,-5.24 0.58,-0.29 1.13,-0.62 1.67,-0.97l0.81 -0.52c1.24,-0.78 2.42,-1.66 3.6,-2.54l2.2 -1.78 0 0c1.67,-1.45 3.27,-3.07 4.75,-4.87l0.94 -1.09c0.15,-0.18 0.29,-0.37 0.43,-0.56l1.19 -1.68c0.19,-0.27 0.37,-0.54 0.55,-0.81 2.24,-3.2 4.12,-6.15 5.72,-8.82l0.67 -1.13c0.86,-1.49 1.63,-2.83 2.3,-4.1l0.78 -1.5 0 0 1.19 -2.41c0.24,-0.5 0.47,-0.98 0.66,-1.43l0.35 -0.81 0 0 0.59 -1.46c0.17,-0.45 0.32,-0.87 0.45,-1.24l0.17 -0.53c-0.35,0.22 -0.74,0.43 -1.17,0.61l-0.66 0.25c-4.64,1.9 -12.33,3.19 -18.41,3.43 -0.08,-0.01 -0.16,-0.02 -0.25,0.04l-1.21 0.01c-0.21,0.01 -0.43,0.02 -0.65,0.04l0.34 -0.11 0 0 -40.6 -1.52c0.03,0.33 -0.07,0.47 -0.16,0.54z"/>
    <path class="fil15" d="M1158.86 156.9c-1.45,1.64 -2.95,3.37 -4.5,5.17l-3.16 3.72 0 0 -3.28 3.92 0 0 -3.97 4.79c-0.08,0.11 -0.17,0.22 -0.24,0.35 -2.26,2.77 -4.59,5.68 -6.98,8.74l-3.65 4.7c-0.62,0.8 -1.24,1.62 -1.87,2.44l-5.24 6.93 0 0 -3.43 4.59c-1.73,2.34 -3.5,4.75 -5.31,7.24l-1.81 2.52c-1.82,2.5 -3.65,5.07 -5.51,7.71l-3.76 5.38 0 0 -3.87 5.56 0 0 40.61 1.52c12.4,-3.67 18.32,-7.72 24.41,-14.01 1.22,-1.27 2.44,-2.64 3.68,-4.06l1.24 -1.43c5.05,-5.8 10.11,-12.24 14.69,-18.74 4.47,-6.28 8.54,-12.54 11.71,-18.21 2.07,-3.65 3.78,-7.03 5.11,-10.06 1.12,-2.66 2.05,-5.19 2.9,-7.64l-4.21 0.07 0 0 -4.33 0.05 0 0 -4.41 0.01 0 0 -4.45 -0.01c-0.74,-0.01 -1.48,-0.01 -2.22,-0.02l-4.42 -0.06 0 0 -4.36 -0.1c-0.72,-0.02 -1.43,-0.04 -2.14,-0.06l-4.18 -0.15c-0.68,-0.03 -1.36,-0.06 -2.03,-0.09l-3.91 -0.21c-2.54,-0.15 -4.92,-0.33 -7.09,-0.54z"/>
   </g>
  </g>
 </g>
</svg>
