<?xml version="1.0" encoding="UTF-8"?>
<!DOCTYPE svg PUBLIC "-//W3C//DTD SVG 1.1//EN" "http://www.w3.org/Graphics/SVG/1.1/DTD/svg11.dtd">
<!-- Creator: CorelDRAW 2021 (64 Bit) -->
<svg xmlns="http://www.w3.org/2000/svg" xml:space="preserve" width="188.849mm" height="72.0584mm" version="1.1" style="shape-rendering:geometricPrecision; text-rendering:geometricPrecision; image-rendering:optimizeQuality; fill-rule:evenodd; clip-rule:evenodd"
viewBox="0 0 3316.18 1265.35"
 xmlns:xlink="http://www.w3.org/1999/xlink"
 xmlns:xodm="http://www.corel.com/coreldraw/odm/2003">
 <defs>
  <style type="text/css">
   <![CDATA[
    .fil0 {fill:#6DB33F}
   ]]>
  </style>
 </defs>
 <g id="Camada_x0020_1">
  <metadata id="CorelCorpID_0Corel-Layer"/>
  <path class="fil0" d="M563.6 693.45l0 -301.35c0,-12.98 4.73,-15.44 9.98,-23.69 5.56,-8.73 10.42,-9.98 21.07,-13.59 12.58,-4.26 15.43,-2.41 26.36,1.16 11.6,3.78 12.58,7.07 19.23,15.5 2.79,3.53 5.51,4.97 6.88,9.91 3.13,11.26 1.62,105.52 1.62,119.38 0,23.96 1.76,189.2 -1.38,204.89 -1.56,7.78 -16.81,23.6 -25.66,25.73 -11.18,2.7 -30.27,4.28 -39.37,-4.01 -7.23,-6.58 -9.28,-7.52 -14.91,-16.39 -2.4,-3.78 -3.81,-11.64 -3.81,-17.54zm1805.88 -585.9c16.97,0 18.29,1.59 30.87,-6.1 6.19,-3.78 10.21,-4.44 14.73,-9.91 9.63,-11.64 13.77,-18.23 13.77,-37.76 0,-14 -1.37,-22.35 -8.69,-30.53 -2.87,-3.21 -3.11,-5.55 -5.69,-7.76l-16.21 -10.68c-4.63,-2.03 -16.02,-4.81 -22.08,-4.81 -20.83,0 -39.72,13.1 -48.21,29.08 -3.61,6.8 -4.77,12.44 -5.17,21.54 -0.86,20.05 3.59,26.72 12.39,38.54 4.9,6.58 23.35,18.38 34.27,18.38zm-45.93 103.06l0 347.29c0,12.62 8.39,26.94 15.67,32.51 13.18,10.09 1.59,2.37 15.34,9.31 9.33,4.71 10.59,5.24 22.77,5.24 17.89,0 46.41,-16.53 49.97,-37.42 1.45,-8.5 2.68,-18.64 2.68,-27.55l0 -308.07c0,-9.9 -0.99,-18.4 -2.16,-26.97 -2.13,-15.67 -6.19,-17.69 -14.31,-24.76 -4.68,-4.07 -4.09,-5.92 -10.56,-8.62 -15.7,-6.56 -3.24,-7.99 -33.46,-7.99 -11.04,0 -12.88,3.06 -16.49,5.77 -4.21,3.16 -13.69,4.21 -24.63,22.56 -3.3,5.53 -4.81,10.3 -4.81,18.72zm66.1 715.85c-16.86,0.38 -31.27,7.56 -38.33,21.04 -7.56,14.44 -6.48,4.87 -6.48,28.25 0,4.61 4.05,7.98 8.62,17.15 1.68,3.37 10.27,10.04 14.2,11.56 21.91,8.47 24.25,-2.32 24.23,27.31 -0.02,19.22 -2.53,162.02 4.48,177.08 1.95,4.2 2.81,3.9 4.26,9.11 4.12,14.83 23.54,32.35 29.67,35.31 3.81,1.84 6.39,1.54 18.33,7.44 13.53,6.69 80.56,5.4 91.92,0.38 3.99,-1.76 6.73,-3.81 10.65,-5.03 4.85,-1.51 7.85,-1.37 11.92,-3.77 17.65,-10.4 33.16,-39.52 17.35,-61.81 -6.88,-9.7 1.12,-3.84 -15.42,-15.81 -7.78,-5.63 -16.23,-4.57 -25.32,-4.03 -6.39,0.38 -8.53,0.49 -14.36,1.35 -23.9,3.54 -28.19,4.35 -28.19,-32.67l0 -117.63c0,-4.82 1.31,-6.07 2.24,-10.08 7.31,-0.61 38.41,-6.7 42.15,-9.38l13.42 -12.35c7.49,-11.82 8.95,-41.63 -11.05,-56.39 -7.02,-5.18 -32.09,-7.86 -44.51,-8.14 -5.34,-22.92 1.1,-66.02 -4.96,-77.93 -1.84,-3.61 -2.89,-3.13 -4.58,-5.5 -4.41,-6.17 1.16,-4.79 -7.88,-12.28 -3.56,-2.95 -2.12,-3.11 -5.27,-5.93 -7.13,-6.39 -22.52,-11.5 -35.55,-11.5 -11.28,0 -32.64,10.3 -39.82,21.78 -2.12,3.39 -1.11,3.13 -3.62,6.57 -13.32,18.25 -1.1,55.91 -8.09,85.92zm-351.77 -701.29l0 319.28c0,7.29 2.62,16.2 4.45,23.56 2.73,10.97 14.36,26.31 25.64,30.38 16.52,5.95 9.13,6.56 29.29,6.56 3.7,0 22.54,-7.59 26.17,-9.68 4.22,-2.44 6.01,-5.4 9.44,-8.48 6.46,-5.79 3.58,-2.87 7.1,-11.95 3.23,-8.34 7.84,-7.99 7.72,-29.25 -0.2,-34.06 -2.16,-168.68 3.15,-180.57 0.76,-1.71 2.61,-3.86 3.53,-5.43 4.67,-7.94 3.62,-15.13 7.05,-19.83 9.98,-13.64 2.85,-6.79 14.41,-22.56 2.42,-3.3 2.46,-4.99 6.19,-8.47 0.18,-0.17 0.44,-0.38 0.62,-0.54 6.01,-5.39 5.46,-7.47 10.58,-10.56 3.12,-1.88 2.54,-1.08 5.16,-3.79 0.91,-0.94 1.34,-1.63 2.06,-2.42 3.83,-4.23 4.01,-2.51 8.25,-5.27 2.58,-1.68 3.12,-2.41 5.68,-4.34 5.26,-3.99 6.13,-3.06 12.39,-5.53 13.76,-5.45 -0.43,-5.3 27.01,-8.84 6.89,-0.89 9.14,-0.71 14.27,-4.78 2.27,-1.8 -0.5,-0.16 2.59,-1.89 9.79,-5.48 9.75,-2.2 17.97,-14.52 8.09,-12.13 9.18,-15.09 9.18,-32.27 0,-16.6 -2.98,-22.64 -13.31,-34.86 -5.23,-6.18 -8.64,-6.21 -18.52,-12.85 -7.11,-4.78 -36.57,-3.33 -46.38,-0.24 -4.89,1.54 -5.19,3.38 -10.93,4.75 -5.05,1.21 -8.11,1.41 -12.39,3.29 -5.31,2.33 -3.96,4.07 -9.19,6.5 -3.38,1.57 -7.5,2.35 -10.95,4.74 -6.3,4.37 -23.23,16.12 -25.09,23.08 -3.5,-2.34 -2.67,-2.35 -5.04,-6.05 -2.72,-4.24 -3.48,-3.17 -5.4,-7.04 -5.34,-10.73 0.86,-6.13 -9.27,-14.25 -7.05,-5.66 2.68,-2.81 -13.44,-10.08 -14.43,-6.51 -1.1,-7.39 -31.82,-7.39 -9.82,0 -13.34,3.5 -19.81,7.08 -14.36,7.95 -4.61,2.31 -18.32,16.38l-2.75 3.84c-2.05,3.54 -2.52,5.62 -3.47,10.14 -1.74,8.23 -3.82,14.92 -3.82,24.18zm117.63 955.59c-10.49,0 -13.97,-0.01 -21.81,-3.95 -6.44,-3.23 -20.87,-12.97 -24.16,-19.53 -0.91,-1.81 -1.4,-3.2 -2.54,-5.3 -2.71,-4.99 -6.44,-5.99 -8.66,-18.22l-4.07 -21.7c-2.87,-10.44 -1.49,-24.34 -1.49,-35.48 0,-5.92 6.83,-38.62 9.89,-42.76 4.74,-6.42 2.22,-0.5 6.57,-11.35 3.25,-8.12 1.79,-4.44 8.67,-8.24 4.73,-2.61 4.57,-5.06 10.03,-7.89 2.66,-1.38 3.87,-1.82 6.2,-2.69 13.52,-5.06 18.32,-10.3 35.95,-3.24 4.58,1.83 8.97,3.19 13.79,5.26 6.31,2.71 5.55,4.29 10.04,7.88 10.56,8.45 3.98,0.49 12.77,15.24 6.2,10.42 5.06,7.66 7.95,20.05 1.48,6.31 8.09,21.2 8.09,28.88l0 25.77c0,6.81 -6.3,20.07 -8.09,27.86 -4.4,19.12 -4.03,10.89 -11.32,24.42 -4.59,8.52 -22.85,22.18 -30.19,23.59 -5.57,1.07 -11.53,1.42 -17.62,1.42zm-17.92 84.02c15.56,0 44.66,0.94 58.94,-1.55 5.44,-0.95 9.69,-3.58 14.65,-5.52 9.49,-3.72 12.73,-1.68 23.17,-7.08 5.57,-2.89 29.91,-17.57 32.03,-20.62 6.14,-8.86 5.54,-1.88 10.77,-9.4 6.6,-9.51 3.65,-1.52 10.57,-10.71 3.45,-4.58 6.21,-5.72 8.98,-11.18 2.95,-5.83 4.44,-7.41 7.85,-12.32l12.95 -28.5c1.65,-5.91 2.45,-10.24 4.04,-16.13 8.59,-31.9 2.68,-8.77 6.2,-35.08 3.17,-23.66 -0.7,-22.19 -0.85,-37.9 -0.24,-24.1 -2.53,-17.24 -5.84,-34.49 -2.2,-11.46 -2.89,-14.29 -8.48,-22.89 -5.67,-8.71 -1.15,-10.39 -18.27,-33.26l-15.21 -16.16c-2.91,-2.61 -1.98,-2.95 -4.55,-5.54l-16.85 -13.39c-6.53,-4.23 -0.32,2.02 -12.66,-7.5 -6.62,-5.11 -9.27,-3.61 -21.53,-9.84 -6.64,-3.38 -7.84,-3.42 -15.99,-5.29 -29.13,-6.71 -36.19,-6.28 -66.54,-6.28 -5.06,0 -42.81,7 -50.06,10.44 -15.4,7.29 -18.93,6.08 -27.99,13.46 -6.16,5.02 -4.38,1.65 -12.43,8.85 -1.54,1.37 -17.52,12.4 -22.67,18.78l-13.01 17.39c-6.53,15.88 -3.39,4.97 -8.3,12.83 -1.41,2.26 -1.84,3.94 -2.67,7.42 -2.51,10.53 -4.33,6.76 -7.43,13.86l-11.2 50.48 1.82 57.56c1.33,6.19 2.65,10.19 4.65,15.52 2.12,5.66 2.05,12 3.6,17.69 1.81,6.63 4.9,7.89 7.09,13.07 3.6,8.5 0.26,7.12 7.28,14.15 3.6,3.61 2.5,1.54 3.88,6.06 3.53,11.51 2.46,7.71 7.74,12.43 3.09,2.76 2.34,3.74 4.31,6.89 2.64,4.22 2.28,2.16 5.56,4.53 6.27,4.52 -1.78,2.83 10.5,9.66 3.42,1.9 3.46,2.57 6.05,5.15 4.66,4.65 7.9,4.16 12.32,7.84 11.67,9.71 2.84,2.62 13.01,8.27 4,2.22 5.42,4.9 12.89,7.28 5.83,1.86 10.7,1.88 16.84,4.44 13.54,5.64 16.99,6.59 34.86,6.59zm-361.85 -84.02c-39.52,0 -62.73,-39.7 -62.73,-78.42l0 -21.29c0,-112.49 128.83,-108.55 128.83,3.36l0 8.96c0,44.58 -21.33,87.38 -66.1,87.38zm-170.28 -106.43l0 29.13c0,41.26 23.44,92.25 44.67,111.05 18.11,16.04 24.62,19.79 45.27,33.16 11.35,7.35 42.26,17.11 61.31,17.11l41.45 0c18.01,0 50.86,-10.62 62.01,-17.53 21.74,-13.49 27.79,-17.94 45.76,-34.9 21.09,-19.92 43.47,-75.87 43.47,-117.85 0,-52.21 -17.73,-99.36 -43.4,-125.77 -13.17,-13.55 -28.17,-30.03 -48.03,-37.11 -49.72,-17.73 -41.93,-17.49 -94.54,-17.49 -7.71,0 -26.44,3.86 -33.91,5.3 -15.95,3.09 -17.97,7.01 -29.7,10.63 -20.67,6.37 -33.18,19.78 -47.33,32.21 -22.7,19.94 -47.02,69.22 -47.02,112.06zm-378.65 -786.43c0,12.38 -1.13,30.52 3.91,40.9 4.29,8.83 6.12,17.8 11.71,26.38 5.35,8.21 10.16,15.22 17.98,21.24l37 24.71c6.31,5.59 15.05,5.15 21.58,9.67 7.19,4.99 15.38,4.94 23.82,7.56 8.35,2.6 13,6.51 22.26,7.99 17.25,2.76 11.32,3.14 23.86,7.51 7.49,2.61 17.3,2.89 23.9,6.34 4.65,2.43 4.53,3.91 9.87,5.82 3.55,1.28 7.75,2.3 10.73,4.96 13.98,12.51 19.25,22.14 12.85,41.81 -2.14,6.58 -0.95,5.62 -6.39,9.29 -5.72,3.86 -3.33,6.15 -7.51,8.17 -7,3.39 -16.92,3.71 -24.72,6.65 -18.84,7.1 -37.32,-1.42 -55.98,-4.34 -26.93,-4.21 -11.6,-2.12 -25.32,-8.29 -5.37,-2.41 -11.97,-2.4 -16.39,-6.01 -2.77,-2.27 -3.7,-2.72 -6.93,-4.28 -7.67,-3.7 -6.82,-2.28 -14.8,-7.61 -5.09,-3.4 -10.06,-4.17 -14.71,-7.69 -8.93,-6.76 -16.21,-5.94 -27.66,-5.94 -8.09,0 -21.87,7.22 -27.22,13.11 -2.75,3.03 -3.94,7.09 -6.4,10.4 -6.36,8.57 -6.57,22.76 -4.02,33.17 1.28,5.23 8.56,15.86 12.51,18.86 3.9,2.95 4.85,5.49 9.13,7.67 8.36,4.26 9.94,7.06 19.67,11.7 15.5,7.39 26.19,15.45 43.62,20.23 9.02,2.48 14.95,6.55 24.39,8.1 8.85,1.45 19.65,2.56 28.16,4.32 29.69,6.14 27.04,4.62 58.12,4.62 6.81,0 15.36,-0.92 20.77,-2.75 11.21,-3.78 28.6,-3.41 38.98,-9.19l17.11 -7.54c6.19,-2.83 24.04,-15.83 28.19,-19.99 4.83,-4.85 10.38,-9.62 13.69,-15.44 2.62,-4.6 5.92,-5.68 8.04,-11 2.06,-5.18 5.98,-10.02 8.44,-15.08 2.84,-5.87 2.49,-12.53 5.55,-19.04 3.61,-7.69 3.04,-9.52 4.42,-19.18 1.1,-7.69 0.45,-16.24 0.48,-24.2 0.02,-6.13 -1.04,-16.08 -2.73,-20.79 -1.48,-4.12 -2.77,-4.46 -4.02,-8.3 -3.32,-10.17 -6.38,-19.59 -13.22,-28.09l-1.65 -1.69c-1.34,-1.2 -1.51,-1.16 -1.95,-1.52 -4.61,-3.77 -2.32,-3.24 -5.42,-6.97l-12.25 -11.28c-5.02,-3.33 -8.78,-7.43 -14.42,-10.22 -5.96,-2.96 -9.28,-6.11 -14.95,-8.58 -5.85,-2.55 -20.29,-10.21 -24.71,-11.14 -12.63,-2.67 -19.26,-8.46 -27.12,-9.85 -24.64,-4.36 -11.49,-2.22 -27.01,-8.84 -9.34,-3.98 -18,-3.29 -26.97,-8.89 -3.02,-1.89 -5.19,-2.17 -8.9,-3.31l-2.47 -0.82c-4.96,-1.95 -7.91,-5.11 -12.67,-7.6 -8.33,-4.36 -8.27,-4.66 -14.7,-9.95 -3.21,-2.64 -7.82,-10.85 -8.56,-14.92 -0.95,-5.19 2.48,-14.4 5,-18.92 2.29,-4.09 5.32,-6.48 8.86,-9.28 0.94,-0.74 2.15,-1.51 3.49,-2.15 3,-1.43 5.56,-1.84 8.81,-3.37 12.58,-5.93 19.54,-5.24 33.97,-5.24 15.31,0 28.24,6.05 43.78,9.05 9.38,1.81 10.07,5.26 25.21,9.35l9.39 4.05c5.03,4.11 9.31,4.97 15.92,6.67 21.44,5.5 5.65,6.45 31.2,0.04 8.27,-2.08 8.08,-4.48 13.59,-8.67 16.37,-12.47 20.93,-35.07 9.29,-52.33 -5.98,-8.86 -1.76,-8.78 -11.69,-15.2 -5.46,-3.53 -9.83,-8.04 -16.65,-10.24 -3.9,-1.26 -6.32,-1.06 -9.95,-3.5 -12.3,-8.29 -18.86,-5.28 -29.47,-11.98 -8.93,-5.64 -22.82,-3.94 -32.77,-7.56 -3.66,-1.33 -6.52,-2.6 -10.02,-3.43 -17.51,-4.17 -72.3,-4.69 -87.84,2.38 -7.94,3.61 -18.25,2.88 -25.45,7.04 -5.6,3.23 -2.46,3.68 -9.88,5.8 -11.48,3.29 -9.03,4.57 -16.04,8.61 -12.11,6.97 -2.2,0.4 -14.65,10l-11.84 11.68c-0.17,0.16 -0.4,0.4 -0.56,0.56l-1.1 1.14c-6.33,6.7 -10.57,14.92 -15.63,22.46 -1.55,2.32 -12.18,31.42 -12.73,36.56 -0.63,5.82 -1.19,9.02 -1.19,15.62zm116.51 801l8.35 -48.79c1.4,-4.55 5.64,-7.7 7.91,-12.26 5.21,-10.47 3.45,-8.95 18.79,-20.42 1.59,-1.19 23.63,-10.4 28.82,-10.4 6.15,0 24.68,6.18 29.46,10.87 27.87,27.39 13.04,14.67 23.26,31.64 9.9,16.44 5.84,64.34 4.38,84.03 -0.49,6.62 -3.14,7.73 -5.59,12.35 -1.62,3.06 -4.22,10.74 -6.07,12.97 -2.09,2.53 -1.96,1.16 -4.64,4.32 -1.18,1.39 -2.82,4.08 -3.78,5.18 -3,3.46 -1.64,1.22 -5.15,3.81 -3.88,2.87 -1.57,2.62 -4.76,5.32 -2.95,2.51 -23.85,7.63 -29.12,7.32 -3.52,-0.21 -10.38,-2.25 -14.69,-3.13 -15.55,-3.16 -23.72,-11.62 -31.95,-24.06 -10.58,-15.99 -5.41,-3.63 -10.07,-26.9 -1.11,-5.54 -2.5,-9.16 -2.85,-15.08 -0.41,-7 -2.28,-11.33 -2.28,-16.77zm-107.55 -201.65l0 291.27c0,5.22 -0.11,10.53 -0.04,15.73 0.08,6.37 1.21,7.75 1.2,14.49 -0.02,19.81 1.5,22.29 10.66,37.5 4.35,7.22 20.87,18.55 29.63,18.55 22.46,0 24.55,2.77 41.63,-9.9 2.02,-1.5 3.79,-3.59 5.7,-5.5 10.19,-10.19 8.57,-16.91 17.11,-14.48l18.8 13.85c7.78,6.44 9.02,4.91 15.49,6.92 5.75,1.79 10.02,4.53 15.9,6.5 11.42,3.83 59.02,3.79 70.4,0.56 5.08,-1.45 8.25,-3.86 13.33,-5.82 4.66,-1.8 10.29,-2.44 14.52,-4.42 10.63,-4.97 18.33,-13.05 22.19,-15.89 2.2,-1.62 3.48,-1.72 5.67,-3.47 5.22,-4.16 -0.26,-2.52 9.4,-9.47 4.17,-3 3.13,-4.33 5.95,-7.49 0.15,-0.17 0.39,-0.41 0.55,-0.57 0.11,-0.11 1.87,-1.58 2.4,-2.08 2.02,-1.88 2.98,-3.26 4.45,-5.65l7.64 -11.4c2.37,-5.15 1.94,-8.9 5.84,-13.2 9.09,-10.03 3.14,-15.99 10.72,-27.37 7.83,-11.77 6.34,-38.54 7.75,-49.39 0.4,-3.07 0.11,-5.59 0.44,-8.52 0.35,-3 2.11,-5.97 2.11,-7.97 0,-6.87 -1.68,-10.93 -2.15,-16.89 -1.17,-14.96 -1.45,-41.17 -6.12,-52.13 -2.49,-5.85 -4.87,-5.36 -6.19,-12.85 -1.03,-5.87 -1.06,-10.72 -4.09,-14.96 -5.85,-8.18 -0.89,2.24 -6.85,-12.19l-11.92 -17.21c-2.3,-2.34 -2.9,-1.5 -5.46,-4.62 -1.09,-1.34 -2.4,-4 -3.63,-5.33 -2.61,-2.8 -2.95,-1.48 -5.73,-4.35 -6.83,-7.04 -0.03,-2.1 -10.11,-8.94 -5.38,-3.65 -4.31,-6.08 -11.51,-8.65 -29.71,-10.62 -5.55,-7.03 -43.59,-14.67 -23.35,-4.69 -19.29,-3.09 -45.09,-3.09 -4.42,0 -6.02,1.13 -9.18,2.02 -18.43,5.2 -14.75,-1.03 -37.12,11.05 -8.15,4.4 -8.95,3.31 -15.94,8.71 -3.85,2.98 -3.08,2.76 -8.34,3.98 -2.61,-11.19 -0.7,-71.27 -2.3,-94.05 -0.75,-10.67 -4.64,-13.4 -6.6,-16.93 -4.12,-7.41 -6.98,-13.64 -16.91,-20.05l-7.36 -4.96c-4.3,-2.43 -15.16,-2.93 -21.72,-2.93 -14.53,0 -17.2,1.35 -26.21,7.4 -3.61,2.43 -7.32,3.9 -9.97,6.84 -7.49,8.33 -14.31,25.97 -14.27,38.38 0.04,12.47 -1.09,19.31 -1.09,33.65zm1230.06 -674.41l0 343.92c0,5.89 3.34,4.95 6.47,18.17 2.32,9.8 5.74,8.17 10.12,14.53 4.61,6.68 6.95,7.09 14.93,9.72 11.05,3.64 7.36,5.75 23.37,5.75 10.67,0 15.89,-3.78 23.54,-6.7 23.04,-8.8 29.11,-34.93 29.11,-61.63 -0.01,-40.33 0,-80.66 0,-120.99 0,-19.84 -0.67,-40.83 -0.03,-60.52 0.55,-16.74 4.15,-35.04 11.6,-48.9 5.35,-9.96 -0.47,-4.7 11.69,-18.55 7.91,-9.01 9.22,-7.96 16.54,-13.7 4.99,-3.91 0.94,-3.8 8.98,-5.59 5.24,-1.17 8.13,-1.63 12.72,-2.97 21.52,-6.29 25.69,-8.34 49.4,-1 8.58,2.66 17.54,3.24 22.55,7.7 12.69,11.3 6.12,2.38 15.58,14.67 6.22,8.09 7.03,4.7 9.49,13.12 3.66,12.5 5.03,7.57 7.33,14.86 5.85,18.53 4.43,82.14 4.43,100.87 0,39.96 0,79.91 0,119.87 0,40.17 0.1,17.6 5.86,37.83 1.21,4.26 1.62,7.5 4.85,10.84 8.32,8.6 9.07,10.46 16.81,13.44 15.51,5.97 11.25,7.35 29.62,7.35 9.45,0 11.08,-3.07 20.6,-6.29 11.7,-3.96 23.2,-15.72 25.38,-28.39 1.12,-6.5 3.32,-16.92 3.32,-23.57l0 -219.57c0,-10.17 -1.86,-24.64 -3.04,-33.93 -1.87,-14.73 0.42,-20.8 -6.37,-31.72 -3.12,-5.02 -3.26,-8.7 -4.99,-14.05l-21.79 -35.35c-20.98,-22.94 -12.14,-11.92 -29.75,-26.1 -3.93,-3.17 -9.25,-3.51 -13.77,-5.44 -5.98,-2.56 -3.94,-5.14 -11.71,-7.34 -5.4,-1.52 -10.93,-1.43 -15.85,-3.2 -24.96,-8.95 -31.79,-6.44 -61.9,-6.44 -14.64,0 -18.96,2.44 -29.63,6.23 -4.91,1.74 -9.51,1.66 -14.76,3.16 -9.44,2.71 -8.28,5.88 -15.37,8.32 -4.66,1.61 -4.57,0.54 -9.38,3.74 -2.75,1.83 -7.05,5.41 -11.32,7.88 -7.31,4.22 -4.89,4.68 -9.65,8.27 -3.99,3 -8.11,3.89 -9.59,9.45 -12.06,0 -9.57,-5.18 -12.17,-13.6 -2.51,-8.15 -5.41,-9.87 -10.54,-15.23 -8.51,-8.88 -2.51,-5.11 -14.57,-11.2 -14.76,-7.45 -7.22,-7.03 -29.94,-7.03 -8.4,0 -12.69,2.34 -17.77,5.76 -3.39,2.28 -4.85,1.93 -8.43,3.89 -4.93,2.71 -2.83,2.79 -5.67,6.66 -4.96,6.77 -7.12,1.88 -10.18,14.46 -2.61,10.68 -6.12,9.84 -6.12,18.52zm-787.55 169.16c0,-5.6 1.99,-35.24 3.98,-39.71 3.67,-8.25 1.57,2.88 8.28,-20.85 1.12,-3.96 1.27,-3.57 3.86,-6.22 0.48,-0.5 1.89,-1.99 2.15,-2.33l5.55 -9.01c2.57,-3.43 4.72,-5.4 7.09,-8.6 8.38,-11.29 3.48,-2.72 11.84,-12.81 4.79,-5.78 6.57,-4.04 10.75,-8.29 9.85,-10.03 6.82,-2.85 19.5,-9.62 20.1,-10.73 49.89,-9.64 72.19,-5.34 7.72,1.49 5.15,0.57 10.36,4.2 10.36,7.22 12.14,1.11 20.08,10.17 3.71,4.24 4.22,3.13 8.27,6.47 3.36,2.77 2.2,3.86 7.22,7.18 6.87,4.54 3.09,2.69 7.49,8.19 2.71,3.39 4.37,3.54 6.79,7.78 2.09,3.67 2.87,5.93 5.56,9 4.49,5.11 3.33,2.11 5.06,9.5 6.19,26.35 11.4,7.15 11.4,64.78 0,9.61 -1.03,28.97 -2.98,38.47 -1.84,8.97 -5.23,4.69 -8.13,19.88 -2.81,14.76 -2.66,4.03 -10.16,18.97 -0.97,1.94 -1.11,2.37 -2.49,4.16l-16 15.26c-0.16,0.16 -0.37,0.41 -0.53,0.58 -11.52,12.17 -7.62,5.12 -18.2,14.47 -5.8,5.12 -10.63,2.05 -20.71,7.3 -6.1,3.17 -5.78,6.38 -22.75,6.38 -12.44,0 -19.29,0.5 -31.36,-1.13 -11.18,-1.51 -4.14,-3.99 -20.63,-8.49 -17.17,-4.69 -6.58,-3.52 -20.09,-10.16 -8.35,-4.11 -24.51,-21.31 -30.05,-29.33 -2.15,-3.11 -3.06,-6.51 -5.23,-9.34 -3.31,-4.33 -3.93,-2.34 -5.84,-8.73 -1.11,-3.72 -1.97,-8.54 -3.65,-12.03 -1.98,-4.1 -3.95,-4.87 -5.22,-9.35l-3.41 -41.41zm3.36 -156.84c-1.68,-7.2 -1.55,-17.33 -3.03,-23.78 -1.37,-5.94 -2.02,-4.78 -5.09,-8.43 -3.64,-4.33 -2.94,-8.16 -7.45,-11.46 -6.6,-4.83 -3.71,-6.14 -12.42,-10.13 -4.29,-1.96 -4.17,-3.25 -8.18,-5.26 -7.52,-3.78 -29.02,-4.06 -36.69,-0.37 -3.92,1.89 -3.86,3.04 -7.49,4.84 -4.11,2.03 -4.52,1.23 -8.11,4.21l-5.93 6.39c-10.37,10.94 -13.16,20.09 -13.16,36.13l0 457.07c0,5.98 1.06,13.78 2.72,18.57 0.75,2.16 2.16,4.92 3.37,6.71 1.96,2.91 2.48,3.41 4.47,6.74 3.68,6.14 17,15.72 24.26,18.31 6.45,2.31 30.85,2.7 37.63,-0.3 3.9,-1.72 2.98,-2.13 5.81,-4.27 6.46,-4.86 14.06,-6.7 17.64,-14.85 6.94,-15.77 8.64,-9.74 10.47,-32.1 1.99,-24.3 -4.19,-115.35 1.18,-126.53l0.95 0.12c3.92,1.7 12.64,11.26 15.8,14.49 5.91,6.05 13.82,11.61 20.97,16.14 9.07,5.75 7.13,6.99 21.24,12.21 12.23,4.53 6.44,5.09 26.82,9.03 3.35,0.65 6.25,0.99 9.15,2.05 16.19,5.92 31.79,5.32 49.57,5.32 18.45,0 25.79,-5.1 42.1,-8.31 7.13,-1.4 14.35,-2.15 19.49,-5.16l17.91 -7.85 30 -20.42c3.02,-2.49 3.1,-4.05 6.2,-6.22 8.65,-6.05 12.89,-10.16 19.38,-18.54 2.68,-3.46 3.72,-2.79 6.06,-6.33l10.2 -14.44c4.53,-7.91 3.82,-8.09 9.51,-16.25l8.56 -16.08c1.82,-2.94 2.7,-5.81 3.78,-9.67 4.21,-15.16 8.98,-22.28 10.44,-39.83 0.72,-8.67 1.31,-14.92 2.81,-23.09 2.12,-11.57 2.89,-24 2.89,-36.32 0,-17.14 -4.57,-29.26 -5.6,-45.87 -1.93,-30.93 -4.56,-15.87 -10.56,-40.88l-39.56 -64.78c-6.68,-6.73 -18.81,-20.81 -26.45,-25.09 -6.21,-3.48 -4.88,-4.68 -15.69,-10.07 -4.76,-2.37 -3.77,-2.4 -7.26,-5.07 -3.53,-2.71 -4.83,-2.48 -9.56,-3.89 -9.46,-2.81 -8.22,-6.76 -16.84,-8.93 -9.91,-2.49 -11.54,-0.89 -20.46,-5.31 -10.52,-5.21 -22.29,-4.11 -33.82,-5.39 -15.93,-1.76 -43.17,-0.94 -56.92,3.9 -8.88,3.12 -7.61,4.09 -18.42,6.22 -4.22,0.83 -5.9,1.21 -9.1,3.22 -12.26,7.69 -11.25,5.24 -17.11,8.65 -3.09,1.8 -3.71,3.74 -6.6,5.72 -2.77,1.9 -5.27,2.37 -8.05,4.27l-11.4 10.04c-0.17,0.17 -0.39,0.41 -0.55,0.57 -0.23,0.23 -0.88,0.88 -1.11,1.11 -6.18,6.02 -11.4,14.44 -18.76,19.19zm1417.15 286.79c-31.57,0 -27.29,-4.79 -36.79,-8.02 -3.64,-1.24 -8.78,-1.86 -12.55,-3.14 -6.93,-2.34 -1.17,-3.15 -13.55,-8.86 -3.24,-1.49 -1.97,-0.82 -4.85,-2.99 -3.74,-2.81 -4.11,-3.9 -8.11,-6.46 -4.3,-2.75 -4.37,-4.08 -7.68,-8 -2.96,-3.51 -4.17,-3.68 -6.96,-7.61 -2.79,-3.94 -2.53,-6.55 -5.2,-10.47 -11.06,-16.26 -3.73,-4.63 -9.76,-20.5 -5.57,-14.66 -4.17,-1.45 -6.9,-23.31 -1.64,-13.18 -2.78,-57.36 1.07,-69.06 1.08,-3.29 3.66,-6.9 5.19,-10.49 6.8,-15.95 0.06,-6.59 13.83,-30.98 3.12,-5.53 4.58,-4.31 7.52,-8.16 2.94,-3.86 0.72,-3.25 6.81,-7.76 4.97,-3.68 3.09,-4.34 7.98,-7.71l5.98 -4.1c0.17,-0.15 0.4,-0.39 0.56,-0.55 8.57,-8.43 11.78,-4.83 19,-10.13 1.91,-1.4 1.7,-1.53 2.43,-2.05 5.85,-4.08 32.73,-5.76 39.84,-5.97l27.44 2.48c4.02,0.66 8.81,1.53 11.64,2.93 3.81,1.89 4.88,3.92 9.94,5.74 19.48,7.01 8.1,4.55 19.01,11.23 7.5,4.59 3.68,3.66 7.42,7.15 1.07,1 3.76,2.31 4.79,3.05 3.96,2.82 1.1,0.11 3.39,4.44 3.5,6.62 4.16,3.78 7.21,7.36 1.76,2.06 3.13,7.29 5.14,10.53 1.8,2.9 5.12,6.03 6.2,8.37 1.43,3.1 2.08,8.48 3.39,12.29 3.06,8.9 5.94,4.53 7.44,22.81 2.91,35.32 3.09,20.38 0.06,56.01 -1.94,22.8 -3.81,10.53 -10.7,34.12 -2.15,7.35 -2.88,4.47 -6.12,9.56 -1.91,2.99 -2.53,6.68 -4.81,9.75 -2.57,3.46 -4.4,3.96 -7.3,8.38 -3.53,5.38 -2.75,3.53 -7.19,7.37l-8.9 6.78c-30.31,24.18 -20.11,10.65 -39.78,20.72 -7.96,4.07 -14.65,5.23 -26.13,5.23zm-36.97 92.98c51.33,0 23.85,-0.68 61.46,-6.87 16.05,-2.64 19.58,-7.18 33.1,-11.71 6.41,-2.15 8.33,-5.55 13.49,-8.92l27.97 -22.19c3.84,-0.81 -2.69,-1.12 1.37,0.01 2.5,0.69 1.57,0.91 1.83,1.28 2.33,3.31 -1.9,19.1 -4.74,22.68 -6.76,8.54 -7.25,13.3 -16.58,22.63l-12.21 10.19c-4.59,2.58 -3.55,1.41 -7.37,4.96 -5.02,4.67 -9.38,4.34 -15.55,6.85 -6.45,2.61 -7.33,5.72 -15.7,6.71 -16.76,1.99 -31.36,3.51 -48.02,3.51 -9.86,0 -54.48,-3.04 -60.06,-6.04l-11.77 -5.04c-3.82,-1.22 -10.33,-2.13 -13.28,-3.53l-11.23 -5.58c-5.13,-1.86 -7.5,-1.5 -12.04,-4.76 -3.4,-2.44 -6.26,-4.64 -10.79,-6.01 -8.27,-2.5 -19.12,-5.07 -27.26,-3.54 -15.19,2.86 -13.97,0.84 -24.19,9.51 -4.16,3.52 -5.52,3 -8.18,8.63 -6.17,13.06 -15.62,23.37 -5.15,43.46 12.99,24.94 24.03,21.13 39.12,30.51l14.88 6.23c2.63,1.05 5.55,1.66 8.35,2.85 3.37,1.43 4.3,2.62 8.39,4.04 5.4,1.87 11.86,3.45 17.29,5.19 4.2,1.34 3.49,1.72 7.77,3.25 3.65,1.3 6.01,1.5 10.36,2.14 14.05,2.08 24.74,3.2 38.32,6.33 22.65,5.21 63.55,4.19 86.63,0.94 7.29,-1.03 11.06,-2.54 18.61,-3.76 5.96,-0.97 13.9,-2.06 20.56,-2.97 7.92,-1.07 11.45,-1.82 17.67,-4.74 5.42,-2.55 10.48,-3.81 16.32,-6.09l56.39 -35.48c2.55,-2.47 4.09,-2.9 6.08,-5.12 1.7,-1.9 2.76,-4.58 4.61,-6.59l7.96 -8.85c0.53,-0.79 0.79,-1.22 1.4,-1.96 1.9,-2.28 0.24,-0.31 1.66,-1.71l12.98 -20.46c2.55,-5.05 3.6,-12.63 6.43,-17.27 7.86,-12.87 5.08,-24.23 10.62,-35.31 1.47,-2.94 1.89,-4.46 2.79,-8.4 4.9,-21.52 4.02,-43.35 4.02,-65.44l0 -277.83c0,-7.2 -0.68,-18.89 -2.57,-24.32l-10.37 -16.52c-4.35,-6.5 -9.26,-7.07 -15.38,-11.51 -7.13,-5.17 -17.25,-5.92 -27.69,-5.92 -10.66,0 -14.93,2.21 -21.5,6.51 -3.46,2.26 -6,2.83 -9.05,5.52 -8.9,7.85 -7.76,7.49 -12.21,16.91 -4.13,8.74 -6.83,6.09 -7.62,21.66 -0.29,5.74 0.16,8.41 -3.4,11.02 -0.7,-2.6 -13.12,-16.21 -15.4,-18.22 -2.61,-2.3 -4.28,-2.92 -6.75,-5.4l-11.32 -9.02c-0.34,-0.19 -2.15,-1.1 -2.22,-1.14 -6.69,-3.97 -4.5,-5.79 -14.61,-8.93 -6.61,-2.05 -8.91,-6 -15.33,-8.18 -6.71,-2.28 -11.23,-2.57 -17.64,-5.88 -17.26,-8.93 -83.47,-8.29 -100.09,-0.01 -10.14,5.05 -20.16,4.58 -27.5,10.59 -4.08,3.35 -11.72,4.13 -16.23,7.13l-9.24 6.6c-2.57,1.35 -5.76,2.51 -7.9,4.4l-39.38 37.95c-12.04,15.25 -27.78,39.81 -32.3,58.44 -0.8,3.29 -1.37,6.34 -2.68,9.65 -1.5,3.78 -2.89,5.34 -4.2,9.24 -4.15,12.28 -8.39,54.38 -9.39,68.91 -0.68,9.95 6.09,66.91 10.88,77.8 3.84,8.74 5.59,21.02 10.34,28.87l16.45 28.53c2.52,4.38 9.59,15.94 13.17,19.15 7.35,6.61 5.36,7.07 12.68,13.08 3.48,2.86 2.63,3.93 5.71,6.61 3.09,2.7 4.28,2.06 7.85,5.59 8.37,8.28 20.14,15 29.93,21.6 6.19,4.17 10.34,5.06 17.79,7.96 3.37,1.32 4.92,2.92 8.08,4.36 9.28,4.24 22.76,4.01 32.16,6.94 7.12,2.21 12.52,4.25 22.64,4.25zm-2129.64 87.38l-4.79 55.71c-1.74,13.68 -5.46,20.7 -8.46,32.99 -1.56,6.36 -1.6,10.24 -4.01,16.16 -2.25,5.54 -4.69,8.32 -6.01,14.16 -1.91,8.45 -1.93,8.94 -5.47,15.81l-6.45 13.72c-1.07,2.01 -2.41,4.26 -3.67,6.41 -1.94,3.33 -2.18,2.68 -4.09,5.99 -4.39,7.6 -9.58,14.95 -12.91,23.01 -1.36,3.28 -4.21,2.98 -7.29,8.33 -1.7,2.95 -1.46,3.7 -3.65,6.47l-36.42 39.59c-7.69,7.04 -15.39,16.52 -24.28,21.63l-19.13 14.64c-3.48,3.25 -7.54,4.02 -11.77,6.15 -1.4,0.7 -1.8,0.81 -2.89,1.6 -3.27,2.38 -2.26,3.11 -5.48,4.61 -1.08,0.5 -2.45,0.79 -4.24,1.36 -9.72,3.06 -9.43,7.26 -21.01,10.4 -7.28,1.97 -7.62,4.91 -12.61,7.38 -3.02,1.5 -12.57,2.67 -16.24,4.07 -5.09,1.94 -7.15,4.97 -13.61,6.4 -6.47,1.44 -11.74,1.81 -18.27,3 -5.88,1.07 -10.21,2.71 -15.83,4.5 -18.54,5.92 -100.99,5.08 -116.69,-0.45 -10.64,-3.75 -21.76,-4.77 -33.11,-7.22 -7.69,-1.66 -7.82,-4.2 -13.9,-6.27 -6.01,-2.04 -13.62,-2.82 -18.07,-6.59 -3.78,-3.21 -8.59,-4.45 -13.27,-5.61l-5.8 -2.2c-2.64,-1.59 -3.03,-2.93 -5.45,-4.46 -2.01,-1.27 -4.47,-2.03 -7.33,-2.94 -10.5,-3.34 -5.19,-4.75 -19.29,-10.96 -6,-2.64 -5.18,-5.58 -12.45,-8.82 -6.71,-2.99 -28.83,-23.03 -34.18,-28.39 -0.16,-0.16 -0.39,-0.4 -0.55,-0.56l-3.5 -3.38c-4.1,-3.38 -12.19,-11.37 -15.24,-16.15 -5.27,-8.28 -13.03,-14.06 -18.56,-21.77 -1.38,-1.93 -2.37,-4.42 -3.78,-6.29 -3.05,-4.03 -3.32,-1.46 -5.73,-5.47 -2.82,-4.69 -2.87,-7.91 -6.94,-13.23 -1.53,-2.01 -2.83,-3.7 -4.06,-6.02 -1.48,-2.81 -1.71,-4.66 -3.04,-7.05 -5.23,-9.38 -6.28,-9.1 -10.16,-20.09 -3.07,-8.69 -6.12,-10.99 -9.28,-22.09 -1.7,-5.97 -4.13,-8.91 -6.14,-13.92 -2.46,-6.15 -2.29,-9.46 -4.19,-16.08l-6.93 -17.55c-1.64,-5.26 -1.16,-10.25 -1.3,-15.67l-1.46 -18.7c-1.53,-11.68 -3.05,-26.05 -3.05,-39.52 0,-19.38 4.57,-37.34 4.46,-57.16 -0.07,-11.78 6.61,-24.62 10.1,-36.96l12.68 -34.37c2.14,-4.24 3.85,-5.92 5.43,-10.26 1.46,-4.02 2.16,-7.59 4.32,-11.36 2.18,-3.81 4.11,-5.01 6.1,-9.58 1.51,-3.46 2.66,-8.75 4.42,-11.26l3.87 -3.98c5.53,-7.02 12.99,-21.83 18.87,-27.06 3.35,-2.98 3.73,-5.95 6.88,-8.8 6.57,-5.95 8.73,-10.1 11.36,-12.16 4.87,-3.81 3.24,-3.59 7.34,-8.45 4.02,-4.77 12.71,-10.34 16.38,-14.88 1.39,-1.71 1.69,-2.9 3.5,-4.35 3.33,-2.66 6.17,-3.51 8.96,-6.72 1.61,-1.85 2.23,-2.61 4.18,-3.67 2.12,-1.14 9.2,-3.44 11.34,-4.32 16.23,-6.69 19.61,-3.72 34.61,3.15 5.43,2.49 4.18,3.95 7.61,8.07 4.15,5 4.58,1.19 6.3,9.38 4.38,20.88 1.05,28.56 -11.97,42.83 -6.9,7.56 -12.99,8.98 -22.54,21.08 -1.95,2.47 0.13,0.36 -2.13,2.24l-17.23 17.67c-2.63,3.2 -3.97,3.24 -6.49,6.96l-5.83 7.44c-0.15,0.17 -0.39,0.4 -0.54,0.58 -2.93,3.53 -4.39,8.34 -7.47,11.75 -2.54,2.81 -2.42,1.96 -4.41,5.67 -1.58,2.94 -1.97,5.08 -3.35,7.85 -2.98,5.94 -5.19,5.83 -7.48,13.81 -0.72,2.52 -1.22,5.95 -2.08,8.11 -0.11,0.27 -0.22,0.57 -0.34,0.82 -4.37,9.05 -4.01,-1.1 -8.81,23.7 -0.93,4.78 -0.38,3.76 -2.41,7.5 -5.02,9.24 -5.58,16.2 -6.12,27.49 -0.62,13.12 -2.23,26.99 -2.23,41.46 0,15.75 0.54,42.88 3.99,58.74 1.23,5.64 2.55,6.58 4.62,11.06 3.14,6.79 2.15,18.15 6.88,24.49 8.59,11.52 4.43,15.22 9.99,21.38 5.39,5.97 5.25,14.49 11.31,20.05 3.71,3.4 3.24,5.58 5.79,9.97 4.59,7.92 12.27,14.14 18.2,20.94l7.06 8.8c3.29,2.8 1.3,1.06 3.68,3.98 3.27,4.01 5.16,3.94 8.31,7.39 3.63,3.99 2.25,4.89 7.94,7.92 5.07,2.7 17.13,15.48 27.14,19.91 8.34,3.69 7.99,6.27 19.91,11.34l10.03 5.59c4.03,2.1 7.53,2.32 11.83,3.85 17.3,6.17 15.57,7.18 36.82,10.4 24.89,3.77 17.35,8.49 55.19,8.49 17.07,0 26.99,-1.4 41.44,-5.62 11.6,-3.38 28.9,-3.06 38.87,-8.18 14.91,-7.65 34.82,-11.59 47.66,-22.92 4.11,-3.62 10.04,-5.74 14.47,-9.05 1.72,-1.28 2.61,-2.09 4.51,-3.33 7.57,-4.89 9.46,-8.21 13.16,-10.36 6.25,-3.63 6.9,-6.82 12.25,-11.28 3.73,-3.1 0.97,-0.63 3.56,-4.29 3.17,-4.49 8.01,-6.23 12.12,-11.4 6.96,-8.74 14.76,-17.15 20.11,-26.95 2.86,-5.24 6.74,-8.44 8.78,-14.76 3.62,-11.25 7.8,-10.41 10.49,-20.86 1.4,-5.46 1.67,-6.71 4.81,-10.87 4.28,-5.67 4.33,-16.99 8.3,-22.9 4.54,-6.75 5.51,-17.59 5.91,-25.63l2.05 -29.31c1.76,-13.79 0.2,-24.89 -0.85,-37.94 -1.21,-15.05 0.92,-34.28 -6.03,-47.74 -3.47,-6.71 -4.43,-12.96 -6.99,-19.89 -2.59,-6.98 -4.05,-4.16 -8.43,-18.46 -2.22,-7.24 -6.66,-10.52 -8.98,-17.9 -2.16,-6.86 -6.59,-10.47 -10.17,-16.71 -4.95,-8.6 -22.69,-30.9 -30.16,-37.06l-13.7 -13.19c-4.61,-4.94 -10.67,-6.91 -14.96,-11.94l-4.97 -4.93c-8.02,-6.67 -10.34,-21.33 -8.52,-32.32 0.3,-1.82 1.82,-8.92 2.74,-10.92 5.2,-11.41 29.13,-24.88 43.54,-18.18l8.7 4.71c12.3,5.68 9,6.88 16.08,10.81 8.63,4.79 13.28,13.47 21.01,19.32 6.07,4.6 15.26,16.81 19.99,20.34l5.64 7.8c3.18,5.96 3.46,3.05 6.48,7.11l16.83 25.6c4.55,4.48 5.22,10.68 8.45,16.2 5.86,10.02 2.75,1.5 9.48,17.41 2.79,6.59 6.24,11.14 8.15,18.79 2.77,11.11 7.94,17.97 10.29,30.04 1.05,5.41 1.27,5.91 3.05,10.33 1.38,3.43 2.11,6.73 3.16,10.27 2.31,7.71 7.7,62.97 7.7,72.97zm-566.87 -531.01c-9.35,2.25 -21.62,0.18 -31.7,5.26 -3.55,1.79 -4.28,3.49 -7.92,4.58 -0.29,0.09 -0.59,0.15 -0.89,0.22 -0.55,0.14 -2.96,0.55 -3.65,0.7 -6.87,1.47 -7.4,2.47 -11.58,6.33l-5.57 3.38c-7.88,2.62 -10.09,5.86 -16.88,10 -5.53,3.37 -5.13,4.43 -9.51,8.42l-13.91 14.2c-0.24,0.23 -0.92,0.91 -1.14,1.16l-6.23 9.28c-7.1,8.63 -6.36,12.79 -10.02,16.87 -5.29,5.9 -5.23,12.33 -9.52,17.37 -11.02,12.95 -5.02,12.12 -11.16,20.2 -2.67,3.51 -3.97,3.78 -5.82,7.62l-13.56 23.41c-3.72,5.17 -3.63,4.78 -6.4,11.55l-2.91 6.11c-4.71,8.22 -2.91,2.84 -6.53,11.31 -4.15,9.73 -16.49,25.97 -22.69,40.13 -1.89,4.31 -5.03,7.26 -7.26,11.69 -1.26,2.51 -1.49,3.28 -2.83,6.12l-3.38 4.64c-0.16,0.17 -0.4,0.4 -0.55,0.57 -3.44,3.98 -3.16,7.04 -5.21,12.54 -2.81,7.53 -4.21,2.33 -7.58,10.34 -2.88,6.85 -2.83,6.83 -7.16,11.88 -1.36,1.58 -4.19,9.07 -9.52,17.38 -2.77,4.31 -3.83,9.96 -6.48,13.72 -0.13,0.18 -0.34,0.44 -0.48,0.62 -0.14,0.18 -0.36,0.42 -0.51,0.6 -0.95,1.15 -1.19,1.27 -2.14,2.34 -4.69,5.28 -3.02,7.02 -6.28,12.77 -2.33,4.12 -5.41,7.02 -7.18,10.75l-2.94 6.02c-2.91,3.92 -5.45,6.3 -7.07,10.71l-6.45 11.51c-2.34,3.03 -1.76,2.28 -3.29,5.78 -1.97,4.51 -3.41,8.21 -6.07,11.87l-6.49 11.47c-1.23,2.42 -1.69,3.5 -3.24,5.65l-23.68 40.21c-1.87,3.87 -3.27,8.51 -6.21,11.67 -5.87,6.33 -3.43,4.28 -6.57,12.48 -2.3,5.99 -4.84,5.13 -7.41,10.51 -2.43,5.1 -2.52,7.5 -6.09,11.83 -4.34,5.28 -4.6,12.68 -7.9,18.99 -8.77,16.76 -8.76,52.06 -6.35,75.13 1.7,16.27 5.22,16.33 8.37,27.48 3.87,13.73 4.32,9.68 8.85,18.04 1.49,2.76 1.41,4.91 2.82,7.36 2.55,4.45 5.38,4.04 7.7,10.12 5.19,13.58 5.83,10.3 9.42,17.47 1.05,2.1 1.49,4.02 2.61,6.46 2.86,6.23 4.66,5.31 7.54,11.4 1.05,2.22 1.65,4.18 2.76,6.21 3.05,5.63 2.63,2.63 9.87,17.02l4.34 5.85c0.16,0.18 0.41,0.41 0.55,0.6 0.21,0.26 0.77,1.04 0.94,1.33 3.02,5.18 3.84,11.16 7.37,15.99 3.5,4.79 4.09,5.65 6.41,11.51 2.19,5.52 3.62,6.37 6.83,11.1l10.17 16.72c2.19,3.15 1.51,2.66 3.03,5.93 2.08,4.48 4.27,5.83 7.37,10.7 2.58,4.05 2.63,8.46 5.39,12.39 3.5,4.99 4.4,5.05 6.74,11.18 3.27,8.57 7.43,10.01 10.3,17.71 2.67,7.16 6.56,8.97 9.54,17.35 3.02,8.51 5,5.23 7.56,10.36 2.42,4.85 1.99,8.78 5.56,13.48 1.94,2.55 2.02,1.77 3.93,5.04 1.2,2.06 2.05,4.12 2.96,6 0.97,1.99 1.82,3.94 3.2,5.76 4.84,6.43 7.4,13.98 9.98,16.94 4.74,5.44 5.3,12.4 9.78,18.2 2.57,3.33 1.55,0.23 3.97,5 2.02,3.97 3.12,8.4 5.6,12.33 1.66,2.63 2.39,2.52 4.13,4.83 1.51,2 1.91,3.45 2.91,6.06l26.85 44.85c3.41,4.39 2.95,8.37 5.74,13.31 3.06,5.43 4.74,4.5 7.02,10.91 3.24,9.09 7.62,10.23 10.22,16.84 4.34,11.04 4.93,8.39 10.27,17.56 2.3,3.95 5.58,6.08 8.53,9.4 4.56,5.14 3.16,4.97 9,8.92 4.93,3.34 3.12,5.6 9.03,8.9 9.33,5.21 12.22,8.81 16.92,11.09 6.55,3.18 9.56,7.17 17.55,9.34l13.14 4.78c4.89,2.12 7.16,3.84 12.93,4.99 12.1,2.43 196.02,0.76 217.69,0.76 96.71,0 193.45,-0.22 290.15,0 19.52,0.04 21.35,-4.62 35.69,-9.12 8.46,-2.65 10.36,-2.62 18.73,-8.15 3.55,-2.35 7.84,-4.06 11.22,-6.71l14.4 -12.5c2.36,-2.48 2.73,-1.82 5.3,-3.67l4.07 -4.9c2.41,-3.88 7.1,-5.64 9.53,-9.52 2.86,-4.56 0.78,-1.73 4.31,-4.66 5.4,-4.47 3.27,-5.73 6.19,-11.73 2.43,-5.01 5.09,-4.2 7.41,-10.51 4.6,-12.5 6.26,-8.33 9.75,-17.14 0.99,-2.5 1.09,-4.34 2.29,-6.67 1.79,-3.5 5.35,-6.12 7.34,-10.58 4.2,-9.4 14.53,-24.39 20,-35l12.53 -23.22c2.65,-5.52 4.55,-5.67 7.17,-10.75 1.89,-3.67 3.65,-8.26 6.06,-11.87l19.95 -34.95c4.72,-5.25 4.71,-12.68 9.39,-17.5 7.18,-7.4 4.96,-13.1 8.75,-18.14 3.95,-5.27 2.2,1.63 8.15,-10.88 1.94,-4.07 5.1,-5.6 7.38,-10.55 3.1,-6.7 0.83,-6.16 6.1,-11.82 4.18,-4.49 3.75,-5.91 6.18,-11.74 1.53,-3.66 5.9,-7.68 7.43,-11.61 2.57,-6.62 1.42,-6.82 5.69,-12.24 1.38,-1.75 2.87,-3.06 4.04,-4.92 1.66,-2.62 1.44,-3.66 2.76,-6.19 1.6,-3.07 5.11,-7.48 7.14,-10.91l15.8 -28.9c1.66,-2.84 2.32,-2.45 3.85,-5.12 3.11,-5.43 4.96,-12.14 9.18,-17.72l10.55 -17.44c2.68,-4.04 3.51,-7.96 5.95,-11.97 2.51,-4.13 4.87,-5.99 6.71,-11.04 1.39,-3.82 1.69,-6.4 4.45,-9.17 4,-4.02 5.13,-10.32 8.05,-15.47 2.91,-5.12 4.48,-2.89 7.12,-10.8 2.46,-7.37 3.1,-5.85 6.56,-11.38 2.67,-4.27 3.37,-9.48 4.02,-15.02 2.95,-25.08 6.9,-37.57 1.95,-64.29 -3.92,-21.18 0.86,-17.64 -9.75,-35.07 -1.32,-2.17 -1.53,-3.63 -2.48,-6.48 -2.52,-7.56 -4.99,-5.45 -7.82,-11.23 -2.12,-4.32 -2.4,-8.78 -4.83,-13.09 -2.66,-4.71 -4.55,-4.74 -7.13,-10.81 -0.8,-1.88 -1.44,-4.54 -2.53,-6.26 -1.34,-2.11 -2.85,-2.63 -4.34,-4.8 -2.09,-3.06 -3.88,-8.85 -6.34,-12.7l-13.2 -22.65c-3.72,-5.57 -5.76,-11.82 -9.61,-17.27l-6.6 -12.44c-2.03,-3.63 -5.39,-6.58 -7.32,-10.59 -0.9,-1.87 -0.59,-1.43 -1.42,-2.93 -0.12,-0.21 -0.28,-0.49 -0.4,-0.69l-1.33 -2.06c-2.61,-4.17 -4.98,-6.76 -6.72,-11.34 -2.33,-6.13 -2.96,-7 -6.31,-11.62 -1.98,-2.74 -2.05,-2.04 -3.48,-5.48 -4.34,-10.4 -6.06,-10.3 -9.59,-17.29 -2.3,-4.55 -2.76,-8.19 -5.78,-12.15l-6.84 -12.2c-2.66,-5.27 -4.28,-4.56 -7.17,-10.65 -2.87,-6.05 -3.79,-6.48 -7.53,-10.5 -3,-3.22 -3,-8.39 -5.16,-12.77 -2.35,-4.76 -4.92,-5.81 -7.48,-11.5 -5.62,-12.44 -6.35,-10.34 -9.38,-17.57 -3.46,-8.25 -8.54,-15.46 -12.59,-23.25 -1.72,-3.31 -2.1,-3.17 -4.02,-6.06 -2.58,-3.87 -3.83,-8.17 -6.12,-11.81 -2.66,-4.22 -4.4,-4.76 -7.28,-10.64l-15.73 -29.09c-7.53,-10.99 -3.94,-6.91 -10.09,-16.79 -2.83,-4.55 -3.98,-6.72 -6.27,-11.65 -2.37,-5.11 -5.45,-6.48 -7.68,-11.36 -2.56,-5.59 -1.35,-7.29 -5.85,-12.08 -4.99,-5.31 -4.66,-12.44 -9.54,-17.35 -6.5,-6.54 -2.89,-3.53 -6.98,-10.77l-12.6 -15.58c-7.06,-6.87 -10.16,-13.03 -18.37,-17.44 -5.17,-2.78 -5.71,-5.55 -10.79,-8.29 -4.1,-2.22 -8.84,-2.73 -12.3,-5.63 -9.91,-8.31 -11.22,-4.38 -24.03,-11.68 -17.4,-9.92 -61.91,-6.53 -84.36,-6.53l-432.61 0.47c-0.23,0.08 -0.58,0.56 -0.94,0.65z"/>
 </g>
</svg>
