<?xml version="1.0" encoding="UTF-8"?>
<!DOCTYPE svg PUBLIC "-//W3C//DTD SVG 1.1//EN" "http://www.w3.org/Graphics/SVG/1.1/DTD/svg11.dtd">
<!-- Creator: CorelDRAW 2021 (64 Bit) -->
<svg xmlns="http://www.w3.org/2000/svg" xml:space="preserve" width="241.572mm" height="135.195mm" version="1.1" style="shape-rendering:geometricPrecision; text-rendering:geometricPrecision; image-rendering:optimizeQuality; fill-rule:evenodd; clip-rule:evenodd"
viewBox="0 0 1540.16 861.94"
 xmlns:xlink="http://www.w3.org/1999/xlink"
 xmlns:xodm="http://www.corel.com/coreldraw/odm/2003">
 <defs>
  <style type="text/css">
   <![CDATA[
    .fil0 {fill:#010101}
    .fil1 {fill:#59666C;fill-rule:nonzero}
    .fil2 {fill:#BCAE79;fill-rule:nonzero}
   ]]>
  </style>
 </defs>
 <g id="Camada_x0020_1">
  <metadata id="CorelCorpID_0Corel-Layer"/>
  <g id="_2179696131888">
   <g>
    <path class="fil0" d="M1088.81 270.72c1.44,-9.12 10.72,-31.1 14.53,-41.35l37.38 -102.46c1.36,-3.65 2.45,-6.65 3.65,-10.07 0.65,-1.83 1.3,-3.88 2.02,-5.48l2.66 -4.07 60.59 163.4 -120.84 0.03zm-161.36 177.08l96.02 0.19 32.81 -89.61c2.22,-6.19 2.32,-10.87 6.26,-11.83l174.81 -0.01c3.9,1.13 9.73,20.83 11.13,24.45 8.73,22.59 20.73,57.2 29.4,76.76l97.92 0.24c-1.69,-10.25 -16.78,-43.5 -21.55,-55.39l-134.39 -336.36c-3.54,-8.81 -18.72,-51.79 -23.72,-55.56l-94.95 0 -173.75 447.11z"/>
    <path class="fil0" d="M693.7 76.99c15.88,-2.75 90.78,-0.37 107.08,2.53 68.74,12.22 68.67,108.32 -0.18,120.51 -17.22,3.05 -90.94,6.27 -107.02,2.93l0.13 -125.97zm-90.65 370.99l90.03 0.01 0.51 -167.79c27.28,-7.27 134.5,13.19 192.87,-24.22 43.31,-27.76 70.54,-82.72 55.03,-156.14 -6.55,-30.99 -23.44,-54.21 -40.46,-68.16 -23.71,-19.44 -42.12,-26.24 -80.74,-28.97 -22.9,-1.62 -206.98,-4.55 -216.63,-1.08l-0.61 446.35z"/>
    <path class="fil0" d="M305.93 299.78l-85.24 9.7c1.24,44.98 9,78.14 32.72,105.1 19.56,22.23 53.37,40.9 97.42,40.9l16.15 0c46.03,0 85.18,-19.57 105.24,-43.13 26.47,-31.09 33.59,-62.22 34.65,-113.87 2.02,-98.24 -0.22,-198.37 0.04,-296.86 -9.53,-2.78 -75.16,-0.94 -90.51,-0.94 -0.24,94.67 -0.02,189.38 -0.02,284.06 0,20.92 -0.08,43.92 -6.26,63.04 -13.39,41.5 -72.34,37.07 -90.7,9.54 -11.03,-16.54 -11.83,-35.28 -13.49,-57.54z"/>
    <path class="fil0" d="M1247.34 486.1c3.14,3.37 11.31,25.76 12.33,31.82l-24.11 -0.18 11.79 -31.64zm-43.96 66.94l19.58 0.16 6.97 -20.21 36.34 -0.08 7.35 20.22 19.36 -0.09c-4.07,-12.55 -11.88,-29.71 -17.59,-44.11 -6.03,-15.2 -11.97,-30.82 -18.23,-45.32l-19.44 0.02 -34.34 89.42z"/>
    <path class="fil0" d="M1320.69 504.49l0.09 -25.96c12.7,0.06 31.35,-2.44 31.97,12.22 0.7,16.31 -18.88,13.73 -32.07,13.74zm-18.12 49.16l18.15 -0.61 -0.03 -33.57c13.56,0.01 29,1.26 39.25,-4.77 15.81,-9.31 19.88,-48.39 -14.37,-50.78 -11.61,-0.81 -31.32,-1.09 -42.77,-0.09l-0.23 89.81z"/>
    <path class="fil0" d="M499.74 478.58c13.23,0 32.41,-2.41 31.77,13.33 -0.61,15.09 -18.48,12.56 -32.12,12.56l0.35 -25.9zm-18.43 73.96l18.11 0.72 0.01 -33.79c12.46,0 29.05,1.69 38.93,-4.73 18.63,-12.11 16.99,-48.26 -12.73,-50.72 -9.11,-0.75 -35.93,-1.39 -44.19,0.02l-0.13 88.5z"/>
    <path class="fil0" d="M273.43 522.23c0.7,7.32 0.7,13.18 -3.99,16.99 -4.27,3.47 -12.12,4.69 -16.24,0.44 -11.83,-12.21 12.72,-15.78 20.22,-17.43zm-37.52 -17.74l13.6 3.3c4.67,-3.9 3.95,-7.83 12.7,-8.05 8.98,-0.22 11.21,2.83 11.53,11.33 -16.96,3.73 -41.56,4.91 -40.17,25.81 0.62,9.32 6.57,15.4 15.22,17.24 14.1,3 18.3,-3.48 25.9,-7.03 5.1,8.5 -0.99,6.03 19.3,6.12 -9.1,-28.14 3.02,-50.8 -9.41,-61.1 -12.99,-10.77 -45.38,-7.04 -48.66,12.38z"/>
    <path class="fil0" d="M394.07 541.87c-3.19,-4.62 -8.53,-10.28 -0.61,-14.69 2.95,-1.64 14.86,-4.02 19.17,-4.81 0.03,14.44 -2.72,21.92 -18.57,19.5zm-19.33 -37.38l13.55 3.27c4.14,-3.45 4.3,-7.75 12.55,-8.02 8.47,-0.27 12.53,2.33 11.15,10.99 -16.45,7.43 -40.84,3.21 -39.55,26.07 0.54,9.59 6.59,15.46 14.97,17.26 11.87,2.55 19.38,-2.47 25.85,-7.04 5.11,6.57 -3.47,6.23 19.68,6.04 -8.08,-19.57 2.34,-51.17 -9.56,-61.17 -7.29,-6.12 -43.22,-12.39 -48.64,12.59z"/>
    <path class="fil0" d="M910.52 514.35c1.39,-19.3 23.46,-20.26 25.64,0.39l-25.64 -0.39zm40.73 21.35l-16.01 -2.96c-9.56,16.76 -23.43,8.72 -25.06,-7.35l42.61 0.01c6.71,-44.04 -50.56,-52.94 -58.98,-14.89 -11.93,53.91 54.14,53.88 57.44,25.19z"/>
    <path class="fil0" d="M577.11 514.39c1.61,-19.72 23.74,-19.95 25.65,0.35l-25.65 -0.35zm41.17 20.8l-16.42 -2.41c-3.67,5.62 -6.13,11.18 -15.26,8.21 -6.88,-2.23 -9.05,-7.97 -9.77,-15.57l42.56 -0.02c7.23,-43.27 -50.35,-53.51 -58.97,-14.85 -11.41,51.17 50.66,56.42 57.86,24.63z"/>
    <path class="fil0" d="M1151.2 514.73l-25.59 0.06c1.44,-20.02 23.66,-20.59 25.59,-0.06zm15.05 20.97l-16.67 -3.16c-4.11,14.74 -22.75,11.64 -24.26,-6.68l42.84 -0.52c3.39,-47.76 -51.48,-50.49 -59.29,-14.55 -11.44,52.66 53.1,54.42 57.38,24.91z"/>
    <path class="fil0" d="M798.22 532.64l-17.33 2.32c2.38,22.5 43.14,26.12 56.03,9.86 9.57,-12.08 2.27,-24.18 -8.31,-28.67 -8.63,-3.66 -19.12,-4.78 -25.23,-7.17 -4.92,-1.92 -4.56,-1.73 -4.56,-7.46 8.65,-4.27 20.14,-4.87 23.16,4.98 5.23,-0.64 12.88,-1.79 16.52,-3.57 -11.93,-29 -65.14,-17.54 -54.71,10.59 4.47,12.07 20.67,12.96 33.53,16.42 21.23,5.72 -14.76,24.42 -19.1,2.69z"/>
    <path class="fil0" d="M982.88 496.99l-0.29 -8.75 -15.89 0.11 0 64.49 17.18 0.31c0,-15.9 -5.13,-50.55 11.71,-53.13 17.64,-2.7 12.52,29.17 12.64,52.51l17.18 0.75c-0.04,-11.89 1.68,-48.21 -2.55,-56.56 -3.34,-6.58 -10.68,-10.37 -20.25,-9.98 -10.56,0.44 -14.95,5.82 -19.73,10.24z"/>
    <path class="fil0" d="M718.92 533.05c0.35,7.97 -3.82,9.72 -12.25,9.49 -8.77,-0.24 -10.17,-4.15 -13.71,-9.62l-16.4 2.18c4.01,22.34 41.79,26.42 56.23,9.21 8.77,-10.46 2.57,-22.98 -7.12,-27.59 -8.47,-4.03 -27.27,-4.75 -31.43,-12.23 2.43,-6.37 14.26,-10.38 24.26,1.14 0.15,0.18 0.44,0.53 0.67,0.78l15.06 -2.75c-5.91,-22.17 -44.41,-21.88 -53.49,-6.39 -6.7,11.43 0.16,21.85 8.56,25.88 8.37,4.02 23.35,4.47 29.61,9.91z"/>
    <path class="fil0" d="M179.18 523.59l-16.47 1.41c-6.09,27.86 32.44,39.69 49.59,20.74 8.32,-9.19 6.81,-23.78 6.81,-37.51 -0,-12.37 1.22,-33.28 -0.47,-44.63l-16.85 -0.03c-6.32,24.08 8.3,73.71 -9.73,75.74 -10.24,1.15 -12.22,-6.99 -12.88,-15.73z"/>
    <path class="fil0" d="M1100.3 530.77l-15.28 -2.36c-5.11,5.01 -4.03,13.99 -15.95,12.1 -7.85,-1.25 -11.1,-8.41 -11.72,-17.24 -2,-28.62 21.51,-29.29 25.04,-13.57l16.6 -2.92c-4.81,-28.68 -61.49,-30.59 -59.19,16.5 2.05,41.78 56.06,40.64 60.5,7.5z"/>
    <path class="fil0" d="M325.48 553.11l15.68 0.07 25.42 -64.85 -15.74 -0.07c-5.88,3.29 -12.96,34.26 -17.48,41.81 -2.46,-3.23 -6.24,-16.01 -8.18,-21.15 -2.03,-5.37 -5.32,-16.46 -8.05,-20.38l-17.32 -0.25 25.68 64.84z"/>
    <path class="fil0" d="M857.6 475.47l-0.16 12.47 -8.09 0.54 -0 13.2 8.07 0.54c0.16,11.37 -1.15,30.43 0.68,40.7 2.22,12.46 17.01,14.67 28.64,9.45 1.34,-3.86 0.29,-8.04 0.06,-13.34 -15.31,2.82 -12.23,3.01 -12.15,-37.06l11.87 0.05 -0.03 -13.79 -11.9 -0.23 0.03 -21.48 -17.02 8.96z"/>
    <polygon class="fil0" points="1384.98,553.64 1403.17,553.06 1403.1,463.84 1385.25,463.64 "/>
    <path class="fil0" d="M650.51 496.05c-0.21,-0.3 -0.36,-1.18 -0.42,-1l-1.08 -2.99c-0.8,-2.56 0.56,-0.63 -1,-3.7l-15 -0.11 0.01 64.97 17.17 -0.15c0.01,-10.84 -1.44,-38.14 2.97,-45.9 4.49,-7.88 9.54,-4.34 16.89,-3.06l5.04 -14.12c-10.99,-6.36 -20.33,-3.15 -24.58,6.07z"/>
    <polygon class="fil0" points="751.64,553.16 768.87,552.99 768.84,488.5 751.64,488.23 "/>
    <polygon class="fil0" points="751.59,479.52 768.86,479.43 768.74,463.79 751.95,463.55 "/>
   </g>
   <g>
    <polygon class="fil1" points="98.99,690.47 49.36,776.21 -0,690.47 49.36,604.73 "/>
    <polygon class="fil2" points="148.35,604.73 49.36,604.73 98.99,690.47 197.98,690.47 "/>
    <polygon class="fil1" points="148.35,776.21 197.98,690.47 247.34,776.21 197.98,861.94 "/>
    <polygon class="fil2" points="98.99,861.94 197.7,861.94 148.35,776.21 49.36,776.21 "/>
    <path class="fil1" d="M426.71 775.08l0 -169.22 -27.07 0 0 69.94 -80.1 0 0 -69.94 -27.36 0 0 169.22 27.36 0 0 -76.15 80.1 0 0 76.15 27.07 0zm78.4 0l0 -169.22 -27.36 0 0 169.22 27.36 0zm163.58 -51.33c0,-17.49 -10.15,-34.41 -32.43,-38.64l0 -0.56c17.2,-5.92 28.77,-21.43 28.77,-38.64 0,-25.95 -19.18,-41.18 -55.84,-41.18 -20.59,0 -39.77,0.56 -53.02,0.85l0 169.22c18.9,0.28 35.82,0.85 46.25,0.85 51.61,0 66.28,-29.9 66.28,-51.89zm-32.15 -73.33c0,16.92 -13.26,27.36 -38.64,27.36 -5.64,0 -10.15,0 -14.67,-0.28l0 -50.2c6.49,-0.28 13.82,-0.56 21.43,-0.56 24.25,0 31.87,9.87 31.87,23.69l0 -0zm3.38 73.89c0,16.92 -11.85,29.05 -36.66,29.05 -8.74,0 -15.51,-0.56 -19.74,-1.13l0 -53.87c3.67,-0.28 12.41,-0.28 15.23,-0.28 23.69,0 41.18,7.05 41.18,26.23zm158.5 50.77l0 -23.41 -62.05 0 0 -52.74 58.94 0 0 -22.28 -58.94 0 0 -48.23 62.05 0 0 -22.56 -89.4 0 0 169.22 89.4 0zm157.94 0l-44.56 -58.94c-4.23,-5.64 -9.59,-12.13 -14.38,-18.05 27.64,-3.1 47.94,-20.31 47.94,-47.38 0,-33.56 -23.97,-45.97 -59.23,-45.97 -19.18,0 -33,0.28 -45.41,1.13l0 169.22 27.36 0 0 -73.33 1.13 0 52.74 73.33 34.41 0zm-39.48 -121.55c0,16.92 -13.25,28.2 -35.25,28.2 -5.92,0 -10.72,-0.28 -13.25,-0.56l0 -53.59c3.95,-0.28 9.02,-0.56 14.38,-0.56 22.56,0 34.13,8.18 34.13,26.51l0 -0z"/>
    <path class="fil2" d="M1127.27 775.08l0 -169.22 -26.51 0 0 50.2c0,24.82 0.85,61.2 1.69,80.38 -6.2,-12.41 -12.97,-25.95 -20.59,-38.36l-55.84 -92.22 -35.82 0 0 169.22 26.51 0 0 -56.97c0,-23.97 -0.56,-58.38 -1.41,-75.02 5.36,11.28 11.28,23.41 18.9,35.54l57.82 96.17 35.25 0 0 0.28 0 0zm180.78 0l-61.48 -169.22 -30.46 0 -60.64 169.22 27.64 0 12.97 -37.23 68.53 0 12.97 37.23 30.46 0zm-50.76 -59.23l-54.15 0 19.18 -52.46c3.38,-9.03 5.92,-18.33 7.9,-26.79l0.56 0c1.97,9.31 4.23,17.2 7.61,25.95l18.9 53.3 0 0zm165.27 -87.15l0 -22.84 -120.43 0 0 22.84 46.53 0 0 146.37 27.36 0 0 -146.37 46.53 0zm117.61 146.37l0 -23.41 -62.05 0 0 -52.74 58.94 0 0 -22.28 -58.94 0 0 -48.23 62.05 0 0 -22.56 -89.4 0 0 169.22 89.4 0z"/>
   </g>
  </g>
 </g>
</svg>
