<?xml version="1.0" encoding="UTF-8"?>
<!DOCTYPE svg PUBLIC "-//W3C//DTD SVG 1.1//EN" "http://www.w3.org/Graphics/SVG/1.1/DTD/svg11.dtd">
<!-- Creator: CorelDRAW 2021 (64 Bit) -->
<svg xmlns="http://www.w3.org/2000/svg" xml:space="preserve" width="207.926mm" height="57.6787mm" version="1.1" style="shape-rendering:geometricPrecision; text-rendering:geometricPrecision; image-rendering:optimizeQuality; fill-rule:evenodd; clip-rule:evenodd"
viewBox="0 0 4307.3 1194.85"
 xmlns:xlink="http://www.w3.org/1999/xlink"
 xmlns:xodm="http://www.corel.com/coreldraw/odm/2003">
 <defs>
  <style type="text/css">
   <![CDATA[
    .fil1 {fill:#52218A;fill-rule:nonzero}
    .fil2 {fill:#6C33AF;fill-rule:nonzero}
    .fil0 {fill:#854CC7;fill-rule:nonzero}
    .fil3 {fill:#B179F1;fill-rule:nonzero}
   ]]>
  </style>
 </defs>
 <g id="Camada_x0020_1">
  <metadata id="CorelCorpID_0Corel-Layer"/>
  <g id="_2180326409504">
   <path class="fil0" d="M1687.98 423.86l-130.28 362.7 -67.34 0 -127.95 -362.7 65.79 0 89.53 275.15c2.85,8.81 5.01,18.99 6.56,30.65l1.04 0c1.12,-9.67 3.63,-20.03 7.34,-31.17l91.52 -274.63 63.8 0zm63.35 49.3c-9.58,0 -17.78,-3.11 -24.61,-9.32 -6.91,-6.3 -10.27,-14.16 -10.27,-23.83 0,-9.58 3.37,-17.61 10.27,-24 6.82,-6.39 15.02,-9.58 24.61,-9.58 9.93,0 18.39,3.19 25.3,9.58 6.91,6.39 10.36,14.42 10.36,24 0,9.15 -3.45,16.92 -10.36,23.4 -6.91,6.47 -15.37,9.75 -25.3,9.75zm29.09 313.4l-58.71 0 0 -259.01 58.71 0 0 259.01zm52.74 -8.12l0 -54.39c21.93,16.75 46.1,25.04 72.61,25.04 35.4,0 53.1,-10.45 53.1,-31.34 0,-5.87 -1.55,-10.88 -4.58,-15.02 -3.02,-4.15 -7.08,-7.86 -12.26,-11.05 -5.09,-3.19 -11.22,-6.04 -18.22,-8.55 -6.99,-2.59 -14.76,-5.44 -23.4,-8.63 -10.62,-4.23 -20.2,-8.63 -28.66,-13.38 -8.55,-4.75 -15.63,-10.1 -21.24,-16.06 -5.7,-6.04 -9.93,-12.78 -12.78,-20.38 -2.94,-7.6 -4.32,-16.4 -4.32,-26.59 0,-12.43 2.94,-23.48 8.81,-32.98 5.96,-9.5 13.9,-17.53 23.83,-24 9.93,-6.48 21.24,-11.4 33.85,-14.68 12.69,-3.28 25.73,-4.92 39.2,-4.92 24,0 45.41,3.63 64.32,10.88l0 51.28c-18.22,-12.43 -39.2,-18.65 -62.77,-18.65 -7.42,0 -14.16,0.69 -20.11,2.25 -5.96,1.47 -11.05,3.63 -15.28,6.3 -4.23,2.68 -7.51,5.96 -9.84,9.76 -2.42,3.8 -3.54,7.94 -3.54,12.52 0,5.52 1.12,10.27 3.54,14.16 2.33,3.88 5.78,7.34 10.44,10.27 4.66,2.94 10.19,5.61 16.75,8.03 6.48,2.5 13.9,5.18 22.36,8.03 11.14,4.49 21.07,9.15 29.96,13.9 8.89,4.75 16.4,10.1 22.62,16.06 6.22,5.96 11.05,12.86 14.42,20.72 3.37,7.86 5.09,17.18 5.09,27.97 0,13.12 -3.02,24.61 -9.15,34.36 -6.04,9.84 -14.16,17.87 -24.26,24.35 -10.1,6.39 -21.76,11.14 -35.05,14.25 -13.21,3.11 -27.2,4.66 -41.87,4.66 -28.32,0 -52.84,-4.66 -73.56,-14.16zm457.73 8.12l-58.71 0 0 -41.01 -1.04 0c-17.01,31.43 -43.51,47.05 -79.43,47.05 -61.21,0 -91.77,-36.69 -91.77,-110.25l0 -154.8 58.71 0 0 148.76c0,46.53 17.96,69.76 53.87,69.76 17.36,0 31.6,-6.39 42.82,-19.17 11.22,-12.86 16.84,-29.61 16.84,-50.33l0 -149.02 58.71 0 0 259.01zm267.45 0l-56.9 0 0 -40.49 -1.04 0c-17.87,31.08 -44.03,46.53 -78.65,46.53 -25.47,0 -45.41,-6.91 -59.83,-20.72 -14.42,-13.81 -21.58,-32.12 -21.58,-54.91 0,-48.87 28.15,-77.36 84.44,-85.47l76.93 -10.88c0,-36.95 -17.53,-55.43 -52.67,-55.43 -30.82,0 -58.62,10.71 -83.4,31.94l0 -51.37c27.28,-16.23 58.79,-24.26 94.54,-24.26 65.44,0 98.16,32.2 98.16,96.61l0 168.44zm-56.64 -127.26l-54.39 7.6c-16.83,2.25 -29.53,6.3 -38.07,12.26 -8.55,6.04 -12.78,16.49 -12.78,31.51 0,10.96 3.97,19.94 11.74,26.94 7.86,6.99 18.39,10.53 31.51,10.53 17.87,0 32.72,-6.3 44.38,-18.91 11.74,-12.52 17.61,-28.32 17.61,-47.4l0 -22.53zm179.47 127.26l-58.97 0 0 -383.42 58.97 0 0 383.42zm200.89 -14.42l0 -61.99c5.61,5.09 12.17,9.67 19.86,13.64 7.68,4.06 15.8,7.51 24.43,10.27 8.55,2.76 17.18,4.92 25.82,6.48 8.55,1.47 16.49,2.25 23.74,2.25 25.3,0 44.12,-4.23 56.55,-12.61 12.35,-8.46 18.56,-20.72 18.56,-36.69 0,-8.63 -2.07,-16.06 -6.22,-22.36 -4.06,-6.39 -9.84,-12.17 -17.27,-17.35 -7.42,-5.27 -16.14,-10.27 -26.16,-15.02 -10.1,-4.84 -20.81,-9.84 -32.29,-15.11 -12.35,-6.56 -23.74,-13.21 -34.36,-19.94 -10.62,-6.73 -19.86,-14.24 -27.71,-22.36 -7.86,-8.2 -13.99,-17.44 -18.48,-27.71 -4.49,-10.27 -6.73,-22.36 -6.73,-36.18 0,-17.01 3.88,-31.86 11.57,-44.38 7.6,-12.6 17.78,-22.97 30.3,-31.17 12.61,-8.12 26.85,-14.25 42.91,-18.22 15.97,-3.97 32.37,-5.96 49.04,-5.96 37.99,0 65.61,4.32 82.97,12.95l0 59.4c-20.55,-14.76 -47.05,-22.19 -79.43,-22.19 -8.89,0 -17.79,0.78 -26.68,2.5 -8.89,1.64 -16.75,4.49 -23.74,8.38 -6.99,3.8 -12.69,8.81 -17.1,14.85 -4.4,6.13 -6.56,13.47 -6.56,22.01 0,8.12 1.64,15.11 5.01,20.98 3.37,5.96 8.29,11.31 14.85,16.23 6.47,4.92 14.42,9.67 23.74,14.24 9.32,4.66 20.2,9.67 32.55,15.11 12.61,6.56 24.52,13.47 35.74,20.72 11.22,7.25 21.07,15.28 29.61,24 8.55,8.81 15.28,18.56 20.2,29.27 5.01,10.71 7.51,22.88 7.51,36.52 0,18.39 -3.71,33.93 -11.14,46.54 -7.42,12.69 -17.44,22.97 -29.96,30.91 -12.6,7.86 -27.02,13.64 -43.43,17.18 -16.32,3.54 -33.58,5.27 -51.8,5.27 -6.13,0 -13.55,-0.43 -22.45,-1.38 -8.81,-0.95 -17.87,-2.25 -27.2,-4.06 -9.24,-1.73 -18.05,-3.89 -26.25,-6.39 -8.29,-2.59 -14.94,-5.44 -20.03,-8.63zm406.11 11.65c-11.4,5.7 -26.51,8.55 -45.24,8.55 -50.25,0 -75.37,-24.09 -75.37,-72.35l0 -146.43 -43.25 0 0 -46.02 43.25 0 0 -59.92 58.71 -16.75 0 76.67 61.9 0 0 46.02 -61.9 0 0 129.51c0,15.37 2.76,26.33 8.29,32.89 5.61,6.56 14.85,9.84 27.89,9.84 9.93,0 18.48,-2.85 25.73,-8.55l0 46.53zm268.83 2.76l-58.71 0 0 -41.01 -1.04 0c-17.01,31.43 -43.51,47.05 -79.43,47.05 -61.21,0 -91.77,-36.69 -91.77,-110.25l0 -154.8 58.71 0 0 148.76c0,46.53 17.96,69.76 53.87,69.76 17.36,0 31.6,-6.39 42.82,-19.17 11.22,-12.86 16.84,-29.61 16.84,-50.33l0 -149.02 58.71 0 0 259.01zm304.15 0l-58.71 0 0 -44.03 -0.95 0c-18.91,33.41 -48,50.07 -87.28,50.07 -31.86,0 -57.42,-11.57 -76.49,-34.79 -19.17,-23.14 -28.75,-54.74 -28.75,-94.71 0,-42.82 10.62,-77.1 31.77,-102.91 21.15,-25.81 49.3,-38.68 84.61,-38.68 34.88,0 60.26,13.99 76.15,41.96l0.95 0 0 -160.33 58.71 0 0 383.42zm-57.93 -118.37l0 -33.93c0,-18.39 -5.96,-33.93 -17.96,-46.79 -12,-12.78 -27.2,-19.17 -45.76,-19.17 -21.93,0 -39.2,8.12 -51.72,24.52 -12.6,16.32 -18.91,39.02 -18.91,68.03 0,26.33 6.04,47.05 18.13,62.33 12,15.28 28.23,22.88 48.69,22.88 20.03,0 36.35,-7.34 48.78,-22.1 12.52,-14.76 18.73,-33.33 18.73,-55.77zm156.42 -195.03c-9.58,0 -17.78,-3.11 -24.61,-9.32 -6.91,-6.3 -10.27,-14.16 -10.27,-23.83 0,-9.58 3.37,-17.61 10.27,-24 6.82,-6.39 15.02,-9.58 24.61,-9.58 9.93,0 18.39,3.19 25.3,9.58 6.91,6.39 10.36,14.42 10.36,24 0,9.15 -3.45,16.92 -10.36,23.4 -6.91,6.47 -15.37,9.75 -25.3,9.75zm29.09 313.4l-58.71 0 0 -259.01 58.71 0 0 259.01zm183.71 6.04c-39.89,0 -71.83,-12.09 -95.66,-36.26 -23.91,-24.17 -35.83,-56.29 -35.83,-96.27 0,-43.51 12.43,-77.44 37.3,-101.96 24.86,-24.43 58.36,-36.61 100.58,-36.61 40.49,0 72.01,11.83 94.54,35.66 22.62,23.74 33.93,56.72 33.93,98.85 0,41.35 -12.17,74.42 -36.52,99.29 -24.43,24.86 -57.15,37.3 -98.34,37.3zm2.85 -224.3c-22.97,0 -41.1,7.94 -54.39,24 -13.3,16.06 -20.03,38.08 -20.03,66.31 0,27.11 6.82,48.52 20.29,64.06 13.47,15.63 31.51,23.4 54.13,23.4 23.05,0 40.84,-7.69 53.18,-22.97 12.43,-15.37 18.65,-37.21 18.65,-65.53 0,-28.49 -6.22,-50.51 -18.65,-66.05 -12.35,-15.54 -30.13,-23.22 -53.18,-23.22z"/>
   <path class="fil1" d="M173.55 940.26c-9.06,7.73 -20.6,12 -32.51,12 -6.62,0 -13.19,-1.32 -19.29,-3.87l-90.96 -38.16c-18.54,-7.74 -30.68,-25.83 -30.78,-45.92l0 -533.77c0.1,-20.09 12.24,-38.19 30.78,-45.92l90.96 -37.54c6.1,-2.55 12.67,-3.87 19.29,-3.87 11.92,0 23.46,4.27 32.51,12l20.39 16.89c-4.7,-3.38 -10.35,-5.2 -16.14,-5.2 -15.27,0 -27.65,12.38 -27.65,27.65 0,0.02 0,0.05 0,0.07l0 605.59c0,0.02 0,0.05 0,0.07 0,15.27 12.38,27.65 27.65,27.65 5.79,0 11.44,-1.82 16.14,-5.2l-20.39 17.52z"/>
   <path class="fil2" d="M30.78 910.23c-18.54,-7.74 -30.68,-25.83 -30.78,-45.92l0 -4.12c0.16,15.84 13.06,28.59 28.9,28.59 8.02,0 15.69,-3.34 21.15,-9.2l775.76 -857.72c14.06,-13.98 33.11,-21.85 52.95,-21.85 11.2,0 22.28,2.51 32.38,7.34l247.49 119.12c26,12.49 42.54,38.81 42.54,67.66 0,0.01 0,0.03 0,0.04l0 2.87c-0.02,-26.17 -21.25,-47.38 -47.42,-47.38 -10.94,0 -21.56,3.8 -30.03,10.72l-929.79 762.37 -20.39 17.52c-9.06,7.73 -20.6,12 -32.51,12 -6.62,0 -13.19,-1.32 -19.29,-3.87l-90.96 -38.16z"/>
   <path class="fil0" d="M30.78 284.62c-18.54,7.73 -30.68,25.83 -30.78,45.92l0 4.13c0.16,-15.84 13.06,-28.59 28.9,-28.59 8.02,0 15.69,3.33 21.15,9.2l775.76 857.72c14.06,13.98 33.11,21.86 52.95,21.86 11.2,0 22.28,-2.51 32.38,-7.34l247.49 -119.12c26,-12.49 42.54,-38.81 42.54,-67.66 0,-0.01 0,-0.03 0,-0.04l0 -2.87c-0.02,26.17 -21.25,47.38 -47.42,47.38 -10.94,0 -21.56,-3.8 -30.03,-10.72l-929.79 -762.37 -20.39 -17.52c-8.98,-7.47 -20.32,-11.58 -32.02,-11.58 -6.8,0 -13.53,1.39 -19.78,4.08l-90.97 37.54z"/>
   <path class="fil3" d="M911.15 1187.5c-10.1,4.83 -21.18,7.34 -32.38,7.34 -19.84,0 -38.89,-7.87 -52.95,-21.86 8.24,8.2 19.4,12.79 31.03,12.79 24.28,0 43.99,-19.66 44.04,-43.94l0 -1088.57c0,-0.05 0,-0.1 0,-0.15 0,-24.32 -19.72,-44.04 -44.04,-44.04 -11.62,0 -22.78,4.6 -31.03,12.79 14.06,-13.98 33.11,-21.85 52.95,-21.85 11.2,0 22.28,2.51 32.38,7.34l247.49 118.99c26,12.49 42.54,38.81 42.54,67.66 0,0.01 0,0.03 0,0.04l0 806.79c0,0 0,0.02 0,0.03 0,28.85 -16.54,55.17 -42.55,67.66l-247.49 118.99z"/>
  </g>
 </g>
</svg>
