<?xml version="1.0" encoding="UTF-8"?>
<!DOCTYPE svg PUBLIC "-//W3C//DTD SVG 1.1//EN" "http://www.w3.org/Graphics/SVG/1.1/DTD/svg11.dtd">
<!-- Creator: CorelDRAW 2021 (64 Bit) -->
<svg xmlns="http://www.w3.org/2000/svg" xml:space="preserve" width="272.984mm" height="57.7951mm" version="1.1" style="shape-rendering:geometricPrecision; text-rendering:geometricPrecision; image-rendering:optimizeQuality; fill-rule:evenodd; clip-rule:evenodd"
viewBox="0 0 7420.32 1571"
 xmlns:xlink="http://www.w3.org/1999/xlink"
 xmlns:xodm="http://www.corel.com/coreldraw/odm/2003">
 <defs>
  <style type="text/css">
   <![CDATA[
    .fil2 {fill:#0877B9;fill-rule:nonzero}
    .fil1 {fill:#1070B3;fill-rule:nonzero}
    .fil0 {fill:#2489CA;fill-rule:nonzero}
    .fil3 {fill:#3C99D4;fill-rule:nonzero}
   ]]>
  </style>
 </defs>
 <g id="Camada_x0020_1">
  <metadata id="CorelCorpID_0Corel-Layer"/>
  <g id="_2179941511536">
   <g>
    <path class="fil0" d="M15.11 547.83c0,0 -38.68,-27.88 7.74,-65.11l108.14 -96.7c0,0 30.94,-32.55 63.66,-4.19l997.88 755.5 0 362.28c0,0 -0.48,56.89 -73.49,50.6l-1103.92 -1002.39z"/>
    <path class="fil1" d="M272.32 781.35l-257.21 233.84c0,0 -26.43,19.66 0,54.79l119.42 108.62c0,0 28.36,30.46 70.26,-4.19l272.68 -206.76 -205.15 -186.3z"/>
    <path class="fil2" d="M723.87 783.28l471.7 -360.18 -3.06 -360.34c0,0 -20.14,-78.64 -87.34,-37.71l-627.7 571.3 246.41 186.94z"/>
    <path class="fil3" d="M1119.03 1550.71c27.4,28.04 60.59,18.85 60.59,18.85l367.6 -181.14c47.06,-32.07 40.45,-71.88 40.45,-71.88l0 -1081.68c0,-47.54 -48.67,-63.98 -48.67,-63.98l-318.61 -153.58c-69.62,-43.03 -115.23,7.74 -115.23,7.74 0,0 58.66,-42.22 87.35,37.71l0 1430.26c0,9.83 -2.1,19.5 -6.28,28.2 -8.38,16.92 -26.59,32.71 -70.26,26.11l3.06 3.39z"/>
   </g>
   <path class="fil0" d="M2233.25 557.17l-170.95 475.92 -88.36 0 -167.89 -475.92 86.32 0 117.48 361.05c3.74,11.56 6.57,24.92 8.61,40.22l1.36 0c1.47,-12.69 4.76,-26.28 9.63,-40.9l120.09 -360.37 83.72 0zm83.13 64.69c-12.57,0 -23.34,-4.08 -32.29,-12.23 -9.06,-8.27 -13.48,-18.58 -13.48,-31.27 0,-12.57 4.42,-23.11 13.48,-31.49 8.95,-8.38 19.71,-12.57 32.29,-12.57 13.03,0 24.13,4.19 33.19,12.57 9.06,8.38 13.59,18.92 13.59,31.49 0,12.01 -4.53,22.21 -13.59,30.7 -9.07,8.49 -20.17,12.8 -33.19,12.8zm38.18 411.23l-77.03 0 0 -339.86 77.03 0 0 339.86zm69.2 -10.65l0 -71.37c28.78,21.98 60.49,32.85 95.27,32.85 46.45,0 69.67,-13.71 69.67,-41.12 0,-7.7 -2.04,-14.28 -6,-19.71 -3.97,-5.44 -9.29,-10.31 -16.09,-14.5 -6.68,-4.19 -14.73,-7.93 -23.9,-11.22 -9.18,-3.4 -19.37,-7.14 -30.7,-11.33 -13.93,-5.55 -26.51,-11.33 -37.61,-17.56 -11.22,-6.23 -20.5,-13.26 -27.87,-21.07 -7.48,-7.93 -13.03,-16.77 -16.77,-26.74 -3.85,-9.97 -5.66,-21.53 -5.66,-34.89 0,-16.31 3.85,-30.81 11.56,-43.27 7.81,-12.46 18.24,-23 31.27,-31.49 13.03,-8.5 27.87,-14.96 44.41,-19.26 16.65,-4.31 33.76,-6.46 51.43,-6.46 31.49,0 59.59,4.76 84.4,14.27l0 67.29c-23.9,-16.31 -51.43,-24.47 -82.36,-24.47 -9.74,0 -18.58,0.91 -26.39,2.95 -7.82,1.92 -14.5,4.76 -20.05,8.27 -5.55,3.51 -9.86,7.82 -12.91,12.8 -3.17,4.99 -4.65,10.42 -4.65,16.43 0,7.25 1.47,13.48 4.65,18.58 3.06,5.1 7.59,9.63 13.71,13.48 6.12,3.85 13.37,7.36 21.98,10.54 8.5,3.29 18.24,6.8 29.34,10.54 14.61,5.89 27.64,12.01 39.31,18.24 11.67,6.23 21.53,13.25 29.68,21.07 8.16,7.82 14.5,16.88 18.92,27.19 4.42,10.31 6.68,22.54 6.68,36.7 0,17.22 -3.96,32.29 -12.01,45.09 -7.93,12.91 -18.58,23.45 -31.84,31.95 -13.25,8.38 -28.55,14.61 -45.99,18.69 -17.33,4.08 -35.69,6.12 -54.95,6.12 -37.16,0 -69.33,-6.12 -96.52,-18.58zm600.62 10.65l-77.03 0 0 -53.81 -1.36 0c-22.32,41.24 -57.1,61.74 -104.22,61.74 -80.32,0 -120.42,-48.15 -120.42,-144.67l0 -203.12 77.03 0 0 195.19c0,61.06 23.56,91.54 70.69,91.54 22.77,0 41.46,-8.39 56.19,-25.15 14.73,-16.88 22.09,-38.86 22.09,-66.04l0 -195.53 77.03 0 0 339.86zm350.94 0l-74.66 0 0 -53.13 -1.36 0c-23.45,40.78 -57.78,61.06 -103.21,61.06 -33.42,0 -59.59,-9.06 -78.51,-27.19 -18.92,-18.13 -28.32,-42.14 -28.32,-72.05 0,-64.12 36.93,-101.5 110.79,-112.15l100.94 -14.27c0,-48.49 -23,-72.73 -69.11,-72.73 -40.44,0 -76.92,14.05 -109.44,41.92l0 -67.41c35.8,-21.3 77.15,-31.83 124.05,-31.83 85.87,0 128.81,42.26 128.81,126.77l0 221.02zm-74.32 -166.99l-71.37 9.97c-22.09,2.95 -38.74,8.27 -49.96,16.09 -11.22,7.93 -16.77,21.64 -16.77,41.35 0,14.39 5.21,26.17 15.41,35.35 10.31,9.18 24.13,13.82 41.35,13.82 23.45,0 42.93,-8.27 58.23,-24.81 15.41,-16.43 23.11,-37.16 23.11,-62.2l0 -29.57zm235.5 166.99l-77.37 0 0 -503.11 77.37 0 0 503.11zm263.6 -18.92l0 -81.34c7.36,6.68 15.97,12.69 26.06,17.9 10.08,5.33 20.73,9.86 32.06,13.48 11.22,3.63 22.54,6.46 33.87,8.5 11.22,1.93 21.64,2.95 31.15,2.95 33.19,0 57.89,-5.55 74.2,-16.54 16.2,-11.1 24.36,-27.19 24.36,-48.15 0,-11.33 -2.72,-21.07 -8.16,-29.34 -5.33,-8.38 -12.91,-15.97 -22.66,-22.77 -9.74,-6.91 -21.18,-13.48 -34.33,-19.71 -13.25,-6.34 -27.3,-12.91 -42.37,-19.82 -16.2,-8.61 -31.15,-17.33 -45.09,-26.17 -13.93,-8.83 -26.06,-18.69 -36.36,-29.34 -10.31,-10.76 -18.35,-22.88 -24.24,-36.36 -5.89,-13.48 -8.84,-29.34 -8.84,-47.47 0,-22.32 5.1,-41.8 15.18,-58.23 9.97,-16.54 23.34,-30.13 39.76,-40.9 16.54,-10.65 35.23,-18.69 56.31,-23.9 20.96,-5.21 42.48,-7.81 64.35,-7.81 49.85,0 86.1,5.66 108.87,16.99l0 77.94c-26.96,-19.37 -61.74,-29.11 -104.22,-29.11 -11.67,0 -23.34,1.02 -35.01,3.28 -11.67,2.15 -21.98,5.89 -31.15,10.99 -9.18,4.99 -16.65,11.56 -22.43,19.49 -5.78,8.04 -8.61,17.67 -8.61,28.89 0,10.65 2.15,19.83 6.57,27.53 4.42,7.81 10.88,14.84 19.49,21.3 8.49,6.46 18.92,12.69 31.15,18.69 12.23,6.12 26.51,12.69 42.71,19.83 16.54,8.61 32.17,17.67 46.9,27.19 14.73,9.52 27.64,20.05 38.86,31.5 11.22,11.56 20.05,24.36 26.51,38.4 6.57,14.05 9.86,30.02 9.86,47.92 0,24.13 -4.87,44.52 -14.62,61.06 -9.74,16.65 -22.88,30.13 -39.31,40.56 -16.54,10.31 -35.46,17.9 -56.98,22.54 -21.41,4.65 -44.07,6.91 -67.97,6.91 -8.04,0 -17.79,-0.57 -29.45,-1.81 -11.56,-1.25 -23.45,-2.95 -35.68,-5.33 -12.12,-2.27 -23.68,-5.1 -34.44,-8.38 -10.88,-3.4 -19.6,-7.14 -26.28,-11.33zm532.88 15.29c-14.95,7.48 -34.78,11.22 -59.36,11.22 -65.93,0 -98.9,-31.6 -98.9,-94.93l0 -192.14 -56.76 0 0 -60.38 56.76 0 0 -78.62 77.04 -21.98 0 100.6 81.23 0 0 60.38 -81.23 0 0 169.93c0,20.16 3.62,34.55 10.88,43.16 7.36,8.61 19.48,12.92 36.59,12.92 13.03,0 24.24,-3.74 33.76,-11.22l0 61.06zm352.75 3.63l-77.03 0 0 -53.81 -1.36 0c-22.32,41.24 -57.1,61.74 -104.22,61.74 -80.32,0 -120.42,-48.15 -120.42,-144.67l0 -203.12 77.03 0 0 195.19c0,61.06 23.56,91.54 70.69,91.54 22.77,0 41.46,-8.39 56.19,-25.15 14.73,-16.88 22.09,-38.86 22.09,-66.04l0 -195.53 77.03 0 0 339.86zm399.09 0l-77.04 0 0 -57.78 -1.24 0c-24.81,43.84 -62.99,65.7 -114.53,65.7 -41.8,0 -75.34,-15.18 -100.37,-45.65 -25.15,-30.36 -37.72,-71.82 -37.72,-124.28 0,-56.19 13.93,-101.16 41.69,-135.04 27.75,-33.87 64.69,-50.75 111.02,-50.75 45.77,0 79.07,18.35 99.92,55.06l1.24 0 0 -210.37 77.04 0 0 503.11zm-76.02 -155.32l0 -44.52c0,-24.13 -7.81,-44.52 -23.56,-61.4 -15.75,-16.77 -35.69,-25.15 -60.04,-25.15 -28.78,0 -51.43,10.65 -67.86,32.17 -16.54,21.41 -24.81,51.21 -24.81,89.27 0,34.55 7.93,61.74 23.79,81.79 15.75,20.05 37.05,30.02 63.89,30.02 26.28,0 47.69,-9.63 64.01,-29 16.43,-19.37 24.58,-43.73 24.58,-73.18zm205.25 -255.92c-12.57,0 -23.34,-4.08 -32.29,-12.23 -9.06,-8.27 -13.48,-18.58 -13.48,-31.27 0,-12.57 4.42,-23.11 13.48,-31.49 8.95,-8.38 19.71,-12.57 32.29,-12.57 13.03,0 24.13,4.19 33.19,12.57 9.06,8.38 13.59,18.92 13.59,31.49 0,12.01 -4.53,22.21 -13.59,30.7 -9.07,8.49 -20.17,12.8 -33.19,12.8zm38.18 411.23l-77.03 0 0 -339.86 77.03 0 0 339.86zm241.05 7.93c-52.34,0 -94.25,-15.86 -125.52,-47.58 -31.38,-31.72 -47.01,-73.86 -47.01,-126.32 0,-57.1 16.31,-101.62 48.94,-133.79 32.63,-32.06 76.58,-48.03 131.98,-48.03 53.13,0 94.48,15.52 124.05,46.79 29.68,31.15 44.52,74.43 44.52,129.71 0,54.26 -15.98,97.65 -47.92,130.28 -32.06,32.63 -75,48.94 -129.03,48.94zm3.74 -294.32c-30.13,0 -53.92,10.42 -71.37,31.49 -17.45,21.07 -26.28,49.96 -26.28,87.01 0,35.57 8.95,63.67 26.62,84.06 17.67,20.51 41.35,30.7 71.03,30.7 30.25,0 53.58,-10.08 69.79,-30.13 16.31,-20.17 24.47,-48.83 24.47,-85.99 0,-37.39 -8.16,-66.27 -24.47,-86.67 -16.2,-20.39 -39.54,-30.47 -69.79,-30.47zm768.74 266.45c-35.8,18.58 -80.44,27.87 -133.68,27.87 -69.11,0 -124.39,-21.75 -165.97,-65.37 -41.58,-43.62 -62.42,-100.83 -62.42,-171.63 0,-76.02 23.45,-137.53 70.24,-184.43 46.79,-47.01 105.92,-70.46 177.41,-70.46 46,0 84.17,6.57 114.42,19.6l0 78.39c-32.06,-19.03 -67.41,-28.55 -106.15,-28.55 -51.55,0 -93.35,16.43 -125.3,49.4 -31.95,32.97 -48.03,77.03 -48.03,132.09 0,52.45 14.95,94.25 44.86,125.29 29.91,31.15 69.11,46.67 117.82,46.67 44.86,0 83.83,-10.65 116.8,-31.83l0 72.96zm222.24 27.87c-52.34,0 -94.25,-15.86 -125.52,-47.58 -31.38,-31.72 -47.01,-73.86 -47.01,-126.32 0,-57.1 16.31,-101.62 48.94,-133.79 32.63,-32.06 76.58,-48.03 131.98,-48.03 53.13,0 94.48,15.52 124.05,46.79 29.68,31.15 44.52,74.43 44.52,129.71 0,54.26 -15.98,97.65 -47.92,130.28 -32.06,32.63 -75,48.94 -129.03,48.94zm3.74 -294.32c-30.13,0 -53.92,10.42 -71.37,31.49 -17.45,21.07 -26.28,49.96 -26.28,87.01 0,35.57 8.95,63.67 26.62,84.06 17.67,20.51 41.35,30.7 71.03,30.7 30.25,0 53.58,-10.08 69.79,-30.13 16.31,-20.17 24.47,-48.83 24.47,-85.99 0,-37.39 -8.16,-66.27 -24.47,-86.67 -16.2,-20.39 -39.54,-30.47 -69.79,-30.47zm550.44 286.39l-77.04 0 0 -57.78 -1.24 0c-24.81,43.84 -62.99,65.7 -114.53,65.7 -41.8,0 -75.34,-15.18 -100.37,-45.65 -25.15,-30.36 -37.72,-71.82 -37.72,-124.28 0,-56.19 13.93,-101.16 41.69,-135.04 27.75,-33.87 64.69,-50.75 111.02,-50.75 45.77,0 79.07,18.35 99.92,55.06l1.24 0 0 -210.37 77.04 0 0 503.11zm-76.02 -155.32l0 -44.52c0,-24.13 -7.81,-44.52 -23.56,-61.4 -15.75,-16.77 -35.69,-25.15 -60.04,-25.15 -28.78,0 -51.43,10.65 -67.86,32.17 -16.54,21.41 -24.81,51.21 -24.81,89.27 0,34.55 7.93,61.74 23.79,81.79 15.75,20.05 37.05,30.02 63.89,30.02 26.28,0 47.69,-9.63 64.01,-29 16.43,-19.37 24.58,-43.73 24.58,-73.18zm454.15 6.34l-231.56 0c0.79,31.38 10.54,55.62 29,72.62 18.46,17.11 43.84,25.6 76.13,25.6 36.36,0 69.56,-10.88 99.92,-32.51l0 61.97c-30.93,19.48 -71.94,29.23 -122.8,29.23 -49.96,0 -89.16,-15.41 -117.59,-46.22 -28.44,-30.93 -42.71,-74.32 -42.71,-130.28 0,-52.9 15.63,-95.95 47.01,-129.26 31.27,-33.31 70.12,-49.96 116.57,-49.96 46.56,0 82.47,14.95 107.96,44.75 25.38,29.91 38.06,71.37 38.06,124.5l0 29.57zm-74.32 -54.49c-0.23,-27.64 -6.68,-49.16 -19.6,-64.57 -12.8,-15.3 -30.47,-23 -53.02,-23 -22.2,0 -40.9,8.04 -56.3,24.24 -15.41,16.09 -24.81,37.27 -28.32,63.33l157.24 0z"/>
  </g>
 </g>
</svg>
