<?xml version="1.0" encoding="UTF-8"?>
<!DOCTYPE svg PUBLIC "-//W3C//DTD SVG 1.1//EN" "http://www.w3.org/Graphics/SVG/1.1/DTD/svg11.dtd">
<!-- Creator: CorelDRAW 2021 (64 Bit) -->
<svg xmlns="http://www.w3.org/2000/svg" xml:space="preserve" width="274.934mm" height="50.7392mm" version="1.1" style="shape-rendering:geometricPrecision; text-rendering:geometricPrecision; image-rendering:optimizeQuality; fill-rule:evenodd; clip-rule:evenodd"
viewBox="0 0 7541.36 1391.76"
 xmlns:xlink="http://www.w3.org/1999/xlink"
 xmlns:xodm="http://www.corel.com/coreldraw/odm/2003">
 <defs>
  <style type="text/css">
   <![CDATA[
    .fil1 {fill:black}
    .fil0 {fill:#77BD43}
    .fil2 {fill:url(#id0)}
   ]]>
  </style>
  <linearGradient id="id0" gradientUnits="userSpaceOnUse" x1="964.23" y1="1111.26" x2="265.66" y2="107.85">
   <stop offset="0" style="stop-opacity:1; stop-color:#086C38"/>
   <stop offset="0.101961" style="stop-opacity:1; stop-color:#0D6F38"/>
   <stop offset="0.321569" style="stop-opacity:1; stop-color:#137339"/>
   <stop offset="0.678431" style="stop-opacity:1; stop-color:#509B41"/>
   <stop offset="1" style="stop-opacity:1; stop-color:#549E42"/>
  </linearGradient>
 </defs>
 <g id="Camada_x0020_1">
  <metadata id="CorelCorpID_0Corel-Layer"/>
  <g id="_2143997657984">
   <path class="fil0" d="M1132.15 377.9c-2.47,15.06 -89.63,76.19 -106.97,86.57 -146.61,87.82 -293.12,88.57 -454.39,123.8 -36.5,7.98 -105.51,42.98 -127.84,65.19 -42.91,42.68 -60.82,44.18 -84,108.23 -17.81,49.22 -31.8,99.61 -28.7,163.37 1.64,33.8 31.33,137.65 52.02,149.5 253.69,-45.83 392.83,-73.23 602.27,-235.04 19.6,-15.14 45.36,-46.75 65.97,-64.15 18.12,-15.3 43.55,-53.44 58.6,-71.1 14.24,-16.72 50.12,-81.73 67.4,-128.73 9.87,77.37 -125.15,268.07 -150.36,294.2 -66.7,69.14 -126.53,124.61 -215.07,168.73 -187.39,93.36 -347.64,133.45 -552.76,167.02 -32.89,5.38 -25.87,12.59 -18.73,17.48 149.1,100.68 322.56,184.89 506.65,166.14 98.4,-10.02 156.03,-27.31 236.28,-54.36 35.57,-11.99 150.93,-85.02 178.98,-111.42 124.15,-116.84 160.89,-199.43 220.08,-360.23 19.09,-51.89 24.88,-199.56 13.77,-263.94 -15.49,-89.73 -50.37,-186.33 -95.95,-265.76 -4.07,-7.08 -45.85,-64.04 -69.5,-85.59l-97.73 130.07z"/>
   <path class="fil1" d="M4679.19 885.82c0,29.6 -45.65,64.92 -70.16,75.83 -50.25,22.37 -59.7,21.79 -115.45,15.36 -70.33,-8.12 -111.83,-95.17 -117.63,-170.87 -6.27,-81.88 44.28,-166.32 108.81,-179.65 53.34,-11.02 74.21,-12.6 123.9,7.18 27.26,10.85 70.52,36.93 70.52,73.33l0 178.82zm-1232.55 -577.7c-42.14,1.49 -68.31,30.11 -65.18,84.03 1.84,31.91 35.87,63.1 73.31,59.64 100.56,-9.28 92.54,-148.79 -8.12,-143.67zm55 773.63c11.68,0 12.09,-1.02 12.09,-12.46l0 -527.18c0,-26.56 -30.6,-17.37 -58.54,-17.37 -28.51,0 -57.22,-9.66 -57.22,17.37l0.87 539.37 102.8 0.27zm-206.75 -457.01l-0.66 -112.24c-21.25,-15.23 -90.05,17.56 -104.02,24.79 -22.98,11.89 -54.67,57.71 -75.13,58.27 -0.31,-11.44 0.5,-66.16 -3.77,-72.28l-118.72 2.5 2.66 557.39 113.91 -0.18c12.23,-20.99 -5.94,-357.58 6.67,-388.06 24.04,-58.12 129.75,-62.41 179.06,-70.19zm3540.12 -316.49l0.13 771.61c31.24,5.57 73.09,2.68 105.95,2.68 13.55,0 16.57,1.36 16.57,-13.25l-0.83 -761.03 -121.82 -0zm-1780.41 20.19l0 83.61c0,39.31 205.14,-5.09 229.5,17.38 9.61,8.88 5.09,494.13 5.09,581.8 0,13.98 0.15,27.97 -0.18,41.94 -0.89,37.39 -9.49,28.58 119.31,28.58 21.15,0 12.57,-50.65 12.57,-70.52l0 -246.17c0,-108.47 -2.88,-220.86 0.15,-328.84 26.89,-16.05 131.45,-9.55 180.03,-9.54 61.86,0.01 52.4,19.37 52.4,-98.23 0,-26.64 -34,-17.14 -61.69,-17.14l-473.77 0c-26.31,0 -63.42,-8.19 -63.42,17.14zm2074.99 276.78c-27,25.36 -44.45,62.75 -39.61,115.3 4.88,53.02 18.98,75.8 50.56,105.2 51.29,47.76 164.58,48.71 233.35,77.73 47.47,20.03 39,72.95 -9.06,88.13 -40.49,12.79 -99.15,4.16 -135.15,-8.88l-102.69 -54.17 -53.22 96.63c6.28,40.61 161.93,75.54 211.82,82.85 102.83,15.07 253.03,-42.94 255.7,-166.44 0.97,-45.01 -6.01,-75.98 -29.24,-101.88 -89.84,-100.15 -230.32,-81.33 -274.98,-115.28 -47.45,-52.87 58.49,-97.52 148.34,-64.83 21.43,7.8 70.89,34.48 84.86,46.47l51.71 -91.95c-6.47,-19.72 -99.07,-59.41 -127.48,-63.86 -28.27,-4.43 -45.18,-11.61 -81.94,-12.39 -64.47,-1.37 -135.79,23.09 -182.95,67.38zm-3128.62 -97.42c-47.48,-2.16 -101,-0.13 -133.24,17.44 -11.51,6.27 -76.35,44.64 -91.72,70.83 -0.22,-9.96 0.31,-70.82 -3.86,-75.76 -16.17,-0 -116.72,-3.34 -123.24,2.07l-0.09 557.79 123.23 -0.57c7.02,-7.17 2.7,-260.55 2.7,-293.65 0,-63.69 -11.25,-89.51 24.51,-125.07 24.41,-24.28 56.13,-43.39 104.1,-44.26 124.05,-2.26 125.3,54.8 125.3,171.66 -0,36.59 -6.4,280.67 2.95,292.28l115.5 0.29c7.01,-9.05 3.07,-253.6 3.07,-287.92 0,-71.79 3.01,-132.74 -18.13,-198.42 -17.05,-52.97 -78.24,-84.61 -131.06,-86.7zm2309.45 315.31c-8.14,-45.12 14.64,-116.13 33.49,-139.73 24.71,-30.93 56.17,-61.86 109.52,-65.2 116.27,-7.27 173.07,68.41 184.07,166.1 10.36,91.99 -58.86,199.28 -142.16,202.77 -58.87,2.46 -102.83,-8.62 -131.48,-41.85 -8.1,-9.39 -34.9,-38.06 -36.62,-50.09 -2.63,-18.41 -13.6,-54.14 -16.82,-72zm145.14 275.72c33.76,0.19 58.26,-2.36 87.28,-8.02 122.88,-23.92 207.71,-137.33 214.88,-258.38 4.5,-76.04 -4.94,-113.48 -29.8,-167.38 -37.37,-81.02 -127.59,-153.9 -237.39,-156.99 -73.88,-2.08 -116.17,4.44 -164.18,32.76 -121.15,71.47 -159.99,209.32 -131.14,342.66 25.42,117.49 138.67,214.65 260.35,215.34zm-608.3 -114.32c-92.41,0 -159.95,-97.71 -153.11,-188.48 7.64,-101.53 50.45,-178.89 160.1,-179.4 217.79,-1.01 207.85,367.88 9.27,367.88l-16.25 0zm-281.56 -143.86c16.53,146.98 132.67,254.74 279.17,254.61 92.32,-0.08 193.11,-24.67 243.36,-112.11 11.76,-20.46 21.44,-31.71 29.93,-58.5 43.31,-136.72 27.75,-304.57 -112.95,-377.83 -57.3,-29.84 -99.68,-44.19 -187.19,-36.46 -26.66,2.35 -70.62,12.88 -90.04,23.88 -116.12,65.82 -178.22,164.6 -162.27,306.41zm-2778.5 -1.28c-8.5,58.03 -20.7,81.98 -52.05,118.53 -18.62,21.71 -85.59,45.42 -127.47,31.59 -52.57,-17.36 -71.6,-25.68 -107.66,-61.28 -24.79,-24.46 -12.14,-114.17 -12.15,-158.52 -0,-89.35 -5.25,-76.96 46.84,-121.51 27.97,-23.92 83.26,-41.96 137.02,-30.16 37.74,8.3 74.46,42.7 93.07,75.67 20.64,36.53 30.31,91.65 22.4,145.67zm-205.98 241.68c102.03,33.29 221.77,8.92 285.27,-82.34 31.17,-44.8 56.52,-134.27 55.6,-210.57 -0.47,-39.02 -24.51,-129.48 -41.81,-158.99 -26.93,-45.96 -48.91,-72.86 -100.37,-98.95 -32.84,-16.65 -62.21,-23.34 -109.64,-23.04 -141.72,0.91 -159.88,86.85 -180.95,87.76 -0.46,-10.78 -1.03,-66.26 -4.46,-71.79l-116.3 2.62 2.36 770.53 116.38 -1.9 2.76 -279.57c28.74,26.17 53.14,53.83 91.14,66.23zm-741.49 -5.65c60.97,25.07 127.24,26.58 191.93,25.97 44.6,-0.43 127.88,-22.67 163.15,-52.31 19.49,-16.37 43.14,-30.53 57.19,-52.05 29.62,-45.37 52.7,-103.89 36.88,-170.8 -14.53,-61.46 -35.57,-103.66 -83.69,-132.8 -55.56,-33.65 -85.52,-44.66 -154.19,-64.23 -49.13,-14 -124.22,-27.85 -164.04,-51.65 -24.97,-14.93 -45.22,-24.91 -47,-61.12 -3.31,-67.44 66.93,-89.49 118.59,-97.75 122.13,-19.52 201,62.18 242.56,82.14l74.27 -95.15 -3.86 -2.89c-7.19,-15.24 -64.77,-50.96 -83.39,-61.32 -107.6,-59.85 -245.66,-60.1 -357.71,-13.76 -66.03,27.31 -103.42,85.58 -124.73,162.55 -22.48,81.2 42.4,172.26 87.15,200.13 98.2,61.16 246.99,63.73 318.78,113.28 48.65,33.58 71.85,85.81 15.83,133.73 -74.96,64.12 -207.14,45.95 -288.64,3.62 -21.4,-11.11 -70.54,-61.1 -85.91,-60.99l-70.06 98.44c67.41,54.02 75.94,63.68 156.9,96.95zm2454.87 -460.31c-24.02,36.4 -30.13,54.74 -38.35,105.31 -13.59,83.62 -5.55,188.01 32.21,245.06 35.76,54.01 88.39,113 172.23,116.69 65.88,2.9 78.39,2.04 125.56,-17.7 37.6,-15.74 79.39,-56.74 87.45,-59.51 2.84,125.79 -8.86,163.29 -109.56,198.02 -36.47,12.58 -109.09,2.53 -139.04,-7.13 -71.03,-22.91 -68.64,-55.97 -94.71,-55.96l-48.8 85.55c56.05,70.09 150.11,84.38 269.8,81.15 80.54,-2.18 136.38,-28.53 187.67,-75.13 11.37,-10.33 34.23,-47.93 34.8,-48.36 39.32,-72.74 27.49,-213.29 27.49,-318.15 0,-41.86 3.61,-330.06 -2.06,-343.13l-121.3 -1.42 -1.09 66.06c-7.98,-0.11 -73.43,-68.06 -141.1,-75.53 -48.15,-5.31 -39.64,-7.21 -91.18,-0.57 -61.53,7.93 -116.83,54.52 -150,104.77z"/>
   <path class="fil2" d="M174.35 1168.43l41.58 38.35 17.98 12.33c-3.02,-5.46 1.33,-9.61 24.4,-13.6 205.12,-33.57 365.37,-73.66 552.76,-167.02 88.54,-44.12 148.37,-99.58 215.07,-168.73 25.21,-26.14 157.46,-218.22 150.36,-294.2 -18.8,43.94 -53.16,112.01 -67.4,128.73 -38.52,45.24 -76.92,98.45 -124.56,135.25 -52.53,40.59 -181.67,128.99 -243.99,145.96 -122.37,47.58 -234.71,65.91 -358.28,89.08 -20.68,-11.86 -50.38,-115.7 -52.02,-149.5 -3.09,-63.77 10.89,-114.16 28.7,-163.37 29.5,-81.5 128.49,-155.21 211.84,-173.42 48.86,-10.68 300.18,-48.07 322.51,-62.48 20,-12.9 49.74,-16.33 69.38,-26.51 19.46,-10.09 43.35,-23.34 62.5,-34.81 17.34,-10.38 104.5,-71.52 106.97,-86.57l97.73 -130.07c-20.41,-22.35 -68.95,-89.08 -94.58,-86.34 -38.8,4.15 -93.71,93.22 -109.51,88.35 -10.55,-3.26 -22.72,-12.81 -36.79,-28.22l34.87 -140.85c-1.51,-0.39 -107.82,-55.37 -127.06,-42.28 -4.5,3.06 -63.33,117.84 -63.13,119.45 -15.31,-1.42 -39.83,-5.27 -47.62,-7.8l-21.59 -149.88 -122.8 -0.25c-14.65,19.31 -19.55,68.81 -20.7,96.22 -2.1,50.07 1.76,60.54 -54.42,57.5 -7.24,-12.63 -68.15,-124.2 -73.1,-124.38l-60.7 20.8c-9.94,4.92 -53.73,23.98 -57.98,30.45 10.37,47.01 37.91,129.42 31.1,141.04 -32.53,35.97 -43.38,20.5 -76.02,-3.09 -14.39,-10.4 -65.06,-53.67 -79.56,-53.8 -7.41,1.75 -75.63,69.07 -80.45,76.52 -13.45,20.82 10.17,37.69 20.39,49.65 49.3,61.22 62.26,69.02 53.09,93.2 -8.13,21.44 -14.09,36.78 -39.48,25.28 -30.01,-13.59 -112.18,-38.03 -124.6,-35.84l-44.3 120.4c8.48,9.33 103.07,65.6 121.44,77l-0.52 47.4c-50.57,7.11 -144.16,8.72 -151.73,21.33 -7.07,10.53 -2.97,55.4 -2.98,71.97 -0.02,25.29 -6.5,54.2 15.19,59.88 22.06,5.79 130.89,9.12 139.9,17.72l0.33 45.22 -113.45 67.6c-17.95,10.4 28.43,118.63 39.96,129.36 12.57,5.41 120.25,-33.37 136.53,-31.15 9.1,1.24 28.37,23.31 28.44,33.87 -0.8,16.5 -38.59,56.24 -61.9,87.67 -15.21,20.51 -27.69,30.26 -11.83,46.63z"/>
  </g>
 </g>
</svg>
