<?xml version="1.0" encoding="UTF-8"?>
<!DOCTYPE svg PUBLIC "-//W3C//DTD SVG 1.1//EN" "http://www.w3.org/Graphics/SVG/1.1/DTD/svg11.dtd">
<!-- Creator: CorelDRAW 2021 (64 Bit) -->
<svg xmlns="http://www.w3.org/2000/svg" xml:space="preserve" width="118.501mm" height="103.172mm" version="1.1" style="shape-rendering:geometricPrecision; text-rendering:geometricPrecision; image-rendering:optimizeQuality; fill-rule:evenodd; clip-rule:evenodd"
viewBox="0 0 860.33 749.04"
 xmlns:xlink="http://www.w3.org/1999/xlink"
 xmlns:xodm="http://www.corel.com/coreldraw/odm/2003">
 <defs>
  <style type="text/css">
   <![CDATA[
    .fil6 {fill:#045F89}
    .fil5 {fill:#D9982D}
    .fil0 {fill:#D9D9D9}
    .fil4 {fill:#E8F8FF}
    .fil7 {fill:black;fill-rule:nonzero}
    .fil3 {fill:#E8F8FF;fill-rule:nonzero}
    .fil2 {fill:url(#id0)}
    .fil1 {fill:url(#id1)}
   ]]>
  </style>
  <linearGradient id="id0" gradientUnits="userSpaceOnUse" x1="430.16" y1="444.5" x2="430.16" y2="14.3">
   <stop offset="0" style="stop-opacity:1; stop-color:#193E5A"/>
   <stop offset="0.270588" style="stop-opacity:1; stop-color:#1A415E"/>
   <stop offset="1" style="stop-opacity:1; stop-color:#2F6795"/>
  </linearGradient>
  <linearGradient id="id1" gradientUnits="userSpaceOnUse" x1="430.16" y1="451.93" x2="430.16" y2="6.87">
   <stop offset="0" style="stop-opacity:1; stop-color:#1F496A"/>
   <stop offset="1" style="stop-opacity:1; stop-color:#3A7DB4"/>
  </linearGradient>
 </defs>
 <g id="Camada_x0020_1">
  <metadata id="CorelCorpID_0Corel-Layer"/>
  <g id="_2179706305872">
   <g>
    <rect class="fil0" x="200.76" width="458.8" height="458.8" rx="65.62" ry="65"/>
    <rect class="fil1" x="207.64" y="6.87" width="445.05" height="445.05" rx="58.8" ry="58.24"/>
    <rect class="fil2" x="215.06" y="14.3" width="430.2" height="430.2" rx="52.25" ry="51.76"/>
    <g>
     <path class="fil3" d="M586.31 317.94c-19.03,-0.23 -33.78,1.83 -46.16,7.13 -3.57,1.45 -9.28,1.52 -9.75,5.97 1.9,1.85 2.14,4.88 3.81,7.43 2.86,4.64 7.85,10.89 12.37,14.1 5,3.68 9.99,7.35 15.23,10.56 9.28,5.49 19.75,8.63 28.79,14.13 5.24,3.2 10.47,7.35 15.7,10.79 2.62,1.84 4.28,4.85 7.61,5.98l0 -0.7c-1.67,-2.08 -2.14,-5.12 -3.81,-7.43 -2.38,-2.31 -4.76,-4.38 -7.14,-6.69 -6.9,-9.03 -15.46,-16.87 -24.74,-23.3 -7.61,-5.05 -24.27,-11.85 -27.36,-20.46 0,0 -0.24,-0.23 -0.48,-0.46 5.24,-0.53 11.42,-2.48 16.42,-3.95 8.09,-2.21 15.47,-1.83 23.79,-4.04 3.81,-0.98 7.61,-2.2 11.42,-3.42l0 -2.1c-4.28,-4.15 -7.37,-9.73 -11.9,-13.64 -12.13,-10.14 -25.46,-20.02 -39.26,-28.26 -7.38,-4.58 -16.89,-7.5 -24.74,-11.38 -2.85,-1.37 -7.61,-2.01 -9.28,-4.33 -4.28,-5.09 -6.66,-11.84 -9.76,-17.88 -6.9,-12.77 -13.56,-26.95 -19.51,-40.43 -4.28,-9.06 -6.9,-18.15 -12.13,-26.5 -24.5,-39.43 -51.15,-63.18 -92.07,-86.27 -8.8,-4.8 -19.27,-6.77 -30.45,-9.2 -5.95,-0.16 -11.9,-0.55 -17.84,-0.71 -3.81,-1.59 -7.61,-5.98 -10.95,-8.04 -13.56,-8.25 -48.53,-26.04 -58.53,-1.83 -6.42,15.28 9.52,30.04 14.99,37.68 4.05,5.33 9.28,11.34 12.13,17.38 1.67,3.95 2.14,8.15 3.81,12.34 3.81,10.24 7.38,21.65 12.37,31.17 2.62,4.88 5.47,9.98 8.8,14.38 1.9,2.55 5.23,3.68 5.95,7.87 -3.33,4.72 -3.57,11.73 -5.47,17.6 -8.56,26.52 -5.23,59.21 6.9,78.46 3.81,5.8 12.85,18.54 24.98,13.48 10.71,-4.34 8.33,-17.64 11.42,-29.37 0.72,-2.82 0.24,-4.68 1.67,-6.57 0,0.23 0,0.47 0,0.47 3.33,6.5 6.66,12.77 9.75,19.28 7.38,11.36 20.22,23.12 30.93,30.94 5.71,4.13 10.23,11.33 17.37,13.81l0 -0.7 -0.48 0.01c-1.43,-2.09 -3.57,-2.99 -5.47,-4.61 -4.28,-4.15 -9.04,-9.24 -12.37,-13.87 -9.99,-12.97 -18.8,-27.35 -26.65,-42.21 -3.81,-7.2 -7.14,-15.11 -10.23,-22.31 -1.43,-2.79 -1.43,-7 -3.81,-8.37 -3.57,5.19 -8.8,9.7 -11.42,16.04 -4.52,10.11 -5,22.51 -6.66,35.38 -0.95,0.25 -0.48,0.01 -0.95,0.48 -7.61,-1.78 -10.23,-9.46 -13.08,-15.97 -7.14,-16.51 -8.33,-43.14 -2.14,-62.39 1.67,-4.93 8.8,-20.45 5.95,-25.09 -1.43,-4.43 -6.19,-6.94 -8.8,-10.41 -3.09,-4.4 -6.42,-9.97 -8.56,-14.85 -5.71,-13.02 -8.57,-27.48 -14.75,-40.49 -2.86,-6.04 -7.85,-12.29 -11.9,-17.85 -4.52,-6.26 -9.52,-10.63 -13.08,-18.07 -1.19,-2.56 -2.86,-6.74 -0.95,-9.57 0.48,-1.88 1.43,-2.59 3.33,-3.08 3.09,-2.61 11.9,0.55 14.99,1.91 8.8,3.39 16.18,6.58 23.55,11.39 3.33,2.3 6.9,6.69 11.18,7.81l5 -0.06c7.61,1.54 16.18,0.26 23.32,2.28 12.61,3.81 24.03,9.52 34.26,15.7 31.17,19.01 56.86,46.27 74.23,79.02 2.86,5.34 4.04,10.24 6.66,15.81 5,11.39 11.18,23 16.18,34.16 5,10.92 9.75,22.09 16.89,31.11 3.57,4.86 17.84,7.26 24.27,9.75 4.76,2.04 12.13,3.82 16.42,6.34 8.09,4.81 16.18,10.32 23.79,15.6 3.81,2.76 15.7,8.45 16.42,13.12l0 0 0 0z"/>
     <path class="fil3" d="M343.63 117.85c-4.05,0.05 -6.9,0.56 -9.75,1.29 0,-0 0,0.23 0,0.47l0.48 -0.01c1.91,3.72 5.23,6.25 7.61,9.49 1.91,3.72 3.57,7.44 5.47,11.15 0.24,-0.24 0.47,-0.47 0.47,-0.47 3.33,-2.38 5,-6.14 5,-11.75 -1.43,-1.62 -1.67,-3.25 -2.86,-4.87 -1.43,-2.32 -4.52,-3.45 -6.42,-5.3l0 0 0 0z"/>
    </g>
    <path class="fil4" d="M560.28 95.15l5.59 6.06 -3.62 3.38c-0.06,4.25 5.42,7.26 8.51,10.24 5.76,5.56 20.14,22.23 24.75,25.07 16.03,9.89 33.98,-6.24 26.41,-21.13 -3.67,-7.22 -34.11,-35.92 -35.96,-36.31l-4.54 3.5c-2.93,-1.13 -4.41,-3.5 -6.53,-5.76 -3.83,-4.07 -0.62,-5.66 -0.02,-9.21 1.38,-8.17 -0.1,-13.85 -3.54,-20.72 -7.28,-14.53 -28.67,-17.28 -33.65,-11.88l16.12 18.07c0.13,2.98 -12.72,16.24 -15.78,17.21l-19.28 -17.55 -0.6 0.63c-2.64,12.31 0.37,24.21 9.68,31.83 4.45,3.65 9.96,5.57 15.76,5.91 7.1,0.41 14.01,-4.56 16.72,0.66z"/>
   </g>
   <g>
    <g>
     <path class="fil5" d="M785.35 633.46c0.57,4.44 2.51,8.11 4.82,11.34l5.68 4.02c1.21,0.44 2,0.92 3.39,1.37 6.47,2.07 12.43,0.64 18.2,-3.39l3.89 -3.59c0.63,-0.71 0.47,-0.73 1.08,-1.48 1.63,-2 0.74,-0.21 1.81,-3.35 1.31,-3.84 1.46,-11.45 0.12,-15.41 -0.75,-2.22 -4.75,-7.74 -6.45,-8.72l-1.58 -0.93c-1.31,-1.2 -2.95,-1.65 -4.93,-2.12 -3.71,-0.88 -8.33,-1.16 -12.22,0.05 -1.52,0.47 -1.91,0.81 -3.21,1.53 -3.51,1.94 -5.51,2.76 -7.75,7.19 -0.56,1.12 -1.49,2.2 -1.82,3.33 -0.73,2.46 -1.44,6.99 -1.04,10.16zm-133.17 -109.75c-1.33,2.65 -0.58,12.8 -0.58,17.01l-0 71.5c0.01,4.46 -0.48,8.79 0.73,12.18l0.91 3.17c1.25,4.3 0.88,2.21 2.05,4.09 2.09,3.36 5.39,7.12 8.33,9.26l4.5 2.74c1,0.5 1.82,0.6 2.78,1.08 0.77,0.39 1.59,1.06 2.26,1.27 1.81,0.57 4.27,0.53 6.24,1.01 1.99,0.5 3.49,1.11 5.73,1.45 2.23,0.34 4.49,0.13 6.74,0.32 2.11,0.18 4.03,0.9 6.07,0.94 15.28,0.31 32.54,0.04 47.87,0.01 4.59,-0.01 24.3,0.65 26.92,-0.42 0.29,-4.66 0.14,-10.47 0.12,-15.24 -0.02,-3.21 -0.82,-3.41 -3.23,-3.41l-53.41 0.01c-7.72,0 -26.17,2.05 -32.78,-3.91 -0.42,-0.38 -0.54,-0.44 -0.95,-0.97 -2.21,-2.9 -2.95,-5.44 -2.94,-9.66 0.05,-12.07 0.41,-91.1 -0.34,-92.09 -0.62,-0.87 -24.09,-0.58 -27.02,-0.38zm-145.38 13.83c-1.15,-0.12 -1.66,0.88 -2.54,2.09l-0.53 0.76c-0.25,0.38 -0.17,0.27 -0.37,0.61 -0.25,0.42 -0.56,0.93 -0.86,1.36 -1.62,2.29 -2.72,9.17 -2.71,12.37l0.01 56.06c0,6.59 -0.3,13.94 1.85,18.14 0.77,1.51 1.54,4.14 3.15,6.33l4.23 4.55 11.01 6.16 6.58 1.88c13.24,4.01 45.38,1.21 61.48,0.91 3.77,-0.07 3.96,-0.57 6.41,1.84 2.99,2.95 6.16,5.47 9.46,8.22 13.73,11.45 6.18,8.84 24.81,8.84 3.93,0 12.42,0.68 15.52,-0.43l-12.36 -11.68c-1.12,-1.07 -2.11,-1.6 -3.25,-2.62l-6.03 -5.8c-1.06,-1.25 -5.66,-2.62 -0.17,-5.03 1.98,-0.87 5.77,-4.1 7.28,-5.62 1.94,-1.95 4.82,-9.25 5.22,-12.84 0.39,-3.51 0.1,-33.52 0.1,-39.8 0,-8.26 0.84,-33.26 -1.09,-38.46 -1.24,-3.33 -2.05,-5.33 -3.92,-7.41 -0.43,-0.48 -0.6,-0.76 -0.99,-1.23 -1.11,-1.32 -10.36,-7 -12.96,-8.01 -8.63,-3.37 -16.69,-4.24 -27.47,-4.25 -10.24,-0.01 -20.47,0.01 -30.71,-0 -10.5,-0.01 -20.08,-0.4 -29.47,1.61l-9.56 2.73c-0.87,0.5 -1.52,0.86 -2.49,1.35l-2.85 1.37c-1.3,0.79 -1.6,0.11 -2.81,1.48 -2.06,2.34 -4.37,2.79 -3.96,4.52zm22.16 19.71c0.01,-3.99 0.86,-5.63 2.16,-7.9 0.38,-0.66 3.95,-4.48 4.51,-4.8 0.66,-0.37 2.51,-0.92 3.21,-1.21 5.48,-2.23 40.03,-1.37 50.09,-1.37 8.01,0 8.45,0.7 14.6,3.23 0.64,0.26 3.84,3.66 4.25,4.45 1.05,2.02 1.86,4.6 1.86,7.59l-0 54.26c-0,7.1 0.6,7.17 -1.32,11.93 -0.44,1.1 -0.64,1.97 -1.44,2.67 -2.87,2.49 -4.05,3.81 -6.87,0.84 -0.79,-0.83 -1.4,-1.07 -2.16,-1.87 -2.81,-2.99 -2.99,-2.83 -5.97,-5.55 -1.36,-1.24 -2.79,-2.74 -4.08,-3.69 -5.73,-4.22 -2.97,-5.25 -9.66,-5.23l-19.37 -0c-2.38,-0 -10.39,-0.9 -5.83,2.66l8.39 7.14c1.54,2.34 1.17,1.41 3.01,2.87 1.39,1.1 0.92,1.78 2.96,2.64 1.57,0.66 5.24,3.63 5.19,5.91l-17.59 0.03c-6.71,-0.02 -8.34,0.19 -14.83,-1.22 -2.8,-0.61 -1.62,-0.86 -3.28,-1.73 -1.89,-0.99 -1.61,-0.27 -3.26,-1.89 -3.52,-3.45 -4.56,-6.36 -4.56,-11.94l0 -57.85zm-48.48 -15.6c2.73,-0 2.64,0.49 2.64,-3.09 -0.03,-17.61 1.44,-14.14 -8.17,-14.17 -15.38,-0.05 -71.15,-0.66 -82.71,0.77 -3.01,0.37 -14.79,3.85 -17.26,5.73 -1.25,0.95 0.22,0.48 -2.71,1.78 -1.15,0.51 -1.16,0.89 -2.91,2.05 -0.95,0.63 -1.62,1.58 -2.32,2.4 -1.54,1.79 -2.73,3.82 -3.72,6.28 -1.45,3.62 -1.11,19.09 -1.11,24.27 -0,6.24 1.82,10.4 5.39,13.68 0.82,0.75 1.65,1.56 2.44,2.22 1.14,0.95 1.74,0.66 2.67,1.55 2.64,2.51 5.45,2.84 8.53,4.43 6.12,3.17 17.52,4.22 23.97,4.23 9.85,0.01 38.52,-0.76 43.11,2.37l0.7 0.52c1.52,0.9 1.98,0.68 4.18,3.18 2.43,2.76 2.21,2.84 2.21,8.42l0 11.14c0,2.55 -0.08,3.22 -2.52,6.24 -1.46,1.81 -6.22,4.6 -7.57,4.77l-9.96 1.09 -63.08 -0c-12.27,-0 -10.52,-1.37 -10.53,6.22 -0.01,10.21 -1.18,11.51 2.78,11.51l58.93 0c11.97,-0.01 19.35,0.55 31.8,-1.83 1.73,-0.33 0.99,-0.87 3.31,-1.04 3.27,-0.25 6.32,-1.7 9.24,-3.52 2.23,-1.39 3.28,-1.57 5.31,-3.49 2.16,-2.05 4.77,-4.52 6.58,-7.26 0.88,-1.33 0.79,-1.84 1.5,-3.1 1.6,-2.85 1.34,-4.05 1.35,-8.51l-0 -16.89c-0,-4.29 -0.22,-5.52 -1.77,-7.97l-3.86 -5.41c-3.42,-3.63 -13.11,-8.64 -16.69,-9.2 -2.75,-0.43 -4.38,-1.37 -6.38,-1.77 -7.43,-1.46 -18.72,-1.2 -27.07,-1.2 -8.38,0 -26.85,1.15 -32.67,-2.82 -4.66,-3.19 -5.37,-5.72 -5.37,-12.59 0,-4.81 -0.43,-11.41 1.06,-14.66 2.65,-5.8 11.96,-6.33 17.06,-6.33l73.59 -0zm317.17 99.88c6.28,0.76 1.54,-5.21 3.93,-9.57l3.67 -0.01c0.13,0.98 2.75,5.76 3.31,6.56 1.38,1.99 2.18,5.08 5.81,3.2 -0.28,-1.83 -2.04,-2.97 -2.84,-4.47 -0.03,-0.07 -0.08,-0.16 -0.11,-0.22 -0.04,-0.07 -0.08,-0.16 -0.12,-0.22l-1.31 -1.93c-0.6,-0.93 -0.93,-1.12 -0.97,-2.62 2.44,-1.98 6.73,-1.09 5.52,-8.41 -0.66,-3.99 -6.44,-4.26 -9.01,-4.26 -2.2,0 -5.91,-0.55 -7.14,0.62 -1,0.95 -0.79,0.57 -0.78,5.37 0.01,5.28 -0.1,10.72 0.04,15.97zm3.65 -15.25c-0.01,-4.06 -0.1,-3.44 3.12,-3.44l0.55 0c2.6,-0 3.87,-0.05 5.64,1.48 0.35,4.79 -1.83,4.78 -6.47,4.79 -2.47,0.01 -2.83,0.58 -2.85,-2.83zm7.28 19.84c-5.82,1.7 -11.31,-0.76 -15.1,-5.27 -0.46,-0.55 -0.66,-0.63 -1.09,-1.11 -0.9,-1 -2.23,-4.88 -2.2,-6.68 -0.41,-0.64 -0.07,0.24 -0.29,-0.76 -0.78,-3.54 0.58,-6.94 1.84,-9.59 1.43,-3.02 3.46,-4.27 5.8,-5.77 3.17,-2.03 4.26,-2.18 8.56,-2.1 2.09,0.04 4.67,0.76 6.55,1.59 2.35,1.04 4.37,2.93 5.86,5.52 7.23,12.58 -3.07,23.86 -9.93,24.16z"/>
     <path class="fil6" d="M27.75 544.57c0.74,-0.15 -0.26,-0.36 0.38,0.26 1.56,1.52 2.46,4.44 3.41,6.55l10.11 22.85c1.19,2.7 2.55,4.96 3.59,7.51l10.14 22.75c2.7,4.69 4.28,10.29 7.08,14.88 0.73,1.19 1.06,2.53 1.66,3.92 1.57,3.6 4.3,10.04 6.16,13.23 0.35,0.6 0.57,0.91 0.96,1.59 3.21,5.61 2.06,3.01 4.46,6.44 2.05,2.92 6.5,4.67 9.85,5.29 12.5,2.3 28.18,1.67 33.82,-15.17l7.05 -14.81c1.81,-3.65 3.25,-7.77 5.08,-11.37 3.03,-5.97 4.89,-13.3 8.54,-18.72 0.77,-1.15 2.53,-5.78 3.35,-7.51 0.77,-1.61 0.81,-2.26 1.79,-3.77 0.65,-0.99 1.13,-2.59 1.57,-3.74 2.55,-6.52 5.73,-12.75 8.76,-18.75 0.34,-0.68 0.45,-1.19 0.7,-2 0.63,-2.03 1.65,-3.95 2.51,-5.74 0.82,-1.71 0.69,-2.79 2.21,-3.03 0.2,0.39 0.18,0.15 0.34,0.88 0.33,1.53 0.05,91.78 0.04,99.89 -0.01,3.15 -0.44,3.5 2.12,3.5l19.37 0c5.15,0.02 6.05,1.4 6.04,-3.5l0 -103.12c0,-9.15 -2.59,-13.92 -9.14,-17.47 -5.3,-2.87 -21.62,-5.52 -28.54,-2.73 -5.08,2.05 -10.9,4.98 -13.06,8.47l-3.32 6.45c-1.31,4.27 -3.52,7.88 -5.11,11.75 -0.53,1.3 -1.14,2.51 -1.77,3.79l-3.46 7.72c-2.1,4.93 -7.06,15.09 -8.48,19.21 -0.59,1.73 -0.92,2.44 -1.69,3.87 -0.96,1.79 -2.88,5.73 -3.58,7.58 -1.09,2.89 -2.64,5.04 -3.42,7.39 -0.98,2.96 -2.1,5.12 -3.3,8l-6.89 15.47c-0.85,1.67 -2.23,6.05 -3.52,6.87 -0.78,-1.72 -1.34,-3.38 -2.14,-5.12 -0.35,-0.77 -0.79,-1.64 -1.08,-2.56 -1.7,-5.39 -0.65,-1.79 -2.05,-5.28l-3.41 -7.37c-0.39,-0.97 -0.75,-1.57 -1.08,-2.55l-3.08 -7.86c-2.55,-4.1 -4.64,-9.89 -6.72,-14.64 -3.84,-8.8 -14.79,-32.93 -17.17,-40.31 -0.88,-2.72 -2.26,-5.07 -3.19,-7.72l-1.31 -2.15c-1.86,-2.77 -4.04,-5.2 -6.37,-7.12 -2.07,-1.69 -6.38,-3.85 -8.97,-4.09 -2.16,-0.2 -3.36,-0.78 -5.25,-0.83 -7.66,-0.19 -14.45,1.02 -21.46,3.43 -3.19,1.1 -5.5,2.94 -7.54,5.99 -1.88,2.8 -2.75,6.85 -2.74,11.78l-0 103.48c0,2.34 -0.07,2.92 1.86,2.92l23.52 0c2.26,0 2.16,-0.06 2.15,-2.92l0.22 -101.78zm183.97 17.9c-0.32,8.76 -0.03,18.59 -0.03,27.47 0.01,9.1 -0.04,18.21 -0.04,27.31 -0,7.77 -0.35,13.7 6.45,19.22 0.59,0.48 1.08,0.9 1.67,1.4l3.28 2.55c0.67,0.4 1.02,0.61 1.67,1.03l7.15 3.81c1.22,0.27 1.27,0.15 2.38,0.59 0.97,0.39 1.13,0.31 2.19,0.41 1.94,0.17 2.05,0.8 4.34,1.16 3.14,0.49 6.02,1.22 9.48,1.23l41.79 0.02c6.6,-0 14.4,-0.49 20.85,0.1 0.19,7.61 1.01,12.8 -2.77,15.73 -1.57,1.21 -2.91,2.26 -4.88,2.93 -2.13,0.73 -3.42,1.31 -6,1.44 -9.47,0.47 -19.53,0.05 -29.06,0.06 -9.68,0.01 -19.37,0 -29.05,0 -8.98,-0 -20.35,-0.8 -29.04,0.09 -0.33,2.44 -0.96,15.96 0.05,17.53 1.32,1.08 50.01,0.35 56.1,0.35l35.42 -0.01c2.75,-0.05 15.32,-3.32 17.79,-4.15 6.48,-2.2 14.16,-7.74 17.18,-14.26 2.12,-4.58 2.02,-8.86 2.02,-15.65 -0,-13.1 0.42,-89.99 -0.2,-90.82 -1.44,-0.96 -11.01,-0.38 -13.56,-0.38 -15.67,-0.01 -13.51,-2.11 -13.5,8.92 0,2.87 0,5.75 0,8.62 0,7.06 0.28,49.52 -0.13,52.72 -9.82,0.93 -22.2,0.12 -32.3,0.12 -4.96,0 -29.09,0.42 -31.94,-0.28 -3.39,-0.83 -8.87,-3.08 -10.44,-7.15 -1.11,-2.88 0.68,-60.19 -0.6,-61.81 -1.61,-0.88 -22.84,-0.5 -26.31,-0.27z"/>
    </g>
    <path class="fil7" d="M448.29 689.97l-15.49 58.06 -14.63 0 -9.72 -37.24c-0.52,-1.95 -0.82,-4.12 -0.93,-6.52l-0.17 0c-0.25,2.64 -0.6,4.82 -1.06,6.52l-9.97 37.24 -15.24 0 -15.39 -58.06 14.42 0 8.26 38.67c0.35,1.65 0.61,3.86 0.77,6.63l0.25 0c0.11,-2.07 0.5,-4.34 1.18,-6.8l10.63 -38.5 14.13 0 9.61 38.99c0.35,1.44 0.67,3.51 0.93,6.23l0.17 0c0.11,-2.13 0.39,-4.28 0.85,-6.47l8.1 -38.75 13.32 0zm29.95 59.06c-6.97,0 -12.45,-1.93 -16.44,-5.8 -3.99,-3.87 -5.98,-9.13 -5.98,-15.77 0,-6.85 2.06,-12.23 6.21,-16.1 4.14,-3.87 9.75,-5.8 16.79,-5.8 6.94,0 12.4,1.93 16.34,5.8 3.95,3.87 5.93,9 5.93,15.37 0,6.88 -2.04,12.33 -6.11,16.32 -4.07,3.99 -9.65,5.98 -16.73,5.98zm0.33 -33.68c-3.05,0 -5.42,1.04 -7.11,3.11 -1.69,2.09 -2.54,5.03 -2.54,8.83 0,7.96 3.25,11.94 9.73,11.94 6.18,0 9.27,-4.09 9.27,-12.26 0,-7.75 -3.12,-11.62 -9.36,-11.62zm64.28 2.75c-1.56,-0.84 -3.37,-1.26 -5.44,-1.26 -2.8,0 -4.99,1.02 -6.58,3.05 -1.58,2.05 -2.37,4.81 -2.37,8.32l0 19.8 -12.9 0 0 -41.46 12.9 0 0 7.7 0.17 0c2.05,-5.62 5.72,-8.43 11.03,-8.43 1.37,0 2.43,0.17 3.19,0.48l0 11.79zm54.03 29.92l-15.49 0 -13.36 -20.56 -0.17 0 0 20.56 -12.9 0 0 -61.37 12.9 0 0 39.07 0.17 0 12.47 -19.15 15.31 0 -14.99 19.47 16.06 21.99zm24.02 -4.82l-0.17 0 0 4.82 -12.9 0 0 -61.37 12.9 0 0 26.15 0.17 0c3.19,-4.82 7.73,-7.24 13.61,-7.24 5.38,0 9.54,1.84 12.45,5.5 2.91,3.68 4.38,8.69 4.38,15.06 0,6.91 -1.7,12.45 -5.1,16.64 -3.42,4.19 -7.96,6.27 -13.65,6.27 -5.15,0 -9.04,-1.93 -11.69,-5.83zm-0.36 -17.48l0 4.24c0,2.68 0.77,4.89 2.33,6.65 1.55,1.75 3.54,2.63 5.97,2.63 2.93,0 5.21,-1.12 6.83,-3.37 1.62,-2.25 2.44,-5.45 2.44,-9.58 0,-3.43 -0.75,-6.11 -2.23,-8.04 -1.49,-1.92 -3.6,-2.89 -6.36,-2.89 -2.58,0 -4.73,0.95 -6.43,2.87 -1.7,1.91 -2.55,4.41 -2.55,7.49zm82.87 5.22l-27.29 0c0.43,6.01 4.27,9.02 11.48,9.02 4.6,0 8.65,-1.08 12.13,-3.23l0 9.23c-3.86,2.05 -8.88,3.07 -15.07,3.07 -6.75,0 -11.99,-1.85 -15.73,-5.57 -3.72,-3.7 -5.59,-8.89 -5.59,-15.52 0,-6.88 2.01,-12.34 6.05,-16.36 4.03,-4.02 8.98,-6.03 14.86,-6.03 6.09,0 10.82,1.8 14.15,5.38 3.33,3.59 5.01,8.47 5.01,14.62l0 5.39zm-11.96 -7.86c0,-5.93 -2.43,-8.9 -7.28,-8.9 -2.06,0 -3.86,0.84 -5.37,2.54 -1.52,1.7 -2.43,3.83 -2.76,6.36l15.41 0zm66.15 24.94l-12.87 0 0 -23.04c0,-6.43 -2.31,-9.63 -6.94,-9.63 -2.23,0 -4.07,0.84 -5.51,2.54 -1.45,1.7 -2.18,3.87 -2.18,6.48l0 23.65 -12.9 0 0 -41.46 12.9 0 0 6.56 0.17 0c3.08,-5.06 7.56,-7.57 13.44,-7.57 9.26,0 13.89,5.69 13.89,17.08l0 25.39zm48.02 -1.49c-2.91,1.67 -7.13,2.5 -12.62,2.5 -6.43,0 -11.63,-1.92 -15.6,-5.79 -3.97,-3.86 -5.97,-8.83 -5.97,-14.94 0,-7.05 2.13,-12.59 6.39,-16.65 4.27,-4.06 9.97,-6.09 17.11,-6.09 4.92,0 8.49,0.65 10.7,1.93l0 10.86c-2.69,-2 -5.7,-3 -9.02,-3 -3.71,0 -6.64,1.06 -8.81,3.22 -2.16,2.14 -3.25,5.1 -3.25,8.89 0,3.66 1.05,6.55 3.11,8.64 2.06,2.1 4.92,3.14 8.53,3.14 3.22,0 6.36,-0.99 9.44,-3l0 10.3zm54.73 1.49l-12.87 0 0 -23.56c0,-6.08 -2.23,-9.11 -6.71,-9.11 -2.29,0 -4.14,0.84 -5.55,2.54 -1.42,1.7 -2.13,3.87 -2.13,6.48l0 23.65 -12.9 0 0 -61.37 12.9 0 0 26.06 0.17 0c3.17,-4.77 7.45,-7.16 12.87,-7.16 9.48,0 14.22,5.67 14.22,17l0 25.47z"/>
   </g>
  </g>
 </g>
</svg>
