<?xml version="1.0" encoding="UTF-8"?>
<!DOCTYPE svg PUBLIC "-//W3C//DTD SVG 1.1//EN" "http://www.w3.org/Graphics/SVG/1.1/DTD/svg11.dtd">
<!-- Creator: CorelDRAW 2021 (64 Bit) -->
<svg xmlns="http://www.w3.org/2000/svg" xml:space="preserve" width="236.125mm" height="66.213mm" version="1.1" style="shape-rendering:geometricPrecision; text-rendering:geometricPrecision; image-rendering:optimizeQuality; fill-rule:evenodd; clip-rule:evenodd"
viewBox="0 0 3434.88 963.19"
 xmlns:xlink="http://www.w3.org/1999/xlink"
 xmlns:xodm="http://www.corel.com/coreldraw/odm/2003">
 <defs>
  <style type="text/css">
   <![CDATA[
    .fil0 {fill:#FF6C37;fill-rule:nonzero}
    .fil1 {fill:white;fill-rule:nonzero}
   ]]>
  </style>
 </defs>
 <g id="Camada_x0020_1">
  <metadata id="CorelCorpID_0Corel-Layer"/>
  <g id="_2179941509616">
   <g id="g997">
    <path id="path18" class="fil0" d="M862.76 187.23c-91.11,-118.03 -231.98,-187.23 -381.15,-187.23 -265.95,0 -481.61,215.67 -481.61,481.59 0,265.93 215.67,481.6 481.61,481.6 106.54,0 210.2,-35.44 294.45,-100.54 117.95,-91.13 187.16,-231.96 187.16,-381.06 0,-106.46 -35.35,-210.13 -100.43,-294.38l-0.03 0.02z" inkscape:connector-curvature="0"/>
    <path id="path20" class="fil1" d="M644.02 306.83l-203.08 204.68 -57.39 -58.99c199.87,-199.87 219.94,-181.81 260.48,-145.69l-0.01 0z" inkscape:connector-curvature="0"/>
    <path id="path22" class="fil0" d="M440.95 517.14l0 0c-1.78,-0.07 -3.49,-0.78 -4.78,-2.03l-57.8 -57.8c-1.3,-1.34 -2.04,-3.14 -2.04,-5.01 0,-1.86 0.74,-3.67 2.03,-5.01 197.05,-197.06 223.95,-187.83 270.5,-145.69 1.52,1.24 2.41,3.09 2.41,5.04 0,0.06 0,0.14 0,0.2 0.05,0.28 0.06,0.57 0.06,0.87 0,1.67 -0.76,3.29 -2.07,4.35l-203.08 203.08c-1.41,1.29 -3.25,2 -5.15,2 -0.01,0 -0.05,0 -0.06,0l-0.02 0.01zm-42.14 -66.63l47.36 47.36 192.64 -192.64c-8.2,-10.31 -20.68,-16.31 -33.86,-16.31 -8.18,0 -16.21,2.32 -23.12,6.68 -34.91,15.65 -91.11,63.41 -183.01,154.92l-0.01 0z" inkscape:connector-curvature="0"/>
    <path id="path24" class="fil1" d="M499.15 568.11l-55.39 -56.59 203.08 -200.68c54.58,53.38 -26.49,142.48 -147.69,257.26l0 0.01z" inkscape:connector-curvature="0"/>
    <path id="path26" class="fil0" d="M499.15 575.33l0 0c-1.76,-0.16 -3.44,-0.87 -4.79,-2.03l-56.59 -55.39c-0.43,-1.01 -0.64,-2.11 -0.64,-3.21 0,-1.11 0.21,-2.2 0.63,-3.22 -0.32,-0.83 -0.47,-1.71 -0.47,-2.6 0,-0.9 0.15,-1.78 0.46,-2.61l203.08 -203.08c1.43,-1.3 3.3,-2.05 5.25,-2.05 1.93,0 3.81,0.75 5.21,2.07 12.8,11.77 20.1,28.39 20.1,45.79 0,0.64 -0.01,1.34 -0.02,1.97 0,54.18 -61.81,122.41 -166.96,221.94 -1.41,1.36 -3.26,2.21 -5.23,2.38l-0.01 0.02zm-39.74 -66.23l45.35 45.35c80.28,-75.86 156.93,-154.12 157.33,-207.09 0.03,-0.59 0.05,-1.17 0.05,-1.77 0,-10.64 -3.7,-20.93 -10.46,-29.13l-192.27 192.64z" inkscape:connector-curvature="0"/>
    <path id="path28" class="fil1" d="M385.16 453.73l40.14 40.14c0.54,0.43 0.83,1.08 0.83,1.78 0,0.7 -0.29,1.35 -0.82,1.8l-84.68 18.06c-0.55,0.12 -1.11,0.18 -1.67,0.18 -4.43,0 -8.02,-3.6 -8.02,-8.02 0,-2.19 0.89,-4.29 2.47,-5.8l49.37 -48.97c0,0 1.6,0 2.41,0.81l-0.02 0.02z" inkscape:connector-curvature="0"/>
    <path id="path30" class="fil0" d="M338.61 523.55c-5.41,-0.09 -10.43,-2.97 -13.22,-7.65 -1.17,-2.21 -1.78,-4.67 -1.78,-7.16 0,-4.1 1.66,-8.03 4.6,-10.9l48.97 -49.37c1.75,-1.56 4.03,-2.45 6.39,-2.45 2.37,0 4.66,0.89 6.42,2.46l40.14 40.14c1.75,1.66 2.74,3.97 2.74,6.39 0,0.82 -0.12,1.64 -0.33,2.42 -0.93,3.23 -3.55,5.69 -6.82,6.43l-84.68 18.06 -2.44 1.62zm138.86 -87.09l-45.35 45.35c0,0 0,0 0,0 0,0 0,0 0,0l75.05 -16.06 -29.7 -29.29zm3.62 -3.61z" inkscape:connector-curvature="0"/>
    <path id="path32" class="fil1" d="M751.99 194.05c-14.49,-14 -33.88,-21.82 -54.05,-21.82 -42.99,0 -77.86,34.87 -77.86,77.86 0,42.98 34.87,77.86 77.86,77.86 14.09,0 27.92,-3.84 40.02,-11.08l-54.58 -54.58 68.61 -68.25z" inkscape:connector-curvature="0"/>
    <path id="path34" class="fil0" d="M697.81 335.33c-46.52,-0.62 -83.94,-38.54 -83.94,-85.08 0,-22.39 8.84,-43.9 24.56,-59.81 16.07,-15.75 37.69,-24.62 60.21,-24.62 22.51,0 44.13,8.87 60.19,24.63 1.54,1.28 2.44,3.19 2.44,5.21 0,2.01 -0.89,3.92 -2.42,5.21l-65.01 61.41 49.37 48.56c1.32,1.29 2.08,3.08 2.08,4.93 0,0.36 -0.02,0.74 -0.09,1.1 -0.23,2.13 -1.42,4.04 -3.21,5.22 -13.25,8.28 -28.52,12.87 -44.14,13.23l-0.02 0zm44.14 -168.97c-38.84,0.19 -70.26,31.77 -70.26,70.64 0,18.65 7.38,36.54 20.51,49.76 13.19,13.25 31.12,20.71 49.8,20.71 9.65,0 19.22,-2 28.06,-5.86l-47.36 -47.36c-1.49,-1.22 -2.39,-3.07 -2.39,-5.01 0,-0.06 0,-0.13 0,-0.2 0.06,-1.87 0.95,-3.63 2.41,-4.8l62.61 -63.01c-12.45,-9.55 -27.68,-14.78 -43.36,-14.85l-0.02 -0.01z" inkscape:connector-curvature="0"/>
    <path id="path36" class="fil1" d="M753.19 195.25l0 0 -68.63 68.22 54.58 54.58c5.52,-3.13 10.66,-6.91 15.27,-11.22 14.1,-14.89 21.97,-34.64 21.97,-55.15 0,-21.12 -8.34,-41.4 -23.16,-56.42l-0.03 -0.01z" inkscape:connector-curvature="0"/>
    <path id="path38" class="fil0" d="M737.94 324.09c-0.08,0.02 -0.19,0.02 -0.29,0.02 -1.72,0 -3.36,-0.73 -4.5,-2.01l-54.58 -54.58c-1.52,-1.23 -2.42,-3.08 -2.42,-5.02 0,-0.06 0,-0.14 0,-0.2 0.06,-1.9 0.94,-3.65 2.41,-4.83l68.22 -67.03c1.35,-2.01 3.61,-3.23 6.03,-3.23 2.42,0 4.69,1.22 6.02,3.23l0 0c16.17,15.86 25.29,37.56 25.29,60.21 0,22.64 -9.11,44.35 -25.29,60.2 -4.72,4.99 -10.14,9.35 -16.07,12.84 -0.89,0.46 -1.9,0.69 -2.89,0.69 -0.66,0 -1.29,-0.1 -1.91,-0.28l-0.02 -0.01zm-39.33 -62.2l45.35 45.35c3.11,-2.15 6.1,-4.6 8.85,-7.22 13.33,-13.28 20.84,-31.35 20.87,-50.16 0,-0.05 0,-0.07 0,-0.11 0,-16.81 -6.15,-33.05 -17.26,-45.65l-57.81 57.79z" inkscape:connector-curvature="0"/>
    <path id="path40" class="fil1" d="M652.46 315.25l0 0c-5.41,-5.08 -12.6,-7.94 -20.05,-7.94 -7.45,0 -14.64,2.86 -20.07,7.95l-181.81 181.41 30.1 30.5 192.24 -168.56c5.89,-5.61 9.21,-13.38 9.21,-21.49 0,-8.3 -3.47,-16.24 -9.6,-21.86l-0.01 -0.01z" inkscape:connector-curvature="0"/>
    <path id="path42" class="fil0" d="M459.01 534.39c-1.79,-0.06 -3.5,-0.77 -4.79,-2.03l-30.5 -30.5c-1.3,-1.35 -2.03,-3.15 -2.03,-5.02 0,-1.86 0.73,-3.67 2.01,-5.01l181.81 -181.01c6.91,-6.87 16.3,-10.76 26.08,-10.76 9.79,0 19.17,3.89 26.1,10.79l0 0c6.94,6.94 10.86,16.35 10.86,26.16 0,0.38 -0.01,0.77 -0.01,1.14 -0.41,10.13 -4.9,19.69 -12.44,26.48l-192.24 168.56c-1.18,0.81 -2.55,1.25 -3.97,1.25 -0.28,0 -0.57,-0.02 -0.87,-0.07l-0.01 0.02zm-16.46 -38.93l20.06 20.47 188.64 -164.15c4.7,-4.04 7.47,-9.86 7.64,-16.06 0.02,-0.26 0.02,-0.54 0.02,-0.82 0,-5.93 -2.49,-11.61 -6.85,-15.62 -4.18,-4.21 -9.88,-6.55 -15.83,-6.55 -5.94,0 -11.64,2.34 -15.85,6.55l-177.82 176.17z" inkscape:connector-curvature="0"/>
    <path id="path44" class="fil1" d="M289.64 703.36c-0.49,0.68 -0.78,1.52 -0.78,2.39 0,0.87 0.29,1.71 0.81,2.41l8.02 34.91c0.08,0.54 0.12,1.08 0.12,1.63 0,5.54 -4.49,10.03 -10.03,10.03 -2.39,0 -4.73,-0.87 -6.55,-2.44l-54.99 -52.97 171.37 -172.58 59.39 0.02 40.14 40.14c-62.55,54.66 -132.49,100.7 -207.53,136.38l0.02 0.08z" inkscape:connector-curvature="0"/>
    <path id="path46" class="fil0" d="M286.03 762.35c-4.53,-0.09 -8.87,-1.98 -12.04,-5.22l-52.58 -52.58c-1.5,-1.23 -2.4,-3.08 -2.4,-5.02 0,-0.06 0,-0.14 0,-0.2 0.07,-1.87 0.95,-3.64 2.41,-4.8l172.58 -172.98c0.96,-1.04 2.24,-1.76 3.62,-2.04l59.78 0.02c0.78,-0.29 1.6,-0.42 2.42,-0.42 0.82,0 1.64,0.13 2.41,0.4l40.14 40.14c1.32,1.22 2.06,2.93 2.06,4.72 0,0.3 -0.01,0.61 -0.06,0.9 0,0.07 0,0.15 0,0.21 0,1.94 -0.9,3.8 -2.41,5l-3.21 2.81c-62.79,52.29 -132.19,96.84 -205.9,132.02l7.62 32.51c0.33,1.33 0.49,2.69 0.49,4.04 0,9.4 -7.54,17.08 -16.92,17.26l1.98 3.22zm-34.52 -87.49l47.36 47.76c0.45,0.39 1.02,0.6 1.62,0.6 0.58,0 1.16,-0.21 1.6,-0.61 0.3,-0.42 0.46,-0.93 0.46,-1.42 0,-0.5 -0.15,-1.01 -0.46,-1.42l-8.02 -34.91c-0.21,-0.88 -0.34,-1.8 -0.34,-2.72 0,-4.31 2.47,-8.26 6.36,-10.12l0 0c71.74,-34.74 139.33,-78.22 200.65,-129.2l-32.91 -32.91 -53.78 -0.01 -162.54 164.95zm106.35 4.41z" inkscape:connector-curvature="0"/>
    <path id="path48" class="fil1" d="M184.89 740.68l40.14 -40.14 61.81 61.81 -98.34 -6.83c-4.17,-0.33 -7.41,-3.82 -7.41,-8.01 0,-2.8 1.46,-5.39 3.84,-6.84l-0.03 0.01z" inkscape:connector-curvature="0"/>
    <path id="path50" class="fil0" d="M288.04 768.37l0 0 -97.93 -6.83c-7.81,-0.76 -13.81,-7.33 -13.81,-15.2 0,-3.91 1.5,-7.66 4.19,-10.49l0 0 40.14 -40.14c1.35,-1.29 3.15,-2.03 5.01,-2.03 1.87,0 3.68,0.74 5.02,2.03l61.41 61.41c0.84,1.16 1.3,2.58 1.3,4.02 0,1.44 -0.46,2.85 -1.3,4.02 -0.93,1.5 -2.34,2.64 -4.02,3.21l-0.02 0.01zm-93.92 -25.68l80.27 5.21 -44.14 -41.34 -36.13 36.13z" inkscape:connector-curvature="0"/>
    <polygon id="polygon52" class="fil1" points="462.62,531.58 381.54,544.03 428.51,497.47 "/>
    <path id="path54" class="fil0" d="M381.54 551.65c-0.05,-0.02 -0.13,-0.02 -0.19,-0.02 -2.68,0 -5.11,-1.57 -6.22,-4.02 -0.84,-1.15 -1.3,-2.57 -1.3,-4.01 0,-1.44 0.46,-2.85 1.3,-4.02l46.56 -46.95c1.43,-1.32 3.29,-2.07 5.24,-2.07 1.94,0 3.81,0.75 5.21,2.06l34.12 34.12c0.67,1.08 1.03,2.33 1.03,3.61 0,1.28 -0.36,2.54 -1.03,3.61 -0.63,2.74 -2.87,4.81 -5.62,5.24l-80.28 12.44 1.18 0.02zm131.64 -61.41l-26.08 26.08 44.95 -6.83 -18.87 -19.26z" inkscape:connector-curvature="0"/>
    <path id="path56" class="fil1" d="M462.62 531.58l-56.59 7.23c-0.5,0.11 -1.03,0.16 -1.58,0.16 -3.98,0 -7.22,-3.23 -7.22,-7.23 0,-1.86 0.71,-3.65 2,-4.99l29.3 -29.3 34.08 34.13z" inkscape:connector-curvature="0"/>
    <path id="path58" class="fil0" d="M404.42 546.43c-5.32,-0.06 -10.21,-2.97 -12.8,-7.65 -1.22,-2.15 -1.85,-4.58 -1.85,-7.04 0,-3.83 1.52,-7.52 4.23,-10.22l29.3 -29.3c1.42,-1.3 3.28,-2.05 5.22,-2.05 1.94,0 3.81,0.75 5.21,2.07l34.12 34.12c1.43,1.36 2.25,3.23 2.25,5.22 0,3.78 -2.9,6.9 -6.66,7.2l-56.18 7.23 -2.83 0.42zm63.42 -34.91l0 0 42.54 -5.21 -18.87 -18.87 -24.08 24.08 0.41 0z" inkscape:connector-curvature="0"/>
    <path id="path60" class="fil0" d="M753.59 241.41c-1.07,-1.83 -3.02,-2.93 -5.14,-2.93 -0.86,0 -1.69,0.18 -2.46,0.53 -1.86,0.96 -3.04,2.88 -3.04,4.99 0,0.91 0.22,1.83 0.64,2.62 1.1,2.33 1.67,4.86 1.67,7.42 0,3.87 -1.31,7.61 -3.69,10.65 -1.04,0.98 -1.65,2.37 -1.65,3.81 0,1.44 0.61,2.82 1.65,3.81 0.51,0.21 1.07,0.32 1.6,0.32 0.55,0 1.1,-0.1 1.62,-0.3 0.41,0.11 0.84,0.18 1.29,0.18 1.5,0 2.93,-0.66 3.91,-1.78 4.05,-4.94 6.27,-11.14 6.27,-17.52 0,-4.06 -0.9,-8.09 -2.62,-11.78l-0.05 0z" inkscape:connector-curvature="0"/>
   </g>
   <g id="g46">
    <g id="g44">
     <path id="path30-9" class="fil0" d="M2683.79 407.6c-17.25,35.94 -31.63,69.01 -47.44,102.07 -4.31,8.63 -7.19,20.13 -15.81,20.13 -11.5,0 -12.94,-11.5 -17.25,-21.56 -12.94,-28.75 -25.88,-57.51 -38.81,-84.82 -2.88,-4.31 -2.88,-12.94 -8.63,-11.5 -7.19,1.44 -5.75,10.06 -5.75,15.81 0,57.51 0,115.01 0,173.96 0,8.63 0,17.25 -1.44,25.88 -1.44,8.63 -7.19,14.38 -15.81,14.38 -8.63,-1.44 -11.5,-7.19 -12.94,-14.38 0,-5.75 0,-11.5 0,-17.25 0,-84.82 0,-168.21 0,-253.03 0,-11.5 -2.88,-27.31 10.06,-31.63 14.38,-4.31 23,7.19 28.75,20.13 15.81,33.06 28.75,66.14 44.56,97.76 4.31,8.63 5.75,24.44 17.25,25.88 12.94,0 14.38,-17.25 18.69,-25.88 15.81,-31.64 28.75,-63.26 44.56,-94.89 5.75,-12.94 12.94,-25.88 28.75,-23 15.81,4.31 11.5,20.13 11.5,33.06 0,83.39 0,166.77 0,250.16 0,12.94 4.31,33.06 -14.38,33.06 -20.13,0 -15.81,-20.13 -15.81,-34.5 0,-54.64 0,-109.26 0,-165.33 -1.44,-11.5 1.44,-23 -10.06,-34.5l0.01 -0.01z" inkscape:connector-curvature="0"/>
     <path id="path32-1" class="fil0" d="M3300.55 414.78c-8.63,8.63 -5.75,20.13 -5.75,30.19 0,57.51 0,113.57 0,171.08 0,10.06 2.88,25.88 -11.5,25.88 -15.81,1.44 -15.81,-14.38 -15.81,-25.88 0,-87.7 0,-175.4 0,-264.53 0,-10.06 -1.44,-23 10.06,-25.88 12.94,-4.31 20.13,5.75 25.88,17.25 23,51.76 47.45,103.51 70.45,156.71 4.31,11.5 10.06,21.56 14.38,33.06 2.88,5.75 2.88,14.38 11.5,11.5 7.19,-2.88 5.75,-11.5 5.75,-17.25 0,-56.07 0,-112.14 0,-168.21 0,-7.19 0,-12.94 1.44,-20.13 1.44,-10.06 7.19,-14.38 15.81,-14.38 8.63,1.44 11.5,8.63 11.5,17.25 0,21.56 0,43.14 0,64.7 0,67.57 0,133.71 0,201.27 0,11.5 4.31,27.31 -10.06,31.63 -15.81,5.75 -21.56,-10.06 -27.31,-23 -27.31,-58.95 -53.2,-119.32 -80.51,-178.27 -4.31,-8.63 -5.75,-18.69 -15.81,-23l-0.02 0.01z" inkscape:connector-curvature="0"/>
     <path id="path34-7" class="fil0" d="M1668.79 482.36c-1.44,31.63 1.44,61.82 -2.88,93.45 -7.19,44.56 -31.64,66.14 -76.2,66.14 -47.45,0 -74.76,-20.13 -80.51,-64.7 -7.19,-64.7 -8.63,-130.82 0,-195.52 5.75,-41.69 34.5,-61.82 77.64,-61.82 43.14,0 70.45,21.56 77.64,61.82 7.19,34.5 2.88,67.57 4.31,100.64l0 -0.01zm-28.75 0c0,-24.44 1.44,-48.89 0,-73.32 -1.44,-37.39 -21.56,-58.95 -54.64,-57.51 -31.63,0 -50.31,20.13 -51.75,57.51 -1.44,48.89 -1.44,99.2 0,148.08 1.44,37.39 20.13,57.51 51.75,58.95 33.06,0 53.2,-20.13 54.64,-58.95 1.44,-24.44 0,-48.89 0,-74.76z" inkscape:connector-curvature="0"/>
     <path id="path36-4" class="fil0" d="M3089.22 621.82c0,10.06 -1.44,17.25 -10.06,18.69 -7.19,1.44 -12.94,0 -15.81,-8.63 -1.44,-5.75 -4.31,-12.94 -5.75,-18.69 -12.94,-44.56 -12.94,-44.56 -51.75,-44.56 -4.31,0 -8.63,0 -12.94,0 -48.89,0 -48.89,0 -66.14,51.75 -2.88,10.06 -4.31,24.44 -18.69,20.13 -14.38,-5.75 -10.06,-20.13 -7.19,-31.63 23,-86.26 46.01,-173.96 70.45,-260.22 4.31,-12.94 5.75,-31.63 24.44,-30.19 15.81,1.44 18.69,17.25 21.56,30.19 21.56,81.95 44.56,163.9 66.14,247.28 2.88,8.63 4.31,17.25 5.75,25.88zm-96.33 -80.51c4.31,0 10.06,0 14.38,0 31.63,0 33.06,-1.44 23,-37.39 -8.63,-34.5 -17.25,-69.01 -27.31,-102.07 -1.44,-7.19 0,-17.25 -8.63,-17.25 -8.63,0 -10.06,10.06 -11.5,18.69 -7.19,28.75 -14.38,57.51 -23,86.26 -14.38,51.76 -12.94,51.76 33.06,51.76z" inkscape:connector-curvature="0"/>
     <path id="path38-1" class="fil0" d="M1162.73 482.36c0,-44.56 0,-89.14 0,-133.71 0,-21.56 7.19,-28.75 24.44,-28.75 15.81,0 33.06,0 48.89,0 66.14,1.44 90.57,31.64 89.14,107.82 -1.44,51.75 -27.31,81.95 -71.89,84.82 -12.94,0 -24.44,1.44 -37.39,0 -20.13,-1.44 -27.31,8.63 -25.88,30.19 1.44,25.88 0,51.76 0,76.2 0,10.06 -1.44,21.56 -14.38,21.56 -12.94,0 -12.94,-11.5 -12.94,-23 0,-44.56 0,-90.57 0,-135.15l0.01 0.01zm67.57 4.31c41.7,0 57.51,-10.06 64.7,-40.26 7.19,-30.19 7.19,-58.95 -14.38,-81.95 -23,-23 -53.2,-12.94 -80.51,-11.5 -10.06,0 -10.06,12.94 -10.06,23 0,21.56 0,43.14 0,64.7 0,46.01 0,46.01 40.25,46.01z" inkscape:connector-curvature="0"/>
     <path id="path40-0" class="fil0" d="M1924.7 644.82c-30.19,0 -54.64,-5.75 -73.32,-28.75 -5.75,-7.19 -12.94,-17.25 -4.31,-27.31 7.19,-8.63 15.81,-2.88 21.56,4.31 17.25,18.69 35.94,24.44 58.95,23 21.56,-1.44 37.39,-11.5 46,-35.94 8.63,-24.44 2.88,-47.45 -12.94,-64.7 -15.81,-17.25 -35.95,-24.44 -56.07,-34.5 -28.75,-12.94 -50.31,-31.64 -53.2,-70.45 -4.31,-51.76 18.69,-80.51 69.01,-90.57 21.56,-4.31 41.7,1.44 60.39,8.63 10.06,2.88 18.69,11.5 14.38,24.44 -4.31,14.38 -14.38,8.63 -23,4.31 -18.69,-10.06 -38.81,-10.06 -57.51,-7.19 -15.81,2.88 -30.19,12.94 -33.06,33.06 -2.88,20.13 0,37.39 14.38,50.32 18.69,15.81 40.26,21.56 60.39,31.63 31.63,15.81 48.89,43.14 48.89,83.39 0,37.38 -8.63,66.14 -40.25,84.82 -14.38,10.06 -30.19,8.63 -40.26,11.5l-0.03 0z" inkscape:connector-curvature="0"/>
     <path id="path42-6" class="fil0" d="M2239.55 493.86c0,-37.38 -1.44,-73.32 0,-110.7 1.44,-27.31 -8.63,-35.94 -30.19,-33.06 -8.63,1.44 -18.69,0 -27.31,0 -8.63,0 -14.38,-4.31 -14.38,-15.81 0,-8.63 5.75,-14.38 12.94,-14.38 48.89,0 97.76,0 146.65,0 7.19,0 12.94,4.31 12.94,12.94 0,10.06 -5.75,15.81 -14.38,15.81 -10.06,0 -21.56,1.44 -31.64,0 -20.13,-1.44 -25.88,8.63 -25.88,30.19 0,70.45 0,142.33 0,212.77 0,7.19 0,15.81 0,23 0,11.5 -1.44,24.44 -14.38,24.44 -14.38,0 -14.38,-12.94 -14.38,-24.44 0,-34.5 0,-67.57 0,-102.07 0,-5.75 0,-11.5 0,-18.69l0.02 0z" inkscape:connector-curvature="0"/>
    </g>
   </g>
  </g>
 </g>
</svg>
